G75*
%MOIN*%
%OFA0B0*%
%FSLAX25Y25*%
%IPPOS*%
%LPD*%
%AMOC8*
5,1,8,0,0,1.08239X$1,22.5*
%
%ADD10C,0.06706*%
%ADD11C,0.06000*%
%ADD12C,0.06800*%
%ADD13C,0.06400*%
D10*
X0246000Y0141000D03*
X0246000Y0151000D03*
X0246000Y0161000D03*
X0246000Y0171000D03*
X0246000Y0181000D03*
X0276000Y0181000D03*
X0276000Y0171000D03*
X0276000Y0161000D03*
X0276000Y0151000D03*
X0276000Y0141000D03*
D11*
X0146000Y0091000D03*
X0136000Y0091000D03*
D12*
X0036200Y0047100D02*
X0030200Y0047100D01*
X0030200Y0064900D02*
X0036200Y0064900D01*
X0055800Y0064900D02*
X0061800Y0064900D01*
X0061800Y0047100D02*
X0055800Y0047100D01*
D13*
X0053800Y0091000D02*
X0048200Y0091000D01*
X0048200Y0101000D02*
X0053800Y0101000D01*
X0073200Y0131000D02*
X0078800Y0131000D01*
X0078800Y0141000D02*
X0073200Y0141000D01*
X0073200Y0151000D02*
X0078800Y0151000D01*
X0078800Y0161000D02*
X0073200Y0161000D01*
X0073200Y0171000D02*
X0078800Y0171000D01*
X0078800Y0181000D02*
X0073200Y0181000D01*
X0073200Y0191000D02*
X0078800Y0191000D01*
X0078800Y0201000D02*
X0073200Y0201000D01*
M02*
