G75*
%MOIN*%
%OFA0B0*%
%FSLAX25Y25*%
%IPPOS*%
%LPD*%
%AMOC8*
5,1,8,0,0,1.08239X$1,22.5*
%
%ADD10R,0.07874X0.05906*%
%ADD11R,0.16929X0.09843*%
%ADD12R,0.09843X0.16929*%
%ADD13R,0.05906X0.01969*%
%ADD14R,0.01969X0.05906*%
%ADD15R,0.08000X0.02600*%
%ADD16C,0.05200*%
%ADD17R,0.06299X0.07874*%
%ADD18C,0.06000*%
%ADD19C,0.05600*%
%ADD20OC8,0.06000*%
%ADD21C,0.01600*%
%ADD22C,0.01000*%
D10*
X0126000Y0050094D03*
X0126000Y0061906D03*
X0146000Y0061906D03*
X0146000Y0050094D03*
X0186000Y0140094D03*
X0186000Y0151906D03*
D11*
X0199661Y0131000D03*
X0232339Y0131000D03*
X0082339Y0126000D03*
X0049661Y0126000D03*
D12*
X0156000Y0224661D03*
X0156000Y0257339D03*
X0271000Y0157339D03*
X0271000Y0124661D03*
X0321000Y0124661D03*
X0321000Y0157339D03*
D13*
X0168835Y0151748D03*
X0168835Y0148598D03*
X0168835Y0145449D03*
X0168835Y0142299D03*
X0168835Y0139150D03*
X0168835Y0136000D03*
X0168835Y0132850D03*
X0168835Y0129701D03*
X0168835Y0126551D03*
X0168835Y0123402D03*
X0168835Y0120252D03*
X0123165Y0120252D03*
X0123165Y0123402D03*
X0123165Y0126551D03*
X0123165Y0129701D03*
X0123165Y0132850D03*
X0123165Y0136000D03*
X0123165Y0139150D03*
X0123165Y0142299D03*
X0123165Y0145449D03*
X0123165Y0148598D03*
X0123165Y0151748D03*
D14*
X0130252Y0158835D03*
X0133402Y0158835D03*
X0136551Y0158835D03*
X0139701Y0158835D03*
X0142850Y0158835D03*
X0146000Y0158835D03*
X0149150Y0158835D03*
X0152299Y0158835D03*
X0155449Y0158835D03*
X0158598Y0158835D03*
X0161748Y0158835D03*
X0161748Y0113165D03*
X0158598Y0113165D03*
X0155449Y0113165D03*
X0152299Y0113165D03*
X0149150Y0113165D03*
X0146000Y0113165D03*
X0142850Y0113165D03*
X0139701Y0113165D03*
X0136551Y0113165D03*
X0133402Y0113165D03*
X0130252Y0113165D03*
D15*
X0191700Y0168500D03*
X0191700Y0173500D03*
X0191700Y0178500D03*
X0191700Y0183500D03*
X0191700Y0188500D03*
X0191700Y0193500D03*
X0191700Y0198500D03*
X0191700Y0203500D03*
X0230300Y0203500D03*
X0230300Y0198500D03*
X0230300Y0193500D03*
X0230300Y0188500D03*
X0230300Y0183500D03*
X0230300Y0178500D03*
X0230300Y0173500D03*
X0230300Y0168500D03*
D16*
X0141000Y0081000D03*
X0131000Y0081000D03*
D17*
X0106512Y0211000D03*
X0095488Y0211000D03*
D18*
X0074900Y0201800D02*
X0074900Y0195800D01*
X0057100Y0195800D02*
X0057100Y0201800D01*
X0057100Y0176200D02*
X0057100Y0170200D01*
X0074900Y0170200D02*
X0074900Y0176200D01*
D19*
X0206000Y0253200D02*
X0206000Y0258800D01*
X0216000Y0258800D02*
X0216000Y0253200D01*
X0221000Y0053800D02*
X0221000Y0048200D01*
X0231000Y0048200D02*
X0231000Y0053800D01*
X0241000Y0053800D02*
X0241000Y0048200D01*
X0251000Y0048200D02*
X0251000Y0053800D01*
X0261000Y0053800D02*
X0261000Y0048200D01*
X0271000Y0048200D02*
X0271000Y0053800D01*
X0281000Y0053800D02*
X0281000Y0048200D01*
X0291000Y0048200D02*
X0291000Y0053800D01*
D20*
X0285400Y0214400D03*
X0296600Y0219800D03*
X0285400Y0225200D03*
X0296600Y0230600D03*
X0285400Y0236000D03*
X0296600Y0241400D03*
X0285400Y0246800D03*
X0296600Y0252200D03*
X0285400Y0257600D03*
D21*
X0356000Y0031000D02*
X0031000Y0031000D01*
X0031000Y0301000D01*
X0356000Y0301000D01*
X0356000Y0031000D01*
X0356000Y0031372D02*
X0031000Y0031372D01*
X0031000Y0032970D02*
X0356000Y0032970D01*
X0356000Y0034569D02*
X0031000Y0034569D01*
X0031000Y0036167D02*
X0356000Y0036167D01*
X0356000Y0037766D02*
X0031000Y0037766D01*
X0031000Y0039364D02*
X0356000Y0039364D01*
X0356000Y0040963D02*
X0031000Y0040963D01*
X0031000Y0042561D02*
X0356000Y0042561D01*
X0356000Y0044160D02*
X0292744Y0044160D01*
X0293492Y0044470D02*
X0291875Y0043800D01*
X0290125Y0043800D01*
X0288508Y0044470D01*
X0287270Y0045708D01*
X0286600Y0047325D01*
X0286600Y0054675D01*
X0287270Y0056292D01*
X0288508Y0057530D01*
X0288600Y0057568D01*
X0288600Y0075006D01*
X0275006Y0088600D01*
X0195523Y0088600D01*
X0194641Y0088965D01*
X0193965Y0089641D01*
X0188965Y0094641D01*
X0188600Y0095523D01*
X0188600Y0110006D01*
X0183400Y0115206D01*
X0183400Y0096994D01*
X0191994Y0088400D01*
X0266477Y0088400D01*
X0267359Y0088035D01*
X0282359Y0073035D01*
X0283035Y0072359D01*
X0283400Y0071477D01*
X0283400Y0057568D01*
X0283492Y0057530D01*
X0284730Y0056292D01*
X0285400Y0054675D01*
X0285400Y0047325D01*
X0284730Y0045708D01*
X0283492Y0044470D01*
X0281875Y0043800D01*
X0280125Y0043800D01*
X0278508Y0044470D01*
X0277270Y0045708D01*
X0276600Y0047325D01*
X0276600Y0054675D01*
X0277270Y0056292D01*
X0278508Y0057530D01*
X0278600Y0057568D01*
X0278600Y0070006D01*
X0265006Y0083600D01*
X0191794Y0083600D01*
X0191994Y0083400D01*
X0251477Y0083400D01*
X0252359Y0083035D01*
X0253035Y0082359D01*
X0253035Y0082359D01*
X0272359Y0063035D01*
X0272359Y0063035D01*
X0273035Y0062359D01*
X0273400Y0061477D01*
X0273400Y0057568D01*
X0273492Y0057530D01*
X0274730Y0056292D01*
X0275400Y0054675D01*
X0275400Y0047325D01*
X0274730Y0045708D01*
X0273492Y0044470D01*
X0271875Y0043800D01*
X0270125Y0043800D01*
X0268508Y0044470D01*
X0267270Y0045708D01*
X0266600Y0047325D01*
X0266600Y0054675D01*
X0267270Y0056292D01*
X0268508Y0057530D01*
X0268600Y0057568D01*
X0268600Y0060006D01*
X0250006Y0078600D01*
X0190523Y0078600D01*
X0189641Y0078965D01*
X0169641Y0098965D01*
X0169641Y0098965D01*
X0168965Y0099641D01*
X0168600Y0100523D01*
X0168600Y0117092D01*
X0168025Y0117668D01*
X0165219Y0117668D01*
X0164282Y0118605D01*
X0164282Y0137337D01*
X0164205Y0137471D01*
X0164082Y0137928D01*
X0164082Y0139150D01*
X0168835Y0139150D01*
X0173587Y0139150D01*
X0173587Y0140371D01*
X0173465Y0140829D01*
X0173387Y0140963D01*
X0173387Y0153395D01*
X0172450Y0154332D01*
X0165219Y0154332D01*
X0164282Y0153395D01*
X0164282Y0140963D01*
X0164205Y0140829D01*
X0164082Y0140371D01*
X0164082Y0139150D01*
X0168835Y0139150D01*
X0168835Y0139150D01*
X0173587Y0139150D01*
X0173587Y0137928D01*
X0173465Y0137471D01*
X0173387Y0137337D01*
X0173387Y0128951D01*
X0175926Y0128951D01*
X0176808Y0128586D01*
X0192359Y0113035D01*
X0193035Y0112359D01*
X0193400Y0111477D01*
X0193400Y0096994D01*
X0196994Y0093400D01*
X0276477Y0093400D01*
X0277359Y0093035D01*
X0292359Y0078035D01*
X0293035Y0077359D01*
X0293400Y0076477D01*
X0293400Y0057568D01*
X0293492Y0057530D01*
X0294730Y0056292D01*
X0295400Y0054675D01*
X0295400Y0047325D01*
X0294730Y0045708D01*
X0293492Y0044470D01*
X0294751Y0045758D02*
X0356000Y0045758D01*
X0356000Y0047357D02*
X0295400Y0047357D01*
X0295400Y0048955D02*
X0356000Y0048955D01*
X0356000Y0050554D02*
X0295400Y0050554D01*
X0295400Y0052152D02*
X0356000Y0052152D01*
X0356000Y0053751D02*
X0295400Y0053751D01*
X0295121Y0055349D02*
X0356000Y0055349D01*
X0356000Y0056948D02*
X0294075Y0056948D01*
X0293400Y0058546D02*
X0356000Y0058546D01*
X0356000Y0060145D02*
X0293400Y0060145D01*
X0293400Y0061743D02*
X0356000Y0061743D01*
X0356000Y0063342D02*
X0293400Y0063342D01*
X0293400Y0064940D02*
X0356000Y0064940D01*
X0356000Y0066539D02*
X0293400Y0066539D01*
X0293400Y0068137D02*
X0356000Y0068137D01*
X0356000Y0069736D02*
X0293400Y0069736D01*
X0293400Y0071334D02*
X0356000Y0071334D01*
X0356000Y0072933D02*
X0293400Y0072933D01*
X0293400Y0074532D02*
X0356000Y0074532D01*
X0356000Y0076130D02*
X0293400Y0076130D01*
X0292666Y0077729D02*
X0356000Y0077729D01*
X0356000Y0079327D02*
X0291067Y0079327D01*
X0289469Y0080926D02*
X0356000Y0080926D01*
X0356000Y0082524D02*
X0287870Y0082524D01*
X0286272Y0084123D02*
X0356000Y0084123D01*
X0356000Y0085721D02*
X0284673Y0085721D01*
X0283074Y0087320D02*
X0356000Y0087320D01*
X0356000Y0088918D02*
X0281476Y0088918D01*
X0279877Y0090517D02*
X0356000Y0090517D01*
X0356000Y0092115D02*
X0278279Y0092115D01*
X0276000Y0091000D02*
X0291000Y0076000D01*
X0291000Y0051000D01*
X0286600Y0050554D02*
X0285400Y0050554D01*
X0285400Y0052152D02*
X0286600Y0052152D01*
X0286600Y0053751D02*
X0285400Y0053751D01*
X0285121Y0055349D02*
X0286879Y0055349D01*
X0287925Y0056948D02*
X0284075Y0056948D01*
X0283400Y0058546D02*
X0288600Y0058546D01*
X0288600Y0060145D02*
X0283400Y0060145D01*
X0283400Y0061743D02*
X0288600Y0061743D01*
X0288600Y0063342D02*
X0283400Y0063342D01*
X0283400Y0064940D02*
X0288600Y0064940D01*
X0288600Y0066539D02*
X0283400Y0066539D01*
X0283400Y0068137D02*
X0288600Y0068137D01*
X0288600Y0069736D02*
X0283400Y0069736D01*
X0283400Y0071334D02*
X0288600Y0071334D01*
X0288600Y0072933D02*
X0282461Y0072933D01*
X0280863Y0074532D02*
X0288600Y0074532D01*
X0287476Y0076130D02*
X0279264Y0076130D01*
X0277666Y0077729D02*
X0285877Y0077729D01*
X0284279Y0079327D02*
X0276067Y0079327D01*
X0274469Y0080926D02*
X0282680Y0080926D01*
X0281082Y0082524D02*
X0272870Y0082524D01*
X0271272Y0084123D02*
X0279483Y0084123D01*
X0277885Y0085721D02*
X0269673Y0085721D01*
X0268074Y0087320D02*
X0276286Y0087320D01*
X0276000Y0091000D02*
X0196000Y0091000D01*
X0191000Y0096000D01*
X0191000Y0111000D01*
X0175449Y0126551D01*
X0168835Y0126551D01*
X0168835Y0123402D02*
X0173598Y0123402D01*
X0181000Y0116000D01*
X0181000Y0096000D01*
X0191000Y0086000D01*
X0266000Y0086000D01*
X0281000Y0071000D01*
X0281000Y0056000D01*
X0277925Y0056948D02*
X0274075Y0056948D01*
X0273400Y0058546D02*
X0278600Y0058546D01*
X0278600Y0060145D02*
X0273400Y0060145D01*
X0273290Y0061743D02*
X0278600Y0061743D01*
X0278600Y0063342D02*
X0272052Y0063342D01*
X0270454Y0064940D02*
X0278600Y0064940D01*
X0278600Y0066539D02*
X0268855Y0066539D01*
X0267257Y0068137D02*
X0278600Y0068137D01*
X0278600Y0069736D02*
X0265658Y0069736D01*
X0264060Y0071334D02*
X0277271Y0071334D01*
X0275673Y0072933D02*
X0262461Y0072933D01*
X0260863Y0074532D02*
X0274074Y0074532D01*
X0272476Y0076130D02*
X0259264Y0076130D01*
X0257666Y0077729D02*
X0270877Y0077729D01*
X0269279Y0079327D02*
X0256067Y0079327D01*
X0254469Y0080926D02*
X0267680Y0080926D01*
X0266082Y0082524D02*
X0252870Y0082524D01*
X0251000Y0081000D02*
X0191000Y0081000D01*
X0171000Y0101000D01*
X0171000Y0118087D01*
X0168835Y0120252D01*
X0168600Y0116093D02*
X0164332Y0116093D01*
X0164332Y0116781D02*
X0163395Y0117718D01*
X0147813Y0117718D01*
X0147679Y0117795D01*
X0147221Y0117918D01*
X0146000Y0117918D01*
X0146000Y0113165D01*
X0146000Y0108413D01*
X0146750Y0108413D01*
X0146750Y0082373D01*
X0147115Y0081491D01*
X0178965Y0049641D01*
X0179641Y0048965D01*
X0180523Y0048600D01*
X0216600Y0048600D01*
X0216600Y0047325D01*
X0217270Y0045708D01*
X0218508Y0044470D01*
X0220125Y0043800D01*
X0221875Y0043800D01*
X0223492Y0044470D01*
X0224730Y0045708D01*
X0225400Y0047325D01*
X0225400Y0054675D01*
X0224730Y0056292D01*
X0223492Y0057530D01*
X0221875Y0058200D01*
X0220125Y0058200D01*
X0218508Y0057530D01*
X0217270Y0056292D01*
X0216600Y0054675D01*
X0216600Y0053400D01*
X0181994Y0053400D01*
X0151550Y0083845D01*
X0151550Y0087056D01*
X0178965Y0059641D01*
X0179641Y0058965D01*
X0180523Y0058600D01*
X0225006Y0058600D01*
X0227292Y0056314D01*
X0227270Y0056292D01*
X0226600Y0054675D01*
X0226600Y0047325D01*
X0227270Y0045708D01*
X0228508Y0044470D01*
X0230125Y0043800D01*
X0231875Y0043800D01*
X0233492Y0044470D01*
X0234730Y0045708D01*
X0235400Y0047325D01*
X0235400Y0054675D01*
X0234730Y0056292D01*
X0233492Y0057530D01*
X0232420Y0057974D01*
X0232359Y0058035D01*
X0227359Y0063035D01*
X0226477Y0063400D01*
X0181994Y0063400D01*
X0154699Y0090695D01*
X0154699Y0093907D01*
X0183965Y0064641D01*
X0184641Y0063965D01*
X0185523Y0063600D01*
X0230006Y0063600D01*
X0237292Y0056314D01*
X0237270Y0056292D01*
X0236600Y0054675D01*
X0236600Y0047325D01*
X0237270Y0045708D01*
X0238508Y0044470D01*
X0240125Y0043800D01*
X0241875Y0043800D01*
X0243492Y0044470D01*
X0244730Y0045708D01*
X0245400Y0047325D01*
X0245400Y0054675D01*
X0244730Y0056292D01*
X0243492Y0057530D01*
X0242420Y0057974D01*
X0242359Y0058035D01*
X0232359Y0068035D01*
X0231477Y0068400D01*
X0186994Y0068400D01*
X0186794Y0068600D01*
X0240006Y0068600D01*
X0248600Y0060006D01*
X0248600Y0057568D01*
X0248508Y0057530D01*
X0247270Y0056292D01*
X0246600Y0054675D01*
X0246600Y0047325D01*
X0247270Y0045708D01*
X0248508Y0044470D01*
X0250125Y0043800D01*
X0251875Y0043800D01*
X0253492Y0044470D01*
X0254730Y0045708D01*
X0255400Y0047325D01*
X0255400Y0054675D01*
X0254730Y0056292D01*
X0253492Y0057530D01*
X0253400Y0057568D01*
X0253400Y0061477D01*
X0253035Y0062359D01*
X0252359Y0063035D01*
X0242359Y0073035D01*
X0241477Y0073400D01*
X0186994Y0073400D01*
X0186794Y0073600D01*
X0245006Y0073600D01*
X0258600Y0060006D01*
X0258600Y0057568D01*
X0258508Y0057530D01*
X0257270Y0056292D01*
X0256600Y0054675D01*
X0256600Y0047325D01*
X0257270Y0045708D01*
X0258508Y0044470D01*
X0260125Y0043800D01*
X0261875Y0043800D01*
X0263492Y0044470D01*
X0264730Y0045708D01*
X0265400Y0047325D01*
X0265400Y0054675D01*
X0264730Y0056292D01*
X0263492Y0057530D01*
X0263400Y0057568D01*
X0263400Y0061477D01*
X0263035Y0062359D01*
X0262359Y0063035D01*
X0247359Y0078035D01*
X0246477Y0078400D01*
X0186994Y0078400D01*
X0164148Y0101246D01*
X0164148Y0109366D01*
X0164332Y0109550D01*
X0164332Y0116781D01*
X0165196Y0117691D02*
X0163422Y0117691D01*
X0164282Y0119290D02*
X0131260Y0119290D01*
X0129688Y0117718D02*
X0149470Y0137500D01*
X0150700Y0138730D01*
X0150700Y0154282D01*
X0163395Y0154282D01*
X0164332Y0155219D01*
X0164332Y0162450D01*
X0163395Y0163387D01*
X0151781Y0163387D01*
X0154494Y0166100D01*
X0186537Y0166100D01*
X0187037Y0165600D01*
X0187206Y0165600D01*
X0183965Y0162359D01*
X0183600Y0161477D01*
X0183600Y0156458D01*
X0181400Y0156458D01*
X0180463Y0155521D01*
X0180463Y0148290D01*
X0181400Y0147353D01*
X0190600Y0147353D01*
X0191537Y0148290D01*
X0191537Y0155521D01*
X0190600Y0156458D01*
X0188400Y0156458D01*
X0188400Y0160006D01*
X0192600Y0164206D01*
X0192841Y0163965D01*
X0193723Y0163600D01*
X0206477Y0163600D01*
X0207359Y0163965D01*
X0208035Y0164641D01*
X0217359Y0173965D01*
X0218035Y0174641D01*
X0218400Y0175523D01*
X0218400Y0249432D01*
X0218492Y0249470D01*
X0219730Y0250708D01*
X0220300Y0252083D01*
X0220300Y0178330D01*
X0221530Y0177100D01*
X0224700Y0173930D01*
X0224700Y0171537D01*
X0225237Y0171000D01*
X0224700Y0170463D01*
X0224700Y0166537D01*
X0225637Y0165600D01*
X0228600Y0165600D01*
X0228600Y0156994D01*
X0225006Y0153400D01*
X0205523Y0153400D01*
X0204641Y0153035D01*
X0203965Y0152359D01*
X0197627Y0146021D01*
X0197261Y0145139D01*
X0197261Y0137521D01*
X0191737Y0137521D01*
X0191737Y0139418D01*
X0186676Y0139418D01*
X0186676Y0135342D01*
X0189597Y0135342D01*
X0189597Y0125416D01*
X0190534Y0124479D01*
X0208789Y0124479D01*
X0209726Y0125416D01*
X0209726Y0136584D01*
X0208789Y0137521D01*
X0202061Y0137521D01*
X0202061Y0143667D01*
X0206994Y0148600D01*
X0226477Y0148600D01*
X0227359Y0148965D01*
X0232359Y0153965D01*
X0233035Y0154641D01*
X0233400Y0155523D01*
X0233400Y0165600D01*
X0234963Y0165600D01*
X0235900Y0166537D01*
X0235900Y0170463D01*
X0235363Y0171000D01*
X0235900Y0171537D01*
X0235900Y0172706D01*
X0238600Y0170006D01*
X0238600Y0146994D01*
X0229641Y0138035D01*
X0229127Y0137521D01*
X0223211Y0137521D01*
X0222274Y0136584D01*
X0222274Y0125416D01*
X0223211Y0124479D01*
X0241466Y0124479D01*
X0242403Y0125416D01*
X0242403Y0136584D01*
X0241466Y0137521D01*
X0235915Y0137521D01*
X0243035Y0144641D01*
X0243400Y0145523D01*
X0243400Y0169630D01*
X0262600Y0150430D01*
X0262600Y0130630D01*
X0264479Y0128751D01*
X0264479Y0115534D01*
X0265416Y0114597D01*
X0276584Y0114597D01*
X0277521Y0115534D01*
X0277521Y0133789D01*
X0276584Y0134726D01*
X0266800Y0134726D01*
X0266800Y0147274D01*
X0276584Y0147274D01*
X0277521Y0148211D01*
X0277521Y0166466D01*
X0276584Y0167403D01*
X0265416Y0167403D01*
X0264791Y0166778D01*
X0241270Y0190300D01*
X0235900Y0190300D01*
X0235900Y0190463D01*
X0235763Y0190600D01*
X0268330Y0190600D01*
X0302200Y0156730D01*
X0303430Y0155500D01*
X0314479Y0155500D01*
X0314479Y0148211D01*
X0315416Y0147274D01*
X0326584Y0147274D01*
X0327521Y0148211D01*
X0327521Y0166466D01*
X0326584Y0167403D01*
X0315416Y0167403D01*
X0314479Y0166466D01*
X0314479Y0159700D01*
X0305170Y0159700D01*
X0289454Y0175416D01*
X0289512Y0175400D01*
X0292488Y0175400D01*
X0295362Y0176170D01*
X0297938Y0177658D01*
X0300042Y0179762D01*
X0301530Y0182338D01*
X0302300Y0185212D01*
X0302300Y0188188D01*
X0301530Y0191062D01*
X0300042Y0193638D01*
X0297938Y0195742D01*
X0295362Y0197230D01*
X0292488Y0198000D01*
X0289512Y0198000D01*
X0286638Y0197230D01*
X0284062Y0195742D01*
X0281958Y0193638D01*
X0280470Y0191062D01*
X0279700Y0188188D01*
X0279700Y0185212D01*
X0279716Y0185154D01*
X0270070Y0194800D01*
X0235900Y0194800D01*
X0235900Y0195463D01*
X0235363Y0196000D01*
X0235900Y0196537D01*
X0235900Y0196900D01*
X0253870Y0196900D01*
X0280800Y0223830D01*
X0280800Y0223295D01*
X0283495Y0220600D01*
X0287305Y0220600D01*
X0290000Y0223295D01*
X0290000Y0227105D01*
X0287805Y0229300D01*
X0288070Y0229300D01*
X0295570Y0236800D01*
X0298505Y0236800D01*
X0301200Y0239495D01*
X0301200Y0243305D01*
X0298505Y0246000D01*
X0294695Y0246000D01*
X0292000Y0243305D01*
X0292000Y0239495D01*
X0292162Y0239332D01*
X0290000Y0237170D01*
X0290000Y0237905D01*
X0287805Y0240100D01*
X0288070Y0240100D01*
X0295570Y0247600D01*
X0298505Y0247600D01*
X0301200Y0250295D01*
X0301200Y0254105D01*
X0298505Y0256800D01*
X0294695Y0256800D01*
X0292000Y0254105D01*
X0292000Y0250295D01*
X0292162Y0250132D01*
X0290000Y0247970D01*
X0290000Y0248705D01*
X0287305Y0251400D01*
X0284570Y0251400D01*
X0266470Y0269500D01*
X0149530Y0269500D01*
X0148300Y0268270D01*
X0147400Y0267370D01*
X0147400Y0247630D01*
X0148630Y0246400D01*
X0150430Y0244600D01*
X0154930Y0244600D01*
X0193130Y0206400D01*
X0187037Y0206400D01*
X0186237Y0205600D01*
X0110727Y0205600D01*
X0110767Y0205623D01*
X0111102Y0205958D01*
X0111339Y0206368D01*
X0111461Y0206826D01*
X0111461Y0210225D01*
X0107287Y0210225D01*
X0107287Y0211775D01*
X0111461Y0211775D01*
X0111461Y0215174D01*
X0111339Y0215632D01*
X0111102Y0216042D01*
X0110767Y0216377D01*
X0110356Y0216614D01*
X0109898Y0216737D01*
X0107287Y0216737D01*
X0107287Y0211775D01*
X0105737Y0211775D01*
X0105737Y0216737D01*
X0103125Y0216737D01*
X0102667Y0216614D01*
X0102533Y0216537D01*
X0099970Y0219100D01*
X0082930Y0219100D01*
X0081700Y0217870D01*
X0068200Y0204370D01*
X0068200Y0124870D01*
X0065770Y0127300D01*
X0059726Y0127300D01*
X0059726Y0131584D01*
X0058789Y0132521D01*
X0052061Y0132521D01*
X0052061Y0153667D01*
X0057359Y0158965D01*
X0058035Y0159641D01*
X0058400Y0160523D01*
X0058400Y0165759D01*
X0059706Y0166300D01*
X0061000Y0167594D01*
X0061700Y0169285D01*
X0061700Y0177115D01*
X0061000Y0178806D01*
X0059706Y0180100D01*
X0059500Y0180185D01*
X0059500Y0191815D01*
X0059706Y0191900D01*
X0061000Y0193194D01*
X0061700Y0194885D01*
X0061700Y0202715D01*
X0061000Y0204406D01*
X0059706Y0205700D01*
X0058015Y0206400D01*
X0056185Y0206400D01*
X0054494Y0205700D01*
X0053200Y0204406D01*
X0052500Y0202715D01*
X0052500Y0194885D01*
X0053200Y0193194D01*
X0054494Y0191900D01*
X0054700Y0191815D01*
X0054700Y0180185D01*
X0054494Y0180100D01*
X0053200Y0178806D01*
X0052500Y0177115D01*
X0052500Y0169285D01*
X0053200Y0167594D01*
X0053600Y0167195D01*
X0053600Y0161994D01*
X0047627Y0156021D01*
X0047261Y0155139D01*
X0047261Y0132521D01*
X0040534Y0132521D01*
X0039597Y0131584D01*
X0039597Y0120416D01*
X0040534Y0119479D01*
X0058789Y0119479D01*
X0059726Y0120416D01*
X0059726Y0123100D01*
X0064030Y0123100D01*
X0070900Y0116230D01*
X0072130Y0115000D01*
X0126970Y0115000D01*
X0127668Y0115698D01*
X0127668Y0109550D01*
X0128605Y0108613D01*
X0134151Y0108613D01*
X0134151Y0097545D01*
X0129641Y0093035D01*
X0128965Y0092359D01*
X0128600Y0091477D01*
X0128600Y0084540D01*
X0127439Y0083379D01*
X0126800Y0081835D01*
X0126800Y0080165D01*
X0127439Y0078621D01*
X0128600Y0077460D01*
X0128600Y0076994D01*
X0124641Y0073035D01*
X0123965Y0072359D01*
X0123600Y0071477D01*
X0123600Y0066458D01*
X0121400Y0066458D01*
X0120463Y0065521D01*
X0120463Y0058290D01*
X0121400Y0057353D01*
X0130600Y0057353D01*
X0131537Y0058290D01*
X0131537Y0065521D01*
X0130600Y0066458D01*
X0128400Y0066458D01*
X0128400Y0070006D01*
X0133035Y0074641D01*
X0133400Y0075523D01*
X0133400Y0077460D01*
X0134561Y0078621D01*
X0135200Y0080165D01*
X0135200Y0081835D01*
X0134561Y0083379D01*
X0133400Y0084540D01*
X0133400Y0090006D01*
X0138500Y0095106D01*
X0138600Y0095006D01*
X0138600Y0084540D01*
X0137439Y0083379D01*
X0136800Y0081835D01*
X0136800Y0080165D01*
X0137439Y0078621D01*
X0138600Y0077460D01*
X0138600Y0070523D01*
X0138965Y0069641D01*
X0142148Y0066458D01*
X0141400Y0066458D01*
X0140463Y0065521D01*
X0140463Y0058290D01*
X0141400Y0057353D01*
X0150600Y0057353D01*
X0151537Y0058290D01*
X0151537Y0065521D01*
X0150600Y0066458D01*
X0148400Y0066458D01*
X0148400Y0066477D01*
X0148035Y0067359D01*
X0147359Y0068035D01*
X0143400Y0071994D01*
X0143400Y0077460D01*
X0144561Y0078621D01*
X0145200Y0080165D01*
X0145200Y0081835D01*
X0144561Y0083379D01*
X0143400Y0084540D01*
X0143400Y0096477D01*
X0143035Y0097359D01*
X0142359Y0098035D01*
X0142101Y0098293D01*
X0142101Y0108413D01*
X0142850Y0108413D01*
X0142850Y0113165D01*
X0142850Y0113165D01*
X0142850Y0108413D01*
X0144072Y0108413D01*
X0144425Y0108507D01*
X0144779Y0108413D01*
X0146000Y0108413D01*
X0146000Y0113165D01*
X0146000Y0113165D01*
X0143216Y0113165D01*
X0142851Y0113165D01*
X0142851Y0113165D01*
X0146000Y0113165D01*
X0146000Y0113165D01*
X0142850Y0113165D01*
X0142850Y0117918D01*
X0141629Y0117918D01*
X0141171Y0117795D01*
X0141037Y0117718D01*
X0129688Y0117718D01*
X0127668Y0114494D02*
X0031000Y0114494D01*
X0031000Y0112896D02*
X0127668Y0112896D01*
X0127668Y0111297D02*
X0031000Y0111297D01*
X0031000Y0109699D02*
X0127668Y0109699D01*
X0134151Y0108100D02*
X0031000Y0108100D01*
X0031000Y0106502D02*
X0134151Y0106502D01*
X0134151Y0104903D02*
X0031000Y0104903D01*
X0031000Y0103305D02*
X0134151Y0103305D01*
X0134151Y0101706D02*
X0031000Y0101706D01*
X0031000Y0100108D02*
X0134151Y0100108D01*
X0134151Y0098509D02*
X0031000Y0098509D01*
X0031000Y0096911D02*
X0133517Y0096911D01*
X0131918Y0095312D02*
X0031000Y0095312D01*
X0031000Y0093714D02*
X0130320Y0093714D01*
X0128864Y0092115D02*
X0031000Y0092115D01*
X0031000Y0090517D02*
X0128600Y0090517D01*
X0128600Y0088918D02*
X0031000Y0088918D01*
X0031000Y0087320D02*
X0128600Y0087320D01*
X0128600Y0085721D02*
X0031000Y0085721D01*
X0031000Y0084123D02*
X0128183Y0084123D01*
X0127085Y0082524D02*
X0031000Y0082524D01*
X0031000Y0080926D02*
X0126800Y0080926D01*
X0127147Y0079327D02*
X0031000Y0079327D01*
X0031000Y0077729D02*
X0128332Y0077729D01*
X0127736Y0076130D02*
X0031000Y0076130D01*
X0031000Y0074532D02*
X0126137Y0074532D01*
X0124539Y0072933D02*
X0031000Y0072933D01*
X0031000Y0071334D02*
X0123600Y0071334D01*
X0123600Y0069736D02*
X0031000Y0069736D01*
X0031000Y0068137D02*
X0123600Y0068137D01*
X0123600Y0066539D02*
X0031000Y0066539D01*
X0031000Y0064940D02*
X0120463Y0064940D01*
X0120463Y0063342D02*
X0031000Y0063342D01*
X0031000Y0061743D02*
X0120463Y0061743D01*
X0120463Y0060145D02*
X0031000Y0060145D01*
X0031000Y0058546D02*
X0120463Y0058546D01*
X0121368Y0054725D02*
X0120958Y0054488D01*
X0120623Y0054152D01*
X0120386Y0053742D01*
X0120263Y0053284D01*
X0120263Y0050771D01*
X0125324Y0050771D01*
X0125324Y0054847D01*
X0121826Y0054847D01*
X0121368Y0054725D01*
X0120391Y0053751D02*
X0031000Y0053751D01*
X0031000Y0055349D02*
X0173256Y0055349D01*
X0171658Y0056948D02*
X0031000Y0056948D01*
X0031000Y0052152D02*
X0120263Y0052152D01*
X0120263Y0049418D02*
X0120263Y0046905D01*
X0120386Y0046447D01*
X0120623Y0046037D01*
X0120958Y0045701D01*
X0121368Y0045464D01*
X0121826Y0045342D01*
X0125324Y0045342D01*
X0125324Y0049418D01*
X0126676Y0049418D01*
X0126676Y0045342D01*
X0130174Y0045342D01*
X0130632Y0045464D01*
X0131042Y0045701D01*
X0131377Y0046037D01*
X0131614Y0046447D01*
X0131737Y0046905D01*
X0131737Y0049418D01*
X0126676Y0049418D01*
X0126676Y0050771D01*
X0125324Y0050771D01*
X0125324Y0049418D01*
X0120263Y0049418D01*
X0120263Y0048955D02*
X0031000Y0048955D01*
X0031000Y0047357D02*
X0120263Y0047357D01*
X0120901Y0045758D02*
X0031000Y0045758D01*
X0031000Y0044160D02*
X0219256Y0044160D01*
X0217249Y0045758D02*
X0151099Y0045758D01*
X0151042Y0045701D02*
X0151377Y0046037D01*
X0151614Y0046447D01*
X0151737Y0046905D01*
X0151737Y0049418D01*
X0146676Y0049418D01*
X0146676Y0045342D01*
X0150174Y0045342D01*
X0150632Y0045464D01*
X0151042Y0045701D01*
X0151737Y0047357D02*
X0216600Y0047357D01*
X0221000Y0051000D02*
X0181000Y0051000D01*
X0149150Y0082850D01*
X0149150Y0113165D01*
X0152299Y0113165D02*
X0152299Y0089701D01*
X0181000Y0061000D01*
X0226000Y0061000D01*
X0231000Y0056000D01*
X0231000Y0051000D01*
X0235400Y0050554D02*
X0236600Y0050554D01*
X0236600Y0052152D02*
X0235400Y0052152D01*
X0235400Y0053751D02*
X0236600Y0053751D01*
X0236879Y0055349D02*
X0235121Y0055349D01*
X0234075Y0056948D02*
X0236658Y0056948D01*
X0235059Y0058546D02*
X0231848Y0058546D01*
X0230249Y0060145D02*
X0233461Y0060145D01*
X0231862Y0061743D02*
X0228651Y0061743D01*
X0230264Y0063342D02*
X0226618Y0063342D01*
X0225059Y0058546D02*
X0176848Y0058546D01*
X0178446Y0056948D02*
X0217925Y0056948D01*
X0216879Y0055349D02*
X0180045Y0055349D01*
X0181643Y0053751D02*
X0216600Y0053751D01*
X0224075Y0056948D02*
X0226658Y0056948D01*
X0226879Y0055349D02*
X0225121Y0055349D01*
X0225400Y0053751D02*
X0226600Y0053751D01*
X0226600Y0052152D02*
X0225400Y0052152D01*
X0225400Y0050554D02*
X0226600Y0050554D01*
X0226600Y0048955D02*
X0225400Y0048955D01*
X0225400Y0047357D02*
X0226600Y0047357D01*
X0227249Y0045758D02*
X0224751Y0045758D01*
X0222744Y0044160D02*
X0229256Y0044160D01*
X0232744Y0044160D02*
X0239256Y0044160D01*
X0237249Y0045758D02*
X0234751Y0045758D01*
X0235400Y0047357D02*
X0236600Y0047357D01*
X0236600Y0048955D02*
X0235400Y0048955D01*
X0241000Y0051000D02*
X0241000Y0056000D01*
X0231000Y0066000D01*
X0186000Y0066000D01*
X0155449Y0096551D01*
X0155449Y0113165D01*
X0158598Y0113165D02*
X0158598Y0098402D01*
X0186000Y0071000D01*
X0241000Y0071000D01*
X0251000Y0061000D01*
X0251000Y0051000D01*
X0255400Y0050554D02*
X0256600Y0050554D01*
X0256600Y0052152D02*
X0255400Y0052152D01*
X0255400Y0053751D02*
X0256600Y0053751D01*
X0256879Y0055349D02*
X0255121Y0055349D01*
X0254075Y0056948D02*
X0257925Y0056948D01*
X0258600Y0058546D02*
X0253400Y0058546D01*
X0253400Y0060145D02*
X0258461Y0060145D01*
X0256862Y0061743D02*
X0253290Y0061743D01*
X0252052Y0063342D02*
X0255264Y0063342D01*
X0253665Y0064940D02*
X0250454Y0064940D01*
X0248855Y0066539D02*
X0252067Y0066539D01*
X0250468Y0068137D02*
X0247257Y0068137D01*
X0245658Y0069736D02*
X0248870Y0069736D01*
X0247271Y0071334D02*
X0244060Y0071334D01*
X0242461Y0072933D02*
X0245673Y0072933D01*
X0246000Y0076000D02*
X0261000Y0061000D01*
X0261000Y0051000D01*
X0256600Y0048955D02*
X0255400Y0048955D01*
X0255400Y0047357D02*
X0256600Y0047357D01*
X0257249Y0045758D02*
X0254751Y0045758D01*
X0252744Y0044160D02*
X0259256Y0044160D01*
X0262744Y0044160D02*
X0269256Y0044160D01*
X0267249Y0045758D02*
X0264751Y0045758D01*
X0265400Y0047357D02*
X0266600Y0047357D01*
X0266600Y0048955D02*
X0265400Y0048955D01*
X0265400Y0050554D02*
X0266600Y0050554D01*
X0266600Y0052152D02*
X0265400Y0052152D01*
X0265400Y0053751D02*
X0266600Y0053751D01*
X0266879Y0055349D02*
X0265121Y0055349D01*
X0264075Y0056948D02*
X0267925Y0056948D01*
X0268600Y0058546D02*
X0263400Y0058546D01*
X0263400Y0060145D02*
X0268461Y0060145D01*
X0266862Y0061743D02*
X0263290Y0061743D01*
X0262052Y0063342D02*
X0265264Y0063342D01*
X0263665Y0064940D02*
X0260454Y0064940D01*
X0258855Y0066539D02*
X0262067Y0066539D01*
X0260468Y0068137D02*
X0257257Y0068137D01*
X0255658Y0069736D02*
X0258870Y0069736D01*
X0257271Y0071334D02*
X0254060Y0071334D01*
X0252461Y0072933D02*
X0255673Y0072933D01*
X0254074Y0074532D02*
X0250863Y0074532D01*
X0249264Y0076130D02*
X0252476Y0076130D01*
X0250877Y0077729D02*
X0247666Y0077729D01*
X0246000Y0076000D02*
X0186000Y0076000D01*
X0161748Y0100252D01*
X0161748Y0113165D01*
X0164332Y0112896D02*
X0168600Y0112896D01*
X0168600Y0114494D02*
X0164332Y0114494D01*
X0164332Y0111297D02*
X0168600Y0111297D01*
X0168600Y0109699D02*
X0164332Y0109699D01*
X0164148Y0108100D02*
X0168600Y0108100D01*
X0168600Y0106502D02*
X0164148Y0106502D01*
X0164148Y0104903D02*
X0168600Y0104903D01*
X0168600Y0103305D02*
X0164148Y0103305D01*
X0164148Y0101706D02*
X0168600Y0101706D01*
X0168772Y0100108D02*
X0165286Y0100108D01*
X0166885Y0098509D02*
X0170097Y0098509D01*
X0171695Y0096911D02*
X0168483Y0096911D01*
X0170082Y0095312D02*
X0173294Y0095312D01*
X0174892Y0093714D02*
X0171680Y0093714D01*
X0173279Y0092115D02*
X0176491Y0092115D01*
X0178089Y0090517D02*
X0174877Y0090517D01*
X0176476Y0088918D02*
X0179688Y0088918D01*
X0181286Y0087320D02*
X0178074Y0087320D01*
X0179673Y0085721D02*
X0182885Y0085721D01*
X0184483Y0084123D02*
X0181272Y0084123D01*
X0182870Y0082524D02*
X0186082Y0082524D01*
X0187680Y0080926D02*
X0184469Y0080926D01*
X0186067Y0079327D02*
X0189279Y0079327D01*
X0191476Y0088918D02*
X0194755Y0088918D01*
X0193089Y0090517D02*
X0189877Y0090517D01*
X0188279Y0092115D02*
X0191491Y0092115D01*
X0189892Y0093714D02*
X0186680Y0093714D01*
X0185082Y0095312D02*
X0188687Y0095312D01*
X0188600Y0096911D02*
X0183483Y0096911D01*
X0183400Y0098509D02*
X0188600Y0098509D01*
X0188600Y0100108D02*
X0183400Y0100108D01*
X0183400Y0101706D02*
X0188600Y0101706D01*
X0188600Y0103305D02*
X0183400Y0103305D01*
X0183400Y0104903D02*
X0188600Y0104903D01*
X0188600Y0106502D02*
X0183400Y0106502D01*
X0183400Y0108100D02*
X0188600Y0108100D01*
X0188600Y0109699D02*
X0183400Y0109699D01*
X0183400Y0111297D02*
X0187309Y0111297D01*
X0185710Y0112896D02*
X0183400Y0112896D01*
X0183400Y0114494D02*
X0184112Y0114494D01*
X0187703Y0117691D02*
X0264479Y0117691D01*
X0264479Y0116093D02*
X0189301Y0116093D01*
X0190900Y0114494D02*
X0315478Y0114494D01*
X0315384Y0114520D02*
X0315842Y0114397D01*
X0320200Y0114397D01*
X0320200Y0123861D01*
X0321800Y0123861D01*
X0321800Y0114397D01*
X0326158Y0114397D01*
X0326616Y0114520D01*
X0327026Y0114756D01*
X0327362Y0115092D01*
X0327599Y0115502D01*
X0327721Y0115960D01*
X0327721Y0123861D01*
X0321800Y0123861D01*
X0321800Y0125461D01*
X0327721Y0125461D01*
X0327721Y0133363D01*
X0327599Y0133821D01*
X0327362Y0134231D01*
X0327026Y0134566D01*
X0326616Y0134803D01*
X0326158Y0134926D01*
X0321800Y0134926D01*
X0321800Y0125461D01*
X0320200Y0125461D01*
X0320200Y0123861D01*
X0314279Y0123861D01*
X0314279Y0115960D01*
X0314401Y0115502D01*
X0314638Y0115092D01*
X0314974Y0114756D01*
X0315384Y0114520D01*
X0314279Y0116093D02*
X0277521Y0116093D01*
X0277521Y0117691D02*
X0314279Y0117691D01*
X0314279Y0119290D02*
X0277521Y0119290D01*
X0277521Y0120888D02*
X0314279Y0120888D01*
X0314279Y0122487D02*
X0277521Y0122487D01*
X0277521Y0124085D02*
X0320200Y0124085D01*
X0320200Y0125461D02*
X0314279Y0125461D01*
X0314279Y0133363D01*
X0314401Y0133821D01*
X0314638Y0134231D01*
X0314974Y0134566D01*
X0315384Y0134803D01*
X0315842Y0134926D01*
X0320200Y0134926D01*
X0320200Y0125461D01*
X0320200Y0125684D02*
X0321800Y0125684D01*
X0321800Y0127282D02*
X0320200Y0127282D01*
X0320200Y0128881D02*
X0321800Y0128881D01*
X0321800Y0130479D02*
X0320200Y0130479D01*
X0320200Y0132078D02*
X0321800Y0132078D01*
X0321800Y0133676D02*
X0320200Y0133676D01*
X0314363Y0133676D02*
X0277521Y0133676D01*
X0277521Y0132078D02*
X0314279Y0132078D01*
X0314279Y0130479D02*
X0277521Y0130479D01*
X0277521Y0128881D02*
X0314279Y0128881D01*
X0314279Y0127282D02*
X0277521Y0127282D01*
X0277521Y0125684D02*
X0314279Y0125684D01*
X0320200Y0122487D02*
X0321800Y0122487D01*
X0321800Y0124085D02*
X0356000Y0124085D01*
X0356000Y0122487D02*
X0327721Y0122487D01*
X0327721Y0120888D02*
X0356000Y0120888D01*
X0356000Y0119290D02*
X0327721Y0119290D01*
X0327721Y0117691D02*
X0356000Y0117691D01*
X0356000Y0116093D02*
X0327721Y0116093D01*
X0326522Y0114494D02*
X0356000Y0114494D01*
X0356000Y0112896D02*
X0192498Y0112896D01*
X0193400Y0111297D02*
X0356000Y0111297D01*
X0356000Y0109699D02*
X0193400Y0109699D01*
X0193400Y0108100D02*
X0356000Y0108100D01*
X0356000Y0106502D02*
X0193400Y0106502D01*
X0193400Y0104903D02*
X0356000Y0104903D01*
X0356000Y0103305D02*
X0193400Y0103305D01*
X0193400Y0101706D02*
X0356000Y0101706D01*
X0356000Y0100108D02*
X0193400Y0100108D01*
X0193400Y0098509D02*
X0356000Y0098509D01*
X0356000Y0096911D02*
X0193483Y0096911D01*
X0195082Y0095312D02*
X0356000Y0095312D01*
X0356000Y0093714D02*
X0196680Y0093714D01*
X0175673Y0072933D02*
X0172461Y0072933D01*
X0170863Y0074532D02*
X0174074Y0074532D01*
X0172476Y0076130D02*
X0169264Y0076130D01*
X0167666Y0077729D02*
X0170877Y0077729D01*
X0169279Y0079327D02*
X0166067Y0079327D01*
X0164469Y0080926D02*
X0167680Y0080926D01*
X0166082Y0082524D02*
X0162870Y0082524D01*
X0161272Y0084123D02*
X0164483Y0084123D01*
X0162885Y0085721D02*
X0159673Y0085721D01*
X0158074Y0087320D02*
X0161286Y0087320D01*
X0159688Y0088918D02*
X0156476Y0088918D01*
X0154877Y0090517D02*
X0158089Y0090517D01*
X0156491Y0092115D02*
X0154699Y0092115D01*
X0154699Y0093714D02*
X0154892Y0093714D01*
X0146750Y0093714D02*
X0143400Y0093714D01*
X0143400Y0095312D02*
X0146750Y0095312D01*
X0146750Y0096911D02*
X0143221Y0096911D01*
X0142101Y0098509D02*
X0146750Y0098509D01*
X0146750Y0100108D02*
X0142101Y0100108D01*
X0142101Y0101706D02*
X0146750Y0101706D01*
X0146750Y0103305D02*
X0142101Y0103305D01*
X0142101Y0104903D02*
X0146750Y0104903D01*
X0146750Y0106502D02*
X0142101Y0106502D01*
X0142101Y0108100D02*
X0146750Y0108100D01*
X0146000Y0109699D02*
X0146000Y0109699D01*
X0146000Y0111000D02*
X0146000Y0076000D01*
X0156000Y0066000D01*
X0156000Y0056000D01*
X0150094Y0050094D01*
X0146000Y0050094D01*
X0126000Y0050094D01*
X0126676Y0050554D02*
X0145324Y0050554D01*
X0145324Y0050771D02*
X0145324Y0049418D01*
X0146676Y0049418D01*
X0146676Y0050771D01*
X0145324Y0050771D01*
X0145324Y0054847D01*
X0141826Y0054847D01*
X0141368Y0054725D01*
X0140958Y0054488D01*
X0140623Y0054152D01*
X0140386Y0053742D01*
X0140263Y0053284D01*
X0140263Y0050771D01*
X0145324Y0050771D01*
X0146676Y0050771D02*
X0146676Y0054847D01*
X0150174Y0054847D01*
X0150632Y0054725D01*
X0151042Y0054488D01*
X0151377Y0054152D01*
X0151614Y0053742D01*
X0151737Y0053284D01*
X0151737Y0050771D01*
X0146676Y0050771D01*
X0146676Y0050554D02*
X0178052Y0050554D01*
X0176454Y0052152D02*
X0151737Y0052152D01*
X0151609Y0053751D02*
X0174855Y0053751D01*
X0179665Y0048955D02*
X0151737Y0048955D01*
X0146676Y0048955D02*
X0145324Y0048955D01*
X0145324Y0049418D02*
X0145324Y0045342D01*
X0141826Y0045342D01*
X0141368Y0045464D01*
X0140958Y0045701D01*
X0140623Y0046037D01*
X0140386Y0046447D01*
X0140263Y0046905D01*
X0140263Y0049418D01*
X0145324Y0049418D01*
X0145324Y0047357D02*
X0146676Y0047357D01*
X0146676Y0045758D02*
X0145324Y0045758D01*
X0140901Y0045758D02*
X0131099Y0045758D01*
X0131737Y0047357D02*
X0140263Y0047357D01*
X0140263Y0048955D02*
X0131737Y0048955D01*
X0131737Y0050771D02*
X0126676Y0050771D01*
X0126676Y0054847D01*
X0130174Y0054847D01*
X0130632Y0054725D01*
X0131042Y0054488D01*
X0131377Y0054152D01*
X0131614Y0053742D01*
X0131737Y0053284D01*
X0131737Y0050771D01*
X0131737Y0052152D02*
X0140263Y0052152D01*
X0140391Y0053751D02*
X0131609Y0053751D01*
X0126676Y0053751D02*
X0125324Y0053751D01*
X0125324Y0052152D02*
X0126676Y0052152D01*
X0125324Y0050554D02*
X0031000Y0050554D01*
X0031000Y0116093D02*
X0071037Y0116093D01*
X0069439Y0117691D02*
X0031000Y0117691D01*
X0031000Y0119290D02*
X0067840Y0119290D01*
X0066242Y0120888D02*
X0059726Y0120888D01*
X0059726Y0122487D02*
X0064643Y0122487D01*
X0067386Y0125684D02*
X0068200Y0125684D01*
X0068200Y0127282D02*
X0065787Y0127282D01*
X0068200Y0128881D02*
X0059726Y0128881D01*
X0059726Y0130479D02*
X0068200Y0130479D01*
X0068200Y0132078D02*
X0059232Y0132078D01*
X0052061Y0133676D02*
X0068200Y0133676D01*
X0068200Y0135275D02*
X0052061Y0135275D01*
X0052061Y0136873D02*
X0068200Y0136873D01*
X0068200Y0138472D02*
X0052061Y0138472D01*
X0052061Y0140070D02*
X0068200Y0140070D01*
X0068200Y0141669D02*
X0052061Y0141669D01*
X0052061Y0143268D02*
X0068200Y0143268D01*
X0068200Y0144866D02*
X0052061Y0144866D01*
X0052061Y0146465D02*
X0068200Y0146465D01*
X0068200Y0148063D02*
X0052061Y0148063D01*
X0052061Y0149662D02*
X0068200Y0149662D01*
X0068200Y0151260D02*
X0052061Y0151260D01*
X0052061Y0152859D02*
X0068200Y0152859D01*
X0068200Y0154457D02*
X0052851Y0154457D01*
X0054450Y0156056D02*
X0068200Y0156056D01*
X0068200Y0157654D02*
X0056048Y0157654D01*
X0057647Y0159253D02*
X0068200Y0159253D01*
X0068200Y0160851D02*
X0058400Y0160851D01*
X0058400Y0162450D02*
X0068200Y0162450D01*
X0068200Y0164048D02*
X0058400Y0164048D01*
X0058400Y0165647D02*
X0068200Y0165647D01*
X0068200Y0167245D02*
X0060651Y0167245D01*
X0061517Y0168844D02*
X0068200Y0168844D01*
X0068200Y0170442D02*
X0061700Y0170442D01*
X0061700Y0172041D02*
X0068200Y0172041D01*
X0068200Y0173639D02*
X0061700Y0173639D01*
X0061700Y0175238D02*
X0068200Y0175238D01*
X0068200Y0176836D02*
X0061700Y0176836D01*
X0061153Y0178435D02*
X0068200Y0178435D01*
X0068200Y0180033D02*
X0059772Y0180033D01*
X0059500Y0181632D02*
X0068200Y0181632D01*
X0068200Y0183230D02*
X0059500Y0183230D01*
X0059500Y0184829D02*
X0068200Y0184829D01*
X0068200Y0186427D02*
X0059500Y0186427D01*
X0059500Y0188026D02*
X0068200Y0188026D01*
X0068200Y0189624D02*
X0059500Y0189624D01*
X0059500Y0191223D02*
X0068200Y0191223D01*
X0068200Y0192821D02*
X0060627Y0192821D01*
X0061507Y0194420D02*
X0068200Y0194420D01*
X0068200Y0196018D02*
X0061700Y0196018D01*
X0061700Y0197617D02*
X0068200Y0197617D01*
X0068200Y0199215D02*
X0061700Y0199215D01*
X0061700Y0200814D02*
X0068200Y0200814D01*
X0068200Y0202412D02*
X0061700Y0202412D01*
X0061163Y0204011D02*
X0068200Y0204011D01*
X0069440Y0205609D02*
X0059796Y0205609D01*
X0054404Y0205609D02*
X0031000Y0205609D01*
X0031000Y0204011D02*
X0053037Y0204011D01*
X0052500Y0202412D02*
X0031000Y0202412D01*
X0031000Y0200814D02*
X0052500Y0200814D01*
X0052500Y0199215D02*
X0031000Y0199215D01*
X0031000Y0197617D02*
X0052500Y0197617D01*
X0052500Y0196018D02*
X0031000Y0196018D01*
X0031000Y0194420D02*
X0052693Y0194420D01*
X0053573Y0192821D02*
X0031000Y0192821D01*
X0031000Y0191223D02*
X0054700Y0191223D01*
X0054700Y0189624D02*
X0031000Y0189624D01*
X0031000Y0188026D02*
X0054700Y0188026D01*
X0054700Y0186427D02*
X0031000Y0186427D01*
X0031000Y0184829D02*
X0054700Y0184829D01*
X0054700Y0183230D02*
X0031000Y0183230D01*
X0031000Y0181632D02*
X0054700Y0181632D01*
X0054428Y0180033D02*
X0031000Y0180033D01*
X0031000Y0178435D02*
X0053047Y0178435D01*
X0052500Y0176836D02*
X0031000Y0176836D01*
X0031000Y0175238D02*
X0052500Y0175238D01*
X0052500Y0173639D02*
X0031000Y0173639D01*
X0031000Y0172041D02*
X0052500Y0172041D01*
X0052500Y0170442D02*
X0031000Y0170442D01*
X0031000Y0168844D02*
X0052683Y0168844D01*
X0053549Y0167245D02*
X0031000Y0167245D01*
X0031000Y0165647D02*
X0053600Y0165647D01*
X0053600Y0164048D02*
X0031000Y0164048D01*
X0031000Y0162450D02*
X0053600Y0162450D01*
X0052457Y0160851D02*
X0031000Y0160851D01*
X0031000Y0159253D02*
X0050859Y0159253D01*
X0049260Y0157654D02*
X0031000Y0157654D01*
X0031000Y0156056D02*
X0047661Y0156056D01*
X0047261Y0154457D02*
X0031000Y0154457D01*
X0031000Y0152859D02*
X0047261Y0152859D01*
X0047261Y0151260D02*
X0031000Y0151260D01*
X0031000Y0149662D02*
X0047261Y0149662D01*
X0047261Y0148063D02*
X0031000Y0148063D01*
X0031000Y0146465D02*
X0047261Y0146465D01*
X0047261Y0144866D02*
X0031000Y0144866D01*
X0031000Y0143268D02*
X0047261Y0143268D01*
X0047261Y0141669D02*
X0031000Y0141669D01*
X0031000Y0140070D02*
X0047261Y0140070D01*
X0047261Y0138472D02*
X0031000Y0138472D01*
X0031000Y0136873D02*
X0047261Y0136873D01*
X0047261Y0135275D02*
X0031000Y0135275D01*
X0031000Y0133676D02*
X0047261Y0133676D01*
X0040091Y0132078D02*
X0031000Y0132078D01*
X0031000Y0130479D02*
X0039597Y0130479D01*
X0039597Y0128881D02*
X0031000Y0128881D01*
X0031000Y0127282D02*
X0039597Y0127282D01*
X0039597Y0125684D02*
X0031000Y0125684D01*
X0031000Y0124085D02*
X0039597Y0124085D01*
X0039597Y0122487D02*
X0031000Y0122487D01*
X0031000Y0120888D02*
X0039597Y0120888D01*
X0049661Y0126000D02*
X0049661Y0154661D01*
X0056000Y0161000D01*
X0056000Y0172100D01*
X0057100Y0173200D01*
X0057100Y0198800D01*
X0071038Y0207208D02*
X0031000Y0207208D01*
X0031000Y0208806D02*
X0072637Y0208806D01*
X0074235Y0210405D02*
X0031000Y0210405D01*
X0031000Y0212003D02*
X0075834Y0212003D01*
X0077432Y0213602D02*
X0031000Y0213602D01*
X0031000Y0215201D02*
X0079031Y0215201D01*
X0080629Y0216799D02*
X0031000Y0216799D01*
X0031000Y0218398D02*
X0082228Y0218398D01*
X0091000Y0211000D02*
X0078800Y0198800D01*
X0074900Y0198800D01*
X0074900Y0194900D02*
X0078800Y0198800D01*
X0074900Y0194900D02*
X0074900Y0173200D01*
X0074900Y0133439D01*
X0082339Y0126000D01*
X0091000Y0126000D01*
X0107299Y0142299D01*
X0123165Y0142299D01*
X0131000Y0136000D02*
X0127850Y0132850D01*
X0123165Y0132850D01*
X0131000Y0136000D02*
X0131000Y0151000D01*
X0126000Y0156000D01*
X0126000Y0181000D01*
X0143500Y0198500D01*
X0191700Y0198500D01*
X0191700Y0193500D02*
X0143500Y0193500D01*
X0133402Y0183402D01*
X0133402Y0158835D01*
X0136000Y0159386D02*
X0136551Y0158835D01*
X0136000Y0159386D02*
X0136000Y0181000D01*
X0143500Y0188500D01*
X0191700Y0188500D01*
X0186637Y0186000D02*
X0186100Y0185463D01*
X0186100Y0181537D01*
X0186637Y0181000D01*
X0186100Y0180463D01*
X0186100Y0176537D01*
X0186496Y0176141D01*
X0186260Y0175905D01*
X0186023Y0175495D01*
X0185900Y0175037D01*
X0185900Y0173500D01*
X0191700Y0173500D01*
X0203500Y0173500D01*
X0206000Y0176000D01*
X0206000Y0211000D01*
X0204661Y0209661D01*
X0206000Y0211000D02*
X0206000Y0256000D01*
X0206100Y0256100D02*
X0210600Y0256100D01*
X0210600Y0259162D01*
X0210487Y0259877D01*
X0210263Y0260566D01*
X0209934Y0261211D01*
X0209509Y0261797D01*
X0208997Y0262309D01*
X0208596Y0262600D01*
X0213676Y0262600D01*
X0213508Y0262530D01*
X0212270Y0261292D01*
X0211600Y0259675D01*
X0211600Y0252325D01*
X0212270Y0250708D01*
X0213508Y0249470D01*
X0213600Y0249432D01*
X0213600Y0176994D01*
X0205006Y0168400D01*
X0197300Y0168400D01*
X0197300Y0170463D01*
X0196904Y0170859D01*
X0197140Y0171095D01*
X0197377Y0171505D01*
X0197500Y0171963D01*
X0197500Y0173500D01*
X0197500Y0175037D01*
X0197377Y0175495D01*
X0197140Y0175905D01*
X0196904Y0176141D01*
X0197300Y0176537D01*
X0197300Y0180463D01*
X0196763Y0181000D01*
X0197300Y0181537D01*
X0197300Y0183530D01*
X0199300Y0185530D01*
X0199300Y0206170D01*
X0158196Y0247274D01*
X0161584Y0247274D01*
X0162521Y0248211D01*
X0162521Y0260351D01*
X0164770Y0262600D01*
X0203404Y0262600D01*
X0203003Y0262309D01*
X0202491Y0261797D01*
X0202066Y0261211D01*
X0201737Y0260566D01*
X0201513Y0259877D01*
X0201400Y0259162D01*
X0201400Y0256100D01*
X0205900Y0256100D01*
X0205900Y0255900D01*
X0206100Y0255900D01*
X0206100Y0256100D01*
X0206100Y0255900D02*
X0210600Y0255900D01*
X0210600Y0252838D01*
X0210487Y0252123D01*
X0210263Y0251434D01*
X0209934Y0250789D01*
X0209509Y0250203D01*
X0208997Y0249691D01*
X0208411Y0249266D01*
X0207766Y0248937D01*
X0207077Y0248713D01*
X0206362Y0248600D01*
X0206100Y0248600D01*
X0206100Y0255900D01*
X0205900Y0255900D02*
X0205900Y0248600D01*
X0205638Y0248600D01*
X0204923Y0248713D01*
X0204234Y0248937D01*
X0203589Y0249266D01*
X0203003Y0249691D01*
X0202491Y0250203D01*
X0202066Y0250789D01*
X0201737Y0251434D01*
X0201513Y0252123D01*
X0201400Y0252838D01*
X0201400Y0255900D01*
X0205900Y0255900D01*
X0205900Y0255163D02*
X0206100Y0255163D01*
X0206100Y0253565D02*
X0205900Y0253565D01*
X0205900Y0251966D02*
X0206100Y0251966D01*
X0206100Y0250368D02*
X0205900Y0250368D01*
X0205900Y0248769D02*
X0206100Y0248769D01*
X0207249Y0248769D02*
X0213600Y0248769D01*
X0213600Y0247171D02*
X0158299Y0247171D01*
X0159898Y0245572D02*
X0213600Y0245572D01*
X0213600Y0243974D02*
X0161496Y0243974D01*
X0163095Y0242375D02*
X0213600Y0242375D01*
X0213600Y0240777D02*
X0164693Y0240777D01*
X0166292Y0239178D02*
X0213600Y0239178D01*
X0213600Y0237580D02*
X0167890Y0237580D01*
X0169489Y0235981D02*
X0213600Y0235981D01*
X0213600Y0234383D02*
X0171087Y0234383D01*
X0172686Y0232784D02*
X0213600Y0232784D01*
X0213600Y0231186D02*
X0174284Y0231186D01*
X0175883Y0229587D02*
X0213600Y0229587D01*
X0213600Y0227989D02*
X0177481Y0227989D01*
X0179080Y0226390D02*
X0213600Y0226390D01*
X0213600Y0224792D02*
X0180678Y0224792D01*
X0182277Y0223193D02*
X0213600Y0223193D01*
X0213600Y0221595D02*
X0183875Y0221595D01*
X0185474Y0219996D02*
X0213600Y0219996D01*
X0213600Y0218398D02*
X0187072Y0218398D01*
X0188671Y0216799D02*
X0213600Y0216799D01*
X0213600Y0215201D02*
X0190269Y0215201D01*
X0191868Y0213602D02*
X0213600Y0213602D01*
X0213600Y0212003D02*
X0193466Y0212003D01*
X0195065Y0210405D02*
X0213600Y0210405D01*
X0213600Y0208806D02*
X0196663Y0208806D01*
X0198262Y0207208D02*
X0213600Y0207208D01*
X0213600Y0205609D02*
X0199300Y0205609D01*
X0199300Y0204011D02*
X0213600Y0204011D01*
X0213600Y0202412D02*
X0199300Y0202412D01*
X0199300Y0200814D02*
X0213600Y0200814D01*
X0213600Y0199215D02*
X0199300Y0199215D01*
X0199300Y0197617D02*
X0213600Y0197617D01*
X0213600Y0196018D02*
X0199300Y0196018D01*
X0199300Y0194420D02*
X0213600Y0194420D01*
X0213600Y0192821D02*
X0199300Y0192821D01*
X0199300Y0191223D02*
X0213600Y0191223D01*
X0213600Y0189624D02*
X0199300Y0189624D01*
X0199300Y0188026D02*
X0213600Y0188026D01*
X0213600Y0186427D02*
X0199300Y0186427D01*
X0198599Y0184829D02*
X0213600Y0184829D01*
X0213600Y0183230D02*
X0197300Y0183230D01*
X0197300Y0181632D02*
X0213600Y0181632D01*
X0213600Y0180033D02*
X0197300Y0180033D01*
X0197300Y0178435D02*
X0213600Y0178435D01*
X0213442Y0176836D02*
X0197300Y0176836D01*
X0197446Y0175238D02*
X0211844Y0175238D01*
X0210245Y0173639D02*
X0197500Y0173639D01*
X0197500Y0173500D02*
X0191700Y0173500D01*
X0191700Y0173500D01*
X0191700Y0173500D01*
X0197500Y0173500D01*
X0197500Y0172041D02*
X0208647Y0172041D01*
X0207048Y0170442D02*
X0197300Y0170442D01*
X0197300Y0168844D02*
X0205450Y0168844D01*
X0206000Y0166000D02*
X0194200Y0166000D01*
X0191700Y0168500D01*
X0153500Y0168500D01*
X0149150Y0164150D01*
X0149150Y0158835D01*
X0146750Y0163387D02*
X0144497Y0163387D01*
X0138400Y0163387D01*
X0138400Y0180006D01*
X0144494Y0186100D01*
X0186537Y0186100D01*
X0186637Y0186000D01*
X0186100Y0184829D02*
X0143223Y0184829D01*
X0141624Y0183230D02*
X0186100Y0183230D01*
X0186100Y0181632D02*
X0140026Y0181632D01*
X0138427Y0180033D02*
X0186100Y0180033D01*
X0186100Y0178435D02*
X0138400Y0178435D01*
X0138400Y0176836D02*
X0186100Y0176836D01*
X0185954Y0175238D02*
X0138400Y0175238D01*
X0138400Y0173639D02*
X0185900Y0173639D01*
X0185900Y0173500D02*
X0185900Y0171963D01*
X0186023Y0171505D01*
X0186260Y0171095D01*
X0186454Y0170900D01*
X0153023Y0170900D01*
X0152141Y0170535D01*
X0147790Y0166184D01*
X0147115Y0165509D01*
X0146750Y0164627D01*
X0146750Y0163387D01*
X0146750Y0164048D02*
X0138400Y0164048D01*
X0138400Y0165647D02*
X0147253Y0165647D01*
X0148851Y0167245D02*
X0138400Y0167245D01*
X0138400Y0168844D02*
X0150450Y0168844D01*
X0152048Y0170442D02*
X0138400Y0170442D01*
X0138400Y0172041D02*
X0185900Y0172041D01*
X0185900Y0173500D02*
X0191700Y0173500D01*
X0191700Y0168500D02*
X0191000Y0167800D01*
X0191000Y0166000D01*
X0186000Y0161000D01*
X0186000Y0151906D01*
X0191537Y0151260D02*
X0202866Y0151260D01*
X0201267Y0149662D02*
X0191537Y0149662D01*
X0191310Y0148063D02*
X0199669Y0148063D01*
X0198070Y0146465D02*
X0173387Y0146465D01*
X0173387Y0148063D02*
X0180690Y0148063D01*
X0180463Y0149662D02*
X0173387Y0149662D01*
X0173387Y0151260D02*
X0180463Y0151260D01*
X0180463Y0152859D02*
X0173387Y0152859D01*
X0180463Y0154457D02*
X0163570Y0154457D01*
X0164282Y0152859D02*
X0150700Y0152859D01*
X0150700Y0151260D02*
X0164282Y0151260D01*
X0164282Y0149662D02*
X0150700Y0149662D01*
X0150700Y0148063D02*
X0164282Y0148063D01*
X0164282Y0146465D02*
X0150700Y0146465D01*
X0150700Y0144866D02*
X0164282Y0144866D01*
X0164282Y0143268D02*
X0150700Y0143268D01*
X0150700Y0141669D02*
X0164282Y0141669D01*
X0164082Y0140070D02*
X0150700Y0140070D01*
X0150442Y0138472D02*
X0164082Y0138472D01*
X0164282Y0136873D02*
X0148843Y0136873D01*
X0147245Y0135275D02*
X0164282Y0135275D01*
X0164282Y0133676D02*
X0145646Y0133676D01*
X0144048Y0132078D02*
X0164282Y0132078D01*
X0164282Y0130479D02*
X0142449Y0130479D01*
X0140851Y0128881D02*
X0164282Y0128881D01*
X0164282Y0127282D02*
X0139252Y0127282D01*
X0137654Y0125684D02*
X0164282Y0125684D01*
X0164282Y0124085D02*
X0136055Y0124085D01*
X0134457Y0122487D02*
X0164282Y0122487D01*
X0164282Y0120888D02*
X0132858Y0120888D01*
X0136551Y0113165D02*
X0136551Y0096551D01*
X0131000Y0091000D01*
X0131000Y0081000D01*
X0131000Y0076000D01*
X0126000Y0071000D01*
X0126000Y0061906D01*
X0128400Y0066539D02*
X0142067Y0066539D01*
X0140468Y0068137D02*
X0128400Y0068137D01*
X0128400Y0069736D02*
X0138926Y0069736D01*
X0138600Y0071334D02*
X0129729Y0071334D01*
X0131327Y0072933D02*
X0138600Y0072933D01*
X0138600Y0074532D02*
X0132926Y0074532D01*
X0133400Y0076130D02*
X0138600Y0076130D01*
X0138332Y0077729D02*
X0133668Y0077729D01*
X0134853Y0079327D02*
X0137147Y0079327D01*
X0136800Y0080926D02*
X0135200Y0080926D01*
X0134915Y0082524D02*
X0137085Y0082524D01*
X0138183Y0084123D02*
X0133817Y0084123D01*
X0133400Y0085721D02*
X0138600Y0085721D01*
X0138600Y0087320D02*
X0133400Y0087320D01*
X0133400Y0088918D02*
X0138600Y0088918D01*
X0138600Y0090517D02*
X0133911Y0090517D01*
X0135509Y0092115D02*
X0138600Y0092115D01*
X0138600Y0093714D02*
X0137108Y0093714D01*
X0139701Y0097299D02*
X0141000Y0096000D01*
X0141000Y0081000D01*
X0141000Y0071000D01*
X0146000Y0066000D01*
X0146000Y0062200D01*
X0146000Y0061906D01*
X0146000Y0061000D01*
X0140463Y0061743D02*
X0131537Y0061743D01*
X0131537Y0060145D02*
X0140463Y0060145D01*
X0140463Y0058546D02*
X0131537Y0058546D01*
X0131537Y0063342D02*
X0140463Y0063342D01*
X0140463Y0064940D02*
X0131537Y0064940D01*
X0144060Y0071334D02*
X0157271Y0071334D01*
X0158870Y0069736D02*
X0145658Y0069736D01*
X0147257Y0068137D02*
X0160468Y0068137D01*
X0162067Y0066539D02*
X0148374Y0066539D01*
X0151537Y0064940D02*
X0163665Y0064940D01*
X0165264Y0063342D02*
X0151537Y0063342D01*
X0151537Y0061743D02*
X0166862Y0061743D01*
X0168461Y0060145D02*
X0151537Y0060145D01*
X0151537Y0058546D02*
X0170059Y0058546D01*
X0173651Y0061743D02*
X0176862Y0061743D01*
X0175264Y0063342D02*
X0172052Y0063342D01*
X0170454Y0064940D02*
X0173665Y0064940D01*
X0172067Y0066539D02*
X0168855Y0066539D01*
X0167257Y0068137D02*
X0170468Y0068137D01*
X0168870Y0069736D02*
X0165658Y0069736D01*
X0164060Y0071334D02*
X0167271Y0071334D01*
X0165673Y0072933D02*
X0162461Y0072933D01*
X0160863Y0074532D02*
X0164074Y0074532D01*
X0162476Y0076130D02*
X0159264Y0076130D01*
X0157666Y0077729D02*
X0160877Y0077729D01*
X0159279Y0079327D02*
X0156067Y0079327D01*
X0154469Y0080926D02*
X0157680Y0080926D01*
X0156082Y0082524D02*
X0152870Y0082524D01*
X0151550Y0084123D02*
X0154483Y0084123D01*
X0152885Y0085721D02*
X0151550Y0085721D01*
X0146750Y0085721D02*
X0143400Y0085721D01*
X0143400Y0087320D02*
X0146750Y0087320D01*
X0146750Y0088918D02*
X0143400Y0088918D01*
X0143400Y0090517D02*
X0146750Y0090517D01*
X0146750Y0092115D02*
X0143400Y0092115D01*
X0139701Y0097299D02*
X0139701Y0113165D01*
X0142850Y0113165D02*
X0142850Y0113165D01*
X0142850Y0117918D01*
X0144072Y0117918D01*
X0144425Y0117823D01*
X0144779Y0117918D01*
X0146000Y0117918D01*
X0146000Y0113165D01*
X0146000Y0113165D01*
X0146000Y0112896D02*
X0146000Y0112896D01*
X0146000Y0114494D02*
X0146000Y0114494D01*
X0146000Y0116093D02*
X0146000Y0116093D01*
X0146000Y0117691D02*
X0146000Y0117691D01*
X0142850Y0117691D02*
X0142850Y0117691D01*
X0142850Y0116093D02*
X0142850Y0116093D01*
X0142850Y0114494D02*
X0142850Y0114494D01*
X0142850Y0112896D02*
X0142850Y0112896D01*
X0142850Y0111297D02*
X0142850Y0111297D01*
X0142850Y0109699D02*
X0142850Y0109699D01*
X0146000Y0111297D02*
X0146000Y0111297D01*
X0173387Y0130479D02*
X0189597Y0130479D01*
X0189597Y0128881D02*
X0176096Y0128881D01*
X0178112Y0127282D02*
X0189597Y0127282D01*
X0189597Y0125684D02*
X0179710Y0125684D01*
X0181309Y0124085D02*
X0264479Y0124085D01*
X0264479Y0122487D02*
X0182907Y0122487D01*
X0184506Y0120888D02*
X0264479Y0120888D01*
X0264479Y0119290D02*
X0186104Y0119290D01*
X0189597Y0132078D02*
X0173387Y0132078D01*
X0173387Y0133676D02*
X0189597Y0133676D01*
X0189597Y0135275D02*
X0173387Y0135275D01*
X0173387Y0136873D02*
X0180271Y0136873D01*
X0180263Y0136905D02*
X0180386Y0136447D01*
X0180623Y0136037D01*
X0180958Y0135701D01*
X0181368Y0135464D01*
X0181826Y0135342D01*
X0185324Y0135342D01*
X0185324Y0139418D01*
X0186676Y0139418D01*
X0186676Y0140771D01*
X0185324Y0140771D01*
X0185324Y0144847D01*
X0181826Y0144847D01*
X0181368Y0144725D01*
X0180958Y0144488D01*
X0180623Y0144152D01*
X0180386Y0143742D01*
X0180263Y0143284D01*
X0180263Y0140771D01*
X0185324Y0140771D01*
X0185324Y0139418D01*
X0180263Y0139418D01*
X0180263Y0136905D01*
X0180263Y0138472D02*
X0173587Y0138472D01*
X0173587Y0140070D02*
X0185324Y0140070D01*
X0186000Y0140094D02*
X0185055Y0139150D01*
X0168835Y0139150D01*
X0168835Y0139150D01*
X0173387Y0141669D02*
X0180263Y0141669D01*
X0180263Y0143268D02*
X0173387Y0143268D01*
X0173387Y0144866D02*
X0197261Y0144866D01*
X0197261Y0143268D02*
X0191737Y0143268D01*
X0191737Y0143284D02*
X0191614Y0143742D01*
X0191377Y0144152D01*
X0191042Y0144488D01*
X0190632Y0144725D01*
X0190174Y0144847D01*
X0186676Y0144847D01*
X0186676Y0140771D01*
X0191737Y0140771D01*
X0191737Y0143284D01*
X0191737Y0141669D02*
X0197261Y0141669D01*
X0197261Y0140070D02*
X0186676Y0140070D01*
X0186000Y0140094D02*
X0186000Y0141000D01*
X0185324Y0141669D02*
X0186676Y0141669D01*
X0186676Y0143268D02*
X0185324Y0143268D01*
X0185324Y0138472D02*
X0186676Y0138472D01*
X0186676Y0136873D02*
X0185324Y0136873D01*
X0191737Y0138472D02*
X0197261Y0138472D01*
X0202061Y0138472D02*
X0230078Y0138472D01*
X0231676Y0140070D02*
X0202061Y0140070D01*
X0202061Y0141669D02*
X0233275Y0141669D01*
X0234873Y0143268D02*
X0202061Y0143268D01*
X0203260Y0144866D02*
X0236472Y0144866D01*
X0238070Y0146465D02*
X0204859Y0146465D01*
X0206457Y0148063D02*
X0238600Y0148063D01*
X0238600Y0149662D02*
X0228056Y0149662D01*
X0229654Y0151260D02*
X0238600Y0151260D01*
X0238600Y0152859D02*
X0231253Y0152859D01*
X0232851Y0154457D02*
X0238600Y0154457D01*
X0238600Y0156056D02*
X0233400Y0156056D01*
X0233400Y0157654D02*
X0238600Y0157654D01*
X0238600Y0159253D02*
X0233400Y0159253D01*
X0233400Y0160851D02*
X0238600Y0160851D01*
X0238600Y0162450D02*
X0233400Y0162450D01*
X0233400Y0164048D02*
X0238600Y0164048D01*
X0238600Y0165647D02*
X0235009Y0165647D01*
X0235900Y0167245D02*
X0238600Y0167245D01*
X0238600Y0168844D02*
X0235900Y0168844D01*
X0235900Y0170442D02*
X0238164Y0170442D01*
X0236565Y0172041D02*
X0235900Y0172041D01*
X0241000Y0171000D02*
X0241000Y0146000D01*
X0231000Y0136000D01*
X0231000Y0132339D01*
X0232339Y0131000D01*
X0236866Y0138472D02*
X0262600Y0138472D01*
X0262600Y0140070D02*
X0238465Y0140070D01*
X0240063Y0141669D02*
X0262600Y0141669D01*
X0262600Y0143268D02*
X0241662Y0143268D01*
X0243128Y0144866D02*
X0262600Y0144866D01*
X0262600Y0146465D02*
X0243400Y0146465D01*
X0243400Y0148063D02*
X0262600Y0148063D01*
X0262600Y0149662D02*
X0243400Y0149662D01*
X0243400Y0151260D02*
X0261770Y0151260D01*
X0260172Y0152859D02*
X0243400Y0152859D01*
X0243400Y0154457D02*
X0258573Y0154457D01*
X0256975Y0156056D02*
X0243400Y0156056D01*
X0243400Y0157654D02*
X0255376Y0157654D01*
X0253778Y0159253D02*
X0243400Y0159253D01*
X0243400Y0160851D02*
X0252179Y0160851D01*
X0250580Y0162450D02*
X0243400Y0162450D01*
X0243400Y0164048D02*
X0248982Y0164048D01*
X0247383Y0165647D02*
X0243400Y0165647D01*
X0243400Y0167245D02*
X0245785Y0167245D01*
X0244186Y0168844D02*
X0243400Y0168844D01*
X0241000Y0171000D02*
X0233500Y0178500D01*
X0230300Y0178500D01*
X0224700Y0173639D02*
X0217033Y0173639D01*
X0217359Y0173965D02*
X0217359Y0173965D01*
X0218282Y0175238D02*
X0223392Y0175238D01*
X0221794Y0176836D02*
X0218400Y0176836D01*
X0218400Y0178435D02*
X0220300Y0178435D01*
X0220300Y0180033D02*
X0218400Y0180033D01*
X0218400Y0181632D02*
X0220300Y0181632D01*
X0220300Y0183230D02*
X0218400Y0183230D01*
X0218400Y0184829D02*
X0220300Y0184829D01*
X0220300Y0186427D02*
X0218400Y0186427D01*
X0218400Y0188026D02*
X0220300Y0188026D01*
X0220300Y0189624D02*
X0218400Y0189624D01*
X0218400Y0191223D02*
X0220300Y0191223D01*
X0220300Y0192821D02*
X0218400Y0192821D01*
X0218400Y0194420D02*
X0220300Y0194420D01*
X0220300Y0196018D02*
X0218400Y0196018D01*
X0218400Y0197617D02*
X0220300Y0197617D01*
X0220300Y0199215D02*
X0218400Y0199215D01*
X0218400Y0200814D02*
X0220300Y0200814D01*
X0220300Y0202412D02*
X0218400Y0202412D01*
X0218400Y0204011D02*
X0220300Y0204011D01*
X0220300Y0205609D02*
X0218400Y0205609D01*
X0218400Y0207208D02*
X0220300Y0207208D01*
X0220300Y0208806D02*
X0218400Y0208806D01*
X0218400Y0210405D02*
X0220300Y0210405D01*
X0220300Y0212003D02*
X0218400Y0212003D01*
X0218400Y0213602D02*
X0220300Y0213602D01*
X0220300Y0215201D02*
X0218400Y0215201D01*
X0218400Y0216799D02*
X0220300Y0216799D01*
X0220300Y0218398D02*
X0218400Y0218398D01*
X0218400Y0219996D02*
X0220300Y0219996D01*
X0220300Y0221595D02*
X0218400Y0221595D01*
X0218400Y0223193D02*
X0220300Y0223193D01*
X0220300Y0224792D02*
X0218400Y0224792D01*
X0218400Y0226390D02*
X0220300Y0226390D01*
X0220300Y0227989D02*
X0218400Y0227989D01*
X0218400Y0229587D02*
X0220300Y0229587D01*
X0220300Y0231186D02*
X0218400Y0231186D01*
X0218400Y0232784D02*
X0220300Y0232784D01*
X0220300Y0234383D02*
X0218400Y0234383D01*
X0218400Y0235981D02*
X0220300Y0235981D01*
X0220300Y0237580D02*
X0218400Y0237580D01*
X0218400Y0239178D02*
X0220300Y0239178D01*
X0220300Y0240777D02*
X0218400Y0240777D01*
X0218400Y0242375D02*
X0220300Y0242375D01*
X0220300Y0243974D02*
X0218400Y0243974D01*
X0218400Y0245572D02*
X0220300Y0245572D01*
X0220300Y0247171D02*
X0218400Y0247171D01*
X0218400Y0248769D02*
X0220300Y0248769D01*
X0220300Y0250368D02*
X0219390Y0250368D01*
X0220251Y0251966D02*
X0220300Y0251966D01*
X0216000Y0256000D02*
X0216000Y0176000D01*
X0206000Y0166000D01*
X0207442Y0164048D02*
X0228600Y0164048D01*
X0228600Y0162450D02*
X0190844Y0162450D01*
X0192442Y0164048D02*
X0192758Y0164048D01*
X0189245Y0160851D02*
X0228600Y0160851D01*
X0228600Y0159253D02*
X0188400Y0159253D01*
X0188400Y0157654D02*
X0228600Y0157654D01*
X0227661Y0156056D02*
X0191002Y0156056D01*
X0191537Y0154457D02*
X0226063Y0154457D01*
X0226000Y0151000D02*
X0231000Y0156000D01*
X0231000Y0167800D01*
X0230300Y0168500D01*
X0225591Y0165647D02*
X0209041Y0165647D01*
X0208035Y0164641D02*
X0208035Y0164641D01*
X0210639Y0167245D02*
X0224700Y0167245D01*
X0224700Y0168844D02*
X0212238Y0168844D01*
X0213836Y0170442D02*
X0224700Y0170442D01*
X0224700Y0172041D02*
X0215435Y0172041D01*
X0204464Y0152859D02*
X0191537Y0152859D01*
X0183600Y0157654D02*
X0164332Y0157654D01*
X0164332Y0156056D02*
X0180998Y0156056D01*
X0183600Y0159253D02*
X0164332Y0159253D01*
X0164332Y0160851D02*
X0183600Y0160851D01*
X0184056Y0162450D02*
X0164332Y0162450D01*
X0154041Y0165647D02*
X0186991Y0165647D01*
X0185654Y0164048D02*
X0152442Y0164048D01*
X0199661Y0144661D02*
X0199661Y0131000D01*
X0209437Y0136873D02*
X0222563Y0136873D01*
X0222274Y0135275D02*
X0209726Y0135275D01*
X0209726Y0133676D02*
X0222274Y0133676D01*
X0222274Y0132078D02*
X0209726Y0132078D01*
X0209726Y0130479D02*
X0222274Y0130479D01*
X0222274Y0128881D02*
X0209726Y0128881D01*
X0209726Y0127282D02*
X0222274Y0127282D01*
X0222274Y0125684D02*
X0209726Y0125684D01*
X0199661Y0144661D02*
X0206000Y0151000D01*
X0226000Y0151000D01*
X0242114Y0136873D02*
X0262600Y0136873D01*
X0262600Y0135275D02*
X0242403Y0135275D01*
X0242403Y0133676D02*
X0262600Y0133676D01*
X0262600Y0132078D02*
X0242403Y0132078D01*
X0242403Y0130479D02*
X0262751Y0130479D01*
X0264349Y0128881D02*
X0242403Y0128881D01*
X0242403Y0127282D02*
X0264479Y0127282D01*
X0264479Y0125684D02*
X0242403Y0125684D01*
X0266800Y0135275D02*
X0356000Y0135275D01*
X0356000Y0136873D02*
X0266800Y0136873D01*
X0266800Y0138472D02*
X0356000Y0138472D01*
X0356000Y0140070D02*
X0266800Y0140070D01*
X0266800Y0141669D02*
X0356000Y0141669D01*
X0356000Y0143268D02*
X0266800Y0143268D01*
X0266800Y0144866D02*
X0356000Y0144866D01*
X0356000Y0146465D02*
X0266800Y0146465D01*
X0277373Y0148063D02*
X0314627Y0148063D01*
X0314479Y0149662D02*
X0277521Y0149662D01*
X0277521Y0151260D02*
X0314479Y0151260D01*
X0314479Y0152859D02*
X0277521Y0152859D01*
X0277521Y0154457D02*
X0314479Y0154457D01*
X0314479Y0160851D02*
X0304019Y0160851D01*
X0302420Y0162450D02*
X0314479Y0162450D01*
X0314479Y0164048D02*
X0300822Y0164048D01*
X0299223Y0165647D02*
X0314479Y0165647D01*
X0315258Y0167245D02*
X0297625Y0167245D01*
X0296026Y0168844D02*
X0356000Y0168844D01*
X0356000Y0170442D02*
X0294428Y0170442D01*
X0292829Y0172041D02*
X0356000Y0172041D01*
X0356000Y0173639D02*
X0291231Y0173639D01*
X0289632Y0175238D02*
X0356000Y0175238D01*
X0356000Y0176836D02*
X0296515Y0176836D01*
X0298715Y0178435D02*
X0356000Y0178435D01*
X0356000Y0180033D02*
X0300199Y0180033D01*
X0301122Y0181632D02*
X0356000Y0181632D01*
X0356000Y0183230D02*
X0301769Y0183230D01*
X0302197Y0184829D02*
X0356000Y0184829D01*
X0356000Y0186427D02*
X0302300Y0186427D01*
X0302300Y0188026D02*
X0356000Y0188026D01*
X0356000Y0189624D02*
X0301915Y0189624D01*
X0301437Y0191223D02*
X0356000Y0191223D01*
X0356000Y0192821D02*
X0300514Y0192821D01*
X0299261Y0194420D02*
X0356000Y0194420D01*
X0356000Y0196018D02*
X0297460Y0196018D01*
X0293917Y0197617D02*
X0356000Y0197617D01*
X0356000Y0199215D02*
X0256185Y0199215D01*
X0254587Y0197617D02*
X0288083Y0197617D01*
X0284540Y0196018D02*
X0235381Y0196018D01*
X0241945Y0189624D02*
X0269306Y0189624D01*
X0270904Y0188026D02*
X0243544Y0188026D01*
X0245143Y0186427D02*
X0272503Y0186427D01*
X0274101Y0184829D02*
X0246741Y0184829D01*
X0248340Y0183230D02*
X0275700Y0183230D01*
X0277298Y0181632D02*
X0249938Y0181632D01*
X0251537Y0180033D02*
X0278897Y0180033D01*
X0280495Y0178435D02*
X0253135Y0178435D01*
X0254734Y0176836D02*
X0282094Y0176836D01*
X0283692Y0175238D02*
X0256332Y0175238D01*
X0257931Y0173639D02*
X0285291Y0173639D01*
X0286889Y0172041D02*
X0259529Y0172041D01*
X0261128Y0170442D02*
X0288488Y0170442D01*
X0290086Y0168844D02*
X0262726Y0168844D01*
X0264325Y0167245D02*
X0265258Y0167245D01*
X0276742Y0167245D02*
X0291685Y0167245D01*
X0293283Y0165647D02*
X0277521Y0165647D01*
X0277521Y0164048D02*
X0294882Y0164048D01*
X0296480Y0162450D02*
X0277521Y0162450D01*
X0277521Y0160851D02*
X0298079Y0160851D01*
X0299678Y0159253D02*
X0277521Y0159253D01*
X0277521Y0157654D02*
X0301276Y0157654D01*
X0302875Y0156056D02*
X0277521Y0156056D01*
X0278443Y0186427D02*
X0279700Y0186427D01*
X0279700Y0188026D02*
X0276844Y0188026D01*
X0275245Y0189624D02*
X0280085Y0189624D01*
X0280563Y0191223D02*
X0273647Y0191223D01*
X0272048Y0192821D02*
X0281486Y0192821D01*
X0282739Y0194420D02*
X0270450Y0194420D01*
X0260981Y0204011D02*
X0356000Y0204011D01*
X0356000Y0205609D02*
X0262579Y0205609D01*
X0264178Y0207208D02*
X0356000Y0207208D01*
X0356000Y0208806D02*
X0265776Y0208806D01*
X0267375Y0210405D02*
X0282607Y0210405D01*
X0283412Y0209600D02*
X0280600Y0212412D01*
X0280600Y0214200D01*
X0285200Y0214200D01*
X0285200Y0214600D01*
X0285200Y0219200D01*
X0283412Y0219200D01*
X0280600Y0216388D01*
X0280600Y0214600D01*
X0285200Y0214600D01*
X0285600Y0214600D01*
X0285600Y0219200D01*
X0287388Y0219200D01*
X0290200Y0216388D01*
X0290200Y0214600D01*
X0285600Y0214600D01*
X0285600Y0214200D01*
X0290200Y0214200D01*
X0290200Y0212412D01*
X0287388Y0209600D01*
X0285600Y0209600D01*
X0285600Y0214200D01*
X0285200Y0214200D01*
X0285200Y0209600D01*
X0283412Y0209600D01*
X0285200Y0210405D02*
X0285600Y0210405D01*
X0285600Y0212003D02*
X0285200Y0212003D01*
X0285200Y0213602D02*
X0285600Y0213602D01*
X0285600Y0215201D02*
X0285200Y0215201D01*
X0285200Y0216799D02*
X0285600Y0216799D01*
X0285600Y0218398D02*
X0285200Y0218398D01*
X0282609Y0218398D02*
X0275367Y0218398D01*
X0276966Y0219996D02*
X0292000Y0219996D01*
X0292000Y0218398D02*
X0288191Y0218398D01*
X0289789Y0216799D02*
X0293096Y0216799D01*
X0292000Y0217895D02*
X0292000Y0221705D01*
X0294695Y0224400D01*
X0298505Y0224400D01*
X0301200Y0221705D01*
X0301200Y0217895D01*
X0298505Y0215200D01*
X0294695Y0215200D01*
X0292000Y0217895D01*
X0290200Y0215201D02*
X0294694Y0215201D01*
X0298506Y0215201D02*
X0356000Y0215201D01*
X0356000Y0216799D02*
X0300104Y0216799D01*
X0301200Y0218398D02*
X0356000Y0218398D01*
X0356000Y0219996D02*
X0301200Y0219996D01*
X0301200Y0221595D02*
X0356000Y0221595D01*
X0356000Y0223193D02*
X0299712Y0223193D01*
X0298505Y0226000D02*
X0294695Y0226000D01*
X0292000Y0228695D01*
X0292000Y0232505D01*
X0294695Y0235200D01*
X0298505Y0235200D01*
X0301200Y0232505D01*
X0301200Y0228695D01*
X0298505Y0226000D01*
X0298895Y0226390D02*
X0356000Y0226390D01*
X0356000Y0224792D02*
X0290000Y0224792D01*
X0290000Y0226390D02*
X0294305Y0226390D01*
X0292706Y0227989D02*
X0289117Y0227989D01*
X0288357Y0229587D02*
X0292000Y0229587D01*
X0292000Y0231186D02*
X0289955Y0231186D01*
X0291554Y0232784D02*
X0292279Y0232784D01*
X0293152Y0234383D02*
X0293877Y0234383D01*
X0294751Y0235981D02*
X0356000Y0235981D01*
X0356000Y0234383D02*
X0299323Y0234383D01*
X0300921Y0232784D02*
X0356000Y0232784D01*
X0356000Y0231186D02*
X0301200Y0231186D01*
X0301200Y0229587D02*
X0356000Y0229587D01*
X0356000Y0227989D02*
X0300494Y0227989D01*
X0293488Y0223193D02*
X0289898Y0223193D01*
X0288300Y0221595D02*
X0292000Y0221595D01*
X0290200Y0213602D02*
X0356000Y0213602D01*
X0356000Y0212003D02*
X0289792Y0212003D01*
X0288193Y0210405D02*
X0356000Y0210405D01*
X0356000Y0202412D02*
X0259382Y0202412D01*
X0257784Y0200814D02*
X0356000Y0200814D01*
X0356000Y0167245D02*
X0326742Y0167245D01*
X0327521Y0165647D02*
X0356000Y0165647D01*
X0356000Y0164048D02*
X0327521Y0164048D01*
X0327521Y0162450D02*
X0356000Y0162450D01*
X0356000Y0160851D02*
X0327521Y0160851D01*
X0327521Y0159253D02*
X0356000Y0159253D01*
X0356000Y0157654D02*
X0327521Y0157654D01*
X0327521Y0156056D02*
X0356000Y0156056D01*
X0356000Y0154457D02*
X0327521Y0154457D01*
X0327521Y0152859D02*
X0356000Y0152859D01*
X0356000Y0151260D02*
X0327521Y0151260D01*
X0327521Y0149662D02*
X0356000Y0149662D01*
X0356000Y0148063D02*
X0327373Y0148063D01*
X0327637Y0133676D02*
X0356000Y0133676D01*
X0356000Y0132078D02*
X0327721Y0132078D01*
X0327721Y0130479D02*
X0356000Y0130479D01*
X0356000Y0128881D02*
X0327721Y0128881D01*
X0327721Y0127282D02*
X0356000Y0127282D01*
X0356000Y0125684D02*
X0327721Y0125684D01*
X0321800Y0120888D02*
X0320200Y0120888D01*
X0320200Y0119290D02*
X0321800Y0119290D01*
X0321800Y0117691D02*
X0320200Y0117691D01*
X0320200Y0116093D02*
X0321800Y0116093D01*
X0321800Y0114494D02*
X0320200Y0114494D01*
X0271000Y0061000D02*
X0251000Y0081000D01*
X0240468Y0068137D02*
X0232111Y0068137D01*
X0233855Y0066539D02*
X0242067Y0066539D01*
X0243665Y0064940D02*
X0235454Y0064940D01*
X0237052Y0063342D02*
X0245264Y0063342D01*
X0246862Y0061743D02*
X0238651Y0061743D01*
X0240249Y0060145D02*
X0248461Y0060145D01*
X0248600Y0058546D02*
X0241848Y0058546D01*
X0244075Y0056948D02*
X0247925Y0056948D01*
X0246879Y0055349D02*
X0245121Y0055349D01*
X0245400Y0053751D02*
X0246600Y0053751D01*
X0246600Y0052152D02*
X0245400Y0052152D01*
X0245400Y0050554D02*
X0246600Y0050554D01*
X0246600Y0048955D02*
X0245400Y0048955D01*
X0245400Y0047357D02*
X0246600Y0047357D01*
X0247249Y0045758D02*
X0244751Y0045758D01*
X0242744Y0044160D02*
X0249256Y0044160D01*
X0271000Y0051000D02*
X0271000Y0061000D01*
X0275121Y0055349D02*
X0276879Y0055349D01*
X0276600Y0053751D02*
X0275400Y0053751D01*
X0275400Y0052152D02*
X0276600Y0052152D01*
X0276600Y0050554D02*
X0275400Y0050554D01*
X0275400Y0048955D02*
X0276600Y0048955D01*
X0276600Y0047357D02*
X0275400Y0047357D01*
X0274751Y0045758D02*
X0277249Y0045758D01*
X0279256Y0044160D02*
X0272744Y0044160D01*
X0282744Y0044160D02*
X0289256Y0044160D01*
X0287249Y0045758D02*
X0284751Y0045758D01*
X0285400Y0047357D02*
X0286600Y0047357D01*
X0286600Y0048955D02*
X0285400Y0048955D01*
X0183665Y0064940D02*
X0180454Y0064940D01*
X0178855Y0066539D02*
X0182067Y0066539D01*
X0180468Y0068137D02*
X0177257Y0068137D01*
X0175658Y0069736D02*
X0178870Y0069736D01*
X0177271Y0071334D02*
X0174060Y0071334D01*
X0175249Y0060145D02*
X0178461Y0060145D01*
X0155673Y0072933D02*
X0143400Y0072933D01*
X0143400Y0074532D02*
X0154074Y0074532D01*
X0152476Y0076130D02*
X0143400Y0076130D01*
X0143668Y0077729D02*
X0150877Y0077729D01*
X0149279Y0079327D02*
X0144853Y0079327D01*
X0145200Y0080926D02*
X0147680Y0080926D01*
X0146750Y0082524D02*
X0144915Y0082524D01*
X0143817Y0084123D02*
X0146750Y0084123D01*
X0146676Y0053751D02*
X0145324Y0053751D01*
X0145324Y0052152D02*
X0146676Y0052152D01*
X0126676Y0048955D02*
X0125324Y0048955D01*
X0125324Y0047357D02*
X0126676Y0047357D01*
X0126676Y0045758D02*
X0125324Y0045758D01*
X0110744Y0205609D02*
X0186247Y0205609D01*
X0190724Y0208806D02*
X0111461Y0208806D01*
X0111461Y0207208D02*
X0192322Y0207208D01*
X0189125Y0210405D02*
X0107287Y0210405D01*
X0107287Y0212003D02*
X0105737Y0212003D01*
X0105737Y0213602D02*
X0107287Y0213602D01*
X0107287Y0215201D02*
X0105737Y0215201D01*
X0102271Y0216799D02*
X0149279Y0216799D01*
X0149279Y0215960D02*
X0149401Y0215502D01*
X0149638Y0215092D01*
X0149974Y0214756D01*
X0150384Y0214520D01*
X0150842Y0214397D01*
X0155200Y0214397D01*
X0155200Y0223861D01*
X0156800Y0223861D01*
X0156800Y0214397D01*
X0161158Y0214397D01*
X0161616Y0214520D01*
X0162026Y0214756D01*
X0162362Y0215092D01*
X0162599Y0215502D01*
X0162721Y0215960D01*
X0162721Y0223861D01*
X0156800Y0223861D01*
X0156800Y0225461D01*
X0162721Y0225461D01*
X0162721Y0233363D01*
X0162599Y0233821D01*
X0162362Y0234231D01*
X0162026Y0234566D01*
X0161616Y0234803D01*
X0161158Y0234926D01*
X0156800Y0234926D01*
X0156800Y0225461D01*
X0155200Y0225461D01*
X0155200Y0223861D01*
X0149279Y0223861D01*
X0149279Y0215960D01*
X0149575Y0215201D02*
X0111454Y0215201D01*
X0111461Y0213602D02*
X0185928Y0213602D01*
X0184330Y0215201D02*
X0162424Y0215201D01*
X0162721Y0216799D02*
X0182731Y0216799D01*
X0181133Y0218398D02*
X0162721Y0218398D01*
X0162721Y0219996D02*
X0179534Y0219996D01*
X0177936Y0221595D02*
X0162721Y0221595D01*
X0162721Y0223193D02*
X0176337Y0223193D01*
X0174739Y0224792D02*
X0156800Y0224792D01*
X0156800Y0226390D02*
X0155200Y0226390D01*
X0155200Y0225461D02*
X0155200Y0234926D01*
X0150842Y0234926D01*
X0150384Y0234803D01*
X0149974Y0234566D01*
X0149638Y0234231D01*
X0149401Y0233821D01*
X0149279Y0233363D01*
X0149279Y0225461D01*
X0155200Y0225461D01*
X0155200Y0224792D02*
X0031000Y0224792D01*
X0031000Y0226390D02*
X0149279Y0226390D01*
X0149279Y0227989D02*
X0031000Y0227989D01*
X0031000Y0229587D02*
X0149279Y0229587D01*
X0149279Y0231186D02*
X0031000Y0231186D01*
X0031000Y0232784D02*
X0149279Y0232784D01*
X0149790Y0234383D02*
X0031000Y0234383D01*
X0031000Y0235981D02*
X0163549Y0235981D01*
X0162210Y0234383D02*
X0165148Y0234383D01*
X0166746Y0232784D02*
X0162721Y0232784D01*
X0162721Y0231186D02*
X0168345Y0231186D01*
X0169943Y0229587D02*
X0162721Y0229587D01*
X0162721Y0227989D02*
X0171542Y0227989D01*
X0173140Y0226390D02*
X0162721Y0226390D01*
X0156800Y0227989D02*
X0155200Y0227989D01*
X0155200Y0229587D02*
X0156800Y0229587D01*
X0156800Y0231186D02*
X0155200Y0231186D01*
X0155200Y0232784D02*
X0156800Y0232784D01*
X0156800Y0234383D02*
X0155200Y0234383D01*
X0161950Y0237580D02*
X0031000Y0237580D01*
X0031000Y0239178D02*
X0160352Y0239178D01*
X0158753Y0240777D02*
X0031000Y0240777D01*
X0031000Y0242375D02*
X0157155Y0242375D01*
X0155556Y0243974D02*
X0031000Y0243974D01*
X0031000Y0245572D02*
X0149458Y0245572D01*
X0147859Y0247171D02*
X0031000Y0247171D01*
X0031000Y0248769D02*
X0147400Y0248769D01*
X0147400Y0250368D02*
X0031000Y0250368D01*
X0031000Y0251966D02*
X0147400Y0251966D01*
X0147400Y0253565D02*
X0031000Y0253565D01*
X0031000Y0255163D02*
X0147400Y0255163D01*
X0147400Y0256762D02*
X0031000Y0256762D01*
X0031000Y0258360D02*
X0147400Y0258360D01*
X0147400Y0259959D02*
X0031000Y0259959D01*
X0031000Y0261557D02*
X0147400Y0261557D01*
X0147400Y0263156D02*
X0031000Y0263156D01*
X0031000Y0264754D02*
X0147400Y0264754D01*
X0147400Y0266353D02*
X0031000Y0266353D01*
X0031000Y0267951D02*
X0147982Y0267951D01*
X0162521Y0259959D02*
X0201540Y0259959D01*
X0201400Y0258360D02*
X0162521Y0258360D01*
X0162521Y0256762D02*
X0201400Y0256762D01*
X0201400Y0255163D02*
X0162521Y0255163D01*
X0162521Y0253565D02*
X0201400Y0253565D01*
X0201564Y0251966D02*
X0162521Y0251966D01*
X0162521Y0250368D02*
X0202372Y0250368D01*
X0204750Y0248769D02*
X0162521Y0248769D01*
X0163727Y0261557D02*
X0202317Y0261557D01*
X0209683Y0261557D02*
X0212535Y0261557D01*
X0211717Y0259959D02*
X0210460Y0259959D01*
X0210600Y0258360D02*
X0211600Y0258360D01*
X0211600Y0256762D02*
X0210600Y0256762D01*
X0210600Y0255163D02*
X0211600Y0255163D01*
X0211600Y0253565D02*
X0210600Y0253565D01*
X0210436Y0251966D02*
X0211748Y0251966D01*
X0212610Y0250368D02*
X0209628Y0250368D01*
X0187527Y0212003D02*
X0111461Y0212003D01*
X0100672Y0218398D02*
X0149279Y0218398D01*
X0149279Y0219996D02*
X0031000Y0219996D01*
X0031000Y0221595D02*
X0149279Y0221595D01*
X0149279Y0223193D02*
X0031000Y0223193D01*
X0031000Y0269550D02*
X0356000Y0269550D01*
X0356000Y0271148D02*
X0031000Y0271148D01*
X0031000Y0272747D02*
X0356000Y0272747D01*
X0356000Y0274345D02*
X0293777Y0274345D01*
X0292488Y0274000D02*
X0295362Y0274770D01*
X0297938Y0276258D01*
X0300042Y0278362D01*
X0301530Y0280938D01*
X0302300Y0283812D01*
X0302300Y0286788D01*
X0301530Y0289662D01*
X0300042Y0292238D01*
X0297938Y0294342D01*
X0295362Y0295830D01*
X0292488Y0296600D01*
X0289512Y0296600D01*
X0286638Y0295830D01*
X0284062Y0294342D01*
X0281958Y0292238D01*
X0280470Y0289662D01*
X0279700Y0286788D01*
X0279700Y0283812D01*
X0280470Y0280938D01*
X0281958Y0278362D01*
X0284062Y0276258D01*
X0286638Y0274770D01*
X0289512Y0274000D01*
X0292488Y0274000D01*
X0288223Y0274345D02*
X0031000Y0274345D01*
X0031000Y0275944D02*
X0284605Y0275944D01*
X0282777Y0277542D02*
X0031000Y0277542D01*
X0031000Y0279141D02*
X0281508Y0279141D01*
X0280585Y0280739D02*
X0031000Y0280739D01*
X0031000Y0282338D02*
X0280095Y0282338D01*
X0279700Y0283937D02*
X0031000Y0283937D01*
X0031000Y0285535D02*
X0279700Y0285535D01*
X0279793Y0287134D02*
X0031000Y0287134D01*
X0031000Y0288732D02*
X0280221Y0288732D01*
X0280856Y0290331D02*
X0031000Y0290331D01*
X0031000Y0291929D02*
X0281779Y0291929D01*
X0283247Y0293528D02*
X0031000Y0293528D01*
X0031000Y0295126D02*
X0285419Y0295126D01*
X0296581Y0295126D02*
X0356000Y0295126D01*
X0356000Y0293528D02*
X0298753Y0293528D01*
X0300221Y0291929D02*
X0356000Y0291929D01*
X0356000Y0290331D02*
X0301144Y0290331D01*
X0301779Y0288732D02*
X0356000Y0288732D01*
X0356000Y0287134D02*
X0302207Y0287134D01*
X0302300Y0285535D02*
X0356000Y0285535D01*
X0356000Y0283937D02*
X0302300Y0283937D01*
X0301905Y0282338D02*
X0356000Y0282338D01*
X0356000Y0280739D02*
X0301415Y0280739D01*
X0300492Y0279141D02*
X0356000Y0279141D01*
X0356000Y0277542D02*
X0299223Y0277542D01*
X0297395Y0275944D02*
X0356000Y0275944D01*
X0356000Y0267951D02*
X0268018Y0267951D01*
X0269617Y0266353D02*
X0356000Y0266353D01*
X0356000Y0264754D02*
X0271215Y0264754D01*
X0272814Y0263156D02*
X0356000Y0263156D01*
X0356000Y0261557D02*
X0287948Y0261557D01*
X0287305Y0262200D02*
X0283495Y0262200D01*
X0280800Y0259505D01*
X0280800Y0255695D01*
X0283495Y0253000D01*
X0287305Y0253000D01*
X0290000Y0255695D01*
X0290000Y0259505D01*
X0287305Y0262200D01*
X0289547Y0259959D02*
X0356000Y0259959D01*
X0356000Y0258360D02*
X0290000Y0258360D01*
X0290000Y0256762D02*
X0294656Y0256762D01*
X0293058Y0255163D02*
X0289469Y0255163D01*
X0287870Y0253565D02*
X0292000Y0253565D01*
X0292000Y0251966D02*
X0284004Y0251966D01*
X0282930Y0253565D02*
X0282405Y0253565D01*
X0281331Y0255163D02*
X0280807Y0255163D01*
X0280800Y0256762D02*
X0279208Y0256762D01*
X0280800Y0258360D02*
X0277610Y0258360D01*
X0276011Y0259959D02*
X0281253Y0259959D01*
X0282852Y0261557D02*
X0274412Y0261557D01*
X0288338Y0250368D02*
X0292000Y0250368D01*
X0290799Y0248769D02*
X0289936Y0248769D01*
X0293542Y0245572D02*
X0294267Y0245572D01*
X0295141Y0247171D02*
X0356000Y0247171D01*
X0356000Y0248769D02*
X0299675Y0248769D01*
X0301200Y0250368D02*
X0356000Y0250368D01*
X0356000Y0251966D02*
X0301200Y0251966D01*
X0301200Y0253565D02*
X0356000Y0253565D01*
X0356000Y0255163D02*
X0300142Y0255163D01*
X0298544Y0256762D02*
X0356000Y0256762D01*
X0356000Y0245572D02*
X0298933Y0245572D01*
X0300532Y0243974D02*
X0356000Y0243974D01*
X0356000Y0242375D02*
X0301200Y0242375D01*
X0301200Y0240777D02*
X0356000Y0240777D01*
X0356000Y0239178D02*
X0300884Y0239178D01*
X0299285Y0237580D02*
X0356000Y0237580D01*
X0292668Y0243974D02*
X0291944Y0243974D01*
X0292000Y0242375D02*
X0290345Y0242375D01*
X0288747Y0240777D02*
X0292000Y0240777D01*
X0292008Y0239178D02*
X0288727Y0239178D01*
X0290000Y0237580D02*
X0290410Y0237580D01*
X0280902Y0223193D02*
X0280163Y0223193D01*
X0278564Y0221595D02*
X0282500Y0221595D01*
X0281011Y0216799D02*
X0273769Y0216799D01*
X0272170Y0215201D02*
X0280600Y0215201D01*
X0280600Y0213602D02*
X0270572Y0213602D01*
X0268973Y0212003D02*
X0281008Y0212003D01*
X0356000Y0296725D02*
X0031000Y0296725D01*
X0031000Y0298323D02*
X0356000Y0298323D01*
X0356000Y0299922D02*
X0031000Y0299922D01*
X0091000Y0211000D02*
X0095488Y0211000D01*
X0095500Y0211000D01*
X0096000Y0211000D01*
X0155200Y0215201D02*
X0156800Y0215201D01*
X0156800Y0216799D02*
X0155200Y0216799D01*
X0155200Y0218398D02*
X0156800Y0218398D01*
X0156800Y0219996D02*
X0155200Y0219996D01*
X0155200Y0221595D02*
X0156800Y0221595D01*
X0156800Y0223193D02*
X0155200Y0223193D01*
D22*
X0155800Y0224200D02*
X0156000Y0224661D01*
X0155800Y0225100D01*
X0155800Y0239500D01*
X0147700Y0247600D01*
X0147700Y0267400D01*
X0149500Y0269200D01*
X0286300Y0269200D01*
X0301600Y0253900D01*
X0301600Y0228700D01*
X0297100Y0224200D01*
X0294400Y0224200D01*
X0285400Y0215200D01*
X0285400Y0214400D01*
X0285400Y0208900D01*
X0327700Y0166600D01*
X0327700Y0131500D01*
X0321400Y0125200D01*
X0321000Y0124661D01*
X0320500Y0124300D01*
X0310600Y0114400D01*
X0200800Y0114400D01*
X0185500Y0129700D01*
X0185500Y0138700D01*
X0186000Y0140094D01*
X0186400Y0141400D01*
X0186400Y0143200D01*
X0220600Y0177400D01*
X0220600Y0260200D01*
X0217900Y0262900D01*
X0212500Y0262900D01*
X0206200Y0256600D01*
X0206000Y0256000D01*
X0218800Y0264700D02*
X0163900Y0264700D01*
X0156700Y0257500D01*
X0156000Y0257339D01*
X0149500Y0248500D02*
X0149500Y0266500D01*
X0150400Y0267400D01*
X0265600Y0267400D01*
X0285400Y0247600D01*
X0285400Y0246800D01*
X0285400Y0242200D02*
X0287200Y0242200D01*
X0297100Y0252100D01*
X0296600Y0252200D01*
X0296600Y0241400D02*
X0297100Y0241300D01*
X0287200Y0231400D01*
X0285400Y0231400D01*
X0253000Y0199000D01*
X0230500Y0199000D01*
X0230300Y0198500D01*
X0230300Y0193500D02*
X0230500Y0192700D01*
X0269200Y0192700D01*
X0304300Y0157600D01*
X0320500Y0157600D01*
X0321000Y0157339D01*
X0271000Y0157600D02*
X0271000Y0157339D01*
X0271000Y0157600D02*
X0240400Y0188200D01*
X0230500Y0188200D01*
X0230300Y0188500D01*
X0230300Y0183500D02*
X0230500Y0182800D01*
X0233200Y0182800D01*
X0264700Y0151300D01*
X0264700Y0131500D01*
X0271000Y0125200D01*
X0271000Y0124661D01*
X0230300Y0173500D02*
X0229600Y0173800D01*
X0227800Y0173800D01*
X0222400Y0179200D01*
X0222400Y0261100D01*
X0218800Y0264700D01*
X0197200Y0205300D02*
X0155800Y0246700D01*
X0151300Y0246700D01*
X0149500Y0248500D01*
X0155800Y0224200D02*
X0143200Y0211600D01*
X0107200Y0211600D01*
X0106512Y0211000D01*
X0101800Y0214300D02*
X0101800Y0206200D01*
X0104500Y0203500D01*
X0191700Y0203500D01*
X0197200Y0205300D02*
X0197200Y0186400D01*
X0194500Y0183700D01*
X0191800Y0183700D01*
X0191700Y0183500D01*
X0230300Y0203500D02*
X0246700Y0203500D01*
X0285400Y0242200D01*
X0168835Y0139150D02*
X0168400Y0138700D01*
X0165700Y0138700D01*
X0146800Y0119800D01*
X0146800Y0113500D01*
X0146000Y0113165D01*
X0145900Y0112600D01*
X0145900Y0111700D01*
X0146000Y0111000D01*
X0126100Y0117100D02*
X0148600Y0139600D01*
X0148600Y0158500D01*
X0149150Y0158835D01*
X0123165Y0139150D02*
X0122500Y0138700D01*
X0110800Y0138700D01*
X0091000Y0118900D01*
X0073900Y0118900D01*
X0070300Y0122500D01*
X0070300Y0203500D01*
X0083800Y0217000D01*
X0099100Y0217000D01*
X0101800Y0214300D01*
X0095500Y0211000D02*
X0095500Y0210700D01*
X0095488Y0211000D01*
X0064900Y0125200D02*
X0050500Y0125200D01*
X0049661Y0126000D01*
X0064900Y0125200D02*
X0073000Y0117100D01*
X0126100Y0117100D01*
X0145900Y0062200D02*
X0146000Y0062200D01*
X0145900Y0062200D02*
X0146000Y0061906D01*
X0280900Y0055900D02*
X0280900Y0051400D01*
X0281000Y0051000D01*
X0280900Y0055900D02*
X0281000Y0056000D01*
M02*
