G75*
%MOIN*%
%OFA0B0*%
%FSLAX25Y25*%
%IPPOS*%
%LPD*%
%AMOC8*
5,1,8,0,0,1.08239X$1,22.5*
%
%ADD10C,0.00000*%
%ADD11C,0.00300*%
%ADD12C,0.00800*%
%ADD13C,0.00400*%
%ADD14C,0.01000*%
%ADD15C,0.00600*%
%ADD16C,0.00200*%
%ADD17C,0.00500*%
%ADD18R,0.00500X0.02000*%
%ADD19R,0.02000X0.06000*%
%ADD20R,0.01000X0.02500*%
%ADD21R,0.00500X0.01000*%
%ADD22C,0.00700*%
D10*
X0001000Y0001000D02*
X0001000Y0315961D01*
X0394701Y0315961D01*
X0394701Y0001000D01*
X0001000Y0001000D01*
X0284500Y0186700D02*
X0284502Y0186861D01*
X0284508Y0187021D01*
X0284518Y0187182D01*
X0284532Y0187342D01*
X0284550Y0187502D01*
X0284571Y0187661D01*
X0284597Y0187820D01*
X0284627Y0187978D01*
X0284660Y0188135D01*
X0284698Y0188292D01*
X0284739Y0188447D01*
X0284784Y0188601D01*
X0284833Y0188754D01*
X0284886Y0188906D01*
X0284942Y0189057D01*
X0285003Y0189206D01*
X0285066Y0189354D01*
X0285134Y0189500D01*
X0285205Y0189644D01*
X0285279Y0189786D01*
X0285357Y0189927D01*
X0285439Y0190065D01*
X0285524Y0190202D01*
X0285612Y0190336D01*
X0285704Y0190468D01*
X0285799Y0190598D01*
X0285897Y0190726D01*
X0285998Y0190851D01*
X0286102Y0190973D01*
X0286209Y0191093D01*
X0286319Y0191210D01*
X0286432Y0191325D01*
X0286548Y0191436D01*
X0286667Y0191545D01*
X0286788Y0191650D01*
X0286912Y0191753D01*
X0287038Y0191853D01*
X0287166Y0191949D01*
X0287297Y0192042D01*
X0287431Y0192132D01*
X0287566Y0192219D01*
X0287704Y0192302D01*
X0287843Y0192382D01*
X0287985Y0192458D01*
X0288128Y0192531D01*
X0288273Y0192600D01*
X0288420Y0192666D01*
X0288568Y0192728D01*
X0288718Y0192786D01*
X0288869Y0192841D01*
X0289022Y0192892D01*
X0289176Y0192939D01*
X0289331Y0192982D01*
X0289487Y0193021D01*
X0289643Y0193057D01*
X0289801Y0193088D01*
X0289959Y0193116D01*
X0290118Y0193140D01*
X0290278Y0193160D01*
X0290438Y0193176D01*
X0290598Y0193188D01*
X0290759Y0193196D01*
X0290920Y0193200D01*
X0291080Y0193200D01*
X0291241Y0193196D01*
X0291402Y0193188D01*
X0291562Y0193176D01*
X0291722Y0193160D01*
X0291882Y0193140D01*
X0292041Y0193116D01*
X0292199Y0193088D01*
X0292357Y0193057D01*
X0292513Y0193021D01*
X0292669Y0192982D01*
X0292824Y0192939D01*
X0292978Y0192892D01*
X0293131Y0192841D01*
X0293282Y0192786D01*
X0293432Y0192728D01*
X0293580Y0192666D01*
X0293727Y0192600D01*
X0293872Y0192531D01*
X0294015Y0192458D01*
X0294157Y0192382D01*
X0294296Y0192302D01*
X0294434Y0192219D01*
X0294569Y0192132D01*
X0294703Y0192042D01*
X0294834Y0191949D01*
X0294962Y0191853D01*
X0295088Y0191753D01*
X0295212Y0191650D01*
X0295333Y0191545D01*
X0295452Y0191436D01*
X0295568Y0191325D01*
X0295681Y0191210D01*
X0295791Y0191093D01*
X0295898Y0190973D01*
X0296002Y0190851D01*
X0296103Y0190726D01*
X0296201Y0190598D01*
X0296296Y0190468D01*
X0296388Y0190336D01*
X0296476Y0190202D01*
X0296561Y0190065D01*
X0296643Y0189927D01*
X0296721Y0189786D01*
X0296795Y0189644D01*
X0296866Y0189500D01*
X0296934Y0189354D01*
X0296997Y0189206D01*
X0297058Y0189057D01*
X0297114Y0188906D01*
X0297167Y0188754D01*
X0297216Y0188601D01*
X0297261Y0188447D01*
X0297302Y0188292D01*
X0297340Y0188135D01*
X0297373Y0187978D01*
X0297403Y0187820D01*
X0297429Y0187661D01*
X0297450Y0187502D01*
X0297468Y0187342D01*
X0297482Y0187182D01*
X0297492Y0187021D01*
X0297498Y0186861D01*
X0297500Y0186700D01*
X0297498Y0186539D01*
X0297492Y0186379D01*
X0297482Y0186218D01*
X0297468Y0186058D01*
X0297450Y0185898D01*
X0297429Y0185739D01*
X0297403Y0185580D01*
X0297373Y0185422D01*
X0297340Y0185265D01*
X0297302Y0185108D01*
X0297261Y0184953D01*
X0297216Y0184799D01*
X0297167Y0184646D01*
X0297114Y0184494D01*
X0297058Y0184343D01*
X0296997Y0184194D01*
X0296934Y0184046D01*
X0296866Y0183900D01*
X0296795Y0183756D01*
X0296721Y0183614D01*
X0296643Y0183473D01*
X0296561Y0183335D01*
X0296476Y0183198D01*
X0296388Y0183064D01*
X0296296Y0182932D01*
X0296201Y0182802D01*
X0296103Y0182674D01*
X0296002Y0182549D01*
X0295898Y0182427D01*
X0295791Y0182307D01*
X0295681Y0182190D01*
X0295568Y0182075D01*
X0295452Y0181964D01*
X0295333Y0181855D01*
X0295212Y0181750D01*
X0295088Y0181647D01*
X0294962Y0181547D01*
X0294834Y0181451D01*
X0294703Y0181358D01*
X0294569Y0181268D01*
X0294434Y0181181D01*
X0294296Y0181098D01*
X0294157Y0181018D01*
X0294015Y0180942D01*
X0293872Y0180869D01*
X0293727Y0180800D01*
X0293580Y0180734D01*
X0293432Y0180672D01*
X0293282Y0180614D01*
X0293131Y0180559D01*
X0292978Y0180508D01*
X0292824Y0180461D01*
X0292669Y0180418D01*
X0292513Y0180379D01*
X0292357Y0180343D01*
X0292199Y0180312D01*
X0292041Y0180284D01*
X0291882Y0180260D01*
X0291722Y0180240D01*
X0291562Y0180224D01*
X0291402Y0180212D01*
X0291241Y0180204D01*
X0291080Y0180200D01*
X0290920Y0180200D01*
X0290759Y0180204D01*
X0290598Y0180212D01*
X0290438Y0180224D01*
X0290278Y0180240D01*
X0290118Y0180260D01*
X0289959Y0180284D01*
X0289801Y0180312D01*
X0289643Y0180343D01*
X0289487Y0180379D01*
X0289331Y0180418D01*
X0289176Y0180461D01*
X0289022Y0180508D01*
X0288869Y0180559D01*
X0288718Y0180614D01*
X0288568Y0180672D01*
X0288420Y0180734D01*
X0288273Y0180800D01*
X0288128Y0180869D01*
X0287985Y0180942D01*
X0287843Y0181018D01*
X0287704Y0181098D01*
X0287566Y0181181D01*
X0287431Y0181268D01*
X0287297Y0181358D01*
X0287166Y0181451D01*
X0287038Y0181547D01*
X0286912Y0181647D01*
X0286788Y0181750D01*
X0286667Y0181855D01*
X0286548Y0181964D01*
X0286432Y0182075D01*
X0286319Y0182190D01*
X0286209Y0182307D01*
X0286102Y0182427D01*
X0285998Y0182549D01*
X0285897Y0182674D01*
X0285799Y0182802D01*
X0285704Y0182932D01*
X0285612Y0183064D01*
X0285524Y0183198D01*
X0285439Y0183335D01*
X0285357Y0183473D01*
X0285279Y0183614D01*
X0285205Y0183756D01*
X0285134Y0183900D01*
X0285066Y0184046D01*
X0285003Y0184194D01*
X0284942Y0184343D01*
X0284886Y0184494D01*
X0284833Y0184646D01*
X0284784Y0184799D01*
X0284739Y0184953D01*
X0284698Y0185108D01*
X0284660Y0185265D01*
X0284627Y0185422D01*
X0284597Y0185580D01*
X0284571Y0185739D01*
X0284550Y0185898D01*
X0284532Y0186058D01*
X0284518Y0186218D01*
X0284508Y0186379D01*
X0284502Y0186539D01*
X0284500Y0186700D01*
X0284500Y0285300D02*
X0284502Y0285461D01*
X0284508Y0285621D01*
X0284518Y0285782D01*
X0284532Y0285942D01*
X0284550Y0286102D01*
X0284571Y0286261D01*
X0284597Y0286420D01*
X0284627Y0286578D01*
X0284660Y0286735D01*
X0284698Y0286892D01*
X0284739Y0287047D01*
X0284784Y0287201D01*
X0284833Y0287354D01*
X0284886Y0287506D01*
X0284942Y0287657D01*
X0285003Y0287806D01*
X0285066Y0287954D01*
X0285134Y0288100D01*
X0285205Y0288244D01*
X0285279Y0288386D01*
X0285357Y0288527D01*
X0285439Y0288665D01*
X0285524Y0288802D01*
X0285612Y0288936D01*
X0285704Y0289068D01*
X0285799Y0289198D01*
X0285897Y0289326D01*
X0285998Y0289451D01*
X0286102Y0289573D01*
X0286209Y0289693D01*
X0286319Y0289810D01*
X0286432Y0289925D01*
X0286548Y0290036D01*
X0286667Y0290145D01*
X0286788Y0290250D01*
X0286912Y0290353D01*
X0287038Y0290453D01*
X0287166Y0290549D01*
X0287297Y0290642D01*
X0287431Y0290732D01*
X0287566Y0290819D01*
X0287704Y0290902D01*
X0287843Y0290982D01*
X0287985Y0291058D01*
X0288128Y0291131D01*
X0288273Y0291200D01*
X0288420Y0291266D01*
X0288568Y0291328D01*
X0288718Y0291386D01*
X0288869Y0291441D01*
X0289022Y0291492D01*
X0289176Y0291539D01*
X0289331Y0291582D01*
X0289487Y0291621D01*
X0289643Y0291657D01*
X0289801Y0291688D01*
X0289959Y0291716D01*
X0290118Y0291740D01*
X0290278Y0291760D01*
X0290438Y0291776D01*
X0290598Y0291788D01*
X0290759Y0291796D01*
X0290920Y0291800D01*
X0291080Y0291800D01*
X0291241Y0291796D01*
X0291402Y0291788D01*
X0291562Y0291776D01*
X0291722Y0291760D01*
X0291882Y0291740D01*
X0292041Y0291716D01*
X0292199Y0291688D01*
X0292357Y0291657D01*
X0292513Y0291621D01*
X0292669Y0291582D01*
X0292824Y0291539D01*
X0292978Y0291492D01*
X0293131Y0291441D01*
X0293282Y0291386D01*
X0293432Y0291328D01*
X0293580Y0291266D01*
X0293727Y0291200D01*
X0293872Y0291131D01*
X0294015Y0291058D01*
X0294157Y0290982D01*
X0294296Y0290902D01*
X0294434Y0290819D01*
X0294569Y0290732D01*
X0294703Y0290642D01*
X0294834Y0290549D01*
X0294962Y0290453D01*
X0295088Y0290353D01*
X0295212Y0290250D01*
X0295333Y0290145D01*
X0295452Y0290036D01*
X0295568Y0289925D01*
X0295681Y0289810D01*
X0295791Y0289693D01*
X0295898Y0289573D01*
X0296002Y0289451D01*
X0296103Y0289326D01*
X0296201Y0289198D01*
X0296296Y0289068D01*
X0296388Y0288936D01*
X0296476Y0288802D01*
X0296561Y0288665D01*
X0296643Y0288527D01*
X0296721Y0288386D01*
X0296795Y0288244D01*
X0296866Y0288100D01*
X0296934Y0287954D01*
X0296997Y0287806D01*
X0297058Y0287657D01*
X0297114Y0287506D01*
X0297167Y0287354D01*
X0297216Y0287201D01*
X0297261Y0287047D01*
X0297302Y0286892D01*
X0297340Y0286735D01*
X0297373Y0286578D01*
X0297403Y0286420D01*
X0297429Y0286261D01*
X0297450Y0286102D01*
X0297468Y0285942D01*
X0297482Y0285782D01*
X0297492Y0285621D01*
X0297498Y0285461D01*
X0297500Y0285300D01*
X0297498Y0285139D01*
X0297492Y0284979D01*
X0297482Y0284818D01*
X0297468Y0284658D01*
X0297450Y0284498D01*
X0297429Y0284339D01*
X0297403Y0284180D01*
X0297373Y0284022D01*
X0297340Y0283865D01*
X0297302Y0283708D01*
X0297261Y0283553D01*
X0297216Y0283399D01*
X0297167Y0283246D01*
X0297114Y0283094D01*
X0297058Y0282943D01*
X0296997Y0282794D01*
X0296934Y0282646D01*
X0296866Y0282500D01*
X0296795Y0282356D01*
X0296721Y0282214D01*
X0296643Y0282073D01*
X0296561Y0281935D01*
X0296476Y0281798D01*
X0296388Y0281664D01*
X0296296Y0281532D01*
X0296201Y0281402D01*
X0296103Y0281274D01*
X0296002Y0281149D01*
X0295898Y0281027D01*
X0295791Y0280907D01*
X0295681Y0280790D01*
X0295568Y0280675D01*
X0295452Y0280564D01*
X0295333Y0280455D01*
X0295212Y0280350D01*
X0295088Y0280247D01*
X0294962Y0280147D01*
X0294834Y0280051D01*
X0294703Y0279958D01*
X0294569Y0279868D01*
X0294434Y0279781D01*
X0294296Y0279698D01*
X0294157Y0279618D01*
X0294015Y0279542D01*
X0293872Y0279469D01*
X0293727Y0279400D01*
X0293580Y0279334D01*
X0293432Y0279272D01*
X0293282Y0279214D01*
X0293131Y0279159D01*
X0292978Y0279108D01*
X0292824Y0279061D01*
X0292669Y0279018D01*
X0292513Y0278979D01*
X0292357Y0278943D01*
X0292199Y0278912D01*
X0292041Y0278884D01*
X0291882Y0278860D01*
X0291722Y0278840D01*
X0291562Y0278824D01*
X0291402Y0278812D01*
X0291241Y0278804D01*
X0291080Y0278800D01*
X0290920Y0278800D01*
X0290759Y0278804D01*
X0290598Y0278812D01*
X0290438Y0278824D01*
X0290278Y0278840D01*
X0290118Y0278860D01*
X0289959Y0278884D01*
X0289801Y0278912D01*
X0289643Y0278943D01*
X0289487Y0278979D01*
X0289331Y0279018D01*
X0289176Y0279061D01*
X0289022Y0279108D01*
X0288869Y0279159D01*
X0288718Y0279214D01*
X0288568Y0279272D01*
X0288420Y0279334D01*
X0288273Y0279400D01*
X0288128Y0279469D01*
X0287985Y0279542D01*
X0287843Y0279618D01*
X0287704Y0279698D01*
X0287566Y0279781D01*
X0287431Y0279868D01*
X0287297Y0279958D01*
X0287166Y0280051D01*
X0287038Y0280147D01*
X0286912Y0280247D01*
X0286788Y0280350D01*
X0286667Y0280455D01*
X0286548Y0280564D01*
X0286432Y0280675D01*
X0286319Y0280790D01*
X0286209Y0280907D01*
X0286102Y0281027D01*
X0285998Y0281149D01*
X0285897Y0281274D01*
X0285799Y0281402D01*
X0285704Y0281532D01*
X0285612Y0281664D01*
X0285524Y0281798D01*
X0285439Y0281935D01*
X0285357Y0282073D01*
X0285279Y0282214D01*
X0285205Y0282356D01*
X0285134Y0282500D01*
X0285066Y0282646D01*
X0285003Y0282794D01*
X0284942Y0282943D01*
X0284886Y0283094D01*
X0284833Y0283246D01*
X0284784Y0283399D01*
X0284739Y0283553D01*
X0284698Y0283708D01*
X0284660Y0283865D01*
X0284627Y0284022D01*
X0284597Y0284180D01*
X0284571Y0284339D01*
X0284550Y0284498D01*
X0284532Y0284658D01*
X0284518Y0284818D01*
X0284508Y0284979D01*
X0284502Y0285139D01*
X0284500Y0285300D01*
D11*
X0180902Y0146003D02*
X0181519Y0145386D01*
X0181519Y0144151D01*
X0180902Y0143534D01*
X0180902Y0142320D02*
X0181519Y0141702D01*
X0181519Y0140468D01*
X0180902Y0139851D01*
X0178433Y0139851D01*
X0177816Y0140468D01*
X0177816Y0141702D01*
X0178433Y0142320D01*
X0178433Y0143534D02*
X0177816Y0144151D01*
X0177816Y0145386D01*
X0178433Y0146003D01*
X0179051Y0146003D01*
X0179668Y0145386D01*
X0180285Y0146003D01*
X0180902Y0146003D01*
X0179668Y0145386D02*
X0179668Y0144768D01*
X0154181Y0061235D02*
X0154181Y0058766D01*
X0154181Y0060000D02*
X0150478Y0060000D01*
X0151712Y0058766D01*
X0151095Y0057552D02*
X0150478Y0056934D01*
X0150478Y0055700D01*
X0151095Y0055083D01*
X0153564Y0055083D01*
X0154181Y0055700D01*
X0154181Y0056934D01*
X0153564Y0057552D01*
X0134181Y0056934D02*
X0133564Y0057552D01*
X0134181Y0056934D02*
X0134181Y0055700D01*
X0133564Y0055083D01*
X0131095Y0055083D01*
X0130478Y0055700D01*
X0130478Y0056934D01*
X0131095Y0057552D01*
X0131095Y0058766D02*
X0130478Y0059383D01*
X0130478Y0060618D01*
X0131095Y0061235D01*
X0131712Y0061235D01*
X0134181Y0058766D01*
X0134181Y0061235D01*
D12*
X0088835Y0111433D02*
X0083126Y0105724D01*
X0043165Y0105724D01*
X0043165Y0120291D01*
X0043165Y0131709D02*
X0043165Y0146276D01*
X0083126Y0146276D01*
X0088835Y0140567D01*
X0088835Y0131709D01*
X0088835Y0120291D02*
X0088835Y0111433D01*
X0084504Y0120488D02*
X0084364Y0120038D01*
X0084213Y0119592D01*
X0084051Y0119150D01*
X0083878Y0118711D01*
X0083695Y0118277D01*
X0083501Y0117847D01*
X0083297Y0117423D01*
X0083083Y0117003D01*
X0082858Y0116589D01*
X0082623Y0116180D01*
X0082379Y0115778D01*
X0082124Y0115381D01*
X0081861Y0114991D01*
X0081587Y0114607D01*
X0081304Y0114230D01*
X0081013Y0113860D01*
X0080712Y0113497D01*
X0080402Y0113142D01*
X0080084Y0112794D01*
X0079758Y0112455D01*
X0079423Y0112123D01*
X0079081Y0111799D01*
X0078730Y0111484D01*
X0078372Y0111178D01*
X0078007Y0110881D01*
X0077634Y0110592D01*
X0077255Y0110313D01*
X0076869Y0110043D01*
X0076476Y0109782D01*
X0076077Y0109531D01*
X0075672Y0109290D01*
X0075262Y0109059D01*
X0074845Y0108838D01*
X0074424Y0108628D01*
X0073998Y0108427D01*
X0073566Y0108237D01*
X0073131Y0108058D01*
X0072691Y0107889D01*
X0072247Y0107731D01*
X0071799Y0107584D01*
X0071348Y0107448D01*
X0070894Y0107323D01*
X0070436Y0107210D01*
X0069977Y0107107D01*
X0069514Y0107016D01*
X0069050Y0106935D01*
X0068584Y0106867D01*
X0068116Y0106809D01*
X0067647Y0106763D01*
X0067177Y0106729D01*
X0066707Y0106706D01*
X0066236Y0106694D01*
X0065764Y0106694D01*
X0065293Y0106706D01*
X0064823Y0106729D01*
X0064353Y0106763D01*
X0063884Y0106809D01*
X0063416Y0106867D01*
X0062950Y0106935D01*
X0062486Y0107016D01*
X0062023Y0107107D01*
X0061564Y0107210D01*
X0061106Y0107323D01*
X0060652Y0107448D01*
X0060201Y0107584D01*
X0059753Y0107731D01*
X0059309Y0107889D01*
X0058869Y0108058D01*
X0058434Y0108237D01*
X0058002Y0108427D01*
X0057576Y0108628D01*
X0057155Y0108838D01*
X0056738Y0109059D01*
X0056328Y0109290D01*
X0055923Y0109531D01*
X0055524Y0109782D01*
X0055131Y0110043D01*
X0054745Y0110313D01*
X0054366Y0110592D01*
X0053993Y0110881D01*
X0053628Y0111178D01*
X0053270Y0111484D01*
X0052919Y0111799D01*
X0052577Y0112123D01*
X0052242Y0112455D01*
X0051916Y0112794D01*
X0051598Y0113142D01*
X0051288Y0113497D01*
X0050987Y0113860D01*
X0050696Y0114230D01*
X0050413Y0114607D01*
X0050139Y0114991D01*
X0049876Y0115381D01*
X0049621Y0115778D01*
X0049377Y0116180D01*
X0049142Y0116589D01*
X0048917Y0117003D01*
X0048703Y0117423D01*
X0048499Y0117847D01*
X0048305Y0118277D01*
X0048122Y0118711D01*
X0047949Y0119150D01*
X0047787Y0119592D01*
X0047636Y0120038D01*
X0047496Y0120488D01*
X0047496Y0131512D02*
X0047636Y0131962D01*
X0047787Y0132408D01*
X0047949Y0132850D01*
X0048122Y0133289D01*
X0048305Y0133723D01*
X0048499Y0134153D01*
X0048703Y0134577D01*
X0048917Y0134997D01*
X0049142Y0135411D01*
X0049377Y0135820D01*
X0049621Y0136222D01*
X0049876Y0136619D01*
X0050139Y0137009D01*
X0050413Y0137393D01*
X0050696Y0137770D01*
X0050987Y0138140D01*
X0051288Y0138503D01*
X0051598Y0138858D01*
X0051916Y0139206D01*
X0052242Y0139545D01*
X0052577Y0139877D01*
X0052919Y0140201D01*
X0053270Y0140516D01*
X0053628Y0140822D01*
X0053993Y0141119D01*
X0054366Y0141408D01*
X0054745Y0141687D01*
X0055131Y0141957D01*
X0055524Y0142218D01*
X0055923Y0142469D01*
X0056328Y0142710D01*
X0056738Y0142941D01*
X0057155Y0143162D01*
X0057576Y0143372D01*
X0058002Y0143573D01*
X0058434Y0143763D01*
X0058869Y0143942D01*
X0059309Y0144111D01*
X0059753Y0144269D01*
X0060201Y0144416D01*
X0060652Y0144552D01*
X0061106Y0144677D01*
X0061564Y0144790D01*
X0062023Y0144893D01*
X0062486Y0144984D01*
X0062950Y0145065D01*
X0063416Y0145133D01*
X0063884Y0145191D01*
X0064353Y0145237D01*
X0064823Y0145271D01*
X0065293Y0145294D01*
X0065764Y0145306D01*
X0066236Y0145306D01*
X0066707Y0145294D01*
X0067177Y0145271D01*
X0067647Y0145237D01*
X0068116Y0145191D01*
X0068584Y0145133D01*
X0069050Y0145065D01*
X0069514Y0144984D01*
X0069977Y0144893D01*
X0070436Y0144790D01*
X0070894Y0144677D01*
X0071348Y0144552D01*
X0071799Y0144416D01*
X0072247Y0144269D01*
X0072691Y0144111D01*
X0073131Y0143942D01*
X0073566Y0143763D01*
X0073998Y0143573D01*
X0074424Y0143372D01*
X0074845Y0143162D01*
X0075262Y0142941D01*
X0075672Y0142710D01*
X0076077Y0142469D01*
X0076476Y0142218D01*
X0076869Y0141957D01*
X0077255Y0141687D01*
X0077634Y0141408D01*
X0078007Y0141119D01*
X0078372Y0140822D01*
X0078730Y0140516D01*
X0079081Y0140201D01*
X0079423Y0139877D01*
X0079758Y0139545D01*
X0080084Y0139206D01*
X0080402Y0138858D01*
X0080712Y0138503D01*
X0081013Y0138140D01*
X0081304Y0137770D01*
X0081587Y0137393D01*
X0081861Y0137009D01*
X0082124Y0136619D01*
X0082379Y0136222D01*
X0082623Y0135820D01*
X0082858Y0135411D01*
X0083083Y0134997D01*
X0083297Y0134577D01*
X0083501Y0134153D01*
X0083695Y0133723D01*
X0083878Y0133289D01*
X0084051Y0132850D01*
X0084213Y0132408D01*
X0084364Y0131962D01*
X0084504Y0131512D01*
X0127102Y0118677D02*
X0128677Y0117102D01*
X0163323Y0117102D01*
X0164898Y0118677D01*
X0164898Y0153323D01*
X0163323Y0154898D01*
X0128677Y0154898D01*
X0127102Y0153323D01*
X0127102Y0118677D01*
X0193165Y0116433D02*
X0198874Y0110724D01*
X0238835Y0110724D01*
X0238835Y0125291D01*
X0250724Y0118165D02*
X0265291Y0118165D01*
X0276709Y0118165D02*
X0291276Y0118165D01*
X0291276Y0158126D01*
X0285567Y0163835D01*
X0276709Y0163835D01*
X0265291Y0163835D02*
X0256433Y0163835D01*
X0250724Y0158126D01*
X0250724Y0118165D01*
X0238835Y0136709D02*
X0238835Y0151276D01*
X0198874Y0151276D01*
X0193165Y0145567D01*
X0193165Y0136709D01*
X0193165Y0125291D02*
X0193165Y0116433D01*
X0197496Y0125488D02*
X0197636Y0125038D01*
X0197787Y0124592D01*
X0197949Y0124150D01*
X0198122Y0123711D01*
X0198305Y0123277D01*
X0198499Y0122847D01*
X0198703Y0122423D01*
X0198917Y0122003D01*
X0199142Y0121589D01*
X0199377Y0121180D01*
X0199621Y0120778D01*
X0199876Y0120381D01*
X0200139Y0119991D01*
X0200413Y0119607D01*
X0200696Y0119230D01*
X0200987Y0118860D01*
X0201288Y0118497D01*
X0201598Y0118142D01*
X0201916Y0117794D01*
X0202242Y0117455D01*
X0202577Y0117123D01*
X0202919Y0116799D01*
X0203270Y0116484D01*
X0203628Y0116178D01*
X0203993Y0115881D01*
X0204366Y0115592D01*
X0204745Y0115313D01*
X0205131Y0115043D01*
X0205524Y0114782D01*
X0205923Y0114531D01*
X0206328Y0114290D01*
X0206738Y0114059D01*
X0207155Y0113838D01*
X0207576Y0113628D01*
X0208002Y0113427D01*
X0208434Y0113237D01*
X0208869Y0113058D01*
X0209309Y0112889D01*
X0209753Y0112731D01*
X0210201Y0112584D01*
X0210652Y0112448D01*
X0211106Y0112323D01*
X0211564Y0112210D01*
X0212023Y0112107D01*
X0212486Y0112016D01*
X0212950Y0111935D01*
X0213416Y0111867D01*
X0213884Y0111809D01*
X0214353Y0111763D01*
X0214823Y0111729D01*
X0215293Y0111706D01*
X0215764Y0111694D01*
X0216236Y0111694D01*
X0216707Y0111706D01*
X0217177Y0111729D01*
X0217647Y0111763D01*
X0218116Y0111809D01*
X0218584Y0111867D01*
X0219050Y0111935D01*
X0219514Y0112016D01*
X0219977Y0112107D01*
X0220436Y0112210D01*
X0220894Y0112323D01*
X0221348Y0112448D01*
X0221799Y0112584D01*
X0222247Y0112731D01*
X0222691Y0112889D01*
X0223131Y0113058D01*
X0223566Y0113237D01*
X0223998Y0113427D01*
X0224424Y0113628D01*
X0224845Y0113838D01*
X0225262Y0114059D01*
X0225672Y0114290D01*
X0226077Y0114531D01*
X0226476Y0114782D01*
X0226869Y0115043D01*
X0227255Y0115313D01*
X0227634Y0115592D01*
X0228007Y0115881D01*
X0228372Y0116178D01*
X0228730Y0116484D01*
X0229081Y0116799D01*
X0229423Y0117123D01*
X0229758Y0117455D01*
X0230084Y0117794D01*
X0230402Y0118142D01*
X0230712Y0118497D01*
X0231013Y0118860D01*
X0231304Y0119230D01*
X0231587Y0119607D01*
X0231861Y0119991D01*
X0232124Y0120381D01*
X0232379Y0120778D01*
X0232623Y0121180D01*
X0232858Y0121589D01*
X0233083Y0122003D01*
X0233297Y0122423D01*
X0233501Y0122847D01*
X0233695Y0123277D01*
X0233878Y0123711D01*
X0234051Y0124150D01*
X0234213Y0124592D01*
X0234364Y0125038D01*
X0234504Y0125488D01*
X0234504Y0136512D02*
X0234364Y0136962D01*
X0234213Y0137408D01*
X0234051Y0137850D01*
X0233878Y0138289D01*
X0233695Y0138723D01*
X0233501Y0139153D01*
X0233297Y0139577D01*
X0233083Y0139997D01*
X0232858Y0140411D01*
X0232623Y0140820D01*
X0232379Y0141222D01*
X0232124Y0141619D01*
X0231861Y0142009D01*
X0231587Y0142393D01*
X0231304Y0142770D01*
X0231013Y0143140D01*
X0230712Y0143503D01*
X0230402Y0143858D01*
X0230084Y0144206D01*
X0229758Y0144545D01*
X0229423Y0144877D01*
X0229081Y0145201D01*
X0228730Y0145516D01*
X0228372Y0145822D01*
X0228007Y0146119D01*
X0227634Y0146408D01*
X0227255Y0146687D01*
X0226869Y0146957D01*
X0226476Y0147218D01*
X0226077Y0147469D01*
X0225672Y0147710D01*
X0225262Y0147941D01*
X0224845Y0148162D01*
X0224424Y0148372D01*
X0223998Y0148573D01*
X0223566Y0148763D01*
X0223131Y0148942D01*
X0222691Y0149111D01*
X0222247Y0149269D01*
X0221799Y0149416D01*
X0221348Y0149552D01*
X0220894Y0149677D01*
X0220436Y0149790D01*
X0219977Y0149893D01*
X0219514Y0149984D01*
X0219050Y0150065D01*
X0218584Y0150133D01*
X0218116Y0150191D01*
X0217647Y0150237D01*
X0217177Y0150271D01*
X0216707Y0150294D01*
X0216236Y0150306D01*
X0215764Y0150306D01*
X0215293Y0150294D01*
X0214823Y0150271D01*
X0214353Y0150237D01*
X0213884Y0150191D01*
X0213416Y0150133D01*
X0212950Y0150065D01*
X0212486Y0149984D01*
X0212023Y0149893D01*
X0211564Y0149790D01*
X0211106Y0149677D01*
X0210652Y0149552D01*
X0210201Y0149416D01*
X0209753Y0149269D01*
X0209309Y0149111D01*
X0208869Y0148942D01*
X0208434Y0148763D01*
X0208002Y0148573D01*
X0207576Y0148372D01*
X0207155Y0148162D01*
X0206738Y0147941D01*
X0206328Y0147710D01*
X0205923Y0147469D01*
X0205524Y0147218D01*
X0205131Y0146957D01*
X0204745Y0146687D01*
X0204366Y0146408D01*
X0203993Y0146119D01*
X0203628Y0145822D01*
X0203270Y0145516D01*
X0202919Y0145201D01*
X0202577Y0144877D01*
X0202242Y0144545D01*
X0201916Y0144206D01*
X0201598Y0143858D01*
X0201288Y0143503D01*
X0200987Y0143140D01*
X0200696Y0142770D01*
X0200413Y0142393D01*
X0200139Y0142009D01*
X0199876Y0141619D01*
X0199621Y0141222D01*
X0199377Y0140820D01*
X0199142Y0140411D01*
X0198917Y0139997D01*
X0198703Y0139577D01*
X0198499Y0139153D01*
X0198305Y0138723D01*
X0198122Y0138289D01*
X0197949Y0137850D01*
X0197787Y0137408D01*
X0197636Y0136962D01*
X0197496Y0136512D01*
X0265488Y0122496D02*
X0265038Y0122636D01*
X0264592Y0122787D01*
X0264150Y0122949D01*
X0263711Y0123122D01*
X0263277Y0123305D01*
X0262847Y0123499D01*
X0262423Y0123703D01*
X0262003Y0123917D01*
X0261589Y0124142D01*
X0261180Y0124377D01*
X0260778Y0124621D01*
X0260381Y0124876D01*
X0259991Y0125139D01*
X0259607Y0125413D01*
X0259230Y0125696D01*
X0258860Y0125987D01*
X0258497Y0126288D01*
X0258142Y0126598D01*
X0257794Y0126916D01*
X0257455Y0127242D01*
X0257123Y0127577D01*
X0256799Y0127919D01*
X0256484Y0128270D01*
X0256178Y0128628D01*
X0255881Y0128993D01*
X0255592Y0129366D01*
X0255313Y0129745D01*
X0255043Y0130131D01*
X0254782Y0130524D01*
X0254531Y0130923D01*
X0254290Y0131328D01*
X0254059Y0131738D01*
X0253838Y0132155D01*
X0253628Y0132576D01*
X0253427Y0133002D01*
X0253237Y0133434D01*
X0253058Y0133869D01*
X0252889Y0134309D01*
X0252731Y0134753D01*
X0252584Y0135201D01*
X0252448Y0135652D01*
X0252323Y0136106D01*
X0252210Y0136564D01*
X0252107Y0137023D01*
X0252016Y0137486D01*
X0251935Y0137950D01*
X0251867Y0138416D01*
X0251809Y0138884D01*
X0251763Y0139353D01*
X0251729Y0139823D01*
X0251706Y0140293D01*
X0251694Y0140764D01*
X0251694Y0141236D01*
X0251706Y0141707D01*
X0251729Y0142177D01*
X0251763Y0142647D01*
X0251809Y0143116D01*
X0251867Y0143584D01*
X0251935Y0144050D01*
X0252016Y0144514D01*
X0252107Y0144977D01*
X0252210Y0145436D01*
X0252323Y0145894D01*
X0252448Y0146348D01*
X0252584Y0146799D01*
X0252731Y0147247D01*
X0252889Y0147691D01*
X0253058Y0148131D01*
X0253237Y0148566D01*
X0253427Y0148998D01*
X0253628Y0149424D01*
X0253838Y0149845D01*
X0254059Y0150262D01*
X0254290Y0150672D01*
X0254531Y0151077D01*
X0254782Y0151476D01*
X0255043Y0151869D01*
X0255313Y0152255D01*
X0255592Y0152634D01*
X0255881Y0153007D01*
X0256178Y0153372D01*
X0256484Y0153730D01*
X0256799Y0154081D01*
X0257123Y0154423D01*
X0257455Y0154758D01*
X0257794Y0155084D01*
X0258142Y0155402D01*
X0258497Y0155712D01*
X0258860Y0156013D01*
X0259230Y0156304D01*
X0259607Y0156587D01*
X0259991Y0156861D01*
X0260381Y0157124D01*
X0260778Y0157379D01*
X0261180Y0157623D01*
X0261589Y0157858D01*
X0262003Y0158083D01*
X0262423Y0158297D01*
X0262847Y0158501D01*
X0263277Y0158695D01*
X0263711Y0158878D01*
X0264150Y0159051D01*
X0264592Y0159213D01*
X0265038Y0159364D01*
X0265488Y0159504D01*
X0276512Y0159504D02*
X0276962Y0159364D01*
X0277408Y0159213D01*
X0277850Y0159051D01*
X0278289Y0158878D01*
X0278723Y0158695D01*
X0279153Y0158501D01*
X0279577Y0158297D01*
X0279997Y0158083D01*
X0280411Y0157858D01*
X0280820Y0157623D01*
X0281222Y0157379D01*
X0281619Y0157124D01*
X0282009Y0156861D01*
X0282393Y0156587D01*
X0282770Y0156304D01*
X0283140Y0156013D01*
X0283503Y0155712D01*
X0283858Y0155402D01*
X0284206Y0155084D01*
X0284545Y0154758D01*
X0284877Y0154423D01*
X0285201Y0154081D01*
X0285516Y0153730D01*
X0285822Y0153372D01*
X0286119Y0153007D01*
X0286408Y0152634D01*
X0286687Y0152255D01*
X0286957Y0151869D01*
X0287218Y0151476D01*
X0287469Y0151077D01*
X0287710Y0150672D01*
X0287941Y0150262D01*
X0288162Y0149845D01*
X0288372Y0149424D01*
X0288573Y0148998D01*
X0288763Y0148566D01*
X0288942Y0148131D01*
X0289111Y0147691D01*
X0289269Y0147247D01*
X0289416Y0146799D01*
X0289552Y0146348D01*
X0289677Y0145894D01*
X0289790Y0145436D01*
X0289893Y0144977D01*
X0289984Y0144514D01*
X0290065Y0144050D01*
X0290133Y0143584D01*
X0290191Y0143116D01*
X0290237Y0142647D01*
X0290271Y0142177D01*
X0290294Y0141707D01*
X0290306Y0141236D01*
X0290306Y0140764D01*
X0290294Y0140293D01*
X0290271Y0139823D01*
X0290237Y0139353D01*
X0290191Y0138884D01*
X0290133Y0138416D01*
X0290065Y0137950D01*
X0289984Y0137486D01*
X0289893Y0137023D01*
X0289790Y0136564D01*
X0289677Y0136106D01*
X0289552Y0135652D01*
X0289416Y0135201D01*
X0289269Y0134753D01*
X0289111Y0134309D01*
X0288942Y0133869D01*
X0288763Y0133434D01*
X0288573Y0133002D01*
X0288372Y0132576D01*
X0288162Y0132155D01*
X0287941Y0131738D01*
X0287710Y0131328D01*
X0287469Y0130923D01*
X0287218Y0130524D01*
X0286957Y0130131D01*
X0286687Y0129745D01*
X0286408Y0129366D01*
X0286119Y0128993D01*
X0285822Y0128628D01*
X0285516Y0128270D01*
X0285201Y0127919D01*
X0284877Y0127577D01*
X0284545Y0127242D01*
X0284206Y0126916D01*
X0283858Y0126598D01*
X0283503Y0126288D01*
X0283140Y0125987D01*
X0282770Y0125696D01*
X0282393Y0125413D01*
X0282009Y0125139D01*
X0281619Y0124876D01*
X0281222Y0124621D01*
X0280820Y0124377D01*
X0280411Y0124142D01*
X0279997Y0123917D01*
X0279577Y0123703D01*
X0279153Y0123499D01*
X0278723Y0123305D01*
X0278289Y0123122D01*
X0277850Y0122949D01*
X0277408Y0122787D01*
X0276962Y0122636D01*
X0276512Y0122496D01*
X0300724Y0123874D02*
X0306433Y0118165D01*
X0315291Y0118165D01*
X0326709Y0118165D02*
X0335567Y0118165D01*
X0341276Y0123874D01*
X0341276Y0163835D01*
X0326709Y0163835D01*
X0315291Y0163835D02*
X0300724Y0163835D01*
X0300724Y0123874D01*
X0326512Y0122496D02*
X0326962Y0122636D01*
X0327408Y0122787D01*
X0327850Y0122949D01*
X0328289Y0123122D01*
X0328723Y0123305D01*
X0329153Y0123499D01*
X0329577Y0123703D01*
X0329997Y0123917D01*
X0330411Y0124142D01*
X0330820Y0124377D01*
X0331222Y0124621D01*
X0331619Y0124876D01*
X0332009Y0125139D01*
X0332393Y0125413D01*
X0332770Y0125696D01*
X0333140Y0125987D01*
X0333503Y0126288D01*
X0333858Y0126598D01*
X0334206Y0126916D01*
X0334545Y0127242D01*
X0334877Y0127577D01*
X0335201Y0127919D01*
X0335516Y0128270D01*
X0335822Y0128628D01*
X0336119Y0128993D01*
X0336408Y0129366D01*
X0336687Y0129745D01*
X0336957Y0130131D01*
X0337218Y0130524D01*
X0337469Y0130923D01*
X0337710Y0131328D01*
X0337941Y0131738D01*
X0338162Y0132155D01*
X0338372Y0132576D01*
X0338573Y0133002D01*
X0338763Y0133434D01*
X0338942Y0133869D01*
X0339111Y0134309D01*
X0339269Y0134753D01*
X0339416Y0135201D01*
X0339552Y0135652D01*
X0339677Y0136106D01*
X0339790Y0136564D01*
X0339893Y0137023D01*
X0339984Y0137486D01*
X0340065Y0137950D01*
X0340133Y0138416D01*
X0340191Y0138884D01*
X0340237Y0139353D01*
X0340271Y0139823D01*
X0340294Y0140293D01*
X0340306Y0140764D01*
X0340306Y0141236D01*
X0340294Y0141707D01*
X0340271Y0142177D01*
X0340237Y0142647D01*
X0340191Y0143116D01*
X0340133Y0143584D01*
X0340065Y0144050D01*
X0339984Y0144514D01*
X0339893Y0144977D01*
X0339790Y0145436D01*
X0339677Y0145894D01*
X0339552Y0146348D01*
X0339416Y0146799D01*
X0339269Y0147247D01*
X0339111Y0147691D01*
X0338942Y0148131D01*
X0338763Y0148566D01*
X0338573Y0148998D01*
X0338372Y0149424D01*
X0338162Y0149845D01*
X0337941Y0150262D01*
X0337710Y0150672D01*
X0337469Y0151077D01*
X0337218Y0151476D01*
X0336957Y0151869D01*
X0336687Y0152255D01*
X0336408Y0152634D01*
X0336119Y0153007D01*
X0335822Y0153372D01*
X0335516Y0153730D01*
X0335201Y0154081D01*
X0334877Y0154423D01*
X0334545Y0154758D01*
X0334206Y0155084D01*
X0333858Y0155402D01*
X0333503Y0155712D01*
X0333140Y0156013D01*
X0332770Y0156304D01*
X0332393Y0156587D01*
X0332009Y0156861D01*
X0331619Y0157124D01*
X0331222Y0157379D01*
X0330820Y0157623D01*
X0330411Y0157858D01*
X0329997Y0158083D01*
X0329577Y0158297D01*
X0329153Y0158501D01*
X0328723Y0158695D01*
X0328289Y0158878D01*
X0327850Y0159051D01*
X0327408Y0159213D01*
X0326962Y0159364D01*
X0326512Y0159504D01*
X0315488Y0159504D02*
X0315038Y0159364D01*
X0314592Y0159213D01*
X0314150Y0159051D01*
X0313711Y0158878D01*
X0313277Y0158695D01*
X0312847Y0158501D01*
X0312423Y0158297D01*
X0312003Y0158083D01*
X0311589Y0157858D01*
X0311180Y0157623D01*
X0310778Y0157379D01*
X0310381Y0157124D01*
X0309991Y0156861D01*
X0309607Y0156587D01*
X0309230Y0156304D01*
X0308860Y0156013D01*
X0308497Y0155712D01*
X0308142Y0155402D01*
X0307794Y0155084D01*
X0307455Y0154758D01*
X0307123Y0154423D01*
X0306799Y0154081D01*
X0306484Y0153730D01*
X0306178Y0153372D01*
X0305881Y0153007D01*
X0305592Y0152634D01*
X0305313Y0152255D01*
X0305043Y0151869D01*
X0304782Y0151476D01*
X0304531Y0151077D01*
X0304290Y0150672D01*
X0304059Y0150262D01*
X0303838Y0149845D01*
X0303628Y0149424D01*
X0303427Y0148998D01*
X0303237Y0148566D01*
X0303058Y0148131D01*
X0302889Y0147691D01*
X0302731Y0147247D01*
X0302584Y0146799D01*
X0302448Y0146348D01*
X0302323Y0145894D01*
X0302210Y0145436D01*
X0302107Y0144977D01*
X0302016Y0144514D01*
X0301935Y0144050D01*
X0301867Y0143584D01*
X0301809Y0143116D01*
X0301763Y0142647D01*
X0301729Y0142177D01*
X0301706Y0141707D01*
X0301694Y0141236D01*
X0301694Y0140764D01*
X0301706Y0140293D01*
X0301729Y0139823D01*
X0301763Y0139353D01*
X0301809Y0138884D01*
X0301867Y0138416D01*
X0301935Y0137950D01*
X0302016Y0137486D01*
X0302107Y0137023D01*
X0302210Y0136564D01*
X0302323Y0136106D01*
X0302448Y0135652D01*
X0302584Y0135201D01*
X0302731Y0134753D01*
X0302889Y0134309D01*
X0303058Y0133869D01*
X0303237Y0133434D01*
X0303427Y0133002D01*
X0303628Y0132576D01*
X0303838Y0132155D01*
X0304059Y0131738D01*
X0304290Y0131328D01*
X0304531Y0130923D01*
X0304782Y0130524D01*
X0305043Y0130131D01*
X0305313Y0129745D01*
X0305592Y0129366D01*
X0305881Y0128993D01*
X0306178Y0128628D01*
X0306484Y0128270D01*
X0306799Y0127919D01*
X0307123Y0127577D01*
X0307455Y0127242D01*
X0307794Y0126916D01*
X0308142Y0126598D01*
X0308497Y0126288D01*
X0308860Y0125987D01*
X0309230Y0125696D01*
X0309607Y0125413D01*
X0309991Y0125139D01*
X0310381Y0124876D01*
X0310778Y0124621D01*
X0311180Y0124377D01*
X0311589Y0124142D01*
X0312003Y0123917D01*
X0312423Y0123703D01*
X0312847Y0123499D01*
X0313277Y0123305D01*
X0313711Y0123122D01*
X0314150Y0122949D01*
X0314592Y0122787D01*
X0315038Y0122636D01*
X0315488Y0122496D01*
X0176276Y0223874D02*
X0170567Y0218165D01*
X0161709Y0218165D01*
X0150291Y0218165D02*
X0141433Y0218165D01*
X0135724Y0223874D01*
X0135724Y0263835D01*
X0150291Y0263835D01*
X0161709Y0263835D02*
X0176276Y0263835D01*
X0176276Y0223874D01*
X0161512Y0222496D02*
X0161962Y0222636D01*
X0162408Y0222787D01*
X0162850Y0222949D01*
X0163289Y0223122D01*
X0163723Y0223305D01*
X0164153Y0223499D01*
X0164577Y0223703D01*
X0164997Y0223917D01*
X0165411Y0224142D01*
X0165820Y0224377D01*
X0166222Y0224621D01*
X0166619Y0224876D01*
X0167009Y0225139D01*
X0167393Y0225413D01*
X0167770Y0225696D01*
X0168140Y0225987D01*
X0168503Y0226288D01*
X0168858Y0226598D01*
X0169206Y0226916D01*
X0169545Y0227242D01*
X0169877Y0227577D01*
X0170201Y0227919D01*
X0170516Y0228270D01*
X0170822Y0228628D01*
X0171119Y0228993D01*
X0171408Y0229366D01*
X0171687Y0229745D01*
X0171957Y0230131D01*
X0172218Y0230524D01*
X0172469Y0230923D01*
X0172710Y0231328D01*
X0172941Y0231738D01*
X0173162Y0232155D01*
X0173372Y0232576D01*
X0173573Y0233002D01*
X0173763Y0233434D01*
X0173942Y0233869D01*
X0174111Y0234309D01*
X0174269Y0234753D01*
X0174416Y0235201D01*
X0174552Y0235652D01*
X0174677Y0236106D01*
X0174790Y0236564D01*
X0174893Y0237023D01*
X0174984Y0237486D01*
X0175065Y0237950D01*
X0175133Y0238416D01*
X0175191Y0238884D01*
X0175237Y0239353D01*
X0175271Y0239823D01*
X0175294Y0240293D01*
X0175306Y0240764D01*
X0175306Y0241236D01*
X0175294Y0241707D01*
X0175271Y0242177D01*
X0175237Y0242647D01*
X0175191Y0243116D01*
X0175133Y0243584D01*
X0175065Y0244050D01*
X0174984Y0244514D01*
X0174893Y0244977D01*
X0174790Y0245436D01*
X0174677Y0245894D01*
X0174552Y0246348D01*
X0174416Y0246799D01*
X0174269Y0247247D01*
X0174111Y0247691D01*
X0173942Y0248131D01*
X0173763Y0248566D01*
X0173573Y0248998D01*
X0173372Y0249424D01*
X0173162Y0249845D01*
X0172941Y0250262D01*
X0172710Y0250672D01*
X0172469Y0251077D01*
X0172218Y0251476D01*
X0171957Y0251869D01*
X0171687Y0252255D01*
X0171408Y0252634D01*
X0171119Y0253007D01*
X0170822Y0253372D01*
X0170516Y0253730D01*
X0170201Y0254081D01*
X0169877Y0254423D01*
X0169545Y0254758D01*
X0169206Y0255084D01*
X0168858Y0255402D01*
X0168503Y0255712D01*
X0168140Y0256013D01*
X0167770Y0256304D01*
X0167393Y0256587D01*
X0167009Y0256861D01*
X0166619Y0257124D01*
X0166222Y0257379D01*
X0165820Y0257623D01*
X0165411Y0257858D01*
X0164997Y0258083D01*
X0164577Y0258297D01*
X0164153Y0258501D01*
X0163723Y0258695D01*
X0163289Y0258878D01*
X0162850Y0259051D01*
X0162408Y0259213D01*
X0161962Y0259364D01*
X0161512Y0259504D01*
X0150488Y0259504D02*
X0150038Y0259364D01*
X0149592Y0259213D01*
X0149150Y0259051D01*
X0148711Y0258878D01*
X0148277Y0258695D01*
X0147847Y0258501D01*
X0147423Y0258297D01*
X0147003Y0258083D01*
X0146589Y0257858D01*
X0146180Y0257623D01*
X0145778Y0257379D01*
X0145381Y0257124D01*
X0144991Y0256861D01*
X0144607Y0256587D01*
X0144230Y0256304D01*
X0143860Y0256013D01*
X0143497Y0255712D01*
X0143142Y0255402D01*
X0142794Y0255084D01*
X0142455Y0254758D01*
X0142123Y0254423D01*
X0141799Y0254081D01*
X0141484Y0253730D01*
X0141178Y0253372D01*
X0140881Y0253007D01*
X0140592Y0252634D01*
X0140313Y0252255D01*
X0140043Y0251869D01*
X0139782Y0251476D01*
X0139531Y0251077D01*
X0139290Y0250672D01*
X0139059Y0250262D01*
X0138838Y0249845D01*
X0138628Y0249424D01*
X0138427Y0248998D01*
X0138237Y0248566D01*
X0138058Y0248131D01*
X0137889Y0247691D01*
X0137731Y0247247D01*
X0137584Y0246799D01*
X0137448Y0246348D01*
X0137323Y0245894D01*
X0137210Y0245436D01*
X0137107Y0244977D01*
X0137016Y0244514D01*
X0136935Y0244050D01*
X0136867Y0243584D01*
X0136809Y0243116D01*
X0136763Y0242647D01*
X0136729Y0242177D01*
X0136706Y0241707D01*
X0136694Y0241236D01*
X0136694Y0240764D01*
X0136706Y0240293D01*
X0136729Y0239823D01*
X0136763Y0239353D01*
X0136809Y0238884D01*
X0136867Y0238416D01*
X0136935Y0237950D01*
X0137016Y0237486D01*
X0137107Y0237023D01*
X0137210Y0236564D01*
X0137323Y0236106D01*
X0137448Y0235652D01*
X0137584Y0235201D01*
X0137731Y0234753D01*
X0137889Y0234309D01*
X0138058Y0233869D01*
X0138237Y0233434D01*
X0138427Y0233002D01*
X0138628Y0232576D01*
X0138838Y0232155D01*
X0139059Y0231738D01*
X0139290Y0231328D01*
X0139531Y0230923D01*
X0139782Y0230524D01*
X0140043Y0230131D01*
X0140313Y0229745D01*
X0140592Y0229366D01*
X0140881Y0228993D01*
X0141178Y0228628D01*
X0141484Y0228270D01*
X0141799Y0227919D01*
X0142123Y0227577D01*
X0142455Y0227242D01*
X0142794Y0226916D01*
X0143142Y0226598D01*
X0143497Y0226288D01*
X0143860Y0225987D01*
X0144230Y0225696D01*
X0144607Y0225413D01*
X0144991Y0225139D01*
X0145381Y0224876D01*
X0145778Y0224621D01*
X0146180Y0224377D01*
X0146589Y0224142D01*
X0147003Y0223917D01*
X0147423Y0223703D01*
X0147847Y0223499D01*
X0148277Y0223305D01*
X0148711Y0223122D01*
X0149150Y0222949D01*
X0149592Y0222787D01*
X0150038Y0222636D01*
X0150488Y0222496D01*
D13*
X0164562Y0242780D02*
X0167631Y0242780D01*
X0168398Y0243547D01*
X0168398Y0245081D01*
X0167631Y0245849D01*
X0167631Y0247383D02*
X0168398Y0247383D01*
X0167631Y0247383D02*
X0164562Y0250453D01*
X0163795Y0250453D01*
X0163795Y0247383D01*
X0164562Y0245849D02*
X0163795Y0245081D01*
X0163795Y0243547D01*
X0164562Y0242780D01*
X0103131Y0205804D02*
X0103131Y0201200D01*
X0104665Y0201200D02*
X0101596Y0201200D01*
X0100061Y0201200D02*
X0098527Y0202735D01*
X0099294Y0202735D02*
X0096992Y0202735D01*
X0096992Y0201200D02*
X0096992Y0205804D01*
X0099294Y0205804D01*
X0100061Y0205037D01*
X0100061Y0203502D01*
X0099294Y0202735D01*
X0101596Y0204269D02*
X0103131Y0205804D01*
X0063086Y0138402D02*
X0061551Y0137635D01*
X0060017Y0136100D01*
X0062318Y0136100D01*
X0063086Y0135333D01*
X0063086Y0134566D01*
X0062318Y0133798D01*
X0060784Y0133798D01*
X0060017Y0134566D01*
X0060017Y0136100D01*
X0058482Y0134566D02*
X0057715Y0133798D01*
X0056180Y0133798D01*
X0055413Y0134566D01*
X0055413Y0137635D01*
X0056180Y0138402D01*
X0057715Y0138402D01*
X0058482Y0137635D01*
X0217780Y0122438D02*
X0217780Y0119369D01*
X0218547Y0118602D01*
X0220081Y0118602D01*
X0220849Y0119369D01*
X0222383Y0120904D02*
X0225453Y0120904D01*
X0224685Y0123205D02*
X0222383Y0120904D01*
X0220849Y0122438D02*
X0220081Y0123205D01*
X0218547Y0123205D01*
X0217780Y0122438D01*
X0224685Y0123205D02*
X0224685Y0118602D01*
X0258598Y0131180D02*
X0259365Y0130413D01*
X0262434Y0130413D01*
X0263202Y0131180D01*
X0263202Y0132715D01*
X0262434Y0133482D01*
X0262434Y0135017D02*
X0263202Y0135784D01*
X0263202Y0137318D01*
X0262434Y0138086D01*
X0260900Y0138086D01*
X0260132Y0137318D01*
X0260132Y0136551D01*
X0260900Y0135017D01*
X0258598Y0135017D01*
X0258598Y0138086D01*
X0259365Y0133482D02*
X0258598Y0132715D01*
X0258598Y0131180D01*
X0328795Y0143547D02*
X0329562Y0142780D01*
X0332631Y0142780D01*
X0333398Y0143547D01*
X0333398Y0145081D01*
X0332631Y0145849D01*
X0332631Y0147383D02*
X0331864Y0147383D01*
X0331096Y0148151D01*
X0331096Y0149685D01*
X0331864Y0150453D01*
X0332631Y0150453D01*
X0333398Y0149685D01*
X0333398Y0148151D01*
X0332631Y0147383D01*
X0331096Y0148151D02*
X0330329Y0147383D01*
X0329562Y0147383D01*
X0328795Y0148151D01*
X0328795Y0149685D01*
X0329562Y0150453D01*
X0330329Y0150453D01*
X0331096Y0149685D01*
X0329562Y0145849D02*
X0328795Y0145081D01*
X0328795Y0143547D01*
D14*
X0129139Y0151748D02*
X0129141Y0151815D01*
X0129147Y0151881D01*
X0129157Y0151947D01*
X0129171Y0152012D01*
X0129188Y0152076D01*
X0129210Y0152139D01*
X0129235Y0152201D01*
X0129264Y0152261D01*
X0129297Y0152319D01*
X0129332Y0152375D01*
X0129372Y0152429D01*
X0129414Y0152480D01*
X0129459Y0152529D01*
X0129507Y0152575D01*
X0129558Y0152618D01*
X0129611Y0152658D01*
X0129667Y0152695D01*
X0129725Y0152728D01*
X0129784Y0152758D01*
X0129845Y0152784D01*
X0129908Y0152807D01*
X0129972Y0152825D01*
X0130037Y0152840D01*
X0130103Y0152851D01*
X0130169Y0152858D01*
X0130235Y0152861D01*
X0130302Y0152860D01*
X0130368Y0152855D01*
X0130434Y0152846D01*
X0130500Y0152833D01*
X0130564Y0152816D01*
X0130627Y0152796D01*
X0130689Y0152771D01*
X0130750Y0152743D01*
X0130809Y0152712D01*
X0130865Y0152677D01*
X0130920Y0152639D01*
X0130972Y0152597D01*
X0131021Y0152552D01*
X0131068Y0152505D01*
X0131112Y0152455D01*
X0131152Y0152402D01*
X0131190Y0152347D01*
X0131224Y0152290D01*
X0131255Y0152231D01*
X0131282Y0152170D01*
X0131305Y0152108D01*
X0131325Y0152044D01*
X0131341Y0151979D01*
X0131353Y0151914D01*
X0131361Y0151848D01*
X0131365Y0151781D01*
X0131365Y0151715D01*
X0131361Y0151648D01*
X0131353Y0151582D01*
X0131341Y0151517D01*
X0131325Y0151452D01*
X0131305Y0151388D01*
X0131282Y0151326D01*
X0131255Y0151265D01*
X0131224Y0151206D01*
X0131190Y0151149D01*
X0131152Y0151094D01*
X0131112Y0151041D01*
X0131068Y0150991D01*
X0131021Y0150944D01*
X0130972Y0150899D01*
X0130920Y0150857D01*
X0130865Y0150819D01*
X0130808Y0150784D01*
X0130750Y0150753D01*
X0130689Y0150725D01*
X0130627Y0150700D01*
X0130564Y0150680D01*
X0130500Y0150663D01*
X0130434Y0150650D01*
X0130368Y0150641D01*
X0130302Y0150636D01*
X0130235Y0150635D01*
X0130169Y0150638D01*
X0130103Y0150645D01*
X0130037Y0150656D01*
X0129972Y0150671D01*
X0129908Y0150689D01*
X0129845Y0150712D01*
X0129784Y0150738D01*
X0129725Y0150768D01*
X0129667Y0150801D01*
X0129611Y0150838D01*
X0129558Y0150878D01*
X0129507Y0150921D01*
X0129459Y0150967D01*
X0129414Y0151016D01*
X0129372Y0151067D01*
X0129332Y0151121D01*
X0129297Y0151177D01*
X0129264Y0151235D01*
X0129235Y0151295D01*
X0129210Y0151357D01*
X0129188Y0151420D01*
X0129171Y0151484D01*
X0129157Y0151549D01*
X0129147Y0151615D01*
X0129141Y0151681D01*
X0129139Y0151748D01*
D15*
X0131300Y0163800D02*
X0133435Y0163800D01*
X0132368Y0163800D02*
X0132368Y0170205D01*
X0133435Y0170205D02*
X0131300Y0170205D01*
X0135597Y0169138D02*
X0135597Y0164868D01*
X0136665Y0163800D01*
X0138800Y0163800D01*
X0139867Y0164868D01*
X0142042Y0163800D02*
X0146313Y0163800D01*
X0144178Y0163800D02*
X0144178Y0170205D01*
X0142042Y0168070D01*
X0139867Y0169138D02*
X0138800Y0170205D01*
X0136665Y0170205D01*
X0135597Y0169138D01*
X0078000Y0177500D02*
X0078000Y0181000D01*
X0078000Y0191000D01*
X0078000Y0194500D01*
X0070000Y0198000D02*
X0069000Y0198000D01*
X0069000Y0199000D01*
X0063000Y0199000D01*
X0063000Y0198000D01*
X0062000Y0198000D01*
X0054000Y0194500D02*
X0054000Y0191000D01*
X0054000Y0181500D01*
X0054000Y0177500D01*
X0062000Y0174000D02*
X0063000Y0174000D01*
X0063000Y0173000D01*
X0069000Y0173000D01*
X0069000Y0174000D01*
X0070000Y0174000D01*
X0065000Y0186000D02*
X0065002Y0186063D01*
X0065008Y0186125D01*
X0065018Y0186187D01*
X0065031Y0186249D01*
X0065049Y0186309D01*
X0065070Y0186368D01*
X0065095Y0186426D01*
X0065124Y0186482D01*
X0065156Y0186536D01*
X0065191Y0186588D01*
X0065229Y0186637D01*
X0065271Y0186685D01*
X0065315Y0186729D01*
X0065363Y0186771D01*
X0065412Y0186809D01*
X0065464Y0186844D01*
X0065518Y0186876D01*
X0065574Y0186905D01*
X0065632Y0186930D01*
X0065691Y0186951D01*
X0065751Y0186969D01*
X0065813Y0186982D01*
X0065875Y0186992D01*
X0065937Y0186998D01*
X0066000Y0187000D01*
X0066063Y0186998D01*
X0066125Y0186992D01*
X0066187Y0186982D01*
X0066249Y0186969D01*
X0066309Y0186951D01*
X0066368Y0186930D01*
X0066426Y0186905D01*
X0066482Y0186876D01*
X0066536Y0186844D01*
X0066588Y0186809D01*
X0066637Y0186771D01*
X0066685Y0186729D01*
X0066729Y0186685D01*
X0066771Y0186637D01*
X0066809Y0186588D01*
X0066844Y0186536D01*
X0066876Y0186482D01*
X0066905Y0186426D01*
X0066930Y0186368D01*
X0066951Y0186309D01*
X0066969Y0186249D01*
X0066982Y0186187D01*
X0066992Y0186125D01*
X0066998Y0186063D01*
X0067000Y0186000D01*
X0066998Y0185937D01*
X0066992Y0185875D01*
X0066982Y0185813D01*
X0066969Y0185751D01*
X0066951Y0185691D01*
X0066930Y0185632D01*
X0066905Y0185574D01*
X0066876Y0185518D01*
X0066844Y0185464D01*
X0066809Y0185412D01*
X0066771Y0185363D01*
X0066729Y0185315D01*
X0066685Y0185271D01*
X0066637Y0185229D01*
X0066588Y0185191D01*
X0066536Y0185156D01*
X0066482Y0185124D01*
X0066426Y0185095D01*
X0066368Y0185070D01*
X0066309Y0185049D01*
X0066249Y0185031D01*
X0066187Y0185018D01*
X0066125Y0185008D01*
X0066063Y0185002D01*
X0066000Y0185000D01*
X0065937Y0185002D01*
X0065875Y0185008D01*
X0065813Y0185018D01*
X0065751Y0185031D01*
X0065691Y0185049D01*
X0065632Y0185070D01*
X0065574Y0185095D01*
X0065518Y0185124D01*
X0065464Y0185156D01*
X0065412Y0185191D01*
X0065363Y0185229D01*
X0065315Y0185271D01*
X0065271Y0185315D01*
X0065229Y0185363D01*
X0065191Y0185412D01*
X0065156Y0185464D01*
X0065124Y0185518D01*
X0065095Y0185574D01*
X0065070Y0185632D01*
X0065049Y0185691D01*
X0065031Y0185751D01*
X0065018Y0185813D01*
X0065008Y0185875D01*
X0065002Y0185937D01*
X0065000Y0186000D01*
X0059000Y0186000D02*
X0059002Y0186172D01*
X0059008Y0186343D01*
X0059019Y0186515D01*
X0059034Y0186686D01*
X0059053Y0186857D01*
X0059076Y0187027D01*
X0059103Y0187197D01*
X0059135Y0187366D01*
X0059170Y0187534D01*
X0059210Y0187701D01*
X0059254Y0187867D01*
X0059301Y0188032D01*
X0059353Y0188196D01*
X0059409Y0188358D01*
X0059469Y0188519D01*
X0059533Y0188679D01*
X0059601Y0188837D01*
X0059672Y0188993D01*
X0059747Y0189147D01*
X0059827Y0189300D01*
X0059909Y0189450D01*
X0059996Y0189599D01*
X0060086Y0189745D01*
X0060180Y0189889D01*
X0060277Y0190031D01*
X0060378Y0190170D01*
X0060482Y0190307D01*
X0060589Y0190441D01*
X0060700Y0190572D01*
X0060813Y0190701D01*
X0060930Y0190827D01*
X0061050Y0190950D01*
X0061173Y0191070D01*
X0061299Y0191187D01*
X0061428Y0191300D01*
X0061559Y0191411D01*
X0061693Y0191518D01*
X0061830Y0191622D01*
X0061969Y0191723D01*
X0062111Y0191820D01*
X0062255Y0191914D01*
X0062401Y0192004D01*
X0062550Y0192091D01*
X0062700Y0192173D01*
X0062853Y0192253D01*
X0063007Y0192328D01*
X0063163Y0192399D01*
X0063321Y0192467D01*
X0063481Y0192531D01*
X0063642Y0192591D01*
X0063804Y0192647D01*
X0063968Y0192699D01*
X0064133Y0192746D01*
X0064299Y0192790D01*
X0064466Y0192830D01*
X0064634Y0192865D01*
X0064803Y0192897D01*
X0064973Y0192924D01*
X0065143Y0192947D01*
X0065314Y0192966D01*
X0065485Y0192981D01*
X0065657Y0192992D01*
X0065828Y0192998D01*
X0066000Y0193000D01*
X0066172Y0192998D01*
X0066343Y0192992D01*
X0066515Y0192981D01*
X0066686Y0192966D01*
X0066857Y0192947D01*
X0067027Y0192924D01*
X0067197Y0192897D01*
X0067366Y0192865D01*
X0067534Y0192830D01*
X0067701Y0192790D01*
X0067867Y0192746D01*
X0068032Y0192699D01*
X0068196Y0192647D01*
X0068358Y0192591D01*
X0068519Y0192531D01*
X0068679Y0192467D01*
X0068837Y0192399D01*
X0068993Y0192328D01*
X0069147Y0192253D01*
X0069300Y0192173D01*
X0069450Y0192091D01*
X0069599Y0192004D01*
X0069745Y0191914D01*
X0069889Y0191820D01*
X0070031Y0191723D01*
X0070170Y0191622D01*
X0070307Y0191518D01*
X0070441Y0191411D01*
X0070572Y0191300D01*
X0070701Y0191187D01*
X0070827Y0191070D01*
X0070950Y0190950D01*
X0071070Y0190827D01*
X0071187Y0190701D01*
X0071300Y0190572D01*
X0071411Y0190441D01*
X0071518Y0190307D01*
X0071622Y0190170D01*
X0071723Y0190031D01*
X0071820Y0189889D01*
X0071914Y0189745D01*
X0072004Y0189599D01*
X0072091Y0189450D01*
X0072173Y0189300D01*
X0072253Y0189147D01*
X0072328Y0188993D01*
X0072399Y0188837D01*
X0072467Y0188679D01*
X0072531Y0188519D01*
X0072591Y0188358D01*
X0072647Y0188196D01*
X0072699Y0188032D01*
X0072746Y0187867D01*
X0072790Y0187701D01*
X0072830Y0187534D01*
X0072865Y0187366D01*
X0072897Y0187197D01*
X0072924Y0187027D01*
X0072947Y0186857D01*
X0072966Y0186686D01*
X0072981Y0186515D01*
X0072992Y0186343D01*
X0072998Y0186172D01*
X0073000Y0186000D01*
X0072998Y0185828D01*
X0072992Y0185657D01*
X0072981Y0185485D01*
X0072966Y0185314D01*
X0072947Y0185143D01*
X0072924Y0184973D01*
X0072897Y0184803D01*
X0072865Y0184634D01*
X0072830Y0184466D01*
X0072790Y0184299D01*
X0072746Y0184133D01*
X0072699Y0183968D01*
X0072647Y0183804D01*
X0072591Y0183642D01*
X0072531Y0183481D01*
X0072467Y0183321D01*
X0072399Y0183163D01*
X0072328Y0183007D01*
X0072253Y0182853D01*
X0072173Y0182700D01*
X0072091Y0182550D01*
X0072004Y0182401D01*
X0071914Y0182255D01*
X0071820Y0182111D01*
X0071723Y0181969D01*
X0071622Y0181830D01*
X0071518Y0181693D01*
X0071411Y0181559D01*
X0071300Y0181428D01*
X0071187Y0181299D01*
X0071070Y0181173D01*
X0070950Y0181050D01*
X0070827Y0180930D01*
X0070701Y0180813D01*
X0070572Y0180700D01*
X0070441Y0180589D01*
X0070307Y0180482D01*
X0070170Y0180378D01*
X0070031Y0180277D01*
X0069889Y0180180D01*
X0069745Y0180086D01*
X0069599Y0179996D01*
X0069450Y0179909D01*
X0069300Y0179827D01*
X0069147Y0179747D01*
X0068993Y0179672D01*
X0068837Y0179601D01*
X0068679Y0179533D01*
X0068519Y0179469D01*
X0068358Y0179409D01*
X0068196Y0179353D01*
X0068032Y0179301D01*
X0067867Y0179254D01*
X0067701Y0179210D01*
X0067534Y0179170D01*
X0067366Y0179135D01*
X0067197Y0179103D01*
X0067027Y0179076D01*
X0066857Y0179053D01*
X0066686Y0179034D01*
X0066515Y0179019D01*
X0066343Y0179008D01*
X0066172Y0179002D01*
X0066000Y0179000D01*
X0065828Y0179002D01*
X0065657Y0179008D01*
X0065485Y0179019D01*
X0065314Y0179034D01*
X0065143Y0179053D01*
X0064973Y0179076D01*
X0064803Y0179103D01*
X0064634Y0179135D01*
X0064466Y0179170D01*
X0064299Y0179210D01*
X0064133Y0179254D01*
X0063968Y0179301D01*
X0063804Y0179353D01*
X0063642Y0179409D01*
X0063481Y0179469D01*
X0063321Y0179533D01*
X0063163Y0179601D01*
X0063007Y0179672D01*
X0062853Y0179747D01*
X0062700Y0179827D01*
X0062550Y0179909D01*
X0062401Y0179996D01*
X0062255Y0180086D01*
X0062111Y0180180D01*
X0061969Y0180277D01*
X0061830Y0180378D01*
X0061693Y0180482D01*
X0061559Y0180589D01*
X0061428Y0180700D01*
X0061299Y0180813D01*
X0061173Y0180930D01*
X0061050Y0181050D01*
X0060930Y0181173D01*
X0060813Y0181299D01*
X0060700Y0181428D01*
X0060589Y0181559D01*
X0060482Y0181693D01*
X0060378Y0181830D01*
X0060277Y0181969D01*
X0060180Y0182111D01*
X0060086Y0182255D01*
X0059996Y0182401D01*
X0059909Y0182550D01*
X0059827Y0182700D01*
X0059747Y0182853D01*
X0059672Y0183007D01*
X0059601Y0183163D01*
X0059533Y0183321D01*
X0059469Y0183481D01*
X0059409Y0183642D01*
X0059353Y0183804D01*
X0059301Y0183968D01*
X0059254Y0184133D01*
X0059210Y0184299D01*
X0059170Y0184466D01*
X0059135Y0184634D01*
X0059103Y0184803D01*
X0059076Y0184973D01*
X0059053Y0185143D01*
X0059034Y0185314D01*
X0059019Y0185485D01*
X0059008Y0185657D01*
X0059002Y0185828D01*
X0059000Y0186000D01*
X0136000Y0077000D02*
X0136126Y0077002D01*
X0136251Y0077008D01*
X0136377Y0077018D01*
X0136501Y0077032D01*
X0136626Y0077049D01*
X0136750Y0077071D01*
X0136873Y0077096D01*
X0136995Y0077126D01*
X0137116Y0077159D01*
X0137236Y0077196D01*
X0137355Y0077237D01*
X0137473Y0077281D01*
X0137589Y0077329D01*
X0137703Y0077381D01*
X0137816Y0077436D01*
X0137927Y0077495D01*
X0138036Y0077557D01*
X0138143Y0077623D01*
X0138248Y0077692D01*
X0138351Y0077764D01*
X0138452Y0077839D01*
X0138550Y0077918D01*
X0138645Y0078000D01*
X0138738Y0078084D01*
X0138829Y0078172D01*
X0136000Y0085000D02*
X0135874Y0084998D01*
X0135749Y0084992D01*
X0135623Y0084982D01*
X0135499Y0084968D01*
X0135374Y0084951D01*
X0135250Y0084929D01*
X0135127Y0084904D01*
X0135005Y0084874D01*
X0134884Y0084841D01*
X0134764Y0084804D01*
X0134645Y0084763D01*
X0134527Y0084719D01*
X0134411Y0084671D01*
X0134297Y0084619D01*
X0134184Y0084564D01*
X0134073Y0084505D01*
X0133964Y0084443D01*
X0133857Y0084377D01*
X0133752Y0084308D01*
X0133649Y0084236D01*
X0133548Y0084161D01*
X0133450Y0084082D01*
X0133355Y0084000D01*
X0133262Y0083916D01*
X0133171Y0083828D01*
X0136000Y0085000D02*
X0136126Y0084998D01*
X0136251Y0084992D01*
X0136377Y0084982D01*
X0136501Y0084968D01*
X0136626Y0084951D01*
X0136750Y0084929D01*
X0136873Y0084904D01*
X0136995Y0084874D01*
X0137116Y0084841D01*
X0137236Y0084804D01*
X0137355Y0084763D01*
X0137473Y0084719D01*
X0137589Y0084671D01*
X0137703Y0084619D01*
X0137816Y0084564D01*
X0137927Y0084505D01*
X0138036Y0084443D01*
X0138143Y0084377D01*
X0138248Y0084308D01*
X0138351Y0084236D01*
X0138452Y0084161D01*
X0138550Y0084082D01*
X0138645Y0084000D01*
X0138738Y0083916D01*
X0138829Y0083828D01*
X0136000Y0077000D02*
X0135874Y0077002D01*
X0135749Y0077008D01*
X0135623Y0077018D01*
X0135499Y0077032D01*
X0135374Y0077049D01*
X0135250Y0077071D01*
X0135127Y0077096D01*
X0135005Y0077126D01*
X0134884Y0077159D01*
X0134764Y0077196D01*
X0134645Y0077237D01*
X0134527Y0077281D01*
X0134411Y0077329D01*
X0134297Y0077381D01*
X0134184Y0077436D01*
X0134073Y0077495D01*
X0133964Y0077557D01*
X0133857Y0077623D01*
X0133752Y0077692D01*
X0133649Y0077764D01*
X0133548Y0077839D01*
X0133450Y0077918D01*
X0133355Y0078000D01*
X0133262Y0078084D01*
X0133171Y0078172D01*
X0217000Y0074000D02*
X0217000Y0049500D01*
X0225000Y0049500D02*
X0225000Y0050500D01*
X0227000Y0050500D01*
X0227000Y0049500D01*
X0227000Y0050500D02*
X0227000Y0074000D01*
X0227500Y0074000D01*
X0230000Y0074000D01*
X0230000Y0080000D01*
X0230500Y0082500D01*
X0231500Y0082500D01*
X0232000Y0080000D01*
X0232000Y0074000D01*
X0235000Y0074000D01*
X0235000Y0050500D01*
X0237000Y0050500D01*
X0237000Y0049500D01*
X0237000Y0050500D02*
X0237000Y0074000D01*
X0240000Y0074000D01*
X0240000Y0080000D01*
X0240500Y0082500D01*
X0241500Y0082500D01*
X0242000Y0080000D01*
X0242000Y0074000D01*
X0245000Y0074000D01*
X0245000Y0050500D01*
X0247000Y0050500D01*
X0247000Y0049500D01*
X0247000Y0050500D02*
X0247000Y0074000D01*
X0250000Y0074000D01*
X0250000Y0080000D01*
X0250500Y0082500D01*
X0251500Y0082500D01*
X0252000Y0080000D01*
X0252000Y0074000D01*
X0255000Y0074000D01*
X0255000Y0050500D01*
X0257000Y0050500D01*
X0257000Y0049500D01*
X0257000Y0050500D02*
X0257000Y0074000D01*
X0260000Y0074000D01*
X0262000Y0074000D01*
X0265000Y0074000D01*
X0265000Y0050500D01*
X0267000Y0050500D01*
X0267000Y0049500D01*
X0267000Y0050500D02*
X0267000Y0074000D01*
X0270000Y0074000D01*
X0270000Y0080000D01*
X0270500Y0082500D01*
X0271500Y0082500D01*
X0272000Y0080000D01*
X0272000Y0074000D01*
X0275000Y0074000D01*
X0275000Y0050500D01*
X0277000Y0050500D01*
X0277000Y0049500D01*
X0277000Y0050500D02*
X0277000Y0074000D01*
X0280000Y0074000D01*
X0280000Y0080000D01*
X0280500Y0082500D01*
X0281500Y0082500D01*
X0282000Y0080000D01*
X0282000Y0074000D01*
X0284500Y0074000D01*
X0285000Y0074000D01*
X0285000Y0050500D01*
X0287000Y0050500D01*
X0287000Y0049500D01*
X0287000Y0050500D02*
X0287000Y0074000D01*
X0287500Y0074000D01*
X0290000Y0074000D01*
X0290000Y0080000D01*
X0290500Y0082500D01*
X0291500Y0082500D01*
X0292000Y0080000D01*
X0292000Y0074000D01*
X0295000Y0074000D01*
X0295000Y0049500D01*
X0285000Y0049500D02*
X0285000Y0050500D01*
X0275000Y0050500D02*
X0275000Y0049500D01*
X0265000Y0049500D02*
X0265000Y0050500D01*
X0255000Y0050500D02*
X0255000Y0049500D01*
X0245000Y0049500D02*
X0245000Y0050500D01*
X0235000Y0050500D02*
X0235000Y0049500D01*
X0225000Y0050500D02*
X0225000Y0074000D01*
X0226000Y0074000D01*
X0227000Y0074000D01*
X0227500Y0074000D02*
X0227500Y0084500D01*
X0284500Y0084500D01*
X0284500Y0074000D01*
X0285000Y0074000D02*
X0286000Y0074000D01*
X0287000Y0074000D01*
X0287500Y0074000D02*
X0287500Y0084500D01*
X0295000Y0084500D01*
X0295000Y0074000D01*
X0292000Y0074000D02*
X0290000Y0074000D01*
X0286000Y0074000D02*
X0286000Y0083000D01*
X0287500Y0084500D01*
X0286000Y0083000D02*
X0284500Y0084500D01*
X0282000Y0080000D02*
X0280000Y0080000D01*
X0280000Y0074000D02*
X0282000Y0074000D01*
X0277000Y0074000D02*
X0275000Y0074000D01*
X0272000Y0074000D02*
X0270000Y0074000D01*
X0267000Y0074000D02*
X0265000Y0074000D01*
X0262000Y0074000D02*
X0262000Y0080000D01*
X0260000Y0080000D01*
X0260000Y0074000D01*
X0257000Y0074000D02*
X0255000Y0074000D01*
X0252000Y0074000D02*
X0250000Y0074000D01*
X0247000Y0074000D02*
X0245000Y0074000D01*
X0242000Y0074000D02*
X0240000Y0074000D01*
X0237000Y0074000D02*
X0235000Y0074000D01*
X0232000Y0074000D02*
X0230000Y0074000D01*
X0226000Y0074000D02*
X0226000Y0083000D01*
X0227500Y0084500D01*
X0226000Y0083000D02*
X0224500Y0084500D01*
X0224500Y0074000D01*
X0222000Y0074000D01*
X0222000Y0080000D01*
X0220000Y0080000D01*
X0220000Y0074000D01*
X0222000Y0074000D01*
X0220000Y0074000D02*
X0217000Y0074000D01*
X0217000Y0084500D01*
X0224500Y0084500D01*
X0221500Y0082500D02*
X0222000Y0080000D01*
X0220000Y0080000D02*
X0220500Y0082500D01*
X0221500Y0082500D01*
X0217000Y0084500D02*
X0217000Y0085500D01*
X0295000Y0085500D01*
X0295000Y0084500D01*
X0292000Y0080000D02*
X0290000Y0080000D01*
X0272000Y0080000D02*
X0270000Y0080000D01*
X0262000Y0080000D02*
X0261500Y0082500D01*
X0260500Y0082500D01*
X0260000Y0080000D01*
X0252000Y0080000D02*
X0250000Y0080000D01*
X0242000Y0080000D02*
X0240000Y0080000D01*
X0232000Y0080000D02*
X0230000Y0080000D01*
X0225000Y0074000D02*
X0224500Y0074000D01*
X0224200Y0165300D02*
X0216000Y0165300D01*
X0206000Y0165300D01*
X0197800Y0165300D01*
X0197724Y0165302D01*
X0197648Y0165308D01*
X0197573Y0165317D01*
X0197498Y0165331D01*
X0197424Y0165348D01*
X0197351Y0165369D01*
X0197279Y0165393D01*
X0197208Y0165422D01*
X0197139Y0165453D01*
X0197072Y0165488D01*
X0197007Y0165527D01*
X0196943Y0165569D01*
X0196882Y0165614D01*
X0196823Y0165662D01*
X0196767Y0165713D01*
X0196713Y0165767D01*
X0196662Y0165823D01*
X0196614Y0165882D01*
X0196569Y0165943D01*
X0196527Y0166007D01*
X0196488Y0166072D01*
X0196453Y0166139D01*
X0196422Y0166208D01*
X0196393Y0166279D01*
X0196369Y0166351D01*
X0196348Y0166424D01*
X0196331Y0166498D01*
X0196317Y0166573D01*
X0196308Y0166648D01*
X0196302Y0166724D01*
X0196300Y0166800D01*
X0196300Y0205200D01*
X0196302Y0205276D01*
X0196308Y0205352D01*
X0196317Y0205427D01*
X0196331Y0205502D01*
X0196348Y0205576D01*
X0196369Y0205649D01*
X0196393Y0205721D01*
X0196422Y0205792D01*
X0196453Y0205861D01*
X0196488Y0205928D01*
X0196527Y0205993D01*
X0196569Y0206057D01*
X0196614Y0206118D01*
X0196662Y0206177D01*
X0196713Y0206233D01*
X0196767Y0206287D01*
X0196823Y0206338D01*
X0196882Y0206386D01*
X0196943Y0206431D01*
X0197007Y0206473D01*
X0197072Y0206512D01*
X0197139Y0206547D01*
X0197208Y0206578D01*
X0197279Y0206607D01*
X0197351Y0206631D01*
X0197424Y0206652D01*
X0197498Y0206669D01*
X0197573Y0206683D01*
X0197648Y0206692D01*
X0197724Y0206698D01*
X0197800Y0206700D01*
X0224200Y0206700D01*
X0224276Y0206698D01*
X0224352Y0206692D01*
X0224427Y0206683D01*
X0224502Y0206669D01*
X0224576Y0206652D01*
X0224649Y0206631D01*
X0224721Y0206607D01*
X0224792Y0206578D01*
X0224861Y0206547D01*
X0224928Y0206512D01*
X0224993Y0206473D01*
X0225057Y0206431D01*
X0225118Y0206386D01*
X0225177Y0206338D01*
X0225233Y0206287D01*
X0225287Y0206233D01*
X0225338Y0206177D01*
X0225386Y0206118D01*
X0225431Y0206057D01*
X0225473Y0205993D01*
X0225512Y0205928D01*
X0225547Y0205861D01*
X0225578Y0205792D01*
X0225607Y0205721D01*
X0225631Y0205649D01*
X0225652Y0205576D01*
X0225669Y0205502D01*
X0225683Y0205427D01*
X0225692Y0205352D01*
X0225698Y0205276D01*
X0225700Y0205200D01*
X0225700Y0166800D01*
X0225698Y0166724D01*
X0225692Y0166648D01*
X0225683Y0166573D01*
X0225669Y0166498D01*
X0225652Y0166424D01*
X0225631Y0166351D01*
X0225607Y0166279D01*
X0225578Y0166208D01*
X0225547Y0166139D01*
X0225512Y0166072D01*
X0225473Y0166007D01*
X0225431Y0165943D01*
X0225386Y0165882D01*
X0225338Y0165823D01*
X0225287Y0165767D01*
X0225233Y0165713D01*
X0225177Y0165662D01*
X0225118Y0165614D01*
X0225057Y0165569D01*
X0224993Y0165527D01*
X0224928Y0165488D01*
X0224861Y0165453D01*
X0224792Y0165422D01*
X0224721Y0165393D01*
X0224649Y0165369D01*
X0224576Y0165348D01*
X0224502Y0165331D01*
X0224427Y0165317D01*
X0224352Y0165308D01*
X0224276Y0165302D01*
X0224200Y0165300D01*
X0216000Y0165300D02*
X0215998Y0165440D01*
X0215992Y0165580D01*
X0215982Y0165720D01*
X0215969Y0165860D01*
X0215951Y0165999D01*
X0215929Y0166138D01*
X0215904Y0166275D01*
X0215875Y0166413D01*
X0215842Y0166549D01*
X0215805Y0166684D01*
X0215764Y0166818D01*
X0215719Y0166951D01*
X0215671Y0167083D01*
X0215619Y0167213D01*
X0215564Y0167342D01*
X0215505Y0167469D01*
X0215442Y0167595D01*
X0215376Y0167719D01*
X0215307Y0167840D01*
X0215234Y0167960D01*
X0215157Y0168078D01*
X0215078Y0168193D01*
X0214995Y0168307D01*
X0214909Y0168417D01*
X0214820Y0168526D01*
X0214728Y0168632D01*
X0214633Y0168735D01*
X0214536Y0168836D01*
X0214435Y0168933D01*
X0214332Y0169028D01*
X0214226Y0169120D01*
X0214117Y0169209D01*
X0214007Y0169295D01*
X0213893Y0169378D01*
X0213778Y0169457D01*
X0213660Y0169534D01*
X0213540Y0169607D01*
X0213419Y0169676D01*
X0213295Y0169742D01*
X0213169Y0169805D01*
X0213042Y0169864D01*
X0212913Y0169919D01*
X0212783Y0169971D01*
X0212651Y0170019D01*
X0212518Y0170064D01*
X0212384Y0170105D01*
X0212249Y0170142D01*
X0212113Y0170175D01*
X0211975Y0170204D01*
X0211838Y0170229D01*
X0211699Y0170251D01*
X0211560Y0170269D01*
X0211420Y0170282D01*
X0211280Y0170292D01*
X0211140Y0170298D01*
X0211000Y0170300D01*
X0210860Y0170298D01*
X0210720Y0170292D01*
X0210580Y0170282D01*
X0210440Y0170269D01*
X0210301Y0170251D01*
X0210162Y0170229D01*
X0210025Y0170204D01*
X0209887Y0170175D01*
X0209751Y0170142D01*
X0209616Y0170105D01*
X0209482Y0170064D01*
X0209349Y0170019D01*
X0209217Y0169971D01*
X0209087Y0169919D01*
X0208958Y0169864D01*
X0208831Y0169805D01*
X0208705Y0169742D01*
X0208581Y0169676D01*
X0208460Y0169607D01*
X0208340Y0169534D01*
X0208222Y0169457D01*
X0208107Y0169378D01*
X0207993Y0169295D01*
X0207883Y0169209D01*
X0207774Y0169120D01*
X0207668Y0169028D01*
X0207565Y0168933D01*
X0207464Y0168836D01*
X0207367Y0168735D01*
X0207272Y0168632D01*
X0207180Y0168526D01*
X0207091Y0168417D01*
X0207005Y0168307D01*
X0206922Y0168193D01*
X0206843Y0168078D01*
X0206766Y0167960D01*
X0206693Y0167840D01*
X0206624Y0167719D01*
X0206558Y0167595D01*
X0206495Y0167469D01*
X0206436Y0167342D01*
X0206381Y0167213D01*
X0206329Y0167083D01*
X0206281Y0166951D01*
X0206236Y0166818D01*
X0206195Y0166684D01*
X0206158Y0166549D01*
X0206125Y0166413D01*
X0206096Y0166275D01*
X0206071Y0166138D01*
X0206049Y0165999D01*
X0206031Y0165860D01*
X0206018Y0165720D01*
X0206008Y0165580D01*
X0206002Y0165440D01*
X0206000Y0165300D01*
X0266500Y0177500D02*
X0266500Y0186000D01*
X0266500Y0196000D01*
X0267000Y0196000D01*
X0267000Y0186000D01*
X0266500Y0186000D01*
X0266500Y0177500D02*
X0266502Y0177402D01*
X0266508Y0177304D01*
X0266517Y0177206D01*
X0266531Y0177109D01*
X0266548Y0177012D01*
X0266569Y0176916D01*
X0266594Y0176821D01*
X0266622Y0176727D01*
X0266655Y0176635D01*
X0266690Y0176543D01*
X0266730Y0176453D01*
X0266772Y0176365D01*
X0266819Y0176278D01*
X0266868Y0176194D01*
X0266921Y0176111D01*
X0266977Y0176031D01*
X0267037Y0175952D01*
X0267099Y0175876D01*
X0267164Y0175803D01*
X0267232Y0175732D01*
X0267303Y0175664D01*
X0267376Y0175599D01*
X0267452Y0175537D01*
X0267531Y0175477D01*
X0267611Y0175421D01*
X0267694Y0175368D01*
X0267778Y0175319D01*
X0267865Y0175272D01*
X0267953Y0175230D01*
X0268043Y0175190D01*
X0268135Y0175155D01*
X0268227Y0175122D01*
X0268321Y0175094D01*
X0268416Y0175069D01*
X0268512Y0175048D01*
X0268609Y0175031D01*
X0268706Y0175017D01*
X0268804Y0175008D01*
X0268902Y0175002D01*
X0269000Y0175000D01*
X0313000Y0175000D01*
X0313098Y0175002D01*
X0313196Y0175008D01*
X0313294Y0175017D01*
X0313391Y0175031D01*
X0313488Y0175048D01*
X0313584Y0175069D01*
X0313679Y0175094D01*
X0313773Y0175122D01*
X0313865Y0175155D01*
X0313957Y0175190D01*
X0314047Y0175230D01*
X0314135Y0175272D01*
X0314222Y0175319D01*
X0314306Y0175368D01*
X0314389Y0175421D01*
X0314469Y0175477D01*
X0314548Y0175537D01*
X0314624Y0175599D01*
X0314697Y0175664D01*
X0314768Y0175732D01*
X0314836Y0175803D01*
X0314901Y0175876D01*
X0314963Y0175952D01*
X0315023Y0176031D01*
X0315079Y0176111D01*
X0315132Y0176194D01*
X0315181Y0176278D01*
X0315228Y0176365D01*
X0315270Y0176453D01*
X0315310Y0176543D01*
X0315345Y0176635D01*
X0315378Y0176727D01*
X0315406Y0176821D01*
X0315431Y0176916D01*
X0315452Y0177012D01*
X0315469Y0177109D01*
X0315483Y0177206D01*
X0315492Y0177304D01*
X0315498Y0177402D01*
X0315500Y0177500D01*
X0315500Y0186000D01*
X0315500Y0196000D01*
X0315500Y0276000D01*
X0315500Y0286000D01*
X0315500Y0294500D01*
X0315498Y0294598D01*
X0315492Y0294696D01*
X0315483Y0294794D01*
X0315469Y0294891D01*
X0315452Y0294988D01*
X0315431Y0295084D01*
X0315406Y0295179D01*
X0315378Y0295273D01*
X0315345Y0295365D01*
X0315310Y0295457D01*
X0315270Y0295547D01*
X0315228Y0295635D01*
X0315181Y0295722D01*
X0315132Y0295806D01*
X0315079Y0295889D01*
X0315023Y0295969D01*
X0314963Y0296048D01*
X0314901Y0296124D01*
X0314836Y0296197D01*
X0314768Y0296268D01*
X0314697Y0296336D01*
X0314624Y0296401D01*
X0314548Y0296463D01*
X0314469Y0296523D01*
X0314389Y0296579D01*
X0314306Y0296632D01*
X0314222Y0296681D01*
X0314135Y0296728D01*
X0314047Y0296770D01*
X0313957Y0296810D01*
X0313865Y0296845D01*
X0313773Y0296878D01*
X0313679Y0296906D01*
X0313584Y0296931D01*
X0313488Y0296952D01*
X0313391Y0296969D01*
X0313294Y0296983D01*
X0313196Y0296992D01*
X0313098Y0296998D01*
X0313000Y0297000D01*
X0269000Y0297000D01*
X0268902Y0296998D01*
X0268804Y0296992D01*
X0268706Y0296983D01*
X0268609Y0296969D01*
X0268512Y0296952D01*
X0268416Y0296931D01*
X0268321Y0296906D01*
X0268227Y0296878D01*
X0268135Y0296845D01*
X0268043Y0296810D01*
X0267953Y0296770D01*
X0267865Y0296728D01*
X0267778Y0296681D01*
X0267694Y0296632D01*
X0267611Y0296579D01*
X0267531Y0296523D01*
X0267452Y0296463D01*
X0267376Y0296401D01*
X0267303Y0296336D01*
X0267232Y0296268D01*
X0267164Y0296197D01*
X0267099Y0296124D01*
X0267037Y0296048D01*
X0266977Y0295969D01*
X0266921Y0295889D01*
X0266868Y0295806D01*
X0266819Y0295722D01*
X0266772Y0295635D01*
X0266730Y0295547D01*
X0266690Y0295457D01*
X0266655Y0295365D01*
X0266622Y0295273D01*
X0266594Y0295179D01*
X0266569Y0295084D01*
X0266548Y0294988D01*
X0266531Y0294891D01*
X0266517Y0294794D01*
X0266508Y0294696D01*
X0266502Y0294598D01*
X0266500Y0294500D01*
X0266500Y0286000D01*
X0266500Y0276000D01*
X0266500Y0196000D01*
X0275500Y0208500D02*
X0275500Y0263500D01*
X0275502Y0263643D01*
X0275508Y0263787D01*
X0275517Y0263930D01*
X0275531Y0264072D01*
X0275548Y0264215D01*
X0275570Y0264357D01*
X0275595Y0264498D01*
X0275624Y0264638D01*
X0275656Y0264778D01*
X0275693Y0264917D01*
X0275733Y0265054D01*
X0275777Y0265191D01*
X0275824Y0265326D01*
X0275876Y0265460D01*
X0275930Y0265593D01*
X0275989Y0265723D01*
X0276051Y0265853D01*
X0276116Y0265980D01*
X0276185Y0266106D01*
X0276257Y0266230D01*
X0276333Y0266352D01*
X0276411Y0266472D01*
X0276493Y0266590D01*
X0276579Y0266705D01*
X0276667Y0266818D01*
X0276758Y0266929D01*
X0276852Y0267037D01*
X0276949Y0267142D01*
X0277049Y0267245D01*
X0277152Y0267345D01*
X0277257Y0267442D01*
X0277365Y0267537D01*
X0277476Y0267628D01*
X0277589Y0267717D01*
X0277704Y0267802D01*
X0277821Y0267884D01*
X0277941Y0267963D01*
X0278063Y0268039D01*
X0278187Y0268111D01*
X0278312Y0268180D01*
X0278440Y0268246D01*
X0278569Y0268308D01*
X0278700Y0268367D01*
X0278832Y0268422D01*
X0278966Y0268473D01*
X0279101Y0268521D01*
X0279238Y0268565D01*
X0279375Y0268606D01*
X0279514Y0268642D01*
X0279654Y0268675D01*
X0279794Y0268704D01*
X0279935Y0268730D01*
X0280077Y0268751D01*
X0280219Y0268769D01*
X0280362Y0268783D01*
X0280505Y0268793D01*
X0280648Y0268799D01*
X0280792Y0268801D01*
X0280935Y0268799D01*
X0281078Y0268794D01*
X0281221Y0268784D01*
X0281364Y0268771D01*
X0281507Y0268754D01*
X0281648Y0268733D01*
X0281790Y0268708D01*
X0281930Y0268679D01*
X0281900Y0268700D02*
X0302500Y0265600D01*
X0302437Y0265653D02*
X0302577Y0265617D01*
X0302716Y0265578D01*
X0302854Y0265534D01*
X0302990Y0265488D01*
X0303125Y0265437D01*
X0303259Y0265383D01*
X0303391Y0265325D01*
X0303522Y0265263D01*
X0303651Y0265198D01*
X0303778Y0265130D01*
X0303903Y0265058D01*
X0304027Y0264982D01*
X0304148Y0264904D01*
X0304267Y0264822D01*
X0304383Y0264737D01*
X0304497Y0264648D01*
X0304609Y0264557D01*
X0304718Y0264463D01*
X0304825Y0264365D01*
X0304929Y0264265D01*
X0305030Y0264162D01*
X0305129Y0264056D01*
X0305224Y0263948D01*
X0305317Y0263837D01*
X0305406Y0263724D01*
X0305492Y0263608D01*
X0305575Y0263490D01*
X0305655Y0263370D01*
X0305732Y0263247D01*
X0305805Y0263123D01*
X0305875Y0262996D01*
X0305941Y0262868D01*
X0306004Y0262738D01*
X0306063Y0262606D01*
X0306119Y0262473D01*
X0306171Y0262338D01*
X0306219Y0262202D01*
X0306263Y0262065D01*
X0306304Y0261926D01*
X0306341Y0261787D01*
X0306374Y0261646D01*
X0306404Y0261505D01*
X0306429Y0261363D01*
X0306451Y0261220D01*
X0306468Y0261077D01*
X0306482Y0260933D01*
X0306492Y0260789D01*
X0306498Y0260645D01*
X0306500Y0260500D01*
X0306500Y0211500D01*
X0306498Y0211355D01*
X0306492Y0211209D01*
X0306482Y0211064D01*
X0306468Y0210920D01*
X0306450Y0210775D01*
X0306428Y0210632D01*
X0306403Y0210489D01*
X0306373Y0210346D01*
X0306339Y0210205D01*
X0306302Y0210065D01*
X0306261Y0209925D01*
X0306216Y0209787D01*
X0306167Y0209650D01*
X0306114Y0209515D01*
X0306058Y0209381D01*
X0305998Y0209248D01*
X0305934Y0209117D01*
X0305867Y0208989D01*
X0305797Y0208861D01*
X0305722Y0208736D01*
X0305645Y0208613D01*
X0305564Y0208493D01*
X0305480Y0208374D01*
X0305393Y0208258D01*
X0305302Y0208144D01*
X0305209Y0208033D01*
X0305112Y0207924D01*
X0305013Y0207818D01*
X0304910Y0207715D01*
X0304805Y0207615D01*
X0304697Y0207517D01*
X0304587Y0207423D01*
X0304473Y0207332D01*
X0304358Y0207244D01*
X0304240Y0207159D01*
X0304120Y0207077D01*
X0303997Y0206998D01*
X0303873Y0206923D01*
X0303746Y0206852D01*
X0303618Y0206784D01*
X0303488Y0206719D01*
X0303356Y0206658D01*
X0303222Y0206601D01*
X0303087Y0206547D01*
X0302951Y0206497D01*
X0302813Y0206451D01*
X0302674Y0206409D01*
X0302533Y0206370D01*
X0302600Y0206400D02*
X0281800Y0203300D01*
X0281839Y0203303D02*
X0281697Y0203277D01*
X0281555Y0203254D01*
X0281412Y0203235D01*
X0281269Y0203221D01*
X0281125Y0203210D01*
X0280981Y0203203D01*
X0280837Y0203200D01*
X0280693Y0203201D01*
X0280549Y0203206D01*
X0280405Y0203215D01*
X0280261Y0203227D01*
X0280118Y0203244D01*
X0279975Y0203265D01*
X0279833Y0203289D01*
X0279692Y0203317D01*
X0279551Y0203349D01*
X0279411Y0203385D01*
X0279273Y0203425D01*
X0279135Y0203468D01*
X0278999Y0203515D01*
X0278864Y0203566D01*
X0278731Y0203621D01*
X0278599Y0203679D01*
X0278468Y0203740D01*
X0278340Y0203806D01*
X0278213Y0203874D01*
X0278088Y0203946D01*
X0277965Y0204022D01*
X0277845Y0204100D01*
X0277726Y0204182D01*
X0277610Y0204268D01*
X0277496Y0204356D01*
X0277384Y0204447D01*
X0277275Y0204542D01*
X0277169Y0204639D01*
X0277065Y0204739D01*
X0276964Y0204842D01*
X0276866Y0204948D01*
X0276771Y0205056D01*
X0276679Y0205167D01*
X0276590Y0205280D01*
X0276504Y0205396D01*
X0276421Y0205514D01*
X0276342Y0205634D01*
X0276265Y0205757D01*
X0276192Y0205881D01*
X0276123Y0206007D01*
X0276057Y0206135D01*
X0275994Y0206265D01*
X0275935Y0206397D01*
X0275880Y0206530D01*
X0275828Y0206665D01*
X0275780Y0206800D01*
X0275736Y0206938D01*
X0275695Y0207076D01*
X0275658Y0207215D01*
X0275625Y0207356D01*
X0275596Y0207497D01*
X0275570Y0207639D01*
X0275549Y0207781D01*
X0275531Y0207924D01*
X0275518Y0208068D01*
X0275508Y0208212D01*
X0275502Y0208356D01*
X0275500Y0208500D01*
X0284500Y0186700D02*
X0284502Y0186861D01*
X0284508Y0187021D01*
X0284518Y0187182D01*
X0284532Y0187342D01*
X0284550Y0187502D01*
X0284571Y0187661D01*
X0284597Y0187820D01*
X0284627Y0187978D01*
X0284660Y0188135D01*
X0284698Y0188292D01*
X0284739Y0188447D01*
X0284784Y0188601D01*
X0284833Y0188754D01*
X0284886Y0188906D01*
X0284942Y0189057D01*
X0285003Y0189206D01*
X0285066Y0189354D01*
X0285134Y0189500D01*
X0285205Y0189644D01*
X0285279Y0189786D01*
X0285357Y0189927D01*
X0285439Y0190065D01*
X0285524Y0190202D01*
X0285612Y0190336D01*
X0285704Y0190468D01*
X0285799Y0190598D01*
X0285897Y0190726D01*
X0285998Y0190851D01*
X0286102Y0190973D01*
X0286209Y0191093D01*
X0286319Y0191210D01*
X0286432Y0191325D01*
X0286548Y0191436D01*
X0286667Y0191545D01*
X0286788Y0191650D01*
X0286912Y0191753D01*
X0287038Y0191853D01*
X0287166Y0191949D01*
X0287297Y0192042D01*
X0287431Y0192132D01*
X0287566Y0192219D01*
X0287704Y0192302D01*
X0287843Y0192382D01*
X0287985Y0192458D01*
X0288128Y0192531D01*
X0288273Y0192600D01*
X0288420Y0192666D01*
X0288568Y0192728D01*
X0288718Y0192786D01*
X0288869Y0192841D01*
X0289022Y0192892D01*
X0289176Y0192939D01*
X0289331Y0192982D01*
X0289487Y0193021D01*
X0289643Y0193057D01*
X0289801Y0193088D01*
X0289959Y0193116D01*
X0290118Y0193140D01*
X0290278Y0193160D01*
X0290438Y0193176D01*
X0290598Y0193188D01*
X0290759Y0193196D01*
X0290920Y0193200D01*
X0291080Y0193200D01*
X0291241Y0193196D01*
X0291402Y0193188D01*
X0291562Y0193176D01*
X0291722Y0193160D01*
X0291882Y0193140D01*
X0292041Y0193116D01*
X0292199Y0193088D01*
X0292357Y0193057D01*
X0292513Y0193021D01*
X0292669Y0192982D01*
X0292824Y0192939D01*
X0292978Y0192892D01*
X0293131Y0192841D01*
X0293282Y0192786D01*
X0293432Y0192728D01*
X0293580Y0192666D01*
X0293727Y0192600D01*
X0293872Y0192531D01*
X0294015Y0192458D01*
X0294157Y0192382D01*
X0294296Y0192302D01*
X0294434Y0192219D01*
X0294569Y0192132D01*
X0294703Y0192042D01*
X0294834Y0191949D01*
X0294962Y0191853D01*
X0295088Y0191753D01*
X0295212Y0191650D01*
X0295333Y0191545D01*
X0295452Y0191436D01*
X0295568Y0191325D01*
X0295681Y0191210D01*
X0295791Y0191093D01*
X0295898Y0190973D01*
X0296002Y0190851D01*
X0296103Y0190726D01*
X0296201Y0190598D01*
X0296296Y0190468D01*
X0296388Y0190336D01*
X0296476Y0190202D01*
X0296561Y0190065D01*
X0296643Y0189927D01*
X0296721Y0189786D01*
X0296795Y0189644D01*
X0296866Y0189500D01*
X0296934Y0189354D01*
X0296997Y0189206D01*
X0297058Y0189057D01*
X0297114Y0188906D01*
X0297167Y0188754D01*
X0297216Y0188601D01*
X0297261Y0188447D01*
X0297302Y0188292D01*
X0297340Y0188135D01*
X0297373Y0187978D01*
X0297403Y0187820D01*
X0297429Y0187661D01*
X0297450Y0187502D01*
X0297468Y0187342D01*
X0297482Y0187182D01*
X0297492Y0187021D01*
X0297498Y0186861D01*
X0297500Y0186700D01*
X0297498Y0186539D01*
X0297492Y0186379D01*
X0297482Y0186218D01*
X0297468Y0186058D01*
X0297450Y0185898D01*
X0297429Y0185739D01*
X0297403Y0185580D01*
X0297373Y0185422D01*
X0297340Y0185265D01*
X0297302Y0185108D01*
X0297261Y0184953D01*
X0297216Y0184799D01*
X0297167Y0184646D01*
X0297114Y0184494D01*
X0297058Y0184343D01*
X0296997Y0184194D01*
X0296934Y0184046D01*
X0296866Y0183900D01*
X0296795Y0183756D01*
X0296721Y0183614D01*
X0296643Y0183473D01*
X0296561Y0183335D01*
X0296476Y0183198D01*
X0296388Y0183064D01*
X0296296Y0182932D01*
X0296201Y0182802D01*
X0296103Y0182674D01*
X0296002Y0182549D01*
X0295898Y0182427D01*
X0295791Y0182307D01*
X0295681Y0182190D01*
X0295568Y0182075D01*
X0295452Y0181964D01*
X0295333Y0181855D01*
X0295212Y0181750D01*
X0295088Y0181647D01*
X0294962Y0181547D01*
X0294834Y0181451D01*
X0294703Y0181358D01*
X0294569Y0181268D01*
X0294434Y0181181D01*
X0294296Y0181098D01*
X0294157Y0181018D01*
X0294015Y0180942D01*
X0293872Y0180869D01*
X0293727Y0180800D01*
X0293580Y0180734D01*
X0293432Y0180672D01*
X0293282Y0180614D01*
X0293131Y0180559D01*
X0292978Y0180508D01*
X0292824Y0180461D01*
X0292669Y0180418D01*
X0292513Y0180379D01*
X0292357Y0180343D01*
X0292199Y0180312D01*
X0292041Y0180284D01*
X0291882Y0180260D01*
X0291722Y0180240D01*
X0291562Y0180224D01*
X0291402Y0180212D01*
X0291241Y0180204D01*
X0291080Y0180200D01*
X0290920Y0180200D01*
X0290759Y0180204D01*
X0290598Y0180212D01*
X0290438Y0180224D01*
X0290278Y0180240D01*
X0290118Y0180260D01*
X0289959Y0180284D01*
X0289801Y0180312D01*
X0289643Y0180343D01*
X0289487Y0180379D01*
X0289331Y0180418D01*
X0289176Y0180461D01*
X0289022Y0180508D01*
X0288869Y0180559D01*
X0288718Y0180614D01*
X0288568Y0180672D01*
X0288420Y0180734D01*
X0288273Y0180800D01*
X0288128Y0180869D01*
X0287985Y0180942D01*
X0287843Y0181018D01*
X0287704Y0181098D01*
X0287566Y0181181D01*
X0287431Y0181268D01*
X0287297Y0181358D01*
X0287166Y0181451D01*
X0287038Y0181547D01*
X0286912Y0181647D01*
X0286788Y0181750D01*
X0286667Y0181855D01*
X0286548Y0181964D01*
X0286432Y0182075D01*
X0286319Y0182190D01*
X0286209Y0182307D01*
X0286102Y0182427D01*
X0285998Y0182549D01*
X0285897Y0182674D01*
X0285799Y0182802D01*
X0285704Y0182932D01*
X0285612Y0183064D01*
X0285524Y0183198D01*
X0285439Y0183335D01*
X0285357Y0183473D01*
X0285279Y0183614D01*
X0285205Y0183756D01*
X0285134Y0183900D01*
X0285066Y0184046D01*
X0285003Y0184194D01*
X0284942Y0184343D01*
X0284886Y0184494D01*
X0284833Y0184646D01*
X0284784Y0184799D01*
X0284739Y0184953D01*
X0284698Y0185108D01*
X0284660Y0185265D01*
X0284627Y0185422D01*
X0284597Y0185580D01*
X0284571Y0185739D01*
X0284550Y0185898D01*
X0284532Y0186058D01*
X0284518Y0186218D01*
X0284508Y0186379D01*
X0284502Y0186539D01*
X0284500Y0186700D01*
X0315000Y0186000D02*
X0315000Y0196000D01*
X0315500Y0196000D01*
X0315500Y0186000D02*
X0315000Y0186000D01*
X0220000Y0221500D02*
X0202000Y0221500D01*
X0202000Y0222500D01*
X0209500Y0222500D01*
X0209500Y0233000D01*
X0207000Y0233000D01*
X0207000Y0227000D01*
X0206500Y0224500D01*
X0205500Y0224500D01*
X0205000Y0227000D01*
X0205000Y0233000D01*
X0202000Y0233000D01*
X0202000Y0257500D01*
X0210000Y0257500D02*
X0210000Y0256500D01*
X0210000Y0233000D01*
X0209500Y0233000D01*
X0210000Y0233000D02*
X0211000Y0233000D01*
X0212000Y0233000D01*
X0212000Y0256500D01*
X0210000Y0256500D01*
X0212000Y0256500D02*
X0212000Y0257500D01*
X0220000Y0257500D02*
X0220000Y0233000D01*
X0217000Y0233000D01*
X0217000Y0227000D01*
X0216500Y0224500D01*
X0215500Y0224500D01*
X0215000Y0227000D01*
X0215000Y0233000D01*
X0212500Y0233000D01*
X0212000Y0233000D01*
X0212500Y0233000D02*
X0212500Y0222500D01*
X0211000Y0224000D01*
X0211000Y0233000D01*
X0207000Y0233000D02*
X0205000Y0233000D01*
X0202000Y0233000D02*
X0202000Y0222500D01*
X0205000Y0227000D02*
X0207000Y0227000D01*
X0211000Y0224000D02*
X0209500Y0222500D01*
X0212500Y0222500D02*
X0220000Y0222500D01*
X0220000Y0233000D01*
X0217000Y0233000D02*
X0215000Y0233000D01*
X0215000Y0227000D02*
X0217000Y0227000D01*
X0220000Y0222500D02*
X0220000Y0221500D01*
X0266500Y0276000D02*
X0267000Y0276000D01*
X0267000Y0286000D01*
X0266500Y0286000D01*
X0284500Y0285300D02*
X0284502Y0285461D01*
X0284508Y0285621D01*
X0284518Y0285782D01*
X0284532Y0285942D01*
X0284550Y0286102D01*
X0284571Y0286261D01*
X0284597Y0286420D01*
X0284627Y0286578D01*
X0284660Y0286735D01*
X0284698Y0286892D01*
X0284739Y0287047D01*
X0284784Y0287201D01*
X0284833Y0287354D01*
X0284886Y0287506D01*
X0284942Y0287657D01*
X0285003Y0287806D01*
X0285066Y0287954D01*
X0285134Y0288100D01*
X0285205Y0288244D01*
X0285279Y0288386D01*
X0285357Y0288527D01*
X0285439Y0288665D01*
X0285524Y0288802D01*
X0285612Y0288936D01*
X0285704Y0289068D01*
X0285799Y0289198D01*
X0285897Y0289326D01*
X0285998Y0289451D01*
X0286102Y0289573D01*
X0286209Y0289693D01*
X0286319Y0289810D01*
X0286432Y0289925D01*
X0286548Y0290036D01*
X0286667Y0290145D01*
X0286788Y0290250D01*
X0286912Y0290353D01*
X0287038Y0290453D01*
X0287166Y0290549D01*
X0287297Y0290642D01*
X0287431Y0290732D01*
X0287566Y0290819D01*
X0287704Y0290902D01*
X0287843Y0290982D01*
X0287985Y0291058D01*
X0288128Y0291131D01*
X0288273Y0291200D01*
X0288420Y0291266D01*
X0288568Y0291328D01*
X0288718Y0291386D01*
X0288869Y0291441D01*
X0289022Y0291492D01*
X0289176Y0291539D01*
X0289331Y0291582D01*
X0289487Y0291621D01*
X0289643Y0291657D01*
X0289801Y0291688D01*
X0289959Y0291716D01*
X0290118Y0291740D01*
X0290278Y0291760D01*
X0290438Y0291776D01*
X0290598Y0291788D01*
X0290759Y0291796D01*
X0290920Y0291800D01*
X0291080Y0291800D01*
X0291241Y0291796D01*
X0291402Y0291788D01*
X0291562Y0291776D01*
X0291722Y0291760D01*
X0291882Y0291740D01*
X0292041Y0291716D01*
X0292199Y0291688D01*
X0292357Y0291657D01*
X0292513Y0291621D01*
X0292669Y0291582D01*
X0292824Y0291539D01*
X0292978Y0291492D01*
X0293131Y0291441D01*
X0293282Y0291386D01*
X0293432Y0291328D01*
X0293580Y0291266D01*
X0293727Y0291200D01*
X0293872Y0291131D01*
X0294015Y0291058D01*
X0294157Y0290982D01*
X0294296Y0290902D01*
X0294434Y0290819D01*
X0294569Y0290732D01*
X0294703Y0290642D01*
X0294834Y0290549D01*
X0294962Y0290453D01*
X0295088Y0290353D01*
X0295212Y0290250D01*
X0295333Y0290145D01*
X0295452Y0290036D01*
X0295568Y0289925D01*
X0295681Y0289810D01*
X0295791Y0289693D01*
X0295898Y0289573D01*
X0296002Y0289451D01*
X0296103Y0289326D01*
X0296201Y0289198D01*
X0296296Y0289068D01*
X0296388Y0288936D01*
X0296476Y0288802D01*
X0296561Y0288665D01*
X0296643Y0288527D01*
X0296721Y0288386D01*
X0296795Y0288244D01*
X0296866Y0288100D01*
X0296934Y0287954D01*
X0296997Y0287806D01*
X0297058Y0287657D01*
X0297114Y0287506D01*
X0297167Y0287354D01*
X0297216Y0287201D01*
X0297261Y0287047D01*
X0297302Y0286892D01*
X0297340Y0286735D01*
X0297373Y0286578D01*
X0297403Y0286420D01*
X0297429Y0286261D01*
X0297450Y0286102D01*
X0297468Y0285942D01*
X0297482Y0285782D01*
X0297492Y0285621D01*
X0297498Y0285461D01*
X0297500Y0285300D01*
X0297498Y0285139D01*
X0297492Y0284979D01*
X0297482Y0284818D01*
X0297468Y0284658D01*
X0297450Y0284498D01*
X0297429Y0284339D01*
X0297403Y0284180D01*
X0297373Y0284022D01*
X0297340Y0283865D01*
X0297302Y0283708D01*
X0297261Y0283553D01*
X0297216Y0283399D01*
X0297167Y0283246D01*
X0297114Y0283094D01*
X0297058Y0282943D01*
X0296997Y0282794D01*
X0296934Y0282646D01*
X0296866Y0282500D01*
X0296795Y0282356D01*
X0296721Y0282214D01*
X0296643Y0282073D01*
X0296561Y0281935D01*
X0296476Y0281798D01*
X0296388Y0281664D01*
X0296296Y0281532D01*
X0296201Y0281402D01*
X0296103Y0281274D01*
X0296002Y0281149D01*
X0295898Y0281027D01*
X0295791Y0280907D01*
X0295681Y0280790D01*
X0295568Y0280675D01*
X0295452Y0280564D01*
X0295333Y0280455D01*
X0295212Y0280350D01*
X0295088Y0280247D01*
X0294962Y0280147D01*
X0294834Y0280051D01*
X0294703Y0279958D01*
X0294569Y0279868D01*
X0294434Y0279781D01*
X0294296Y0279698D01*
X0294157Y0279618D01*
X0294015Y0279542D01*
X0293872Y0279469D01*
X0293727Y0279400D01*
X0293580Y0279334D01*
X0293432Y0279272D01*
X0293282Y0279214D01*
X0293131Y0279159D01*
X0292978Y0279108D01*
X0292824Y0279061D01*
X0292669Y0279018D01*
X0292513Y0278979D01*
X0292357Y0278943D01*
X0292199Y0278912D01*
X0292041Y0278884D01*
X0291882Y0278860D01*
X0291722Y0278840D01*
X0291562Y0278824D01*
X0291402Y0278812D01*
X0291241Y0278804D01*
X0291080Y0278800D01*
X0290920Y0278800D01*
X0290759Y0278804D01*
X0290598Y0278812D01*
X0290438Y0278824D01*
X0290278Y0278840D01*
X0290118Y0278860D01*
X0289959Y0278884D01*
X0289801Y0278912D01*
X0289643Y0278943D01*
X0289487Y0278979D01*
X0289331Y0279018D01*
X0289176Y0279061D01*
X0289022Y0279108D01*
X0288869Y0279159D01*
X0288718Y0279214D01*
X0288568Y0279272D01*
X0288420Y0279334D01*
X0288273Y0279400D01*
X0288128Y0279469D01*
X0287985Y0279542D01*
X0287843Y0279618D01*
X0287704Y0279698D01*
X0287566Y0279781D01*
X0287431Y0279868D01*
X0287297Y0279958D01*
X0287166Y0280051D01*
X0287038Y0280147D01*
X0286912Y0280247D01*
X0286788Y0280350D01*
X0286667Y0280455D01*
X0286548Y0280564D01*
X0286432Y0280675D01*
X0286319Y0280790D01*
X0286209Y0280907D01*
X0286102Y0281027D01*
X0285998Y0281149D01*
X0285897Y0281274D01*
X0285799Y0281402D01*
X0285704Y0281532D01*
X0285612Y0281664D01*
X0285524Y0281798D01*
X0285439Y0281935D01*
X0285357Y0282073D01*
X0285279Y0282214D01*
X0285205Y0282356D01*
X0285134Y0282500D01*
X0285066Y0282646D01*
X0285003Y0282794D01*
X0284942Y0282943D01*
X0284886Y0283094D01*
X0284833Y0283246D01*
X0284784Y0283399D01*
X0284739Y0283553D01*
X0284698Y0283708D01*
X0284660Y0283865D01*
X0284627Y0284022D01*
X0284597Y0284180D01*
X0284571Y0284339D01*
X0284550Y0284498D01*
X0284532Y0284658D01*
X0284518Y0284818D01*
X0284508Y0284979D01*
X0284502Y0285139D01*
X0284500Y0285300D01*
X0315000Y0286000D02*
X0315000Y0276000D01*
X0315500Y0276000D01*
X0315500Y0286000D02*
X0315000Y0286000D01*
D16*
X0224300Y0206600D02*
X0224300Y0165500D01*
X0078000Y0181000D02*
X0077000Y0181000D01*
X0077000Y0191000D01*
X0078000Y0191000D01*
X0055000Y0191000D02*
X0055000Y0181500D01*
X0054000Y0181500D01*
X0054000Y0191000D02*
X0055000Y0191000D01*
D17*
X0080746Y0191294D02*
X0080746Y0189793D01*
X0081497Y0189042D01*
X0082247Y0189042D01*
X0082998Y0189793D01*
X0082998Y0191294D01*
X0083749Y0192045D01*
X0084499Y0192045D01*
X0085250Y0191294D01*
X0085250Y0189793D01*
X0084499Y0189042D01*
X0081497Y0192045D02*
X0080746Y0191294D01*
X0082247Y0193646D02*
X0080746Y0195147D01*
X0085250Y0195147D01*
X0085250Y0193646D02*
X0085250Y0196649D01*
X0206438Y0215901D02*
X0207189Y0215150D01*
X0208690Y0215150D01*
X0209441Y0215901D01*
X0209441Y0216651D01*
X0208690Y0217402D01*
X0207189Y0217402D01*
X0206438Y0218153D01*
X0206438Y0218903D01*
X0207189Y0219654D01*
X0208690Y0219654D01*
X0209441Y0218903D01*
X0211042Y0219654D02*
X0211042Y0215150D01*
X0214045Y0215150D01*
X0215646Y0215150D02*
X0218649Y0218153D01*
X0218649Y0218903D01*
X0217898Y0219654D01*
X0216397Y0219654D01*
X0215646Y0218903D01*
X0215646Y0215150D02*
X0218649Y0215150D01*
X0216149Y0246050D02*
X0213146Y0246050D01*
X0214647Y0246050D02*
X0214647Y0250554D01*
X0213146Y0249053D01*
X0277347Y0246951D02*
X0277347Y0245817D01*
X0277914Y0245250D01*
X0277347Y0246951D02*
X0277914Y0247519D01*
X0278481Y0247519D01*
X0280750Y0245250D01*
X0280750Y0247519D01*
X0280750Y0256250D02*
X0280750Y0258519D01*
X0280750Y0257384D02*
X0277347Y0257384D01*
X0278481Y0256250D01*
X0278481Y0236519D02*
X0279049Y0235951D01*
X0279616Y0236519D01*
X0280183Y0236519D01*
X0280750Y0235951D01*
X0280750Y0234817D01*
X0280183Y0234250D01*
X0279049Y0235384D02*
X0279049Y0235951D01*
X0278481Y0236519D02*
X0277914Y0236519D01*
X0277347Y0235951D01*
X0277347Y0234817D01*
X0277914Y0234250D01*
X0279049Y0226019D02*
X0279049Y0223750D01*
X0277347Y0225451D01*
X0280750Y0225451D01*
X0280183Y0215019D02*
X0280750Y0214451D01*
X0280750Y0213317D01*
X0280183Y0212750D01*
X0279049Y0212750D02*
X0278481Y0213884D01*
X0278481Y0214451D01*
X0279049Y0215019D01*
X0280183Y0215019D01*
X0279049Y0212750D02*
X0277347Y0212750D01*
X0277347Y0215019D01*
X0301347Y0218817D02*
X0301914Y0218250D01*
X0302481Y0218250D01*
X0303049Y0218817D01*
X0303049Y0220519D01*
X0304183Y0220519D02*
X0301914Y0220519D01*
X0301347Y0219951D01*
X0301347Y0218817D01*
X0304183Y0218250D02*
X0304750Y0218817D01*
X0304750Y0219951D01*
X0304183Y0220519D01*
X0304183Y0229250D02*
X0303616Y0229250D01*
X0303049Y0229817D01*
X0303049Y0230951D01*
X0303616Y0231519D01*
X0304183Y0231519D01*
X0304750Y0230951D01*
X0304750Y0229817D01*
X0304183Y0229250D01*
X0303049Y0229817D02*
X0302481Y0229250D01*
X0301914Y0229250D01*
X0301347Y0229817D01*
X0301347Y0230951D01*
X0301914Y0231519D01*
X0302481Y0231519D01*
X0303049Y0230951D01*
X0304183Y0240250D02*
X0304750Y0240250D01*
X0304183Y0240250D02*
X0301914Y0242519D01*
X0301347Y0242519D01*
X0301347Y0240250D01*
X0303049Y0251250D02*
X0303049Y0252951D01*
X0303616Y0253519D01*
X0304183Y0253519D01*
X0304750Y0252951D01*
X0304750Y0251817D01*
X0304183Y0251250D01*
X0303049Y0251250D01*
X0301914Y0252384D01*
X0301347Y0253519D01*
X0222898Y0163754D02*
X0221397Y0163754D01*
X0220646Y0163003D01*
X0219045Y0163003D02*
X0218294Y0163754D01*
X0216793Y0163754D01*
X0216042Y0163003D01*
X0216042Y0160001D01*
X0216793Y0159250D01*
X0218294Y0159250D01*
X0219045Y0160001D01*
X0220646Y0159250D02*
X0223649Y0162253D01*
X0223649Y0163003D01*
X0222898Y0163754D01*
X0223649Y0159250D02*
X0220646Y0159250D01*
X0214474Y0159250D02*
X0212973Y0159250D01*
X0213723Y0159250D02*
X0213723Y0163754D01*
X0212973Y0163754D02*
X0214474Y0163754D01*
X0218001Y0091854D02*
X0217250Y0091103D01*
X0217250Y0090353D01*
X0218001Y0089602D01*
X0219502Y0089602D01*
X0220253Y0088851D01*
X0220253Y0088101D01*
X0219502Y0087350D01*
X0218001Y0087350D01*
X0217250Y0088101D01*
X0218001Y0091854D02*
X0219502Y0091854D01*
X0220253Y0091103D01*
X0221854Y0091854D02*
X0221854Y0087350D01*
X0224856Y0087350D01*
X0226458Y0087350D02*
X0229460Y0087350D01*
X0227959Y0087350D02*
X0227959Y0091854D01*
X0226458Y0090353D01*
X0221251Y0060954D02*
X0221251Y0056450D01*
X0219750Y0056450D02*
X0222753Y0056450D01*
X0219750Y0059453D02*
X0221251Y0060954D01*
X0288450Y0059803D02*
X0288450Y0059053D01*
X0289201Y0058302D01*
X0290702Y0058302D01*
X0291453Y0057551D01*
X0291453Y0056801D01*
X0290702Y0056050D01*
X0289201Y0056050D01*
X0288450Y0056801D01*
X0288450Y0057551D01*
X0289201Y0058302D01*
X0290702Y0058302D02*
X0291453Y0059053D01*
X0291453Y0059803D01*
X0290702Y0060554D01*
X0289201Y0060554D01*
X0288450Y0059803D01*
X0135856Y0086750D02*
X0132854Y0086750D01*
X0134355Y0086750D02*
X0134355Y0091254D01*
X0132854Y0089753D01*
X0131253Y0090503D02*
X0131253Y0087501D01*
X0130502Y0086750D01*
X0129001Y0086750D01*
X0128250Y0087501D01*
X0128250Y0090503D01*
X0129001Y0091254D01*
X0130502Y0091254D01*
X0131253Y0090503D01*
X0129751Y0088251D02*
X0131253Y0086750D01*
D18*
X0196050Y0168500D03*
X0196050Y0173500D03*
X0196050Y0178500D03*
X0196050Y0183500D03*
X0196050Y0188500D03*
X0196050Y0193500D03*
X0196050Y0198500D03*
X0196050Y0203500D03*
X0225950Y0203500D03*
X0225950Y0198500D03*
X0225950Y0193500D03*
X0225950Y0188500D03*
X0225950Y0183500D03*
X0225950Y0178500D03*
X0225950Y0173500D03*
X0225950Y0168500D03*
D19*
X0216000Y0230000D03*
X0206000Y0230000D03*
X0221000Y0077000D03*
X0231000Y0077000D03*
X0241000Y0077000D03*
X0251000Y0077000D03*
X0261000Y0077000D03*
X0271000Y0077000D03*
X0281000Y0077000D03*
X0291000Y0077000D03*
D20*
X0291000Y0081250D03*
X0281000Y0081250D03*
X0271000Y0081250D03*
X0261000Y0081250D03*
X0251000Y0081250D03*
X0241000Y0081250D03*
X0231000Y0081250D03*
X0221000Y0081250D03*
X0216000Y0225750D03*
X0206000Y0225750D03*
D21*
X0206750Y0226500D03*
X0205250Y0226500D03*
X0215250Y0226500D03*
X0216750Y0226500D03*
X0220250Y0080500D03*
X0221750Y0080500D03*
X0230250Y0080500D03*
X0231750Y0080500D03*
X0240250Y0080500D03*
X0241750Y0080500D03*
X0250250Y0080500D03*
X0251750Y0080500D03*
X0260250Y0080500D03*
X0261750Y0080500D03*
X0270250Y0080500D03*
X0271750Y0080500D03*
X0280250Y0080500D03*
X0281750Y0080500D03*
X0290250Y0080500D03*
X0291750Y0080500D03*
D22*
X0263150Y0175850D02*
X0256845Y0180054D01*
X0258946Y0182295D02*
X0256845Y0184397D01*
X0263150Y0184397D01*
X0263150Y0182295D02*
X0263150Y0186499D01*
X0263150Y0180054D02*
X0256845Y0175850D01*
M02*
