G75*
%MOIN*%
%OFA0B0*%
%FSLAX25Y25*%
%IPPOS*%
%LPD*%
%AMOC8*
5,1,8,0,0,1.08239X$1,22.5*
%
%ADD10R,0.08674X0.06706*%
%ADD11R,0.17729X0.10643*%
%ADD12R,0.10643X0.17729*%
%ADD13R,0.06706X0.02769*%
%ADD14R,0.02769X0.06706*%
%ADD15R,0.08800X0.03400*%
%ADD16C,0.06000*%
%ADD17R,0.07099X0.08674*%
%ADD18C,0.06800*%
%ADD19C,0.06400*%
%ADD20OC8,0.06800*%
%ADD21C,0.13800*%
D10*
X0126000Y0050094D03*
X0126000Y0061906D03*
X0146000Y0061906D03*
X0146000Y0050094D03*
X0186000Y0140094D03*
X0186000Y0151906D03*
D11*
X0199661Y0131000D03*
X0232339Y0131000D03*
X0082339Y0126000D03*
X0049661Y0126000D03*
D12*
X0156000Y0224661D03*
X0156000Y0257339D03*
X0271000Y0157339D03*
X0271000Y0124661D03*
X0321000Y0124661D03*
X0321000Y0157339D03*
D13*
X0168835Y0151748D03*
X0168835Y0148598D03*
X0168835Y0145449D03*
X0168835Y0142299D03*
X0168835Y0139150D03*
X0168835Y0136000D03*
X0168835Y0132850D03*
X0168835Y0129701D03*
X0168835Y0126551D03*
X0168835Y0123402D03*
X0168835Y0120252D03*
X0123165Y0120252D03*
X0123165Y0123402D03*
X0123165Y0126551D03*
X0123165Y0129701D03*
X0123165Y0132850D03*
X0123165Y0136000D03*
X0123165Y0139150D03*
X0123165Y0142299D03*
X0123165Y0145449D03*
X0123165Y0148598D03*
X0123165Y0151748D03*
D14*
X0130252Y0158835D03*
X0133402Y0158835D03*
X0136551Y0158835D03*
X0139701Y0158835D03*
X0142850Y0158835D03*
X0146000Y0158835D03*
X0149150Y0158835D03*
X0152299Y0158835D03*
X0155449Y0158835D03*
X0158598Y0158835D03*
X0161748Y0158835D03*
X0161748Y0113165D03*
X0158598Y0113165D03*
X0155449Y0113165D03*
X0152299Y0113165D03*
X0149150Y0113165D03*
X0146000Y0113165D03*
X0142850Y0113165D03*
X0139701Y0113165D03*
X0136551Y0113165D03*
X0133402Y0113165D03*
X0130252Y0113165D03*
D15*
X0191700Y0168500D03*
X0191700Y0173500D03*
X0191700Y0178500D03*
X0191700Y0183500D03*
X0191700Y0188500D03*
X0191700Y0193500D03*
X0191700Y0198500D03*
X0191700Y0203500D03*
X0230300Y0203500D03*
X0230300Y0198500D03*
X0230300Y0193500D03*
X0230300Y0188500D03*
X0230300Y0183500D03*
X0230300Y0178500D03*
X0230300Y0173500D03*
X0230300Y0168500D03*
D16*
X0141000Y0081000D03*
X0131000Y0081000D03*
D17*
X0106512Y0211000D03*
X0095488Y0211000D03*
D18*
X0074900Y0201800D02*
X0074900Y0195800D01*
X0057100Y0195800D02*
X0057100Y0201800D01*
X0057100Y0176200D02*
X0057100Y0170200D01*
X0074900Y0170200D02*
X0074900Y0176200D01*
D19*
X0206000Y0253200D02*
X0206000Y0258800D01*
X0216000Y0258800D02*
X0216000Y0253200D01*
X0221000Y0053800D02*
X0221000Y0048200D01*
X0231000Y0048200D02*
X0231000Y0053800D01*
X0241000Y0053800D02*
X0241000Y0048200D01*
X0251000Y0048200D02*
X0251000Y0053800D01*
X0261000Y0053800D02*
X0261000Y0048200D01*
X0271000Y0048200D02*
X0271000Y0053800D01*
X0281000Y0053800D02*
X0281000Y0048200D01*
X0291000Y0048200D02*
X0291000Y0053800D01*
D20*
X0285400Y0214400D03*
X0296600Y0219800D03*
X0285400Y0225200D03*
X0296600Y0230600D03*
X0285400Y0236000D03*
X0296600Y0241400D03*
X0285400Y0246800D03*
X0296600Y0252200D03*
X0285400Y0257600D03*
D21*
X0291000Y0285300D03*
X0291000Y0186700D03*
M02*
