G75*
%MOIN*%
%OFA0B0*%
%FSLAX25Y25*%
%IPPOS*%
%LPD*%
%AMOC8*
5,1,8,0,0,1.08239X$1,22.5*
%
%ADD10R,0.08674X0.06706*%
%ADD11R,0.17729X0.10643*%
%ADD12R,0.06706X0.02769*%
%ADD13R,0.02769X0.06706*%
%ADD14C,0.06000*%
%ADD15R,0.07099X0.07898*%
%ADD16R,0.08674X0.07099*%
%ADD17R,0.07099X0.08674*%
%ADD18C,0.06800*%
%ADD19C,0.06400*%
D10*
X0096000Y0075094D03*
X0096000Y0086906D03*
X0111000Y0086906D03*
X0111000Y0075094D03*
D11*
X0114661Y0246000D03*
X0147339Y0246000D03*
D12*
X0133835Y0166748D03*
X0133835Y0163598D03*
X0133835Y0160449D03*
X0133835Y0157299D03*
X0133835Y0154150D03*
X0133835Y0151000D03*
X0133835Y0147850D03*
X0133835Y0144701D03*
X0133835Y0141551D03*
X0133835Y0138402D03*
X0133835Y0135252D03*
X0088165Y0135252D03*
X0088165Y0138402D03*
X0088165Y0141551D03*
X0088165Y0144701D03*
X0088165Y0147850D03*
X0088165Y0151000D03*
X0088165Y0154150D03*
X0088165Y0157299D03*
X0088165Y0160449D03*
X0088165Y0163598D03*
X0088165Y0166748D03*
D13*
X0095252Y0173835D03*
X0098402Y0173835D03*
X0101551Y0173835D03*
X0104701Y0173835D03*
X0107850Y0173835D03*
X0111000Y0173835D03*
X0114150Y0173835D03*
X0117299Y0173835D03*
X0120449Y0173835D03*
X0123598Y0173835D03*
X0126748Y0173835D03*
X0126748Y0128165D03*
X0123598Y0128165D03*
X0120449Y0128165D03*
X0117299Y0128165D03*
X0114150Y0128165D03*
X0111000Y0128165D03*
X0107850Y0128165D03*
X0104701Y0128165D03*
X0101551Y0128165D03*
X0098402Y0128165D03*
X0095252Y0128165D03*
D14*
X0096000Y0106000D03*
X0106000Y0106000D03*
D15*
X0095402Y0046000D03*
X0106598Y0046000D03*
D16*
X0131000Y0085488D03*
X0131000Y0096512D03*
X0151000Y0096512D03*
X0151000Y0085488D03*
X0171000Y0085488D03*
X0171000Y0096512D03*
X0186000Y0056512D03*
X0186000Y0045488D03*
X0206000Y0045488D03*
X0206000Y0056512D03*
X0236000Y0235488D03*
X0236000Y0246512D03*
X0261000Y0246512D03*
X0261000Y0235488D03*
D17*
X0171512Y0121000D03*
X0160488Y0121000D03*
D18*
X0185200Y0124900D02*
X0191200Y0124900D01*
X0210800Y0124900D02*
X0216800Y0124900D01*
X0230200Y0124900D02*
X0236200Y0124900D01*
X0255800Y0124900D02*
X0261800Y0124900D01*
X0280200Y0124900D02*
X0286200Y0124900D01*
X0305800Y0124900D02*
X0311800Y0124900D01*
X0325200Y0124900D02*
X0331200Y0124900D01*
X0350800Y0124900D02*
X0356800Y0124900D01*
X0356800Y0107100D02*
X0350800Y0107100D01*
X0350800Y0089900D02*
X0356800Y0089900D01*
X0356800Y0072100D02*
X0350800Y0072100D01*
X0331200Y0072100D02*
X0325200Y0072100D01*
X0311800Y0072100D02*
X0305800Y0072100D01*
X0286200Y0072100D02*
X0280200Y0072100D01*
X0261800Y0072100D02*
X0255800Y0072100D01*
X0236200Y0072100D02*
X0230200Y0072100D01*
X0216800Y0072100D02*
X0210800Y0072100D01*
X0191200Y0072100D02*
X0185200Y0072100D01*
X0185200Y0089900D02*
X0191200Y0089900D01*
X0191200Y0107100D02*
X0185200Y0107100D01*
X0210800Y0107100D02*
X0216800Y0107100D01*
X0230200Y0107100D02*
X0236200Y0107100D01*
X0236200Y0089900D02*
X0230200Y0089900D01*
X0216800Y0089900D02*
X0210800Y0089900D01*
X0255800Y0089900D02*
X0261800Y0089900D01*
X0280200Y0089900D02*
X0286200Y0089900D01*
X0286200Y0107100D02*
X0280200Y0107100D01*
X0261800Y0107100D02*
X0255800Y0107100D01*
X0255800Y0147100D02*
X0261800Y0147100D01*
X0280200Y0147100D02*
X0286200Y0147100D01*
X0305800Y0147100D02*
X0311800Y0147100D01*
X0325200Y0147100D02*
X0331200Y0147100D01*
X0350800Y0147100D02*
X0356800Y0147100D01*
X0356800Y0164900D02*
X0350800Y0164900D01*
X0331200Y0164900D02*
X0325200Y0164900D01*
X0311800Y0164900D02*
X0305800Y0164900D01*
X0286200Y0164900D02*
X0280200Y0164900D01*
X0261800Y0164900D02*
X0255800Y0164900D01*
X0236200Y0164900D02*
X0230200Y0164900D01*
X0216800Y0164900D02*
X0210800Y0164900D01*
X0191200Y0164900D02*
X0185200Y0164900D01*
X0185200Y0147100D02*
X0191200Y0147100D01*
X0210800Y0147100D02*
X0216800Y0147100D01*
X0230200Y0147100D02*
X0236200Y0147100D01*
X0236200Y0187100D02*
X0230200Y0187100D01*
X0216800Y0187100D02*
X0210800Y0187100D01*
X0210800Y0204900D02*
X0216800Y0204900D01*
X0230200Y0204900D02*
X0236200Y0204900D01*
X0255800Y0204900D02*
X0261800Y0204900D01*
X0280200Y0204900D02*
X0286200Y0204900D01*
X0286200Y0187100D02*
X0280200Y0187100D01*
X0261800Y0187100D02*
X0255800Y0187100D01*
X0305800Y0187100D02*
X0311800Y0187100D01*
X0325200Y0187100D02*
X0331200Y0187100D01*
X0331200Y0204900D02*
X0325200Y0204900D01*
X0311800Y0204900D02*
X0305800Y0204900D01*
X0350800Y0204900D02*
X0356800Y0204900D01*
X0356800Y0187100D02*
X0350800Y0187100D01*
X0331200Y0107100D02*
X0325200Y0107100D01*
X0311800Y0107100D02*
X0305800Y0107100D01*
X0305800Y0089900D02*
X0311800Y0089900D01*
X0325200Y0089900D02*
X0331200Y0089900D01*
X0191200Y0187100D02*
X0185200Y0187100D01*
X0185200Y0204900D02*
X0191200Y0204900D01*
X0190800Y0237100D02*
X0196800Y0237100D01*
X0196800Y0254900D02*
X0190800Y0254900D01*
X0171200Y0254900D02*
X0165200Y0254900D01*
X0165200Y0237100D02*
X0171200Y0237100D01*
D19*
X0068800Y0241000D02*
X0063200Y0241000D01*
X0063200Y0251000D02*
X0068800Y0251000D01*
X0068800Y0231000D02*
X0063200Y0231000D01*
X0063200Y0221000D02*
X0068800Y0221000D01*
X0068800Y0211000D02*
X0063200Y0211000D01*
X0063200Y0201000D02*
X0068800Y0201000D01*
X0068800Y0191000D02*
X0063200Y0191000D01*
X0063200Y0181000D02*
X0068800Y0181000D01*
X0158200Y0056000D02*
X0163800Y0056000D01*
X0163800Y0046000D02*
X0158200Y0046000D01*
M02*
