G75*
%MOIN*%
%OFA0B0*%
%FSLAX25Y25*%
%IPPOS*%
%LPD*%
%AMOC8*
5,1,8,0,0,1.08239X$1,22.5*
%
%ADD10C,0.00000*%
%ADD11C,0.00300*%
%ADD12C,0.00800*%
%ADD13C,0.00400*%
%ADD14C,0.01000*%
%ADD15C,0.00600*%
%ADD16C,0.00500*%
%ADD17C,0.00200*%
%ADD18R,0.06000X0.02000*%
%ADD19R,0.02500X0.01000*%
%ADD20R,0.01000X0.00500*%
D10*
X0001000Y0001000D02*
X0001000Y0315961D01*
X0394701Y0315961D01*
X0394701Y0001000D01*
X0001000Y0001000D01*
D11*
X0087816Y0075468D02*
X0088433Y0074851D01*
X0090902Y0074851D01*
X0091519Y0075468D01*
X0091519Y0076702D01*
X0090902Y0077320D01*
X0091519Y0078534D02*
X0089051Y0081003D01*
X0088433Y0081003D01*
X0087816Y0080386D01*
X0087816Y0079151D01*
X0088433Y0078534D01*
X0088433Y0077320D02*
X0087816Y0076702D01*
X0087816Y0075468D01*
X0091519Y0078534D02*
X0091519Y0081003D01*
X0102816Y0079768D02*
X0106519Y0079768D01*
X0106519Y0078534D02*
X0106519Y0081003D01*
X0104051Y0078534D02*
X0102816Y0079768D01*
X0103433Y0077320D02*
X0102816Y0076702D01*
X0102816Y0075468D01*
X0103433Y0074851D01*
X0105902Y0074851D01*
X0106519Y0075468D01*
X0106519Y0076702D01*
X0105902Y0077320D01*
D12*
X0093677Y0132102D02*
X0092102Y0133677D01*
X0092102Y0168323D01*
X0093677Y0169898D01*
X0128323Y0169898D01*
X0129898Y0168323D01*
X0129898Y0133677D01*
X0128323Y0132102D01*
X0093677Y0132102D01*
X0113874Y0225724D02*
X0108165Y0231433D01*
X0108165Y0240291D01*
X0108165Y0251709D02*
X0108165Y0260567D01*
X0113874Y0266276D01*
X0153835Y0266276D01*
X0153835Y0251709D01*
X0153835Y0240291D02*
X0153835Y0225724D01*
X0113874Y0225724D01*
X0112496Y0240488D02*
X0112636Y0240038D01*
X0112787Y0239592D01*
X0112949Y0239150D01*
X0113122Y0238711D01*
X0113305Y0238277D01*
X0113499Y0237847D01*
X0113703Y0237423D01*
X0113917Y0237003D01*
X0114142Y0236589D01*
X0114377Y0236180D01*
X0114621Y0235778D01*
X0114876Y0235381D01*
X0115139Y0234991D01*
X0115413Y0234607D01*
X0115696Y0234230D01*
X0115987Y0233860D01*
X0116288Y0233497D01*
X0116598Y0233142D01*
X0116916Y0232794D01*
X0117242Y0232455D01*
X0117577Y0232123D01*
X0117919Y0231799D01*
X0118270Y0231484D01*
X0118628Y0231178D01*
X0118993Y0230881D01*
X0119366Y0230592D01*
X0119745Y0230313D01*
X0120131Y0230043D01*
X0120524Y0229782D01*
X0120923Y0229531D01*
X0121328Y0229290D01*
X0121738Y0229059D01*
X0122155Y0228838D01*
X0122576Y0228628D01*
X0123002Y0228427D01*
X0123434Y0228237D01*
X0123869Y0228058D01*
X0124309Y0227889D01*
X0124753Y0227731D01*
X0125201Y0227584D01*
X0125652Y0227448D01*
X0126106Y0227323D01*
X0126564Y0227210D01*
X0127023Y0227107D01*
X0127486Y0227016D01*
X0127950Y0226935D01*
X0128416Y0226867D01*
X0128884Y0226809D01*
X0129353Y0226763D01*
X0129823Y0226729D01*
X0130293Y0226706D01*
X0130764Y0226694D01*
X0131236Y0226694D01*
X0131707Y0226706D01*
X0132177Y0226729D01*
X0132647Y0226763D01*
X0133116Y0226809D01*
X0133584Y0226867D01*
X0134050Y0226935D01*
X0134514Y0227016D01*
X0134977Y0227107D01*
X0135436Y0227210D01*
X0135894Y0227323D01*
X0136348Y0227448D01*
X0136799Y0227584D01*
X0137247Y0227731D01*
X0137691Y0227889D01*
X0138131Y0228058D01*
X0138566Y0228237D01*
X0138998Y0228427D01*
X0139424Y0228628D01*
X0139845Y0228838D01*
X0140262Y0229059D01*
X0140672Y0229290D01*
X0141077Y0229531D01*
X0141476Y0229782D01*
X0141869Y0230043D01*
X0142255Y0230313D01*
X0142634Y0230592D01*
X0143007Y0230881D01*
X0143372Y0231178D01*
X0143730Y0231484D01*
X0144081Y0231799D01*
X0144423Y0232123D01*
X0144758Y0232455D01*
X0145084Y0232794D01*
X0145402Y0233142D01*
X0145712Y0233497D01*
X0146013Y0233860D01*
X0146304Y0234230D01*
X0146587Y0234607D01*
X0146861Y0234991D01*
X0147124Y0235381D01*
X0147379Y0235778D01*
X0147623Y0236180D01*
X0147858Y0236589D01*
X0148083Y0237003D01*
X0148297Y0237423D01*
X0148501Y0237847D01*
X0148695Y0238277D01*
X0148878Y0238711D01*
X0149051Y0239150D01*
X0149213Y0239592D01*
X0149364Y0240038D01*
X0149504Y0240488D01*
X0149504Y0251512D02*
X0149364Y0251962D01*
X0149213Y0252408D01*
X0149051Y0252850D01*
X0148878Y0253289D01*
X0148695Y0253723D01*
X0148501Y0254153D01*
X0148297Y0254577D01*
X0148083Y0254997D01*
X0147858Y0255411D01*
X0147623Y0255820D01*
X0147379Y0256222D01*
X0147124Y0256619D01*
X0146861Y0257009D01*
X0146587Y0257393D01*
X0146304Y0257770D01*
X0146013Y0258140D01*
X0145712Y0258503D01*
X0145402Y0258858D01*
X0145084Y0259206D01*
X0144758Y0259545D01*
X0144423Y0259877D01*
X0144081Y0260201D01*
X0143730Y0260516D01*
X0143372Y0260822D01*
X0143007Y0261119D01*
X0142634Y0261408D01*
X0142255Y0261687D01*
X0141869Y0261957D01*
X0141476Y0262218D01*
X0141077Y0262469D01*
X0140672Y0262710D01*
X0140262Y0262941D01*
X0139845Y0263162D01*
X0139424Y0263372D01*
X0138998Y0263573D01*
X0138566Y0263763D01*
X0138131Y0263942D01*
X0137691Y0264111D01*
X0137247Y0264269D01*
X0136799Y0264416D01*
X0136348Y0264552D01*
X0135894Y0264677D01*
X0135436Y0264790D01*
X0134977Y0264893D01*
X0134514Y0264984D01*
X0134050Y0265065D01*
X0133584Y0265133D01*
X0133116Y0265191D01*
X0132647Y0265237D01*
X0132177Y0265271D01*
X0131707Y0265294D01*
X0131236Y0265306D01*
X0130764Y0265306D01*
X0130293Y0265294D01*
X0129823Y0265271D01*
X0129353Y0265237D01*
X0128884Y0265191D01*
X0128416Y0265133D01*
X0127950Y0265065D01*
X0127486Y0264984D01*
X0127023Y0264893D01*
X0126564Y0264790D01*
X0126106Y0264677D01*
X0125652Y0264552D01*
X0125201Y0264416D01*
X0124753Y0264269D01*
X0124309Y0264111D01*
X0123869Y0263942D01*
X0123434Y0263763D01*
X0123002Y0263573D01*
X0122576Y0263372D01*
X0122155Y0263162D01*
X0121738Y0262941D01*
X0121328Y0262710D01*
X0120923Y0262469D01*
X0120524Y0262218D01*
X0120131Y0261957D01*
X0119745Y0261687D01*
X0119366Y0261408D01*
X0118993Y0261119D01*
X0118628Y0260822D01*
X0118270Y0260516D01*
X0117919Y0260201D01*
X0117577Y0259877D01*
X0117242Y0259545D01*
X0116916Y0259206D01*
X0116598Y0258858D01*
X0116288Y0258503D01*
X0115987Y0258140D01*
X0115696Y0257770D01*
X0115413Y0257393D01*
X0115139Y0257009D01*
X0114876Y0256619D01*
X0114621Y0256222D01*
X0114377Y0255820D01*
X0114142Y0255411D01*
X0113917Y0254997D01*
X0113703Y0254577D01*
X0113499Y0254153D01*
X0113305Y0253723D01*
X0113122Y0253289D01*
X0112949Y0252850D01*
X0112787Y0252408D01*
X0112636Y0251962D01*
X0112496Y0251512D01*
D13*
X0132780Y0237438D02*
X0132780Y0234369D01*
X0133547Y0233602D01*
X0135081Y0233602D01*
X0135849Y0234369D01*
X0137383Y0234369D02*
X0138151Y0233602D01*
X0139685Y0233602D01*
X0140453Y0234369D01*
X0140453Y0235136D01*
X0139685Y0235904D01*
X0138918Y0235904D01*
X0139685Y0235904D02*
X0140453Y0236671D01*
X0140453Y0237438D01*
X0139685Y0238205D01*
X0138151Y0238205D01*
X0137383Y0237438D01*
X0135849Y0237438D02*
X0135081Y0238205D01*
X0133547Y0238205D01*
X0132780Y0237438D01*
X0241196Y0236992D02*
X0241196Y0239294D01*
X0241963Y0240061D01*
X0243498Y0240061D01*
X0244265Y0239294D01*
X0244265Y0236992D01*
X0244265Y0238527D02*
X0245800Y0240061D01*
X0245800Y0241596D02*
X0242731Y0244665D01*
X0241963Y0244665D01*
X0241196Y0243898D01*
X0241196Y0242363D01*
X0241963Y0241596D01*
X0245800Y0241596D02*
X0245800Y0244665D01*
X0245800Y0236992D02*
X0241196Y0236992D01*
X0266196Y0236992D02*
X0266196Y0239294D01*
X0266963Y0240061D01*
X0268498Y0240061D01*
X0269265Y0239294D01*
X0269265Y0236992D01*
X0269265Y0238527D02*
X0270800Y0240061D01*
X0270033Y0241596D02*
X0270800Y0242363D01*
X0270800Y0243898D01*
X0270033Y0244665D01*
X0269265Y0244665D01*
X0268498Y0243898D01*
X0268498Y0243131D01*
X0268498Y0243898D02*
X0267731Y0244665D01*
X0266963Y0244665D01*
X0266196Y0243898D01*
X0266196Y0242363D01*
X0266963Y0241596D01*
X0266196Y0236992D02*
X0270800Y0236992D01*
X0168106Y0130804D02*
X0166571Y0130804D01*
X0165804Y0130037D01*
X0165804Y0129269D01*
X0166571Y0128502D01*
X0168873Y0128502D01*
X0168873Y0126967D02*
X0168873Y0130037D01*
X0168106Y0130804D01*
X0168873Y0126967D02*
X0168106Y0126200D01*
X0166571Y0126200D01*
X0165804Y0126967D01*
X0164269Y0126200D02*
X0162735Y0127735D01*
X0163502Y0127735D02*
X0161200Y0127735D01*
X0161200Y0126200D02*
X0161200Y0130804D01*
X0163502Y0130804D01*
X0164269Y0130037D01*
X0164269Y0128502D01*
X0163502Y0127735D01*
X0156963Y0094665D02*
X0160033Y0091596D01*
X0160800Y0091596D01*
X0160800Y0090061D02*
X0159265Y0088527D01*
X0159265Y0089294D02*
X0159265Y0086992D01*
X0160800Y0086992D02*
X0156196Y0086992D01*
X0156196Y0089294D01*
X0156963Y0090061D01*
X0158498Y0090061D01*
X0159265Y0089294D01*
X0156196Y0091596D02*
X0156196Y0094665D01*
X0156963Y0094665D01*
X0140800Y0093898D02*
X0140033Y0094665D01*
X0139265Y0094665D01*
X0138498Y0093898D01*
X0138498Y0091596D01*
X0140033Y0091596D01*
X0140800Y0092363D01*
X0140800Y0093898D01*
X0138498Y0091596D02*
X0136963Y0093131D01*
X0136196Y0094665D01*
X0136963Y0090061D02*
X0138498Y0090061D01*
X0139265Y0089294D01*
X0139265Y0086992D01*
X0139265Y0088527D02*
X0140800Y0090061D01*
X0140800Y0086992D02*
X0136196Y0086992D01*
X0136196Y0089294D01*
X0136963Y0090061D01*
X0176196Y0089294D02*
X0176196Y0086992D01*
X0180800Y0086992D01*
X0179265Y0086992D02*
X0179265Y0089294D01*
X0178498Y0090061D01*
X0176963Y0090061D01*
X0176196Y0089294D01*
X0176963Y0091596D02*
X0177731Y0091596D01*
X0178498Y0092363D01*
X0178498Y0093898D01*
X0179265Y0094665D01*
X0180033Y0094665D01*
X0180800Y0093898D01*
X0180800Y0092363D01*
X0180033Y0091596D01*
X0179265Y0091596D01*
X0178498Y0092363D01*
X0178498Y0093898D02*
X0177731Y0094665D01*
X0176963Y0094665D01*
X0176196Y0093898D01*
X0176196Y0092363D01*
X0176963Y0091596D01*
X0179265Y0088527D02*
X0180800Y0090061D01*
X0180033Y0053873D02*
X0180800Y0053106D01*
X0180800Y0051571D01*
X0180033Y0050804D01*
X0178498Y0050804D02*
X0177731Y0052339D01*
X0177731Y0053106D01*
X0178498Y0053873D01*
X0180033Y0053873D01*
X0178498Y0050804D02*
X0176196Y0050804D01*
X0176196Y0053873D01*
X0176963Y0049269D02*
X0178498Y0049269D01*
X0179265Y0048502D01*
X0179265Y0046200D01*
X0179265Y0047735D02*
X0180800Y0049269D01*
X0180800Y0046200D02*
X0176196Y0046200D01*
X0176196Y0048502D01*
X0176963Y0049269D01*
X0196196Y0048502D02*
X0196196Y0046200D01*
X0200800Y0046200D01*
X0199265Y0046200D02*
X0199265Y0048502D01*
X0198498Y0049269D01*
X0196963Y0049269D01*
X0196196Y0048502D01*
X0199265Y0047735D02*
X0200800Y0049269D01*
X0198498Y0050804D02*
X0196196Y0053106D01*
X0200800Y0053106D01*
X0198498Y0053873D02*
X0198498Y0050804D01*
X0104665Y0036200D02*
X0101596Y0036200D01*
X0100061Y0036200D02*
X0098527Y0037735D01*
X0099294Y0037735D02*
X0096992Y0037735D01*
X0096992Y0036200D02*
X0096992Y0040804D01*
X0099294Y0040804D01*
X0100061Y0040037D01*
X0100061Y0038502D01*
X0099294Y0037735D01*
X0101596Y0039269D02*
X0103131Y0040804D01*
X0103131Y0036200D01*
D14*
X0094139Y0166748D02*
X0094141Y0166815D01*
X0094147Y0166881D01*
X0094157Y0166947D01*
X0094171Y0167012D01*
X0094188Y0167076D01*
X0094210Y0167139D01*
X0094235Y0167201D01*
X0094264Y0167261D01*
X0094297Y0167319D01*
X0094332Y0167375D01*
X0094372Y0167429D01*
X0094414Y0167480D01*
X0094459Y0167529D01*
X0094507Y0167575D01*
X0094558Y0167618D01*
X0094611Y0167658D01*
X0094667Y0167695D01*
X0094725Y0167728D01*
X0094784Y0167758D01*
X0094845Y0167784D01*
X0094908Y0167807D01*
X0094972Y0167825D01*
X0095037Y0167840D01*
X0095103Y0167851D01*
X0095169Y0167858D01*
X0095235Y0167861D01*
X0095302Y0167860D01*
X0095368Y0167855D01*
X0095434Y0167846D01*
X0095500Y0167833D01*
X0095564Y0167816D01*
X0095627Y0167796D01*
X0095689Y0167771D01*
X0095750Y0167743D01*
X0095809Y0167712D01*
X0095865Y0167677D01*
X0095920Y0167639D01*
X0095972Y0167597D01*
X0096021Y0167552D01*
X0096068Y0167505D01*
X0096112Y0167455D01*
X0096152Y0167402D01*
X0096190Y0167347D01*
X0096224Y0167290D01*
X0096255Y0167231D01*
X0096282Y0167170D01*
X0096305Y0167108D01*
X0096325Y0167044D01*
X0096341Y0166979D01*
X0096353Y0166914D01*
X0096361Y0166848D01*
X0096365Y0166781D01*
X0096365Y0166715D01*
X0096361Y0166648D01*
X0096353Y0166582D01*
X0096341Y0166517D01*
X0096325Y0166452D01*
X0096305Y0166388D01*
X0096282Y0166326D01*
X0096255Y0166265D01*
X0096224Y0166206D01*
X0096190Y0166149D01*
X0096152Y0166094D01*
X0096112Y0166041D01*
X0096068Y0165991D01*
X0096021Y0165944D01*
X0095972Y0165899D01*
X0095920Y0165857D01*
X0095865Y0165819D01*
X0095808Y0165784D01*
X0095750Y0165753D01*
X0095689Y0165725D01*
X0095627Y0165700D01*
X0095564Y0165680D01*
X0095500Y0165663D01*
X0095434Y0165650D01*
X0095368Y0165641D01*
X0095302Y0165636D01*
X0095235Y0165635D01*
X0095169Y0165638D01*
X0095103Y0165645D01*
X0095037Y0165656D01*
X0094972Y0165671D01*
X0094908Y0165689D01*
X0094845Y0165712D01*
X0094784Y0165738D01*
X0094725Y0165768D01*
X0094667Y0165801D01*
X0094611Y0165838D01*
X0094558Y0165878D01*
X0094507Y0165921D01*
X0094459Y0165967D01*
X0094414Y0166016D01*
X0094372Y0166067D01*
X0094332Y0166121D01*
X0094297Y0166177D01*
X0094264Y0166235D01*
X0094235Y0166295D01*
X0094210Y0166357D01*
X0094188Y0166420D01*
X0094171Y0166484D01*
X0094157Y0166549D01*
X0094147Y0166615D01*
X0094141Y0166681D01*
X0094139Y0166748D01*
D15*
X0096300Y0178800D02*
X0098435Y0178800D01*
X0097368Y0178800D02*
X0097368Y0185205D01*
X0098435Y0185205D02*
X0096300Y0185205D01*
X0100597Y0184138D02*
X0100597Y0179868D01*
X0101665Y0178800D01*
X0103800Y0178800D01*
X0104867Y0179868D01*
X0107042Y0178800D02*
X0111313Y0178800D01*
X0109178Y0178800D02*
X0109178Y0185205D01*
X0107042Y0183070D01*
X0104867Y0184138D02*
X0103800Y0185205D01*
X0101665Y0185205D01*
X0100597Y0184138D01*
X0067500Y0185000D02*
X0066500Y0185000D01*
X0066500Y0187000D01*
X0067500Y0187000D01*
X0066500Y0187000D02*
X0043000Y0187000D01*
X0043000Y0187500D01*
X0043000Y0190000D01*
X0037000Y0190000D01*
X0034500Y0190500D01*
X0034500Y0191500D01*
X0037000Y0192000D01*
X0043000Y0192000D01*
X0043000Y0195000D01*
X0066500Y0195000D01*
X0066500Y0197000D01*
X0067500Y0197000D01*
X0066500Y0197000D02*
X0043000Y0197000D01*
X0043000Y0200000D01*
X0037000Y0200000D01*
X0034500Y0200500D01*
X0034500Y0201500D01*
X0037000Y0202000D01*
X0043000Y0202000D01*
X0043000Y0205000D01*
X0066500Y0205000D01*
X0066500Y0207000D01*
X0067500Y0207000D01*
X0066500Y0207000D02*
X0043000Y0207000D01*
X0043000Y0210000D01*
X0037000Y0210000D01*
X0034500Y0210500D01*
X0034500Y0211500D01*
X0037000Y0212000D01*
X0043000Y0212000D01*
X0043000Y0215000D01*
X0066500Y0215000D01*
X0066500Y0217000D01*
X0067500Y0217000D01*
X0066500Y0217000D02*
X0043000Y0217000D01*
X0043000Y0220000D01*
X0043000Y0222000D01*
X0043000Y0225000D01*
X0066500Y0225000D01*
X0066500Y0227000D01*
X0067500Y0227000D01*
X0066500Y0227000D02*
X0043000Y0227000D01*
X0043000Y0230000D01*
X0037000Y0230000D01*
X0034500Y0230500D01*
X0034500Y0231500D01*
X0037000Y0232000D01*
X0043000Y0232000D01*
X0043000Y0235000D01*
X0066500Y0235000D01*
X0066500Y0237000D01*
X0067500Y0237000D01*
X0066500Y0237000D02*
X0043000Y0237000D01*
X0043000Y0240000D01*
X0037000Y0240000D01*
X0034500Y0240500D01*
X0034500Y0241500D01*
X0037000Y0242000D01*
X0043000Y0242000D01*
X0043000Y0244500D01*
X0043000Y0245000D01*
X0066500Y0245000D01*
X0066500Y0247000D01*
X0067500Y0247000D01*
X0066500Y0247000D02*
X0043000Y0247000D01*
X0043000Y0247500D01*
X0043000Y0250000D01*
X0037000Y0250000D01*
X0034500Y0250500D01*
X0034500Y0251500D01*
X0037000Y0252000D01*
X0043000Y0252000D01*
X0043000Y0255000D01*
X0067500Y0255000D01*
X0067500Y0245000D02*
X0066500Y0245000D01*
X0066500Y0235000D02*
X0067500Y0235000D01*
X0067500Y0225000D02*
X0066500Y0225000D01*
X0066500Y0215000D02*
X0067500Y0215000D01*
X0067500Y0205000D02*
X0066500Y0205000D01*
X0066500Y0195000D02*
X0067500Y0195000D01*
X0066500Y0185000D02*
X0043000Y0185000D01*
X0043000Y0186000D01*
X0043000Y0187000D01*
X0043000Y0187500D02*
X0032500Y0187500D01*
X0032500Y0244500D01*
X0043000Y0244500D01*
X0043000Y0245000D02*
X0043000Y0246000D01*
X0043000Y0247000D01*
X0043000Y0247500D02*
X0032500Y0247500D01*
X0032500Y0255000D01*
X0043000Y0255000D01*
X0043000Y0252000D02*
X0043000Y0250000D01*
X0043000Y0246000D02*
X0034000Y0246000D01*
X0032500Y0247500D01*
X0034000Y0246000D02*
X0032500Y0244500D01*
X0037000Y0242000D02*
X0037000Y0240000D01*
X0043000Y0240000D02*
X0043000Y0242000D01*
X0043000Y0237000D02*
X0043000Y0235000D01*
X0043000Y0232000D02*
X0043000Y0230000D01*
X0043000Y0227000D02*
X0043000Y0225000D01*
X0043000Y0222000D02*
X0037000Y0222000D01*
X0037000Y0220000D01*
X0043000Y0220000D01*
X0043000Y0217000D02*
X0043000Y0215000D01*
X0043000Y0212000D02*
X0043000Y0210000D01*
X0043000Y0207000D02*
X0043000Y0205000D01*
X0043000Y0202000D02*
X0043000Y0200000D01*
X0043000Y0197000D02*
X0043000Y0195000D01*
X0043000Y0192000D02*
X0043000Y0190000D01*
X0043000Y0186000D02*
X0034000Y0186000D01*
X0032500Y0187500D01*
X0034000Y0186000D02*
X0032500Y0184500D01*
X0043000Y0184500D01*
X0043000Y0182000D01*
X0037000Y0182000D01*
X0037000Y0180000D01*
X0043000Y0180000D01*
X0043000Y0182000D01*
X0043000Y0180000D02*
X0043000Y0177000D01*
X0067500Y0177000D01*
X0043000Y0177000D02*
X0032500Y0177000D01*
X0032500Y0184500D01*
X0034500Y0181500D02*
X0037000Y0182000D01*
X0037000Y0180000D02*
X0034500Y0180500D01*
X0034500Y0181500D01*
X0032500Y0177000D02*
X0031500Y0177000D01*
X0031500Y0255000D01*
X0032500Y0255000D01*
X0037000Y0252000D02*
X0037000Y0250000D01*
X0037000Y0232000D02*
X0037000Y0230000D01*
X0037000Y0222000D02*
X0034500Y0221500D01*
X0034500Y0220500D01*
X0037000Y0220000D01*
X0037000Y0212000D02*
X0037000Y0210000D01*
X0037000Y0202000D02*
X0037000Y0200000D01*
X0037000Y0192000D02*
X0037000Y0190000D01*
X0043000Y0185000D02*
X0043000Y0184500D01*
X0101000Y0102000D02*
X0101126Y0102002D01*
X0101251Y0102008D01*
X0101377Y0102018D01*
X0101501Y0102032D01*
X0101626Y0102049D01*
X0101750Y0102071D01*
X0101873Y0102096D01*
X0101995Y0102126D01*
X0102116Y0102159D01*
X0102236Y0102196D01*
X0102355Y0102237D01*
X0102473Y0102281D01*
X0102589Y0102329D01*
X0102703Y0102381D01*
X0102816Y0102436D01*
X0102927Y0102495D01*
X0103036Y0102557D01*
X0103143Y0102623D01*
X0103248Y0102692D01*
X0103351Y0102764D01*
X0103452Y0102839D01*
X0103550Y0102918D01*
X0103645Y0103000D01*
X0103738Y0103084D01*
X0103829Y0103172D01*
X0101000Y0110000D02*
X0100874Y0109998D01*
X0100749Y0109992D01*
X0100623Y0109982D01*
X0100499Y0109968D01*
X0100374Y0109951D01*
X0100250Y0109929D01*
X0100127Y0109904D01*
X0100005Y0109874D01*
X0099884Y0109841D01*
X0099764Y0109804D01*
X0099645Y0109763D01*
X0099527Y0109719D01*
X0099411Y0109671D01*
X0099297Y0109619D01*
X0099184Y0109564D01*
X0099073Y0109505D01*
X0098964Y0109443D01*
X0098857Y0109377D01*
X0098752Y0109308D01*
X0098649Y0109236D01*
X0098548Y0109161D01*
X0098450Y0109082D01*
X0098355Y0109000D01*
X0098262Y0108916D01*
X0098171Y0108828D01*
X0101000Y0110000D02*
X0101126Y0109998D01*
X0101251Y0109992D01*
X0101377Y0109982D01*
X0101501Y0109968D01*
X0101626Y0109951D01*
X0101750Y0109929D01*
X0101873Y0109904D01*
X0101995Y0109874D01*
X0102116Y0109841D01*
X0102236Y0109804D01*
X0102355Y0109763D01*
X0102473Y0109719D01*
X0102589Y0109671D01*
X0102703Y0109619D01*
X0102816Y0109564D01*
X0102927Y0109505D01*
X0103036Y0109443D01*
X0103143Y0109377D01*
X0103248Y0109308D01*
X0103351Y0109236D01*
X0103452Y0109161D01*
X0103550Y0109082D01*
X0103645Y0109000D01*
X0103738Y0108916D01*
X0103829Y0108828D01*
X0101000Y0102000D02*
X0100874Y0102002D01*
X0100749Y0102008D01*
X0100623Y0102018D01*
X0100499Y0102032D01*
X0100374Y0102049D01*
X0100250Y0102071D01*
X0100127Y0102096D01*
X0100005Y0102126D01*
X0099884Y0102159D01*
X0099764Y0102196D01*
X0099645Y0102237D01*
X0099527Y0102281D01*
X0099411Y0102329D01*
X0099297Y0102381D01*
X0099184Y0102436D01*
X0099073Y0102495D01*
X0098964Y0102557D01*
X0098857Y0102623D01*
X0098752Y0102692D01*
X0098649Y0102764D01*
X0098548Y0102839D01*
X0098450Y0102918D01*
X0098355Y0103000D01*
X0098262Y0103084D01*
X0098171Y0103172D01*
X0126500Y0060000D02*
X0127500Y0060000D01*
X0127500Y0052500D01*
X0138000Y0052500D01*
X0138000Y0055000D01*
X0132000Y0055000D01*
X0129500Y0055500D01*
X0129500Y0056500D01*
X0132000Y0057000D01*
X0138000Y0057000D01*
X0138000Y0060000D01*
X0162500Y0060000D01*
X0162500Y0052000D02*
X0161500Y0052000D01*
X0138000Y0052000D01*
X0138000Y0052500D01*
X0138000Y0052000D02*
X0138000Y0051000D01*
X0138000Y0050000D01*
X0161500Y0050000D01*
X0161500Y0052000D01*
X0161500Y0050000D02*
X0162500Y0050000D01*
X0162500Y0042000D02*
X0138000Y0042000D01*
X0138000Y0045000D01*
X0132000Y0045000D01*
X0129500Y0045500D01*
X0129500Y0046500D01*
X0132000Y0047000D01*
X0138000Y0047000D01*
X0138000Y0049500D01*
X0138000Y0050000D01*
X0138000Y0049500D02*
X0127500Y0049500D01*
X0129000Y0051000D01*
X0138000Y0051000D01*
X0138000Y0055000D02*
X0138000Y0057000D01*
X0138000Y0060000D02*
X0127500Y0060000D01*
X0126500Y0060000D02*
X0126500Y0042000D01*
X0127500Y0042000D01*
X0138000Y0042000D01*
X0138000Y0045000D02*
X0138000Y0047000D01*
X0132000Y0047000D02*
X0132000Y0045000D01*
X0127500Y0042000D02*
X0127500Y0049500D01*
X0129000Y0051000D02*
X0127500Y0052500D01*
X0132000Y0055000D02*
X0132000Y0057000D01*
X0188000Y0078000D02*
X0189000Y0078000D01*
X0189000Y0077000D01*
X0188000Y0078000D02*
X0188000Y0084000D01*
X0189000Y0084000D01*
X0189000Y0085000D01*
X0192500Y0093000D02*
X0196000Y0093000D01*
X0206000Y0093000D01*
X0209500Y0093000D01*
X0213000Y0085000D02*
X0213000Y0084000D01*
X0214000Y0084000D01*
X0214000Y0078000D01*
X0213000Y0078000D01*
X0213000Y0077000D01*
X0209500Y0069000D02*
X0205500Y0069000D01*
X0196000Y0069000D01*
X0192500Y0069000D01*
X0200000Y0081000D02*
X0200002Y0081063D01*
X0200008Y0081125D01*
X0200018Y0081187D01*
X0200031Y0081249D01*
X0200049Y0081309D01*
X0200070Y0081368D01*
X0200095Y0081426D01*
X0200124Y0081482D01*
X0200156Y0081536D01*
X0200191Y0081588D01*
X0200229Y0081637D01*
X0200271Y0081685D01*
X0200315Y0081729D01*
X0200363Y0081771D01*
X0200412Y0081809D01*
X0200464Y0081844D01*
X0200518Y0081876D01*
X0200574Y0081905D01*
X0200632Y0081930D01*
X0200691Y0081951D01*
X0200751Y0081969D01*
X0200813Y0081982D01*
X0200875Y0081992D01*
X0200937Y0081998D01*
X0201000Y0082000D01*
X0201063Y0081998D01*
X0201125Y0081992D01*
X0201187Y0081982D01*
X0201249Y0081969D01*
X0201309Y0081951D01*
X0201368Y0081930D01*
X0201426Y0081905D01*
X0201482Y0081876D01*
X0201536Y0081844D01*
X0201588Y0081809D01*
X0201637Y0081771D01*
X0201685Y0081729D01*
X0201729Y0081685D01*
X0201771Y0081637D01*
X0201809Y0081588D01*
X0201844Y0081536D01*
X0201876Y0081482D01*
X0201905Y0081426D01*
X0201930Y0081368D01*
X0201951Y0081309D01*
X0201969Y0081249D01*
X0201982Y0081187D01*
X0201992Y0081125D01*
X0201998Y0081063D01*
X0202000Y0081000D01*
X0201998Y0080937D01*
X0201992Y0080875D01*
X0201982Y0080813D01*
X0201969Y0080751D01*
X0201951Y0080691D01*
X0201930Y0080632D01*
X0201905Y0080574D01*
X0201876Y0080518D01*
X0201844Y0080464D01*
X0201809Y0080412D01*
X0201771Y0080363D01*
X0201729Y0080315D01*
X0201685Y0080271D01*
X0201637Y0080229D01*
X0201588Y0080191D01*
X0201536Y0080156D01*
X0201482Y0080124D01*
X0201426Y0080095D01*
X0201368Y0080070D01*
X0201309Y0080049D01*
X0201249Y0080031D01*
X0201187Y0080018D01*
X0201125Y0080008D01*
X0201063Y0080002D01*
X0201000Y0080000D01*
X0200937Y0080002D01*
X0200875Y0080008D01*
X0200813Y0080018D01*
X0200751Y0080031D01*
X0200691Y0080049D01*
X0200632Y0080070D01*
X0200574Y0080095D01*
X0200518Y0080124D01*
X0200464Y0080156D01*
X0200412Y0080191D01*
X0200363Y0080229D01*
X0200315Y0080271D01*
X0200271Y0080315D01*
X0200229Y0080363D01*
X0200191Y0080412D01*
X0200156Y0080464D01*
X0200124Y0080518D01*
X0200095Y0080574D01*
X0200070Y0080632D01*
X0200049Y0080691D01*
X0200031Y0080751D01*
X0200018Y0080813D01*
X0200008Y0080875D01*
X0200002Y0080937D01*
X0200000Y0081000D01*
X0194000Y0081000D02*
X0194002Y0081172D01*
X0194008Y0081343D01*
X0194019Y0081515D01*
X0194034Y0081686D01*
X0194053Y0081857D01*
X0194076Y0082027D01*
X0194103Y0082197D01*
X0194135Y0082366D01*
X0194170Y0082534D01*
X0194210Y0082701D01*
X0194254Y0082867D01*
X0194301Y0083032D01*
X0194353Y0083196D01*
X0194409Y0083358D01*
X0194469Y0083519D01*
X0194533Y0083679D01*
X0194601Y0083837D01*
X0194672Y0083993D01*
X0194747Y0084147D01*
X0194827Y0084300D01*
X0194909Y0084450D01*
X0194996Y0084599D01*
X0195086Y0084745D01*
X0195180Y0084889D01*
X0195277Y0085031D01*
X0195378Y0085170D01*
X0195482Y0085307D01*
X0195589Y0085441D01*
X0195700Y0085572D01*
X0195813Y0085701D01*
X0195930Y0085827D01*
X0196050Y0085950D01*
X0196173Y0086070D01*
X0196299Y0086187D01*
X0196428Y0086300D01*
X0196559Y0086411D01*
X0196693Y0086518D01*
X0196830Y0086622D01*
X0196969Y0086723D01*
X0197111Y0086820D01*
X0197255Y0086914D01*
X0197401Y0087004D01*
X0197550Y0087091D01*
X0197700Y0087173D01*
X0197853Y0087253D01*
X0198007Y0087328D01*
X0198163Y0087399D01*
X0198321Y0087467D01*
X0198481Y0087531D01*
X0198642Y0087591D01*
X0198804Y0087647D01*
X0198968Y0087699D01*
X0199133Y0087746D01*
X0199299Y0087790D01*
X0199466Y0087830D01*
X0199634Y0087865D01*
X0199803Y0087897D01*
X0199973Y0087924D01*
X0200143Y0087947D01*
X0200314Y0087966D01*
X0200485Y0087981D01*
X0200657Y0087992D01*
X0200828Y0087998D01*
X0201000Y0088000D01*
X0201172Y0087998D01*
X0201343Y0087992D01*
X0201515Y0087981D01*
X0201686Y0087966D01*
X0201857Y0087947D01*
X0202027Y0087924D01*
X0202197Y0087897D01*
X0202366Y0087865D01*
X0202534Y0087830D01*
X0202701Y0087790D01*
X0202867Y0087746D01*
X0203032Y0087699D01*
X0203196Y0087647D01*
X0203358Y0087591D01*
X0203519Y0087531D01*
X0203679Y0087467D01*
X0203837Y0087399D01*
X0203993Y0087328D01*
X0204147Y0087253D01*
X0204300Y0087173D01*
X0204450Y0087091D01*
X0204599Y0087004D01*
X0204745Y0086914D01*
X0204889Y0086820D01*
X0205031Y0086723D01*
X0205170Y0086622D01*
X0205307Y0086518D01*
X0205441Y0086411D01*
X0205572Y0086300D01*
X0205701Y0086187D01*
X0205827Y0086070D01*
X0205950Y0085950D01*
X0206070Y0085827D01*
X0206187Y0085701D01*
X0206300Y0085572D01*
X0206411Y0085441D01*
X0206518Y0085307D01*
X0206622Y0085170D01*
X0206723Y0085031D01*
X0206820Y0084889D01*
X0206914Y0084745D01*
X0207004Y0084599D01*
X0207091Y0084450D01*
X0207173Y0084300D01*
X0207253Y0084147D01*
X0207328Y0083993D01*
X0207399Y0083837D01*
X0207467Y0083679D01*
X0207531Y0083519D01*
X0207591Y0083358D01*
X0207647Y0083196D01*
X0207699Y0083032D01*
X0207746Y0082867D01*
X0207790Y0082701D01*
X0207830Y0082534D01*
X0207865Y0082366D01*
X0207897Y0082197D01*
X0207924Y0082027D01*
X0207947Y0081857D01*
X0207966Y0081686D01*
X0207981Y0081515D01*
X0207992Y0081343D01*
X0207998Y0081172D01*
X0208000Y0081000D01*
X0207998Y0080828D01*
X0207992Y0080657D01*
X0207981Y0080485D01*
X0207966Y0080314D01*
X0207947Y0080143D01*
X0207924Y0079973D01*
X0207897Y0079803D01*
X0207865Y0079634D01*
X0207830Y0079466D01*
X0207790Y0079299D01*
X0207746Y0079133D01*
X0207699Y0078968D01*
X0207647Y0078804D01*
X0207591Y0078642D01*
X0207531Y0078481D01*
X0207467Y0078321D01*
X0207399Y0078163D01*
X0207328Y0078007D01*
X0207253Y0077853D01*
X0207173Y0077700D01*
X0207091Y0077550D01*
X0207004Y0077401D01*
X0206914Y0077255D01*
X0206820Y0077111D01*
X0206723Y0076969D01*
X0206622Y0076830D01*
X0206518Y0076693D01*
X0206411Y0076559D01*
X0206300Y0076428D01*
X0206187Y0076299D01*
X0206070Y0076173D01*
X0205950Y0076050D01*
X0205827Y0075930D01*
X0205701Y0075813D01*
X0205572Y0075700D01*
X0205441Y0075589D01*
X0205307Y0075482D01*
X0205170Y0075378D01*
X0205031Y0075277D01*
X0204889Y0075180D01*
X0204745Y0075086D01*
X0204599Y0074996D01*
X0204450Y0074909D01*
X0204300Y0074827D01*
X0204147Y0074747D01*
X0203993Y0074672D01*
X0203837Y0074601D01*
X0203679Y0074533D01*
X0203519Y0074469D01*
X0203358Y0074409D01*
X0203196Y0074353D01*
X0203032Y0074301D01*
X0202867Y0074254D01*
X0202701Y0074210D01*
X0202534Y0074170D01*
X0202366Y0074135D01*
X0202197Y0074103D01*
X0202027Y0074076D01*
X0201857Y0074053D01*
X0201686Y0074034D01*
X0201515Y0074019D01*
X0201343Y0074008D01*
X0201172Y0074002D01*
X0201000Y0074000D01*
X0200828Y0074002D01*
X0200657Y0074008D01*
X0200485Y0074019D01*
X0200314Y0074034D01*
X0200143Y0074053D01*
X0199973Y0074076D01*
X0199803Y0074103D01*
X0199634Y0074135D01*
X0199466Y0074170D01*
X0199299Y0074210D01*
X0199133Y0074254D01*
X0198968Y0074301D01*
X0198804Y0074353D01*
X0198642Y0074409D01*
X0198481Y0074469D01*
X0198321Y0074533D01*
X0198163Y0074601D01*
X0198007Y0074672D01*
X0197853Y0074747D01*
X0197700Y0074827D01*
X0197550Y0074909D01*
X0197401Y0074996D01*
X0197255Y0075086D01*
X0197111Y0075180D01*
X0196969Y0075277D01*
X0196830Y0075378D01*
X0196693Y0075482D01*
X0196559Y0075589D01*
X0196428Y0075700D01*
X0196299Y0075813D01*
X0196173Y0075930D01*
X0196050Y0076050D01*
X0195930Y0076173D01*
X0195813Y0076299D01*
X0195700Y0076428D01*
X0195589Y0076559D01*
X0195482Y0076693D01*
X0195378Y0076830D01*
X0195277Y0076969D01*
X0195180Y0077111D01*
X0195086Y0077255D01*
X0194996Y0077401D01*
X0194909Y0077550D01*
X0194827Y0077700D01*
X0194747Y0077853D01*
X0194672Y0078007D01*
X0194601Y0078163D01*
X0194533Y0078321D01*
X0194469Y0078481D01*
X0194409Y0078642D01*
X0194353Y0078804D01*
X0194301Y0078968D01*
X0194254Y0079133D01*
X0194210Y0079299D01*
X0194170Y0079466D01*
X0194135Y0079634D01*
X0194103Y0079803D01*
X0194076Y0079973D01*
X0194053Y0080143D01*
X0194034Y0080314D01*
X0194019Y0080485D01*
X0194008Y0080657D01*
X0194002Y0080828D01*
X0194000Y0081000D01*
X0192500Y0104000D02*
X0196000Y0104000D01*
X0205500Y0104000D01*
X0209500Y0104000D01*
X0213000Y0112000D02*
X0213000Y0113000D01*
X0214000Y0113000D01*
X0214000Y0119000D01*
X0213000Y0119000D01*
X0213000Y0120000D01*
X0209500Y0128000D02*
X0206000Y0128000D01*
X0196000Y0128000D01*
X0192500Y0128000D01*
X0189000Y0120000D02*
X0189000Y0119000D01*
X0188000Y0119000D01*
X0188000Y0113000D01*
X0189000Y0113000D01*
X0189000Y0112000D01*
X0200000Y0116000D02*
X0200002Y0116063D01*
X0200008Y0116125D01*
X0200018Y0116187D01*
X0200031Y0116249D01*
X0200049Y0116309D01*
X0200070Y0116368D01*
X0200095Y0116426D01*
X0200124Y0116482D01*
X0200156Y0116536D01*
X0200191Y0116588D01*
X0200229Y0116637D01*
X0200271Y0116685D01*
X0200315Y0116729D01*
X0200363Y0116771D01*
X0200412Y0116809D01*
X0200464Y0116844D01*
X0200518Y0116876D01*
X0200574Y0116905D01*
X0200632Y0116930D01*
X0200691Y0116951D01*
X0200751Y0116969D01*
X0200813Y0116982D01*
X0200875Y0116992D01*
X0200937Y0116998D01*
X0201000Y0117000D01*
X0201063Y0116998D01*
X0201125Y0116992D01*
X0201187Y0116982D01*
X0201249Y0116969D01*
X0201309Y0116951D01*
X0201368Y0116930D01*
X0201426Y0116905D01*
X0201482Y0116876D01*
X0201536Y0116844D01*
X0201588Y0116809D01*
X0201637Y0116771D01*
X0201685Y0116729D01*
X0201729Y0116685D01*
X0201771Y0116637D01*
X0201809Y0116588D01*
X0201844Y0116536D01*
X0201876Y0116482D01*
X0201905Y0116426D01*
X0201930Y0116368D01*
X0201951Y0116309D01*
X0201969Y0116249D01*
X0201982Y0116187D01*
X0201992Y0116125D01*
X0201998Y0116063D01*
X0202000Y0116000D01*
X0201998Y0115937D01*
X0201992Y0115875D01*
X0201982Y0115813D01*
X0201969Y0115751D01*
X0201951Y0115691D01*
X0201930Y0115632D01*
X0201905Y0115574D01*
X0201876Y0115518D01*
X0201844Y0115464D01*
X0201809Y0115412D01*
X0201771Y0115363D01*
X0201729Y0115315D01*
X0201685Y0115271D01*
X0201637Y0115229D01*
X0201588Y0115191D01*
X0201536Y0115156D01*
X0201482Y0115124D01*
X0201426Y0115095D01*
X0201368Y0115070D01*
X0201309Y0115049D01*
X0201249Y0115031D01*
X0201187Y0115018D01*
X0201125Y0115008D01*
X0201063Y0115002D01*
X0201000Y0115000D01*
X0200937Y0115002D01*
X0200875Y0115008D01*
X0200813Y0115018D01*
X0200751Y0115031D01*
X0200691Y0115049D01*
X0200632Y0115070D01*
X0200574Y0115095D01*
X0200518Y0115124D01*
X0200464Y0115156D01*
X0200412Y0115191D01*
X0200363Y0115229D01*
X0200315Y0115271D01*
X0200271Y0115315D01*
X0200229Y0115363D01*
X0200191Y0115412D01*
X0200156Y0115464D01*
X0200124Y0115518D01*
X0200095Y0115574D01*
X0200070Y0115632D01*
X0200049Y0115691D01*
X0200031Y0115751D01*
X0200018Y0115813D01*
X0200008Y0115875D01*
X0200002Y0115937D01*
X0200000Y0116000D01*
X0194000Y0116000D02*
X0194002Y0116172D01*
X0194008Y0116343D01*
X0194019Y0116515D01*
X0194034Y0116686D01*
X0194053Y0116857D01*
X0194076Y0117027D01*
X0194103Y0117197D01*
X0194135Y0117366D01*
X0194170Y0117534D01*
X0194210Y0117701D01*
X0194254Y0117867D01*
X0194301Y0118032D01*
X0194353Y0118196D01*
X0194409Y0118358D01*
X0194469Y0118519D01*
X0194533Y0118679D01*
X0194601Y0118837D01*
X0194672Y0118993D01*
X0194747Y0119147D01*
X0194827Y0119300D01*
X0194909Y0119450D01*
X0194996Y0119599D01*
X0195086Y0119745D01*
X0195180Y0119889D01*
X0195277Y0120031D01*
X0195378Y0120170D01*
X0195482Y0120307D01*
X0195589Y0120441D01*
X0195700Y0120572D01*
X0195813Y0120701D01*
X0195930Y0120827D01*
X0196050Y0120950D01*
X0196173Y0121070D01*
X0196299Y0121187D01*
X0196428Y0121300D01*
X0196559Y0121411D01*
X0196693Y0121518D01*
X0196830Y0121622D01*
X0196969Y0121723D01*
X0197111Y0121820D01*
X0197255Y0121914D01*
X0197401Y0122004D01*
X0197550Y0122091D01*
X0197700Y0122173D01*
X0197853Y0122253D01*
X0198007Y0122328D01*
X0198163Y0122399D01*
X0198321Y0122467D01*
X0198481Y0122531D01*
X0198642Y0122591D01*
X0198804Y0122647D01*
X0198968Y0122699D01*
X0199133Y0122746D01*
X0199299Y0122790D01*
X0199466Y0122830D01*
X0199634Y0122865D01*
X0199803Y0122897D01*
X0199973Y0122924D01*
X0200143Y0122947D01*
X0200314Y0122966D01*
X0200485Y0122981D01*
X0200657Y0122992D01*
X0200828Y0122998D01*
X0201000Y0123000D01*
X0201172Y0122998D01*
X0201343Y0122992D01*
X0201515Y0122981D01*
X0201686Y0122966D01*
X0201857Y0122947D01*
X0202027Y0122924D01*
X0202197Y0122897D01*
X0202366Y0122865D01*
X0202534Y0122830D01*
X0202701Y0122790D01*
X0202867Y0122746D01*
X0203032Y0122699D01*
X0203196Y0122647D01*
X0203358Y0122591D01*
X0203519Y0122531D01*
X0203679Y0122467D01*
X0203837Y0122399D01*
X0203993Y0122328D01*
X0204147Y0122253D01*
X0204300Y0122173D01*
X0204450Y0122091D01*
X0204599Y0122004D01*
X0204745Y0121914D01*
X0204889Y0121820D01*
X0205031Y0121723D01*
X0205170Y0121622D01*
X0205307Y0121518D01*
X0205441Y0121411D01*
X0205572Y0121300D01*
X0205701Y0121187D01*
X0205827Y0121070D01*
X0205950Y0120950D01*
X0206070Y0120827D01*
X0206187Y0120701D01*
X0206300Y0120572D01*
X0206411Y0120441D01*
X0206518Y0120307D01*
X0206622Y0120170D01*
X0206723Y0120031D01*
X0206820Y0119889D01*
X0206914Y0119745D01*
X0207004Y0119599D01*
X0207091Y0119450D01*
X0207173Y0119300D01*
X0207253Y0119147D01*
X0207328Y0118993D01*
X0207399Y0118837D01*
X0207467Y0118679D01*
X0207531Y0118519D01*
X0207591Y0118358D01*
X0207647Y0118196D01*
X0207699Y0118032D01*
X0207746Y0117867D01*
X0207790Y0117701D01*
X0207830Y0117534D01*
X0207865Y0117366D01*
X0207897Y0117197D01*
X0207924Y0117027D01*
X0207947Y0116857D01*
X0207966Y0116686D01*
X0207981Y0116515D01*
X0207992Y0116343D01*
X0207998Y0116172D01*
X0208000Y0116000D01*
X0207998Y0115828D01*
X0207992Y0115657D01*
X0207981Y0115485D01*
X0207966Y0115314D01*
X0207947Y0115143D01*
X0207924Y0114973D01*
X0207897Y0114803D01*
X0207865Y0114634D01*
X0207830Y0114466D01*
X0207790Y0114299D01*
X0207746Y0114133D01*
X0207699Y0113968D01*
X0207647Y0113804D01*
X0207591Y0113642D01*
X0207531Y0113481D01*
X0207467Y0113321D01*
X0207399Y0113163D01*
X0207328Y0113007D01*
X0207253Y0112853D01*
X0207173Y0112700D01*
X0207091Y0112550D01*
X0207004Y0112401D01*
X0206914Y0112255D01*
X0206820Y0112111D01*
X0206723Y0111969D01*
X0206622Y0111830D01*
X0206518Y0111693D01*
X0206411Y0111559D01*
X0206300Y0111428D01*
X0206187Y0111299D01*
X0206070Y0111173D01*
X0205950Y0111050D01*
X0205827Y0110930D01*
X0205701Y0110813D01*
X0205572Y0110700D01*
X0205441Y0110589D01*
X0205307Y0110482D01*
X0205170Y0110378D01*
X0205031Y0110277D01*
X0204889Y0110180D01*
X0204745Y0110086D01*
X0204599Y0109996D01*
X0204450Y0109909D01*
X0204300Y0109827D01*
X0204147Y0109747D01*
X0203993Y0109672D01*
X0203837Y0109601D01*
X0203679Y0109533D01*
X0203519Y0109469D01*
X0203358Y0109409D01*
X0203196Y0109353D01*
X0203032Y0109301D01*
X0202867Y0109254D01*
X0202701Y0109210D01*
X0202534Y0109170D01*
X0202366Y0109135D01*
X0202197Y0109103D01*
X0202027Y0109076D01*
X0201857Y0109053D01*
X0201686Y0109034D01*
X0201515Y0109019D01*
X0201343Y0109008D01*
X0201172Y0109002D01*
X0201000Y0109000D01*
X0200828Y0109002D01*
X0200657Y0109008D01*
X0200485Y0109019D01*
X0200314Y0109034D01*
X0200143Y0109053D01*
X0199973Y0109076D01*
X0199803Y0109103D01*
X0199634Y0109135D01*
X0199466Y0109170D01*
X0199299Y0109210D01*
X0199133Y0109254D01*
X0198968Y0109301D01*
X0198804Y0109353D01*
X0198642Y0109409D01*
X0198481Y0109469D01*
X0198321Y0109533D01*
X0198163Y0109601D01*
X0198007Y0109672D01*
X0197853Y0109747D01*
X0197700Y0109827D01*
X0197550Y0109909D01*
X0197401Y0109996D01*
X0197255Y0110086D01*
X0197111Y0110180D01*
X0196969Y0110277D01*
X0196830Y0110378D01*
X0196693Y0110482D01*
X0196559Y0110589D01*
X0196428Y0110700D01*
X0196299Y0110813D01*
X0196173Y0110930D01*
X0196050Y0111050D01*
X0195930Y0111173D01*
X0195813Y0111299D01*
X0195700Y0111428D01*
X0195589Y0111559D01*
X0195482Y0111693D01*
X0195378Y0111830D01*
X0195277Y0111969D01*
X0195180Y0112111D01*
X0195086Y0112255D01*
X0194996Y0112401D01*
X0194909Y0112550D01*
X0194827Y0112700D01*
X0194747Y0112853D01*
X0194672Y0113007D01*
X0194601Y0113163D01*
X0194533Y0113321D01*
X0194469Y0113481D01*
X0194409Y0113642D01*
X0194353Y0113804D01*
X0194301Y0113968D01*
X0194254Y0114133D01*
X0194210Y0114299D01*
X0194170Y0114466D01*
X0194135Y0114634D01*
X0194103Y0114803D01*
X0194076Y0114973D01*
X0194053Y0115143D01*
X0194034Y0115314D01*
X0194019Y0115485D01*
X0194008Y0115657D01*
X0194002Y0115828D01*
X0194000Y0116000D01*
X0192500Y0144000D02*
X0196000Y0144000D01*
X0205500Y0144000D01*
X0209500Y0144000D01*
X0213000Y0152000D02*
X0213000Y0153000D01*
X0214000Y0153000D01*
X0214000Y0159000D01*
X0213000Y0159000D01*
X0213000Y0160000D01*
X0209500Y0168000D02*
X0206000Y0168000D01*
X0196000Y0168000D01*
X0192500Y0168000D01*
X0189000Y0160000D02*
X0189000Y0159000D01*
X0188000Y0159000D01*
X0188000Y0153000D01*
X0189000Y0153000D01*
X0189000Y0152000D01*
X0200000Y0156000D02*
X0200002Y0156063D01*
X0200008Y0156125D01*
X0200018Y0156187D01*
X0200031Y0156249D01*
X0200049Y0156309D01*
X0200070Y0156368D01*
X0200095Y0156426D01*
X0200124Y0156482D01*
X0200156Y0156536D01*
X0200191Y0156588D01*
X0200229Y0156637D01*
X0200271Y0156685D01*
X0200315Y0156729D01*
X0200363Y0156771D01*
X0200412Y0156809D01*
X0200464Y0156844D01*
X0200518Y0156876D01*
X0200574Y0156905D01*
X0200632Y0156930D01*
X0200691Y0156951D01*
X0200751Y0156969D01*
X0200813Y0156982D01*
X0200875Y0156992D01*
X0200937Y0156998D01*
X0201000Y0157000D01*
X0201063Y0156998D01*
X0201125Y0156992D01*
X0201187Y0156982D01*
X0201249Y0156969D01*
X0201309Y0156951D01*
X0201368Y0156930D01*
X0201426Y0156905D01*
X0201482Y0156876D01*
X0201536Y0156844D01*
X0201588Y0156809D01*
X0201637Y0156771D01*
X0201685Y0156729D01*
X0201729Y0156685D01*
X0201771Y0156637D01*
X0201809Y0156588D01*
X0201844Y0156536D01*
X0201876Y0156482D01*
X0201905Y0156426D01*
X0201930Y0156368D01*
X0201951Y0156309D01*
X0201969Y0156249D01*
X0201982Y0156187D01*
X0201992Y0156125D01*
X0201998Y0156063D01*
X0202000Y0156000D01*
X0201998Y0155937D01*
X0201992Y0155875D01*
X0201982Y0155813D01*
X0201969Y0155751D01*
X0201951Y0155691D01*
X0201930Y0155632D01*
X0201905Y0155574D01*
X0201876Y0155518D01*
X0201844Y0155464D01*
X0201809Y0155412D01*
X0201771Y0155363D01*
X0201729Y0155315D01*
X0201685Y0155271D01*
X0201637Y0155229D01*
X0201588Y0155191D01*
X0201536Y0155156D01*
X0201482Y0155124D01*
X0201426Y0155095D01*
X0201368Y0155070D01*
X0201309Y0155049D01*
X0201249Y0155031D01*
X0201187Y0155018D01*
X0201125Y0155008D01*
X0201063Y0155002D01*
X0201000Y0155000D01*
X0200937Y0155002D01*
X0200875Y0155008D01*
X0200813Y0155018D01*
X0200751Y0155031D01*
X0200691Y0155049D01*
X0200632Y0155070D01*
X0200574Y0155095D01*
X0200518Y0155124D01*
X0200464Y0155156D01*
X0200412Y0155191D01*
X0200363Y0155229D01*
X0200315Y0155271D01*
X0200271Y0155315D01*
X0200229Y0155363D01*
X0200191Y0155412D01*
X0200156Y0155464D01*
X0200124Y0155518D01*
X0200095Y0155574D01*
X0200070Y0155632D01*
X0200049Y0155691D01*
X0200031Y0155751D01*
X0200018Y0155813D01*
X0200008Y0155875D01*
X0200002Y0155937D01*
X0200000Y0156000D01*
X0194000Y0156000D02*
X0194002Y0156172D01*
X0194008Y0156343D01*
X0194019Y0156515D01*
X0194034Y0156686D01*
X0194053Y0156857D01*
X0194076Y0157027D01*
X0194103Y0157197D01*
X0194135Y0157366D01*
X0194170Y0157534D01*
X0194210Y0157701D01*
X0194254Y0157867D01*
X0194301Y0158032D01*
X0194353Y0158196D01*
X0194409Y0158358D01*
X0194469Y0158519D01*
X0194533Y0158679D01*
X0194601Y0158837D01*
X0194672Y0158993D01*
X0194747Y0159147D01*
X0194827Y0159300D01*
X0194909Y0159450D01*
X0194996Y0159599D01*
X0195086Y0159745D01*
X0195180Y0159889D01*
X0195277Y0160031D01*
X0195378Y0160170D01*
X0195482Y0160307D01*
X0195589Y0160441D01*
X0195700Y0160572D01*
X0195813Y0160701D01*
X0195930Y0160827D01*
X0196050Y0160950D01*
X0196173Y0161070D01*
X0196299Y0161187D01*
X0196428Y0161300D01*
X0196559Y0161411D01*
X0196693Y0161518D01*
X0196830Y0161622D01*
X0196969Y0161723D01*
X0197111Y0161820D01*
X0197255Y0161914D01*
X0197401Y0162004D01*
X0197550Y0162091D01*
X0197700Y0162173D01*
X0197853Y0162253D01*
X0198007Y0162328D01*
X0198163Y0162399D01*
X0198321Y0162467D01*
X0198481Y0162531D01*
X0198642Y0162591D01*
X0198804Y0162647D01*
X0198968Y0162699D01*
X0199133Y0162746D01*
X0199299Y0162790D01*
X0199466Y0162830D01*
X0199634Y0162865D01*
X0199803Y0162897D01*
X0199973Y0162924D01*
X0200143Y0162947D01*
X0200314Y0162966D01*
X0200485Y0162981D01*
X0200657Y0162992D01*
X0200828Y0162998D01*
X0201000Y0163000D01*
X0201172Y0162998D01*
X0201343Y0162992D01*
X0201515Y0162981D01*
X0201686Y0162966D01*
X0201857Y0162947D01*
X0202027Y0162924D01*
X0202197Y0162897D01*
X0202366Y0162865D01*
X0202534Y0162830D01*
X0202701Y0162790D01*
X0202867Y0162746D01*
X0203032Y0162699D01*
X0203196Y0162647D01*
X0203358Y0162591D01*
X0203519Y0162531D01*
X0203679Y0162467D01*
X0203837Y0162399D01*
X0203993Y0162328D01*
X0204147Y0162253D01*
X0204300Y0162173D01*
X0204450Y0162091D01*
X0204599Y0162004D01*
X0204745Y0161914D01*
X0204889Y0161820D01*
X0205031Y0161723D01*
X0205170Y0161622D01*
X0205307Y0161518D01*
X0205441Y0161411D01*
X0205572Y0161300D01*
X0205701Y0161187D01*
X0205827Y0161070D01*
X0205950Y0160950D01*
X0206070Y0160827D01*
X0206187Y0160701D01*
X0206300Y0160572D01*
X0206411Y0160441D01*
X0206518Y0160307D01*
X0206622Y0160170D01*
X0206723Y0160031D01*
X0206820Y0159889D01*
X0206914Y0159745D01*
X0207004Y0159599D01*
X0207091Y0159450D01*
X0207173Y0159300D01*
X0207253Y0159147D01*
X0207328Y0158993D01*
X0207399Y0158837D01*
X0207467Y0158679D01*
X0207531Y0158519D01*
X0207591Y0158358D01*
X0207647Y0158196D01*
X0207699Y0158032D01*
X0207746Y0157867D01*
X0207790Y0157701D01*
X0207830Y0157534D01*
X0207865Y0157366D01*
X0207897Y0157197D01*
X0207924Y0157027D01*
X0207947Y0156857D01*
X0207966Y0156686D01*
X0207981Y0156515D01*
X0207992Y0156343D01*
X0207998Y0156172D01*
X0208000Y0156000D01*
X0207998Y0155828D01*
X0207992Y0155657D01*
X0207981Y0155485D01*
X0207966Y0155314D01*
X0207947Y0155143D01*
X0207924Y0154973D01*
X0207897Y0154803D01*
X0207865Y0154634D01*
X0207830Y0154466D01*
X0207790Y0154299D01*
X0207746Y0154133D01*
X0207699Y0153968D01*
X0207647Y0153804D01*
X0207591Y0153642D01*
X0207531Y0153481D01*
X0207467Y0153321D01*
X0207399Y0153163D01*
X0207328Y0153007D01*
X0207253Y0152853D01*
X0207173Y0152700D01*
X0207091Y0152550D01*
X0207004Y0152401D01*
X0206914Y0152255D01*
X0206820Y0152111D01*
X0206723Y0151969D01*
X0206622Y0151830D01*
X0206518Y0151693D01*
X0206411Y0151559D01*
X0206300Y0151428D01*
X0206187Y0151299D01*
X0206070Y0151173D01*
X0205950Y0151050D01*
X0205827Y0150930D01*
X0205701Y0150813D01*
X0205572Y0150700D01*
X0205441Y0150589D01*
X0205307Y0150482D01*
X0205170Y0150378D01*
X0205031Y0150277D01*
X0204889Y0150180D01*
X0204745Y0150086D01*
X0204599Y0149996D01*
X0204450Y0149909D01*
X0204300Y0149827D01*
X0204147Y0149747D01*
X0203993Y0149672D01*
X0203837Y0149601D01*
X0203679Y0149533D01*
X0203519Y0149469D01*
X0203358Y0149409D01*
X0203196Y0149353D01*
X0203032Y0149301D01*
X0202867Y0149254D01*
X0202701Y0149210D01*
X0202534Y0149170D01*
X0202366Y0149135D01*
X0202197Y0149103D01*
X0202027Y0149076D01*
X0201857Y0149053D01*
X0201686Y0149034D01*
X0201515Y0149019D01*
X0201343Y0149008D01*
X0201172Y0149002D01*
X0201000Y0149000D01*
X0200828Y0149002D01*
X0200657Y0149008D01*
X0200485Y0149019D01*
X0200314Y0149034D01*
X0200143Y0149053D01*
X0199973Y0149076D01*
X0199803Y0149103D01*
X0199634Y0149135D01*
X0199466Y0149170D01*
X0199299Y0149210D01*
X0199133Y0149254D01*
X0198968Y0149301D01*
X0198804Y0149353D01*
X0198642Y0149409D01*
X0198481Y0149469D01*
X0198321Y0149533D01*
X0198163Y0149601D01*
X0198007Y0149672D01*
X0197853Y0149747D01*
X0197700Y0149827D01*
X0197550Y0149909D01*
X0197401Y0149996D01*
X0197255Y0150086D01*
X0197111Y0150180D01*
X0196969Y0150277D01*
X0196830Y0150378D01*
X0196693Y0150482D01*
X0196559Y0150589D01*
X0196428Y0150700D01*
X0196299Y0150813D01*
X0196173Y0150930D01*
X0196050Y0151050D01*
X0195930Y0151173D01*
X0195813Y0151299D01*
X0195700Y0151428D01*
X0195589Y0151559D01*
X0195482Y0151693D01*
X0195378Y0151830D01*
X0195277Y0151969D01*
X0195180Y0152111D01*
X0195086Y0152255D01*
X0194996Y0152401D01*
X0194909Y0152550D01*
X0194827Y0152700D01*
X0194747Y0152853D01*
X0194672Y0153007D01*
X0194601Y0153163D01*
X0194533Y0153321D01*
X0194469Y0153481D01*
X0194409Y0153642D01*
X0194353Y0153804D01*
X0194301Y0153968D01*
X0194254Y0154133D01*
X0194210Y0154299D01*
X0194170Y0154466D01*
X0194135Y0154634D01*
X0194103Y0154803D01*
X0194076Y0154973D01*
X0194053Y0155143D01*
X0194034Y0155314D01*
X0194019Y0155485D01*
X0194008Y0155657D01*
X0194002Y0155828D01*
X0194000Y0156000D01*
X0192500Y0184000D02*
X0196000Y0184000D01*
X0205500Y0184000D01*
X0209500Y0184000D01*
X0213000Y0192000D02*
X0213000Y0193000D01*
X0214000Y0193000D01*
X0214000Y0199000D01*
X0213000Y0199000D01*
X0213000Y0200000D01*
X0209500Y0208000D02*
X0206000Y0208000D01*
X0196000Y0208000D01*
X0192500Y0208000D01*
X0189000Y0200000D02*
X0189000Y0199000D01*
X0188000Y0199000D01*
X0188000Y0193000D01*
X0189000Y0193000D01*
X0189000Y0192000D01*
X0200000Y0196000D02*
X0200002Y0196063D01*
X0200008Y0196125D01*
X0200018Y0196187D01*
X0200031Y0196249D01*
X0200049Y0196309D01*
X0200070Y0196368D01*
X0200095Y0196426D01*
X0200124Y0196482D01*
X0200156Y0196536D01*
X0200191Y0196588D01*
X0200229Y0196637D01*
X0200271Y0196685D01*
X0200315Y0196729D01*
X0200363Y0196771D01*
X0200412Y0196809D01*
X0200464Y0196844D01*
X0200518Y0196876D01*
X0200574Y0196905D01*
X0200632Y0196930D01*
X0200691Y0196951D01*
X0200751Y0196969D01*
X0200813Y0196982D01*
X0200875Y0196992D01*
X0200937Y0196998D01*
X0201000Y0197000D01*
X0201063Y0196998D01*
X0201125Y0196992D01*
X0201187Y0196982D01*
X0201249Y0196969D01*
X0201309Y0196951D01*
X0201368Y0196930D01*
X0201426Y0196905D01*
X0201482Y0196876D01*
X0201536Y0196844D01*
X0201588Y0196809D01*
X0201637Y0196771D01*
X0201685Y0196729D01*
X0201729Y0196685D01*
X0201771Y0196637D01*
X0201809Y0196588D01*
X0201844Y0196536D01*
X0201876Y0196482D01*
X0201905Y0196426D01*
X0201930Y0196368D01*
X0201951Y0196309D01*
X0201969Y0196249D01*
X0201982Y0196187D01*
X0201992Y0196125D01*
X0201998Y0196063D01*
X0202000Y0196000D01*
X0201998Y0195937D01*
X0201992Y0195875D01*
X0201982Y0195813D01*
X0201969Y0195751D01*
X0201951Y0195691D01*
X0201930Y0195632D01*
X0201905Y0195574D01*
X0201876Y0195518D01*
X0201844Y0195464D01*
X0201809Y0195412D01*
X0201771Y0195363D01*
X0201729Y0195315D01*
X0201685Y0195271D01*
X0201637Y0195229D01*
X0201588Y0195191D01*
X0201536Y0195156D01*
X0201482Y0195124D01*
X0201426Y0195095D01*
X0201368Y0195070D01*
X0201309Y0195049D01*
X0201249Y0195031D01*
X0201187Y0195018D01*
X0201125Y0195008D01*
X0201063Y0195002D01*
X0201000Y0195000D01*
X0200937Y0195002D01*
X0200875Y0195008D01*
X0200813Y0195018D01*
X0200751Y0195031D01*
X0200691Y0195049D01*
X0200632Y0195070D01*
X0200574Y0195095D01*
X0200518Y0195124D01*
X0200464Y0195156D01*
X0200412Y0195191D01*
X0200363Y0195229D01*
X0200315Y0195271D01*
X0200271Y0195315D01*
X0200229Y0195363D01*
X0200191Y0195412D01*
X0200156Y0195464D01*
X0200124Y0195518D01*
X0200095Y0195574D01*
X0200070Y0195632D01*
X0200049Y0195691D01*
X0200031Y0195751D01*
X0200018Y0195813D01*
X0200008Y0195875D01*
X0200002Y0195937D01*
X0200000Y0196000D01*
X0194000Y0196000D02*
X0194002Y0196172D01*
X0194008Y0196343D01*
X0194019Y0196515D01*
X0194034Y0196686D01*
X0194053Y0196857D01*
X0194076Y0197027D01*
X0194103Y0197197D01*
X0194135Y0197366D01*
X0194170Y0197534D01*
X0194210Y0197701D01*
X0194254Y0197867D01*
X0194301Y0198032D01*
X0194353Y0198196D01*
X0194409Y0198358D01*
X0194469Y0198519D01*
X0194533Y0198679D01*
X0194601Y0198837D01*
X0194672Y0198993D01*
X0194747Y0199147D01*
X0194827Y0199300D01*
X0194909Y0199450D01*
X0194996Y0199599D01*
X0195086Y0199745D01*
X0195180Y0199889D01*
X0195277Y0200031D01*
X0195378Y0200170D01*
X0195482Y0200307D01*
X0195589Y0200441D01*
X0195700Y0200572D01*
X0195813Y0200701D01*
X0195930Y0200827D01*
X0196050Y0200950D01*
X0196173Y0201070D01*
X0196299Y0201187D01*
X0196428Y0201300D01*
X0196559Y0201411D01*
X0196693Y0201518D01*
X0196830Y0201622D01*
X0196969Y0201723D01*
X0197111Y0201820D01*
X0197255Y0201914D01*
X0197401Y0202004D01*
X0197550Y0202091D01*
X0197700Y0202173D01*
X0197853Y0202253D01*
X0198007Y0202328D01*
X0198163Y0202399D01*
X0198321Y0202467D01*
X0198481Y0202531D01*
X0198642Y0202591D01*
X0198804Y0202647D01*
X0198968Y0202699D01*
X0199133Y0202746D01*
X0199299Y0202790D01*
X0199466Y0202830D01*
X0199634Y0202865D01*
X0199803Y0202897D01*
X0199973Y0202924D01*
X0200143Y0202947D01*
X0200314Y0202966D01*
X0200485Y0202981D01*
X0200657Y0202992D01*
X0200828Y0202998D01*
X0201000Y0203000D01*
X0201172Y0202998D01*
X0201343Y0202992D01*
X0201515Y0202981D01*
X0201686Y0202966D01*
X0201857Y0202947D01*
X0202027Y0202924D01*
X0202197Y0202897D01*
X0202366Y0202865D01*
X0202534Y0202830D01*
X0202701Y0202790D01*
X0202867Y0202746D01*
X0203032Y0202699D01*
X0203196Y0202647D01*
X0203358Y0202591D01*
X0203519Y0202531D01*
X0203679Y0202467D01*
X0203837Y0202399D01*
X0203993Y0202328D01*
X0204147Y0202253D01*
X0204300Y0202173D01*
X0204450Y0202091D01*
X0204599Y0202004D01*
X0204745Y0201914D01*
X0204889Y0201820D01*
X0205031Y0201723D01*
X0205170Y0201622D01*
X0205307Y0201518D01*
X0205441Y0201411D01*
X0205572Y0201300D01*
X0205701Y0201187D01*
X0205827Y0201070D01*
X0205950Y0200950D01*
X0206070Y0200827D01*
X0206187Y0200701D01*
X0206300Y0200572D01*
X0206411Y0200441D01*
X0206518Y0200307D01*
X0206622Y0200170D01*
X0206723Y0200031D01*
X0206820Y0199889D01*
X0206914Y0199745D01*
X0207004Y0199599D01*
X0207091Y0199450D01*
X0207173Y0199300D01*
X0207253Y0199147D01*
X0207328Y0198993D01*
X0207399Y0198837D01*
X0207467Y0198679D01*
X0207531Y0198519D01*
X0207591Y0198358D01*
X0207647Y0198196D01*
X0207699Y0198032D01*
X0207746Y0197867D01*
X0207790Y0197701D01*
X0207830Y0197534D01*
X0207865Y0197366D01*
X0207897Y0197197D01*
X0207924Y0197027D01*
X0207947Y0196857D01*
X0207966Y0196686D01*
X0207981Y0196515D01*
X0207992Y0196343D01*
X0207998Y0196172D01*
X0208000Y0196000D01*
X0207998Y0195828D01*
X0207992Y0195657D01*
X0207981Y0195485D01*
X0207966Y0195314D01*
X0207947Y0195143D01*
X0207924Y0194973D01*
X0207897Y0194803D01*
X0207865Y0194634D01*
X0207830Y0194466D01*
X0207790Y0194299D01*
X0207746Y0194133D01*
X0207699Y0193968D01*
X0207647Y0193804D01*
X0207591Y0193642D01*
X0207531Y0193481D01*
X0207467Y0193321D01*
X0207399Y0193163D01*
X0207328Y0193007D01*
X0207253Y0192853D01*
X0207173Y0192700D01*
X0207091Y0192550D01*
X0207004Y0192401D01*
X0206914Y0192255D01*
X0206820Y0192111D01*
X0206723Y0191969D01*
X0206622Y0191830D01*
X0206518Y0191693D01*
X0206411Y0191559D01*
X0206300Y0191428D01*
X0206187Y0191299D01*
X0206070Y0191173D01*
X0205950Y0191050D01*
X0205827Y0190930D01*
X0205701Y0190813D01*
X0205572Y0190700D01*
X0205441Y0190589D01*
X0205307Y0190482D01*
X0205170Y0190378D01*
X0205031Y0190277D01*
X0204889Y0190180D01*
X0204745Y0190086D01*
X0204599Y0189996D01*
X0204450Y0189909D01*
X0204300Y0189827D01*
X0204147Y0189747D01*
X0203993Y0189672D01*
X0203837Y0189601D01*
X0203679Y0189533D01*
X0203519Y0189469D01*
X0203358Y0189409D01*
X0203196Y0189353D01*
X0203032Y0189301D01*
X0202867Y0189254D01*
X0202701Y0189210D01*
X0202534Y0189170D01*
X0202366Y0189135D01*
X0202197Y0189103D01*
X0202027Y0189076D01*
X0201857Y0189053D01*
X0201686Y0189034D01*
X0201515Y0189019D01*
X0201343Y0189008D01*
X0201172Y0189002D01*
X0201000Y0189000D01*
X0200828Y0189002D01*
X0200657Y0189008D01*
X0200485Y0189019D01*
X0200314Y0189034D01*
X0200143Y0189053D01*
X0199973Y0189076D01*
X0199803Y0189103D01*
X0199634Y0189135D01*
X0199466Y0189170D01*
X0199299Y0189210D01*
X0199133Y0189254D01*
X0198968Y0189301D01*
X0198804Y0189353D01*
X0198642Y0189409D01*
X0198481Y0189469D01*
X0198321Y0189533D01*
X0198163Y0189601D01*
X0198007Y0189672D01*
X0197853Y0189747D01*
X0197700Y0189827D01*
X0197550Y0189909D01*
X0197401Y0189996D01*
X0197255Y0190086D01*
X0197111Y0190180D01*
X0196969Y0190277D01*
X0196830Y0190378D01*
X0196693Y0190482D01*
X0196559Y0190589D01*
X0196428Y0190700D01*
X0196299Y0190813D01*
X0196173Y0190930D01*
X0196050Y0191050D01*
X0195930Y0191173D01*
X0195813Y0191299D01*
X0195700Y0191428D01*
X0195589Y0191559D01*
X0195482Y0191693D01*
X0195378Y0191830D01*
X0195277Y0191969D01*
X0195180Y0192111D01*
X0195086Y0192255D01*
X0194996Y0192401D01*
X0194909Y0192550D01*
X0194827Y0192700D01*
X0194747Y0192853D01*
X0194672Y0193007D01*
X0194601Y0193163D01*
X0194533Y0193321D01*
X0194469Y0193481D01*
X0194409Y0193642D01*
X0194353Y0193804D01*
X0194301Y0193968D01*
X0194254Y0194133D01*
X0194210Y0194299D01*
X0194170Y0194466D01*
X0194135Y0194634D01*
X0194103Y0194803D01*
X0194076Y0194973D01*
X0194053Y0195143D01*
X0194034Y0195314D01*
X0194019Y0195485D01*
X0194008Y0195657D01*
X0194002Y0195828D01*
X0194000Y0196000D01*
X0233000Y0193000D02*
X0234000Y0193000D01*
X0234000Y0192000D01*
X0233000Y0193000D02*
X0233000Y0199000D01*
X0234000Y0199000D01*
X0234000Y0200000D01*
X0237500Y0208000D02*
X0241000Y0208000D01*
X0251000Y0208000D01*
X0254500Y0208000D01*
X0258000Y0200000D02*
X0258000Y0199000D01*
X0259000Y0199000D01*
X0259000Y0193000D01*
X0258000Y0193000D01*
X0258000Y0192000D01*
X0254500Y0184000D02*
X0250500Y0184000D01*
X0241000Y0184000D01*
X0237500Y0184000D01*
X0245000Y0196000D02*
X0245002Y0196063D01*
X0245008Y0196125D01*
X0245018Y0196187D01*
X0245031Y0196249D01*
X0245049Y0196309D01*
X0245070Y0196368D01*
X0245095Y0196426D01*
X0245124Y0196482D01*
X0245156Y0196536D01*
X0245191Y0196588D01*
X0245229Y0196637D01*
X0245271Y0196685D01*
X0245315Y0196729D01*
X0245363Y0196771D01*
X0245412Y0196809D01*
X0245464Y0196844D01*
X0245518Y0196876D01*
X0245574Y0196905D01*
X0245632Y0196930D01*
X0245691Y0196951D01*
X0245751Y0196969D01*
X0245813Y0196982D01*
X0245875Y0196992D01*
X0245937Y0196998D01*
X0246000Y0197000D01*
X0246063Y0196998D01*
X0246125Y0196992D01*
X0246187Y0196982D01*
X0246249Y0196969D01*
X0246309Y0196951D01*
X0246368Y0196930D01*
X0246426Y0196905D01*
X0246482Y0196876D01*
X0246536Y0196844D01*
X0246588Y0196809D01*
X0246637Y0196771D01*
X0246685Y0196729D01*
X0246729Y0196685D01*
X0246771Y0196637D01*
X0246809Y0196588D01*
X0246844Y0196536D01*
X0246876Y0196482D01*
X0246905Y0196426D01*
X0246930Y0196368D01*
X0246951Y0196309D01*
X0246969Y0196249D01*
X0246982Y0196187D01*
X0246992Y0196125D01*
X0246998Y0196063D01*
X0247000Y0196000D01*
X0246998Y0195937D01*
X0246992Y0195875D01*
X0246982Y0195813D01*
X0246969Y0195751D01*
X0246951Y0195691D01*
X0246930Y0195632D01*
X0246905Y0195574D01*
X0246876Y0195518D01*
X0246844Y0195464D01*
X0246809Y0195412D01*
X0246771Y0195363D01*
X0246729Y0195315D01*
X0246685Y0195271D01*
X0246637Y0195229D01*
X0246588Y0195191D01*
X0246536Y0195156D01*
X0246482Y0195124D01*
X0246426Y0195095D01*
X0246368Y0195070D01*
X0246309Y0195049D01*
X0246249Y0195031D01*
X0246187Y0195018D01*
X0246125Y0195008D01*
X0246063Y0195002D01*
X0246000Y0195000D01*
X0245937Y0195002D01*
X0245875Y0195008D01*
X0245813Y0195018D01*
X0245751Y0195031D01*
X0245691Y0195049D01*
X0245632Y0195070D01*
X0245574Y0195095D01*
X0245518Y0195124D01*
X0245464Y0195156D01*
X0245412Y0195191D01*
X0245363Y0195229D01*
X0245315Y0195271D01*
X0245271Y0195315D01*
X0245229Y0195363D01*
X0245191Y0195412D01*
X0245156Y0195464D01*
X0245124Y0195518D01*
X0245095Y0195574D01*
X0245070Y0195632D01*
X0245049Y0195691D01*
X0245031Y0195751D01*
X0245018Y0195813D01*
X0245008Y0195875D01*
X0245002Y0195937D01*
X0245000Y0196000D01*
X0239000Y0196000D02*
X0239002Y0196172D01*
X0239008Y0196343D01*
X0239019Y0196515D01*
X0239034Y0196686D01*
X0239053Y0196857D01*
X0239076Y0197027D01*
X0239103Y0197197D01*
X0239135Y0197366D01*
X0239170Y0197534D01*
X0239210Y0197701D01*
X0239254Y0197867D01*
X0239301Y0198032D01*
X0239353Y0198196D01*
X0239409Y0198358D01*
X0239469Y0198519D01*
X0239533Y0198679D01*
X0239601Y0198837D01*
X0239672Y0198993D01*
X0239747Y0199147D01*
X0239827Y0199300D01*
X0239909Y0199450D01*
X0239996Y0199599D01*
X0240086Y0199745D01*
X0240180Y0199889D01*
X0240277Y0200031D01*
X0240378Y0200170D01*
X0240482Y0200307D01*
X0240589Y0200441D01*
X0240700Y0200572D01*
X0240813Y0200701D01*
X0240930Y0200827D01*
X0241050Y0200950D01*
X0241173Y0201070D01*
X0241299Y0201187D01*
X0241428Y0201300D01*
X0241559Y0201411D01*
X0241693Y0201518D01*
X0241830Y0201622D01*
X0241969Y0201723D01*
X0242111Y0201820D01*
X0242255Y0201914D01*
X0242401Y0202004D01*
X0242550Y0202091D01*
X0242700Y0202173D01*
X0242853Y0202253D01*
X0243007Y0202328D01*
X0243163Y0202399D01*
X0243321Y0202467D01*
X0243481Y0202531D01*
X0243642Y0202591D01*
X0243804Y0202647D01*
X0243968Y0202699D01*
X0244133Y0202746D01*
X0244299Y0202790D01*
X0244466Y0202830D01*
X0244634Y0202865D01*
X0244803Y0202897D01*
X0244973Y0202924D01*
X0245143Y0202947D01*
X0245314Y0202966D01*
X0245485Y0202981D01*
X0245657Y0202992D01*
X0245828Y0202998D01*
X0246000Y0203000D01*
X0246172Y0202998D01*
X0246343Y0202992D01*
X0246515Y0202981D01*
X0246686Y0202966D01*
X0246857Y0202947D01*
X0247027Y0202924D01*
X0247197Y0202897D01*
X0247366Y0202865D01*
X0247534Y0202830D01*
X0247701Y0202790D01*
X0247867Y0202746D01*
X0248032Y0202699D01*
X0248196Y0202647D01*
X0248358Y0202591D01*
X0248519Y0202531D01*
X0248679Y0202467D01*
X0248837Y0202399D01*
X0248993Y0202328D01*
X0249147Y0202253D01*
X0249300Y0202173D01*
X0249450Y0202091D01*
X0249599Y0202004D01*
X0249745Y0201914D01*
X0249889Y0201820D01*
X0250031Y0201723D01*
X0250170Y0201622D01*
X0250307Y0201518D01*
X0250441Y0201411D01*
X0250572Y0201300D01*
X0250701Y0201187D01*
X0250827Y0201070D01*
X0250950Y0200950D01*
X0251070Y0200827D01*
X0251187Y0200701D01*
X0251300Y0200572D01*
X0251411Y0200441D01*
X0251518Y0200307D01*
X0251622Y0200170D01*
X0251723Y0200031D01*
X0251820Y0199889D01*
X0251914Y0199745D01*
X0252004Y0199599D01*
X0252091Y0199450D01*
X0252173Y0199300D01*
X0252253Y0199147D01*
X0252328Y0198993D01*
X0252399Y0198837D01*
X0252467Y0198679D01*
X0252531Y0198519D01*
X0252591Y0198358D01*
X0252647Y0198196D01*
X0252699Y0198032D01*
X0252746Y0197867D01*
X0252790Y0197701D01*
X0252830Y0197534D01*
X0252865Y0197366D01*
X0252897Y0197197D01*
X0252924Y0197027D01*
X0252947Y0196857D01*
X0252966Y0196686D01*
X0252981Y0196515D01*
X0252992Y0196343D01*
X0252998Y0196172D01*
X0253000Y0196000D01*
X0252998Y0195828D01*
X0252992Y0195657D01*
X0252981Y0195485D01*
X0252966Y0195314D01*
X0252947Y0195143D01*
X0252924Y0194973D01*
X0252897Y0194803D01*
X0252865Y0194634D01*
X0252830Y0194466D01*
X0252790Y0194299D01*
X0252746Y0194133D01*
X0252699Y0193968D01*
X0252647Y0193804D01*
X0252591Y0193642D01*
X0252531Y0193481D01*
X0252467Y0193321D01*
X0252399Y0193163D01*
X0252328Y0193007D01*
X0252253Y0192853D01*
X0252173Y0192700D01*
X0252091Y0192550D01*
X0252004Y0192401D01*
X0251914Y0192255D01*
X0251820Y0192111D01*
X0251723Y0191969D01*
X0251622Y0191830D01*
X0251518Y0191693D01*
X0251411Y0191559D01*
X0251300Y0191428D01*
X0251187Y0191299D01*
X0251070Y0191173D01*
X0250950Y0191050D01*
X0250827Y0190930D01*
X0250701Y0190813D01*
X0250572Y0190700D01*
X0250441Y0190589D01*
X0250307Y0190482D01*
X0250170Y0190378D01*
X0250031Y0190277D01*
X0249889Y0190180D01*
X0249745Y0190086D01*
X0249599Y0189996D01*
X0249450Y0189909D01*
X0249300Y0189827D01*
X0249147Y0189747D01*
X0248993Y0189672D01*
X0248837Y0189601D01*
X0248679Y0189533D01*
X0248519Y0189469D01*
X0248358Y0189409D01*
X0248196Y0189353D01*
X0248032Y0189301D01*
X0247867Y0189254D01*
X0247701Y0189210D01*
X0247534Y0189170D01*
X0247366Y0189135D01*
X0247197Y0189103D01*
X0247027Y0189076D01*
X0246857Y0189053D01*
X0246686Y0189034D01*
X0246515Y0189019D01*
X0246343Y0189008D01*
X0246172Y0189002D01*
X0246000Y0189000D01*
X0245828Y0189002D01*
X0245657Y0189008D01*
X0245485Y0189019D01*
X0245314Y0189034D01*
X0245143Y0189053D01*
X0244973Y0189076D01*
X0244803Y0189103D01*
X0244634Y0189135D01*
X0244466Y0189170D01*
X0244299Y0189210D01*
X0244133Y0189254D01*
X0243968Y0189301D01*
X0243804Y0189353D01*
X0243642Y0189409D01*
X0243481Y0189469D01*
X0243321Y0189533D01*
X0243163Y0189601D01*
X0243007Y0189672D01*
X0242853Y0189747D01*
X0242700Y0189827D01*
X0242550Y0189909D01*
X0242401Y0189996D01*
X0242255Y0190086D01*
X0242111Y0190180D01*
X0241969Y0190277D01*
X0241830Y0190378D01*
X0241693Y0190482D01*
X0241559Y0190589D01*
X0241428Y0190700D01*
X0241299Y0190813D01*
X0241173Y0190930D01*
X0241050Y0191050D01*
X0240930Y0191173D01*
X0240813Y0191299D01*
X0240700Y0191428D01*
X0240589Y0191559D01*
X0240482Y0191693D01*
X0240378Y0191830D01*
X0240277Y0191969D01*
X0240180Y0192111D01*
X0240086Y0192255D01*
X0239996Y0192401D01*
X0239909Y0192550D01*
X0239827Y0192700D01*
X0239747Y0192853D01*
X0239672Y0193007D01*
X0239601Y0193163D01*
X0239533Y0193321D01*
X0239469Y0193481D01*
X0239409Y0193642D01*
X0239353Y0193804D01*
X0239301Y0193968D01*
X0239254Y0194133D01*
X0239210Y0194299D01*
X0239170Y0194466D01*
X0239135Y0194634D01*
X0239103Y0194803D01*
X0239076Y0194973D01*
X0239053Y0195143D01*
X0239034Y0195314D01*
X0239019Y0195485D01*
X0239008Y0195657D01*
X0239002Y0195828D01*
X0239000Y0196000D01*
X0237500Y0168000D02*
X0241000Y0168000D01*
X0251000Y0168000D01*
X0254500Y0168000D01*
X0258000Y0160000D02*
X0258000Y0159000D01*
X0259000Y0159000D01*
X0259000Y0153000D01*
X0258000Y0153000D01*
X0258000Y0152000D01*
X0254500Y0144000D02*
X0250500Y0144000D01*
X0241000Y0144000D01*
X0237500Y0144000D01*
X0234000Y0152000D02*
X0234000Y0153000D01*
X0233000Y0153000D01*
X0233000Y0159000D01*
X0234000Y0159000D01*
X0234000Y0160000D01*
X0245000Y0156000D02*
X0245002Y0156063D01*
X0245008Y0156125D01*
X0245018Y0156187D01*
X0245031Y0156249D01*
X0245049Y0156309D01*
X0245070Y0156368D01*
X0245095Y0156426D01*
X0245124Y0156482D01*
X0245156Y0156536D01*
X0245191Y0156588D01*
X0245229Y0156637D01*
X0245271Y0156685D01*
X0245315Y0156729D01*
X0245363Y0156771D01*
X0245412Y0156809D01*
X0245464Y0156844D01*
X0245518Y0156876D01*
X0245574Y0156905D01*
X0245632Y0156930D01*
X0245691Y0156951D01*
X0245751Y0156969D01*
X0245813Y0156982D01*
X0245875Y0156992D01*
X0245937Y0156998D01*
X0246000Y0157000D01*
X0246063Y0156998D01*
X0246125Y0156992D01*
X0246187Y0156982D01*
X0246249Y0156969D01*
X0246309Y0156951D01*
X0246368Y0156930D01*
X0246426Y0156905D01*
X0246482Y0156876D01*
X0246536Y0156844D01*
X0246588Y0156809D01*
X0246637Y0156771D01*
X0246685Y0156729D01*
X0246729Y0156685D01*
X0246771Y0156637D01*
X0246809Y0156588D01*
X0246844Y0156536D01*
X0246876Y0156482D01*
X0246905Y0156426D01*
X0246930Y0156368D01*
X0246951Y0156309D01*
X0246969Y0156249D01*
X0246982Y0156187D01*
X0246992Y0156125D01*
X0246998Y0156063D01*
X0247000Y0156000D01*
X0246998Y0155937D01*
X0246992Y0155875D01*
X0246982Y0155813D01*
X0246969Y0155751D01*
X0246951Y0155691D01*
X0246930Y0155632D01*
X0246905Y0155574D01*
X0246876Y0155518D01*
X0246844Y0155464D01*
X0246809Y0155412D01*
X0246771Y0155363D01*
X0246729Y0155315D01*
X0246685Y0155271D01*
X0246637Y0155229D01*
X0246588Y0155191D01*
X0246536Y0155156D01*
X0246482Y0155124D01*
X0246426Y0155095D01*
X0246368Y0155070D01*
X0246309Y0155049D01*
X0246249Y0155031D01*
X0246187Y0155018D01*
X0246125Y0155008D01*
X0246063Y0155002D01*
X0246000Y0155000D01*
X0245937Y0155002D01*
X0245875Y0155008D01*
X0245813Y0155018D01*
X0245751Y0155031D01*
X0245691Y0155049D01*
X0245632Y0155070D01*
X0245574Y0155095D01*
X0245518Y0155124D01*
X0245464Y0155156D01*
X0245412Y0155191D01*
X0245363Y0155229D01*
X0245315Y0155271D01*
X0245271Y0155315D01*
X0245229Y0155363D01*
X0245191Y0155412D01*
X0245156Y0155464D01*
X0245124Y0155518D01*
X0245095Y0155574D01*
X0245070Y0155632D01*
X0245049Y0155691D01*
X0245031Y0155751D01*
X0245018Y0155813D01*
X0245008Y0155875D01*
X0245002Y0155937D01*
X0245000Y0156000D01*
X0239000Y0156000D02*
X0239002Y0156172D01*
X0239008Y0156343D01*
X0239019Y0156515D01*
X0239034Y0156686D01*
X0239053Y0156857D01*
X0239076Y0157027D01*
X0239103Y0157197D01*
X0239135Y0157366D01*
X0239170Y0157534D01*
X0239210Y0157701D01*
X0239254Y0157867D01*
X0239301Y0158032D01*
X0239353Y0158196D01*
X0239409Y0158358D01*
X0239469Y0158519D01*
X0239533Y0158679D01*
X0239601Y0158837D01*
X0239672Y0158993D01*
X0239747Y0159147D01*
X0239827Y0159300D01*
X0239909Y0159450D01*
X0239996Y0159599D01*
X0240086Y0159745D01*
X0240180Y0159889D01*
X0240277Y0160031D01*
X0240378Y0160170D01*
X0240482Y0160307D01*
X0240589Y0160441D01*
X0240700Y0160572D01*
X0240813Y0160701D01*
X0240930Y0160827D01*
X0241050Y0160950D01*
X0241173Y0161070D01*
X0241299Y0161187D01*
X0241428Y0161300D01*
X0241559Y0161411D01*
X0241693Y0161518D01*
X0241830Y0161622D01*
X0241969Y0161723D01*
X0242111Y0161820D01*
X0242255Y0161914D01*
X0242401Y0162004D01*
X0242550Y0162091D01*
X0242700Y0162173D01*
X0242853Y0162253D01*
X0243007Y0162328D01*
X0243163Y0162399D01*
X0243321Y0162467D01*
X0243481Y0162531D01*
X0243642Y0162591D01*
X0243804Y0162647D01*
X0243968Y0162699D01*
X0244133Y0162746D01*
X0244299Y0162790D01*
X0244466Y0162830D01*
X0244634Y0162865D01*
X0244803Y0162897D01*
X0244973Y0162924D01*
X0245143Y0162947D01*
X0245314Y0162966D01*
X0245485Y0162981D01*
X0245657Y0162992D01*
X0245828Y0162998D01*
X0246000Y0163000D01*
X0246172Y0162998D01*
X0246343Y0162992D01*
X0246515Y0162981D01*
X0246686Y0162966D01*
X0246857Y0162947D01*
X0247027Y0162924D01*
X0247197Y0162897D01*
X0247366Y0162865D01*
X0247534Y0162830D01*
X0247701Y0162790D01*
X0247867Y0162746D01*
X0248032Y0162699D01*
X0248196Y0162647D01*
X0248358Y0162591D01*
X0248519Y0162531D01*
X0248679Y0162467D01*
X0248837Y0162399D01*
X0248993Y0162328D01*
X0249147Y0162253D01*
X0249300Y0162173D01*
X0249450Y0162091D01*
X0249599Y0162004D01*
X0249745Y0161914D01*
X0249889Y0161820D01*
X0250031Y0161723D01*
X0250170Y0161622D01*
X0250307Y0161518D01*
X0250441Y0161411D01*
X0250572Y0161300D01*
X0250701Y0161187D01*
X0250827Y0161070D01*
X0250950Y0160950D01*
X0251070Y0160827D01*
X0251187Y0160701D01*
X0251300Y0160572D01*
X0251411Y0160441D01*
X0251518Y0160307D01*
X0251622Y0160170D01*
X0251723Y0160031D01*
X0251820Y0159889D01*
X0251914Y0159745D01*
X0252004Y0159599D01*
X0252091Y0159450D01*
X0252173Y0159300D01*
X0252253Y0159147D01*
X0252328Y0158993D01*
X0252399Y0158837D01*
X0252467Y0158679D01*
X0252531Y0158519D01*
X0252591Y0158358D01*
X0252647Y0158196D01*
X0252699Y0158032D01*
X0252746Y0157867D01*
X0252790Y0157701D01*
X0252830Y0157534D01*
X0252865Y0157366D01*
X0252897Y0157197D01*
X0252924Y0157027D01*
X0252947Y0156857D01*
X0252966Y0156686D01*
X0252981Y0156515D01*
X0252992Y0156343D01*
X0252998Y0156172D01*
X0253000Y0156000D01*
X0252998Y0155828D01*
X0252992Y0155657D01*
X0252981Y0155485D01*
X0252966Y0155314D01*
X0252947Y0155143D01*
X0252924Y0154973D01*
X0252897Y0154803D01*
X0252865Y0154634D01*
X0252830Y0154466D01*
X0252790Y0154299D01*
X0252746Y0154133D01*
X0252699Y0153968D01*
X0252647Y0153804D01*
X0252591Y0153642D01*
X0252531Y0153481D01*
X0252467Y0153321D01*
X0252399Y0153163D01*
X0252328Y0153007D01*
X0252253Y0152853D01*
X0252173Y0152700D01*
X0252091Y0152550D01*
X0252004Y0152401D01*
X0251914Y0152255D01*
X0251820Y0152111D01*
X0251723Y0151969D01*
X0251622Y0151830D01*
X0251518Y0151693D01*
X0251411Y0151559D01*
X0251300Y0151428D01*
X0251187Y0151299D01*
X0251070Y0151173D01*
X0250950Y0151050D01*
X0250827Y0150930D01*
X0250701Y0150813D01*
X0250572Y0150700D01*
X0250441Y0150589D01*
X0250307Y0150482D01*
X0250170Y0150378D01*
X0250031Y0150277D01*
X0249889Y0150180D01*
X0249745Y0150086D01*
X0249599Y0149996D01*
X0249450Y0149909D01*
X0249300Y0149827D01*
X0249147Y0149747D01*
X0248993Y0149672D01*
X0248837Y0149601D01*
X0248679Y0149533D01*
X0248519Y0149469D01*
X0248358Y0149409D01*
X0248196Y0149353D01*
X0248032Y0149301D01*
X0247867Y0149254D01*
X0247701Y0149210D01*
X0247534Y0149170D01*
X0247366Y0149135D01*
X0247197Y0149103D01*
X0247027Y0149076D01*
X0246857Y0149053D01*
X0246686Y0149034D01*
X0246515Y0149019D01*
X0246343Y0149008D01*
X0246172Y0149002D01*
X0246000Y0149000D01*
X0245828Y0149002D01*
X0245657Y0149008D01*
X0245485Y0149019D01*
X0245314Y0149034D01*
X0245143Y0149053D01*
X0244973Y0149076D01*
X0244803Y0149103D01*
X0244634Y0149135D01*
X0244466Y0149170D01*
X0244299Y0149210D01*
X0244133Y0149254D01*
X0243968Y0149301D01*
X0243804Y0149353D01*
X0243642Y0149409D01*
X0243481Y0149469D01*
X0243321Y0149533D01*
X0243163Y0149601D01*
X0243007Y0149672D01*
X0242853Y0149747D01*
X0242700Y0149827D01*
X0242550Y0149909D01*
X0242401Y0149996D01*
X0242255Y0150086D01*
X0242111Y0150180D01*
X0241969Y0150277D01*
X0241830Y0150378D01*
X0241693Y0150482D01*
X0241559Y0150589D01*
X0241428Y0150700D01*
X0241299Y0150813D01*
X0241173Y0150930D01*
X0241050Y0151050D01*
X0240930Y0151173D01*
X0240813Y0151299D01*
X0240700Y0151428D01*
X0240589Y0151559D01*
X0240482Y0151693D01*
X0240378Y0151830D01*
X0240277Y0151969D01*
X0240180Y0152111D01*
X0240086Y0152255D01*
X0239996Y0152401D01*
X0239909Y0152550D01*
X0239827Y0152700D01*
X0239747Y0152853D01*
X0239672Y0153007D01*
X0239601Y0153163D01*
X0239533Y0153321D01*
X0239469Y0153481D01*
X0239409Y0153642D01*
X0239353Y0153804D01*
X0239301Y0153968D01*
X0239254Y0154133D01*
X0239210Y0154299D01*
X0239170Y0154466D01*
X0239135Y0154634D01*
X0239103Y0154803D01*
X0239076Y0154973D01*
X0239053Y0155143D01*
X0239034Y0155314D01*
X0239019Y0155485D01*
X0239008Y0155657D01*
X0239002Y0155828D01*
X0239000Y0156000D01*
X0237500Y0128000D02*
X0241000Y0128000D01*
X0251000Y0128000D01*
X0254500Y0128000D01*
X0258000Y0120000D02*
X0258000Y0119000D01*
X0259000Y0119000D01*
X0259000Y0113000D01*
X0258000Y0113000D01*
X0258000Y0112000D01*
X0254500Y0104000D02*
X0250500Y0104000D01*
X0241000Y0104000D01*
X0237500Y0104000D01*
X0234000Y0112000D02*
X0234000Y0113000D01*
X0233000Y0113000D01*
X0233000Y0119000D01*
X0234000Y0119000D01*
X0234000Y0120000D01*
X0245000Y0116000D02*
X0245002Y0116063D01*
X0245008Y0116125D01*
X0245018Y0116187D01*
X0245031Y0116249D01*
X0245049Y0116309D01*
X0245070Y0116368D01*
X0245095Y0116426D01*
X0245124Y0116482D01*
X0245156Y0116536D01*
X0245191Y0116588D01*
X0245229Y0116637D01*
X0245271Y0116685D01*
X0245315Y0116729D01*
X0245363Y0116771D01*
X0245412Y0116809D01*
X0245464Y0116844D01*
X0245518Y0116876D01*
X0245574Y0116905D01*
X0245632Y0116930D01*
X0245691Y0116951D01*
X0245751Y0116969D01*
X0245813Y0116982D01*
X0245875Y0116992D01*
X0245937Y0116998D01*
X0246000Y0117000D01*
X0246063Y0116998D01*
X0246125Y0116992D01*
X0246187Y0116982D01*
X0246249Y0116969D01*
X0246309Y0116951D01*
X0246368Y0116930D01*
X0246426Y0116905D01*
X0246482Y0116876D01*
X0246536Y0116844D01*
X0246588Y0116809D01*
X0246637Y0116771D01*
X0246685Y0116729D01*
X0246729Y0116685D01*
X0246771Y0116637D01*
X0246809Y0116588D01*
X0246844Y0116536D01*
X0246876Y0116482D01*
X0246905Y0116426D01*
X0246930Y0116368D01*
X0246951Y0116309D01*
X0246969Y0116249D01*
X0246982Y0116187D01*
X0246992Y0116125D01*
X0246998Y0116063D01*
X0247000Y0116000D01*
X0246998Y0115937D01*
X0246992Y0115875D01*
X0246982Y0115813D01*
X0246969Y0115751D01*
X0246951Y0115691D01*
X0246930Y0115632D01*
X0246905Y0115574D01*
X0246876Y0115518D01*
X0246844Y0115464D01*
X0246809Y0115412D01*
X0246771Y0115363D01*
X0246729Y0115315D01*
X0246685Y0115271D01*
X0246637Y0115229D01*
X0246588Y0115191D01*
X0246536Y0115156D01*
X0246482Y0115124D01*
X0246426Y0115095D01*
X0246368Y0115070D01*
X0246309Y0115049D01*
X0246249Y0115031D01*
X0246187Y0115018D01*
X0246125Y0115008D01*
X0246063Y0115002D01*
X0246000Y0115000D01*
X0245937Y0115002D01*
X0245875Y0115008D01*
X0245813Y0115018D01*
X0245751Y0115031D01*
X0245691Y0115049D01*
X0245632Y0115070D01*
X0245574Y0115095D01*
X0245518Y0115124D01*
X0245464Y0115156D01*
X0245412Y0115191D01*
X0245363Y0115229D01*
X0245315Y0115271D01*
X0245271Y0115315D01*
X0245229Y0115363D01*
X0245191Y0115412D01*
X0245156Y0115464D01*
X0245124Y0115518D01*
X0245095Y0115574D01*
X0245070Y0115632D01*
X0245049Y0115691D01*
X0245031Y0115751D01*
X0245018Y0115813D01*
X0245008Y0115875D01*
X0245002Y0115937D01*
X0245000Y0116000D01*
X0239000Y0116000D02*
X0239002Y0116172D01*
X0239008Y0116343D01*
X0239019Y0116515D01*
X0239034Y0116686D01*
X0239053Y0116857D01*
X0239076Y0117027D01*
X0239103Y0117197D01*
X0239135Y0117366D01*
X0239170Y0117534D01*
X0239210Y0117701D01*
X0239254Y0117867D01*
X0239301Y0118032D01*
X0239353Y0118196D01*
X0239409Y0118358D01*
X0239469Y0118519D01*
X0239533Y0118679D01*
X0239601Y0118837D01*
X0239672Y0118993D01*
X0239747Y0119147D01*
X0239827Y0119300D01*
X0239909Y0119450D01*
X0239996Y0119599D01*
X0240086Y0119745D01*
X0240180Y0119889D01*
X0240277Y0120031D01*
X0240378Y0120170D01*
X0240482Y0120307D01*
X0240589Y0120441D01*
X0240700Y0120572D01*
X0240813Y0120701D01*
X0240930Y0120827D01*
X0241050Y0120950D01*
X0241173Y0121070D01*
X0241299Y0121187D01*
X0241428Y0121300D01*
X0241559Y0121411D01*
X0241693Y0121518D01*
X0241830Y0121622D01*
X0241969Y0121723D01*
X0242111Y0121820D01*
X0242255Y0121914D01*
X0242401Y0122004D01*
X0242550Y0122091D01*
X0242700Y0122173D01*
X0242853Y0122253D01*
X0243007Y0122328D01*
X0243163Y0122399D01*
X0243321Y0122467D01*
X0243481Y0122531D01*
X0243642Y0122591D01*
X0243804Y0122647D01*
X0243968Y0122699D01*
X0244133Y0122746D01*
X0244299Y0122790D01*
X0244466Y0122830D01*
X0244634Y0122865D01*
X0244803Y0122897D01*
X0244973Y0122924D01*
X0245143Y0122947D01*
X0245314Y0122966D01*
X0245485Y0122981D01*
X0245657Y0122992D01*
X0245828Y0122998D01*
X0246000Y0123000D01*
X0246172Y0122998D01*
X0246343Y0122992D01*
X0246515Y0122981D01*
X0246686Y0122966D01*
X0246857Y0122947D01*
X0247027Y0122924D01*
X0247197Y0122897D01*
X0247366Y0122865D01*
X0247534Y0122830D01*
X0247701Y0122790D01*
X0247867Y0122746D01*
X0248032Y0122699D01*
X0248196Y0122647D01*
X0248358Y0122591D01*
X0248519Y0122531D01*
X0248679Y0122467D01*
X0248837Y0122399D01*
X0248993Y0122328D01*
X0249147Y0122253D01*
X0249300Y0122173D01*
X0249450Y0122091D01*
X0249599Y0122004D01*
X0249745Y0121914D01*
X0249889Y0121820D01*
X0250031Y0121723D01*
X0250170Y0121622D01*
X0250307Y0121518D01*
X0250441Y0121411D01*
X0250572Y0121300D01*
X0250701Y0121187D01*
X0250827Y0121070D01*
X0250950Y0120950D01*
X0251070Y0120827D01*
X0251187Y0120701D01*
X0251300Y0120572D01*
X0251411Y0120441D01*
X0251518Y0120307D01*
X0251622Y0120170D01*
X0251723Y0120031D01*
X0251820Y0119889D01*
X0251914Y0119745D01*
X0252004Y0119599D01*
X0252091Y0119450D01*
X0252173Y0119300D01*
X0252253Y0119147D01*
X0252328Y0118993D01*
X0252399Y0118837D01*
X0252467Y0118679D01*
X0252531Y0118519D01*
X0252591Y0118358D01*
X0252647Y0118196D01*
X0252699Y0118032D01*
X0252746Y0117867D01*
X0252790Y0117701D01*
X0252830Y0117534D01*
X0252865Y0117366D01*
X0252897Y0117197D01*
X0252924Y0117027D01*
X0252947Y0116857D01*
X0252966Y0116686D01*
X0252981Y0116515D01*
X0252992Y0116343D01*
X0252998Y0116172D01*
X0253000Y0116000D01*
X0252998Y0115828D01*
X0252992Y0115657D01*
X0252981Y0115485D01*
X0252966Y0115314D01*
X0252947Y0115143D01*
X0252924Y0114973D01*
X0252897Y0114803D01*
X0252865Y0114634D01*
X0252830Y0114466D01*
X0252790Y0114299D01*
X0252746Y0114133D01*
X0252699Y0113968D01*
X0252647Y0113804D01*
X0252591Y0113642D01*
X0252531Y0113481D01*
X0252467Y0113321D01*
X0252399Y0113163D01*
X0252328Y0113007D01*
X0252253Y0112853D01*
X0252173Y0112700D01*
X0252091Y0112550D01*
X0252004Y0112401D01*
X0251914Y0112255D01*
X0251820Y0112111D01*
X0251723Y0111969D01*
X0251622Y0111830D01*
X0251518Y0111693D01*
X0251411Y0111559D01*
X0251300Y0111428D01*
X0251187Y0111299D01*
X0251070Y0111173D01*
X0250950Y0111050D01*
X0250827Y0110930D01*
X0250701Y0110813D01*
X0250572Y0110700D01*
X0250441Y0110589D01*
X0250307Y0110482D01*
X0250170Y0110378D01*
X0250031Y0110277D01*
X0249889Y0110180D01*
X0249745Y0110086D01*
X0249599Y0109996D01*
X0249450Y0109909D01*
X0249300Y0109827D01*
X0249147Y0109747D01*
X0248993Y0109672D01*
X0248837Y0109601D01*
X0248679Y0109533D01*
X0248519Y0109469D01*
X0248358Y0109409D01*
X0248196Y0109353D01*
X0248032Y0109301D01*
X0247867Y0109254D01*
X0247701Y0109210D01*
X0247534Y0109170D01*
X0247366Y0109135D01*
X0247197Y0109103D01*
X0247027Y0109076D01*
X0246857Y0109053D01*
X0246686Y0109034D01*
X0246515Y0109019D01*
X0246343Y0109008D01*
X0246172Y0109002D01*
X0246000Y0109000D01*
X0245828Y0109002D01*
X0245657Y0109008D01*
X0245485Y0109019D01*
X0245314Y0109034D01*
X0245143Y0109053D01*
X0244973Y0109076D01*
X0244803Y0109103D01*
X0244634Y0109135D01*
X0244466Y0109170D01*
X0244299Y0109210D01*
X0244133Y0109254D01*
X0243968Y0109301D01*
X0243804Y0109353D01*
X0243642Y0109409D01*
X0243481Y0109469D01*
X0243321Y0109533D01*
X0243163Y0109601D01*
X0243007Y0109672D01*
X0242853Y0109747D01*
X0242700Y0109827D01*
X0242550Y0109909D01*
X0242401Y0109996D01*
X0242255Y0110086D01*
X0242111Y0110180D01*
X0241969Y0110277D01*
X0241830Y0110378D01*
X0241693Y0110482D01*
X0241559Y0110589D01*
X0241428Y0110700D01*
X0241299Y0110813D01*
X0241173Y0110930D01*
X0241050Y0111050D01*
X0240930Y0111173D01*
X0240813Y0111299D01*
X0240700Y0111428D01*
X0240589Y0111559D01*
X0240482Y0111693D01*
X0240378Y0111830D01*
X0240277Y0111969D01*
X0240180Y0112111D01*
X0240086Y0112255D01*
X0239996Y0112401D01*
X0239909Y0112550D01*
X0239827Y0112700D01*
X0239747Y0112853D01*
X0239672Y0113007D01*
X0239601Y0113163D01*
X0239533Y0113321D01*
X0239469Y0113481D01*
X0239409Y0113642D01*
X0239353Y0113804D01*
X0239301Y0113968D01*
X0239254Y0114133D01*
X0239210Y0114299D01*
X0239170Y0114466D01*
X0239135Y0114634D01*
X0239103Y0114803D01*
X0239076Y0114973D01*
X0239053Y0115143D01*
X0239034Y0115314D01*
X0239019Y0115485D01*
X0239008Y0115657D01*
X0239002Y0115828D01*
X0239000Y0116000D01*
X0237500Y0093000D02*
X0241000Y0093000D01*
X0251000Y0093000D01*
X0254500Y0093000D01*
X0258000Y0085000D02*
X0258000Y0084000D01*
X0259000Y0084000D01*
X0259000Y0078000D01*
X0258000Y0078000D01*
X0258000Y0077000D01*
X0254500Y0069000D02*
X0250500Y0069000D01*
X0241000Y0069000D01*
X0237500Y0069000D01*
X0234000Y0077000D02*
X0234000Y0078000D01*
X0233000Y0078000D01*
X0233000Y0084000D01*
X0234000Y0084000D01*
X0234000Y0085000D01*
X0245000Y0081000D02*
X0245002Y0081063D01*
X0245008Y0081125D01*
X0245018Y0081187D01*
X0245031Y0081249D01*
X0245049Y0081309D01*
X0245070Y0081368D01*
X0245095Y0081426D01*
X0245124Y0081482D01*
X0245156Y0081536D01*
X0245191Y0081588D01*
X0245229Y0081637D01*
X0245271Y0081685D01*
X0245315Y0081729D01*
X0245363Y0081771D01*
X0245412Y0081809D01*
X0245464Y0081844D01*
X0245518Y0081876D01*
X0245574Y0081905D01*
X0245632Y0081930D01*
X0245691Y0081951D01*
X0245751Y0081969D01*
X0245813Y0081982D01*
X0245875Y0081992D01*
X0245937Y0081998D01*
X0246000Y0082000D01*
X0246063Y0081998D01*
X0246125Y0081992D01*
X0246187Y0081982D01*
X0246249Y0081969D01*
X0246309Y0081951D01*
X0246368Y0081930D01*
X0246426Y0081905D01*
X0246482Y0081876D01*
X0246536Y0081844D01*
X0246588Y0081809D01*
X0246637Y0081771D01*
X0246685Y0081729D01*
X0246729Y0081685D01*
X0246771Y0081637D01*
X0246809Y0081588D01*
X0246844Y0081536D01*
X0246876Y0081482D01*
X0246905Y0081426D01*
X0246930Y0081368D01*
X0246951Y0081309D01*
X0246969Y0081249D01*
X0246982Y0081187D01*
X0246992Y0081125D01*
X0246998Y0081063D01*
X0247000Y0081000D01*
X0246998Y0080937D01*
X0246992Y0080875D01*
X0246982Y0080813D01*
X0246969Y0080751D01*
X0246951Y0080691D01*
X0246930Y0080632D01*
X0246905Y0080574D01*
X0246876Y0080518D01*
X0246844Y0080464D01*
X0246809Y0080412D01*
X0246771Y0080363D01*
X0246729Y0080315D01*
X0246685Y0080271D01*
X0246637Y0080229D01*
X0246588Y0080191D01*
X0246536Y0080156D01*
X0246482Y0080124D01*
X0246426Y0080095D01*
X0246368Y0080070D01*
X0246309Y0080049D01*
X0246249Y0080031D01*
X0246187Y0080018D01*
X0246125Y0080008D01*
X0246063Y0080002D01*
X0246000Y0080000D01*
X0245937Y0080002D01*
X0245875Y0080008D01*
X0245813Y0080018D01*
X0245751Y0080031D01*
X0245691Y0080049D01*
X0245632Y0080070D01*
X0245574Y0080095D01*
X0245518Y0080124D01*
X0245464Y0080156D01*
X0245412Y0080191D01*
X0245363Y0080229D01*
X0245315Y0080271D01*
X0245271Y0080315D01*
X0245229Y0080363D01*
X0245191Y0080412D01*
X0245156Y0080464D01*
X0245124Y0080518D01*
X0245095Y0080574D01*
X0245070Y0080632D01*
X0245049Y0080691D01*
X0245031Y0080751D01*
X0245018Y0080813D01*
X0245008Y0080875D01*
X0245002Y0080937D01*
X0245000Y0081000D01*
X0239000Y0081000D02*
X0239002Y0081172D01*
X0239008Y0081343D01*
X0239019Y0081515D01*
X0239034Y0081686D01*
X0239053Y0081857D01*
X0239076Y0082027D01*
X0239103Y0082197D01*
X0239135Y0082366D01*
X0239170Y0082534D01*
X0239210Y0082701D01*
X0239254Y0082867D01*
X0239301Y0083032D01*
X0239353Y0083196D01*
X0239409Y0083358D01*
X0239469Y0083519D01*
X0239533Y0083679D01*
X0239601Y0083837D01*
X0239672Y0083993D01*
X0239747Y0084147D01*
X0239827Y0084300D01*
X0239909Y0084450D01*
X0239996Y0084599D01*
X0240086Y0084745D01*
X0240180Y0084889D01*
X0240277Y0085031D01*
X0240378Y0085170D01*
X0240482Y0085307D01*
X0240589Y0085441D01*
X0240700Y0085572D01*
X0240813Y0085701D01*
X0240930Y0085827D01*
X0241050Y0085950D01*
X0241173Y0086070D01*
X0241299Y0086187D01*
X0241428Y0086300D01*
X0241559Y0086411D01*
X0241693Y0086518D01*
X0241830Y0086622D01*
X0241969Y0086723D01*
X0242111Y0086820D01*
X0242255Y0086914D01*
X0242401Y0087004D01*
X0242550Y0087091D01*
X0242700Y0087173D01*
X0242853Y0087253D01*
X0243007Y0087328D01*
X0243163Y0087399D01*
X0243321Y0087467D01*
X0243481Y0087531D01*
X0243642Y0087591D01*
X0243804Y0087647D01*
X0243968Y0087699D01*
X0244133Y0087746D01*
X0244299Y0087790D01*
X0244466Y0087830D01*
X0244634Y0087865D01*
X0244803Y0087897D01*
X0244973Y0087924D01*
X0245143Y0087947D01*
X0245314Y0087966D01*
X0245485Y0087981D01*
X0245657Y0087992D01*
X0245828Y0087998D01*
X0246000Y0088000D01*
X0246172Y0087998D01*
X0246343Y0087992D01*
X0246515Y0087981D01*
X0246686Y0087966D01*
X0246857Y0087947D01*
X0247027Y0087924D01*
X0247197Y0087897D01*
X0247366Y0087865D01*
X0247534Y0087830D01*
X0247701Y0087790D01*
X0247867Y0087746D01*
X0248032Y0087699D01*
X0248196Y0087647D01*
X0248358Y0087591D01*
X0248519Y0087531D01*
X0248679Y0087467D01*
X0248837Y0087399D01*
X0248993Y0087328D01*
X0249147Y0087253D01*
X0249300Y0087173D01*
X0249450Y0087091D01*
X0249599Y0087004D01*
X0249745Y0086914D01*
X0249889Y0086820D01*
X0250031Y0086723D01*
X0250170Y0086622D01*
X0250307Y0086518D01*
X0250441Y0086411D01*
X0250572Y0086300D01*
X0250701Y0086187D01*
X0250827Y0086070D01*
X0250950Y0085950D01*
X0251070Y0085827D01*
X0251187Y0085701D01*
X0251300Y0085572D01*
X0251411Y0085441D01*
X0251518Y0085307D01*
X0251622Y0085170D01*
X0251723Y0085031D01*
X0251820Y0084889D01*
X0251914Y0084745D01*
X0252004Y0084599D01*
X0252091Y0084450D01*
X0252173Y0084300D01*
X0252253Y0084147D01*
X0252328Y0083993D01*
X0252399Y0083837D01*
X0252467Y0083679D01*
X0252531Y0083519D01*
X0252591Y0083358D01*
X0252647Y0083196D01*
X0252699Y0083032D01*
X0252746Y0082867D01*
X0252790Y0082701D01*
X0252830Y0082534D01*
X0252865Y0082366D01*
X0252897Y0082197D01*
X0252924Y0082027D01*
X0252947Y0081857D01*
X0252966Y0081686D01*
X0252981Y0081515D01*
X0252992Y0081343D01*
X0252998Y0081172D01*
X0253000Y0081000D01*
X0252998Y0080828D01*
X0252992Y0080657D01*
X0252981Y0080485D01*
X0252966Y0080314D01*
X0252947Y0080143D01*
X0252924Y0079973D01*
X0252897Y0079803D01*
X0252865Y0079634D01*
X0252830Y0079466D01*
X0252790Y0079299D01*
X0252746Y0079133D01*
X0252699Y0078968D01*
X0252647Y0078804D01*
X0252591Y0078642D01*
X0252531Y0078481D01*
X0252467Y0078321D01*
X0252399Y0078163D01*
X0252328Y0078007D01*
X0252253Y0077853D01*
X0252173Y0077700D01*
X0252091Y0077550D01*
X0252004Y0077401D01*
X0251914Y0077255D01*
X0251820Y0077111D01*
X0251723Y0076969D01*
X0251622Y0076830D01*
X0251518Y0076693D01*
X0251411Y0076559D01*
X0251300Y0076428D01*
X0251187Y0076299D01*
X0251070Y0076173D01*
X0250950Y0076050D01*
X0250827Y0075930D01*
X0250701Y0075813D01*
X0250572Y0075700D01*
X0250441Y0075589D01*
X0250307Y0075482D01*
X0250170Y0075378D01*
X0250031Y0075277D01*
X0249889Y0075180D01*
X0249745Y0075086D01*
X0249599Y0074996D01*
X0249450Y0074909D01*
X0249300Y0074827D01*
X0249147Y0074747D01*
X0248993Y0074672D01*
X0248837Y0074601D01*
X0248679Y0074533D01*
X0248519Y0074469D01*
X0248358Y0074409D01*
X0248196Y0074353D01*
X0248032Y0074301D01*
X0247867Y0074254D01*
X0247701Y0074210D01*
X0247534Y0074170D01*
X0247366Y0074135D01*
X0247197Y0074103D01*
X0247027Y0074076D01*
X0246857Y0074053D01*
X0246686Y0074034D01*
X0246515Y0074019D01*
X0246343Y0074008D01*
X0246172Y0074002D01*
X0246000Y0074000D01*
X0245828Y0074002D01*
X0245657Y0074008D01*
X0245485Y0074019D01*
X0245314Y0074034D01*
X0245143Y0074053D01*
X0244973Y0074076D01*
X0244803Y0074103D01*
X0244634Y0074135D01*
X0244466Y0074170D01*
X0244299Y0074210D01*
X0244133Y0074254D01*
X0243968Y0074301D01*
X0243804Y0074353D01*
X0243642Y0074409D01*
X0243481Y0074469D01*
X0243321Y0074533D01*
X0243163Y0074601D01*
X0243007Y0074672D01*
X0242853Y0074747D01*
X0242700Y0074827D01*
X0242550Y0074909D01*
X0242401Y0074996D01*
X0242255Y0075086D01*
X0242111Y0075180D01*
X0241969Y0075277D01*
X0241830Y0075378D01*
X0241693Y0075482D01*
X0241559Y0075589D01*
X0241428Y0075700D01*
X0241299Y0075813D01*
X0241173Y0075930D01*
X0241050Y0076050D01*
X0240930Y0076173D01*
X0240813Y0076299D01*
X0240700Y0076428D01*
X0240589Y0076559D01*
X0240482Y0076693D01*
X0240378Y0076830D01*
X0240277Y0076969D01*
X0240180Y0077111D01*
X0240086Y0077255D01*
X0239996Y0077401D01*
X0239909Y0077550D01*
X0239827Y0077700D01*
X0239747Y0077853D01*
X0239672Y0078007D01*
X0239601Y0078163D01*
X0239533Y0078321D01*
X0239469Y0078481D01*
X0239409Y0078642D01*
X0239353Y0078804D01*
X0239301Y0078968D01*
X0239254Y0079133D01*
X0239210Y0079299D01*
X0239170Y0079466D01*
X0239135Y0079634D01*
X0239103Y0079803D01*
X0239076Y0079973D01*
X0239053Y0080143D01*
X0239034Y0080314D01*
X0239019Y0080485D01*
X0239008Y0080657D01*
X0239002Y0080828D01*
X0239000Y0081000D01*
X0283000Y0078000D02*
X0284000Y0078000D01*
X0284000Y0077000D01*
X0283000Y0078000D02*
X0283000Y0084000D01*
X0284000Y0084000D01*
X0284000Y0085000D01*
X0287500Y0093000D02*
X0291000Y0093000D01*
X0301000Y0093000D01*
X0304500Y0093000D01*
X0308000Y0085000D02*
X0308000Y0084000D01*
X0309000Y0084000D01*
X0309000Y0078000D01*
X0308000Y0078000D01*
X0308000Y0077000D01*
X0304500Y0069000D02*
X0300500Y0069000D01*
X0291000Y0069000D01*
X0287500Y0069000D01*
X0295000Y0081000D02*
X0295002Y0081063D01*
X0295008Y0081125D01*
X0295018Y0081187D01*
X0295031Y0081249D01*
X0295049Y0081309D01*
X0295070Y0081368D01*
X0295095Y0081426D01*
X0295124Y0081482D01*
X0295156Y0081536D01*
X0295191Y0081588D01*
X0295229Y0081637D01*
X0295271Y0081685D01*
X0295315Y0081729D01*
X0295363Y0081771D01*
X0295412Y0081809D01*
X0295464Y0081844D01*
X0295518Y0081876D01*
X0295574Y0081905D01*
X0295632Y0081930D01*
X0295691Y0081951D01*
X0295751Y0081969D01*
X0295813Y0081982D01*
X0295875Y0081992D01*
X0295937Y0081998D01*
X0296000Y0082000D01*
X0296063Y0081998D01*
X0296125Y0081992D01*
X0296187Y0081982D01*
X0296249Y0081969D01*
X0296309Y0081951D01*
X0296368Y0081930D01*
X0296426Y0081905D01*
X0296482Y0081876D01*
X0296536Y0081844D01*
X0296588Y0081809D01*
X0296637Y0081771D01*
X0296685Y0081729D01*
X0296729Y0081685D01*
X0296771Y0081637D01*
X0296809Y0081588D01*
X0296844Y0081536D01*
X0296876Y0081482D01*
X0296905Y0081426D01*
X0296930Y0081368D01*
X0296951Y0081309D01*
X0296969Y0081249D01*
X0296982Y0081187D01*
X0296992Y0081125D01*
X0296998Y0081063D01*
X0297000Y0081000D01*
X0296998Y0080937D01*
X0296992Y0080875D01*
X0296982Y0080813D01*
X0296969Y0080751D01*
X0296951Y0080691D01*
X0296930Y0080632D01*
X0296905Y0080574D01*
X0296876Y0080518D01*
X0296844Y0080464D01*
X0296809Y0080412D01*
X0296771Y0080363D01*
X0296729Y0080315D01*
X0296685Y0080271D01*
X0296637Y0080229D01*
X0296588Y0080191D01*
X0296536Y0080156D01*
X0296482Y0080124D01*
X0296426Y0080095D01*
X0296368Y0080070D01*
X0296309Y0080049D01*
X0296249Y0080031D01*
X0296187Y0080018D01*
X0296125Y0080008D01*
X0296063Y0080002D01*
X0296000Y0080000D01*
X0295937Y0080002D01*
X0295875Y0080008D01*
X0295813Y0080018D01*
X0295751Y0080031D01*
X0295691Y0080049D01*
X0295632Y0080070D01*
X0295574Y0080095D01*
X0295518Y0080124D01*
X0295464Y0080156D01*
X0295412Y0080191D01*
X0295363Y0080229D01*
X0295315Y0080271D01*
X0295271Y0080315D01*
X0295229Y0080363D01*
X0295191Y0080412D01*
X0295156Y0080464D01*
X0295124Y0080518D01*
X0295095Y0080574D01*
X0295070Y0080632D01*
X0295049Y0080691D01*
X0295031Y0080751D01*
X0295018Y0080813D01*
X0295008Y0080875D01*
X0295002Y0080937D01*
X0295000Y0081000D01*
X0289000Y0081000D02*
X0289002Y0081172D01*
X0289008Y0081343D01*
X0289019Y0081515D01*
X0289034Y0081686D01*
X0289053Y0081857D01*
X0289076Y0082027D01*
X0289103Y0082197D01*
X0289135Y0082366D01*
X0289170Y0082534D01*
X0289210Y0082701D01*
X0289254Y0082867D01*
X0289301Y0083032D01*
X0289353Y0083196D01*
X0289409Y0083358D01*
X0289469Y0083519D01*
X0289533Y0083679D01*
X0289601Y0083837D01*
X0289672Y0083993D01*
X0289747Y0084147D01*
X0289827Y0084300D01*
X0289909Y0084450D01*
X0289996Y0084599D01*
X0290086Y0084745D01*
X0290180Y0084889D01*
X0290277Y0085031D01*
X0290378Y0085170D01*
X0290482Y0085307D01*
X0290589Y0085441D01*
X0290700Y0085572D01*
X0290813Y0085701D01*
X0290930Y0085827D01*
X0291050Y0085950D01*
X0291173Y0086070D01*
X0291299Y0086187D01*
X0291428Y0086300D01*
X0291559Y0086411D01*
X0291693Y0086518D01*
X0291830Y0086622D01*
X0291969Y0086723D01*
X0292111Y0086820D01*
X0292255Y0086914D01*
X0292401Y0087004D01*
X0292550Y0087091D01*
X0292700Y0087173D01*
X0292853Y0087253D01*
X0293007Y0087328D01*
X0293163Y0087399D01*
X0293321Y0087467D01*
X0293481Y0087531D01*
X0293642Y0087591D01*
X0293804Y0087647D01*
X0293968Y0087699D01*
X0294133Y0087746D01*
X0294299Y0087790D01*
X0294466Y0087830D01*
X0294634Y0087865D01*
X0294803Y0087897D01*
X0294973Y0087924D01*
X0295143Y0087947D01*
X0295314Y0087966D01*
X0295485Y0087981D01*
X0295657Y0087992D01*
X0295828Y0087998D01*
X0296000Y0088000D01*
X0296172Y0087998D01*
X0296343Y0087992D01*
X0296515Y0087981D01*
X0296686Y0087966D01*
X0296857Y0087947D01*
X0297027Y0087924D01*
X0297197Y0087897D01*
X0297366Y0087865D01*
X0297534Y0087830D01*
X0297701Y0087790D01*
X0297867Y0087746D01*
X0298032Y0087699D01*
X0298196Y0087647D01*
X0298358Y0087591D01*
X0298519Y0087531D01*
X0298679Y0087467D01*
X0298837Y0087399D01*
X0298993Y0087328D01*
X0299147Y0087253D01*
X0299300Y0087173D01*
X0299450Y0087091D01*
X0299599Y0087004D01*
X0299745Y0086914D01*
X0299889Y0086820D01*
X0300031Y0086723D01*
X0300170Y0086622D01*
X0300307Y0086518D01*
X0300441Y0086411D01*
X0300572Y0086300D01*
X0300701Y0086187D01*
X0300827Y0086070D01*
X0300950Y0085950D01*
X0301070Y0085827D01*
X0301187Y0085701D01*
X0301300Y0085572D01*
X0301411Y0085441D01*
X0301518Y0085307D01*
X0301622Y0085170D01*
X0301723Y0085031D01*
X0301820Y0084889D01*
X0301914Y0084745D01*
X0302004Y0084599D01*
X0302091Y0084450D01*
X0302173Y0084300D01*
X0302253Y0084147D01*
X0302328Y0083993D01*
X0302399Y0083837D01*
X0302467Y0083679D01*
X0302531Y0083519D01*
X0302591Y0083358D01*
X0302647Y0083196D01*
X0302699Y0083032D01*
X0302746Y0082867D01*
X0302790Y0082701D01*
X0302830Y0082534D01*
X0302865Y0082366D01*
X0302897Y0082197D01*
X0302924Y0082027D01*
X0302947Y0081857D01*
X0302966Y0081686D01*
X0302981Y0081515D01*
X0302992Y0081343D01*
X0302998Y0081172D01*
X0303000Y0081000D01*
X0302998Y0080828D01*
X0302992Y0080657D01*
X0302981Y0080485D01*
X0302966Y0080314D01*
X0302947Y0080143D01*
X0302924Y0079973D01*
X0302897Y0079803D01*
X0302865Y0079634D01*
X0302830Y0079466D01*
X0302790Y0079299D01*
X0302746Y0079133D01*
X0302699Y0078968D01*
X0302647Y0078804D01*
X0302591Y0078642D01*
X0302531Y0078481D01*
X0302467Y0078321D01*
X0302399Y0078163D01*
X0302328Y0078007D01*
X0302253Y0077853D01*
X0302173Y0077700D01*
X0302091Y0077550D01*
X0302004Y0077401D01*
X0301914Y0077255D01*
X0301820Y0077111D01*
X0301723Y0076969D01*
X0301622Y0076830D01*
X0301518Y0076693D01*
X0301411Y0076559D01*
X0301300Y0076428D01*
X0301187Y0076299D01*
X0301070Y0076173D01*
X0300950Y0076050D01*
X0300827Y0075930D01*
X0300701Y0075813D01*
X0300572Y0075700D01*
X0300441Y0075589D01*
X0300307Y0075482D01*
X0300170Y0075378D01*
X0300031Y0075277D01*
X0299889Y0075180D01*
X0299745Y0075086D01*
X0299599Y0074996D01*
X0299450Y0074909D01*
X0299300Y0074827D01*
X0299147Y0074747D01*
X0298993Y0074672D01*
X0298837Y0074601D01*
X0298679Y0074533D01*
X0298519Y0074469D01*
X0298358Y0074409D01*
X0298196Y0074353D01*
X0298032Y0074301D01*
X0297867Y0074254D01*
X0297701Y0074210D01*
X0297534Y0074170D01*
X0297366Y0074135D01*
X0297197Y0074103D01*
X0297027Y0074076D01*
X0296857Y0074053D01*
X0296686Y0074034D01*
X0296515Y0074019D01*
X0296343Y0074008D01*
X0296172Y0074002D01*
X0296000Y0074000D01*
X0295828Y0074002D01*
X0295657Y0074008D01*
X0295485Y0074019D01*
X0295314Y0074034D01*
X0295143Y0074053D01*
X0294973Y0074076D01*
X0294803Y0074103D01*
X0294634Y0074135D01*
X0294466Y0074170D01*
X0294299Y0074210D01*
X0294133Y0074254D01*
X0293968Y0074301D01*
X0293804Y0074353D01*
X0293642Y0074409D01*
X0293481Y0074469D01*
X0293321Y0074533D01*
X0293163Y0074601D01*
X0293007Y0074672D01*
X0292853Y0074747D01*
X0292700Y0074827D01*
X0292550Y0074909D01*
X0292401Y0074996D01*
X0292255Y0075086D01*
X0292111Y0075180D01*
X0291969Y0075277D01*
X0291830Y0075378D01*
X0291693Y0075482D01*
X0291559Y0075589D01*
X0291428Y0075700D01*
X0291299Y0075813D01*
X0291173Y0075930D01*
X0291050Y0076050D01*
X0290930Y0076173D01*
X0290813Y0076299D01*
X0290700Y0076428D01*
X0290589Y0076559D01*
X0290482Y0076693D01*
X0290378Y0076830D01*
X0290277Y0076969D01*
X0290180Y0077111D01*
X0290086Y0077255D01*
X0289996Y0077401D01*
X0289909Y0077550D01*
X0289827Y0077700D01*
X0289747Y0077853D01*
X0289672Y0078007D01*
X0289601Y0078163D01*
X0289533Y0078321D01*
X0289469Y0078481D01*
X0289409Y0078642D01*
X0289353Y0078804D01*
X0289301Y0078968D01*
X0289254Y0079133D01*
X0289210Y0079299D01*
X0289170Y0079466D01*
X0289135Y0079634D01*
X0289103Y0079803D01*
X0289076Y0079973D01*
X0289053Y0080143D01*
X0289034Y0080314D01*
X0289019Y0080485D01*
X0289008Y0080657D01*
X0289002Y0080828D01*
X0289000Y0081000D01*
X0287500Y0104000D02*
X0291000Y0104000D01*
X0300500Y0104000D01*
X0304500Y0104000D01*
X0308000Y0112000D02*
X0308000Y0113000D01*
X0309000Y0113000D01*
X0309000Y0119000D01*
X0308000Y0119000D01*
X0308000Y0120000D01*
X0304500Y0128000D02*
X0301000Y0128000D01*
X0291000Y0128000D01*
X0287500Y0128000D01*
X0284000Y0120000D02*
X0284000Y0119000D01*
X0283000Y0119000D01*
X0283000Y0113000D01*
X0284000Y0113000D01*
X0284000Y0112000D01*
X0295000Y0116000D02*
X0295002Y0116063D01*
X0295008Y0116125D01*
X0295018Y0116187D01*
X0295031Y0116249D01*
X0295049Y0116309D01*
X0295070Y0116368D01*
X0295095Y0116426D01*
X0295124Y0116482D01*
X0295156Y0116536D01*
X0295191Y0116588D01*
X0295229Y0116637D01*
X0295271Y0116685D01*
X0295315Y0116729D01*
X0295363Y0116771D01*
X0295412Y0116809D01*
X0295464Y0116844D01*
X0295518Y0116876D01*
X0295574Y0116905D01*
X0295632Y0116930D01*
X0295691Y0116951D01*
X0295751Y0116969D01*
X0295813Y0116982D01*
X0295875Y0116992D01*
X0295937Y0116998D01*
X0296000Y0117000D01*
X0296063Y0116998D01*
X0296125Y0116992D01*
X0296187Y0116982D01*
X0296249Y0116969D01*
X0296309Y0116951D01*
X0296368Y0116930D01*
X0296426Y0116905D01*
X0296482Y0116876D01*
X0296536Y0116844D01*
X0296588Y0116809D01*
X0296637Y0116771D01*
X0296685Y0116729D01*
X0296729Y0116685D01*
X0296771Y0116637D01*
X0296809Y0116588D01*
X0296844Y0116536D01*
X0296876Y0116482D01*
X0296905Y0116426D01*
X0296930Y0116368D01*
X0296951Y0116309D01*
X0296969Y0116249D01*
X0296982Y0116187D01*
X0296992Y0116125D01*
X0296998Y0116063D01*
X0297000Y0116000D01*
X0296998Y0115937D01*
X0296992Y0115875D01*
X0296982Y0115813D01*
X0296969Y0115751D01*
X0296951Y0115691D01*
X0296930Y0115632D01*
X0296905Y0115574D01*
X0296876Y0115518D01*
X0296844Y0115464D01*
X0296809Y0115412D01*
X0296771Y0115363D01*
X0296729Y0115315D01*
X0296685Y0115271D01*
X0296637Y0115229D01*
X0296588Y0115191D01*
X0296536Y0115156D01*
X0296482Y0115124D01*
X0296426Y0115095D01*
X0296368Y0115070D01*
X0296309Y0115049D01*
X0296249Y0115031D01*
X0296187Y0115018D01*
X0296125Y0115008D01*
X0296063Y0115002D01*
X0296000Y0115000D01*
X0295937Y0115002D01*
X0295875Y0115008D01*
X0295813Y0115018D01*
X0295751Y0115031D01*
X0295691Y0115049D01*
X0295632Y0115070D01*
X0295574Y0115095D01*
X0295518Y0115124D01*
X0295464Y0115156D01*
X0295412Y0115191D01*
X0295363Y0115229D01*
X0295315Y0115271D01*
X0295271Y0115315D01*
X0295229Y0115363D01*
X0295191Y0115412D01*
X0295156Y0115464D01*
X0295124Y0115518D01*
X0295095Y0115574D01*
X0295070Y0115632D01*
X0295049Y0115691D01*
X0295031Y0115751D01*
X0295018Y0115813D01*
X0295008Y0115875D01*
X0295002Y0115937D01*
X0295000Y0116000D01*
X0289000Y0116000D02*
X0289002Y0116172D01*
X0289008Y0116343D01*
X0289019Y0116515D01*
X0289034Y0116686D01*
X0289053Y0116857D01*
X0289076Y0117027D01*
X0289103Y0117197D01*
X0289135Y0117366D01*
X0289170Y0117534D01*
X0289210Y0117701D01*
X0289254Y0117867D01*
X0289301Y0118032D01*
X0289353Y0118196D01*
X0289409Y0118358D01*
X0289469Y0118519D01*
X0289533Y0118679D01*
X0289601Y0118837D01*
X0289672Y0118993D01*
X0289747Y0119147D01*
X0289827Y0119300D01*
X0289909Y0119450D01*
X0289996Y0119599D01*
X0290086Y0119745D01*
X0290180Y0119889D01*
X0290277Y0120031D01*
X0290378Y0120170D01*
X0290482Y0120307D01*
X0290589Y0120441D01*
X0290700Y0120572D01*
X0290813Y0120701D01*
X0290930Y0120827D01*
X0291050Y0120950D01*
X0291173Y0121070D01*
X0291299Y0121187D01*
X0291428Y0121300D01*
X0291559Y0121411D01*
X0291693Y0121518D01*
X0291830Y0121622D01*
X0291969Y0121723D01*
X0292111Y0121820D01*
X0292255Y0121914D01*
X0292401Y0122004D01*
X0292550Y0122091D01*
X0292700Y0122173D01*
X0292853Y0122253D01*
X0293007Y0122328D01*
X0293163Y0122399D01*
X0293321Y0122467D01*
X0293481Y0122531D01*
X0293642Y0122591D01*
X0293804Y0122647D01*
X0293968Y0122699D01*
X0294133Y0122746D01*
X0294299Y0122790D01*
X0294466Y0122830D01*
X0294634Y0122865D01*
X0294803Y0122897D01*
X0294973Y0122924D01*
X0295143Y0122947D01*
X0295314Y0122966D01*
X0295485Y0122981D01*
X0295657Y0122992D01*
X0295828Y0122998D01*
X0296000Y0123000D01*
X0296172Y0122998D01*
X0296343Y0122992D01*
X0296515Y0122981D01*
X0296686Y0122966D01*
X0296857Y0122947D01*
X0297027Y0122924D01*
X0297197Y0122897D01*
X0297366Y0122865D01*
X0297534Y0122830D01*
X0297701Y0122790D01*
X0297867Y0122746D01*
X0298032Y0122699D01*
X0298196Y0122647D01*
X0298358Y0122591D01*
X0298519Y0122531D01*
X0298679Y0122467D01*
X0298837Y0122399D01*
X0298993Y0122328D01*
X0299147Y0122253D01*
X0299300Y0122173D01*
X0299450Y0122091D01*
X0299599Y0122004D01*
X0299745Y0121914D01*
X0299889Y0121820D01*
X0300031Y0121723D01*
X0300170Y0121622D01*
X0300307Y0121518D01*
X0300441Y0121411D01*
X0300572Y0121300D01*
X0300701Y0121187D01*
X0300827Y0121070D01*
X0300950Y0120950D01*
X0301070Y0120827D01*
X0301187Y0120701D01*
X0301300Y0120572D01*
X0301411Y0120441D01*
X0301518Y0120307D01*
X0301622Y0120170D01*
X0301723Y0120031D01*
X0301820Y0119889D01*
X0301914Y0119745D01*
X0302004Y0119599D01*
X0302091Y0119450D01*
X0302173Y0119300D01*
X0302253Y0119147D01*
X0302328Y0118993D01*
X0302399Y0118837D01*
X0302467Y0118679D01*
X0302531Y0118519D01*
X0302591Y0118358D01*
X0302647Y0118196D01*
X0302699Y0118032D01*
X0302746Y0117867D01*
X0302790Y0117701D01*
X0302830Y0117534D01*
X0302865Y0117366D01*
X0302897Y0117197D01*
X0302924Y0117027D01*
X0302947Y0116857D01*
X0302966Y0116686D01*
X0302981Y0116515D01*
X0302992Y0116343D01*
X0302998Y0116172D01*
X0303000Y0116000D01*
X0302998Y0115828D01*
X0302992Y0115657D01*
X0302981Y0115485D01*
X0302966Y0115314D01*
X0302947Y0115143D01*
X0302924Y0114973D01*
X0302897Y0114803D01*
X0302865Y0114634D01*
X0302830Y0114466D01*
X0302790Y0114299D01*
X0302746Y0114133D01*
X0302699Y0113968D01*
X0302647Y0113804D01*
X0302591Y0113642D01*
X0302531Y0113481D01*
X0302467Y0113321D01*
X0302399Y0113163D01*
X0302328Y0113007D01*
X0302253Y0112853D01*
X0302173Y0112700D01*
X0302091Y0112550D01*
X0302004Y0112401D01*
X0301914Y0112255D01*
X0301820Y0112111D01*
X0301723Y0111969D01*
X0301622Y0111830D01*
X0301518Y0111693D01*
X0301411Y0111559D01*
X0301300Y0111428D01*
X0301187Y0111299D01*
X0301070Y0111173D01*
X0300950Y0111050D01*
X0300827Y0110930D01*
X0300701Y0110813D01*
X0300572Y0110700D01*
X0300441Y0110589D01*
X0300307Y0110482D01*
X0300170Y0110378D01*
X0300031Y0110277D01*
X0299889Y0110180D01*
X0299745Y0110086D01*
X0299599Y0109996D01*
X0299450Y0109909D01*
X0299300Y0109827D01*
X0299147Y0109747D01*
X0298993Y0109672D01*
X0298837Y0109601D01*
X0298679Y0109533D01*
X0298519Y0109469D01*
X0298358Y0109409D01*
X0298196Y0109353D01*
X0298032Y0109301D01*
X0297867Y0109254D01*
X0297701Y0109210D01*
X0297534Y0109170D01*
X0297366Y0109135D01*
X0297197Y0109103D01*
X0297027Y0109076D01*
X0296857Y0109053D01*
X0296686Y0109034D01*
X0296515Y0109019D01*
X0296343Y0109008D01*
X0296172Y0109002D01*
X0296000Y0109000D01*
X0295828Y0109002D01*
X0295657Y0109008D01*
X0295485Y0109019D01*
X0295314Y0109034D01*
X0295143Y0109053D01*
X0294973Y0109076D01*
X0294803Y0109103D01*
X0294634Y0109135D01*
X0294466Y0109170D01*
X0294299Y0109210D01*
X0294133Y0109254D01*
X0293968Y0109301D01*
X0293804Y0109353D01*
X0293642Y0109409D01*
X0293481Y0109469D01*
X0293321Y0109533D01*
X0293163Y0109601D01*
X0293007Y0109672D01*
X0292853Y0109747D01*
X0292700Y0109827D01*
X0292550Y0109909D01*
X0292401Y0109996D01*
X0292255Y0110086D01*
X0292111Y0110180D01*
X0291969Y0110277D01*
X0291830Y0110378D01*
X0291693Y0110482D01*
X0291559Y0110589D01*
X0291428Y0110700D01*
X0291299Y0110813D01*
X0291173Y0110930D01*
X0291050Y0111050D01*
X0290930Y0111173D01*
X0290813Y0111299D01*
X0290700Y0111428D01*
X0290589Y0111559D01*
X0290482Y0111693D01*
X0290378Y0111830D01*
X0290277Y0111969D01*
X0290180Y0112111D01*
X0290086Y0112255D01*
X0289996Y0112401D01*
X0289909Y0112550D01*
X0289827Y0112700D01*
X0289747Y0112853D01*
X0289672Y0113007D01*
X0289601Y0113163D01*
X0289533Y0113321D01*
X0289469Y0113481D01*
X0289409Y0113642D01*
X0289353Y0113804D01*
X0289301Y0113968D01*
X0289254Y0114133D01*
X0289210Y0114299D01*
X0289170Y0114466D01*
X0289135Y0114634D01*
X0289103Y0114803D01*
X0289076Y0114973D01*
X0289053Y0115143D01*
X0289034Y0115314D01*
X0289019Y0115485D01*
X0289008Y0115657D01*
X0289002Y0115828D01*
X0289000Y0116000D01*
X0287500Y0144000D02*
X0291000Y0144000D01*
X0300500Y0144000D01*
X0304500Y0144000D01*
X0308000Y0152000D02*
X0308000Y0153000D01*
X0309000Y0153000D01*
X0309000Y0159000D01*
X0308000Y0159000D01*
X0308000Y0160000D01*
X0304500Y0168000D02*
X0301000Y0168000D01*
X0291000Y0168000D01*
X0287500Y0168000D01*
X0284000Y0160000D02*
X0284000Y0159000D01*
X0283000Y0159000D01*
X0283000Y0153000D01*
X0284000Y0153000D01*
X0284000Y0152000D01*
X0295000Y0156000D02*
X0295002Y0156063D01*
X0295008Y0156125D01*
X0295018Y0156187D01*
X0295031Y0156249D01*
X0295049Y0156309D01*
X0295070Y0156368D01*
X0295095Y0156426D01*
X0295124Y0156482D01*
X0295156Y0156536D01*
X0295191Y0156588D01*
X0295229Y0156637D01*
X0295271Y0156685D01*
X0295315Y0156729D01*
X0295363Y0156771D01*
X0295412Y0156809D01*
X0295464Y0156844D01*
X0295518Y0156876D01*
X0295574Y0156905D01*
X0295632Y0156930D01*
X0295691Y0156951D01*
X0295751Y0156969D01*
X0295813Y0156982D01*
X0295875Y0156992D01*
X0295937Y0156998D01*
X0296000Y0157000D01*
X0296063Y0156998D01*
X0296125Y0156992D01*
X0296187Y0156982D01*
X0296249Y0156969D01*
X0296309Y0156951D01*
X0296368Y0156930D01*
X0296426Y0156905D01*
X0296482Y0156876D01*
X0296536Y0156844D01*
X0296588Y0156809D01*
X0296637Y0156771D01*
X0296685Y0156729D01*
X0296729Y0156685D01*
X0296771Y0156637D01*
X0296809Y0156588D01*
X0296844Y0156536D01*
X0296876Y0156482D01*
X0296905Y0156426D01*
X0296930Y0156368D01*
X0296951Y0156309D01*
X0296969Y0156249D01*
X0296982Y0156187D01*
X0296992Y0156125D01*
X0296998Y0156063D01*
X0297000Y0156000D01*
X0296998Y0155937D01*
X0296992Y0155875D01*
X0296982Y0155813D01*
X0296969Y0155751D01*
X0296951Y0155691D01*
X0296930Y0155632D01*
X0296905Y0155574D01*
X0296876Y0155518D01*
X0296844Y0155464D01*
X0296809Y0155412D01*
X0296771Y0155363D01*
X0296729Y0155315D01*
X0296685Y0155271D01*
X0296637Y0155229D01*
X0296588Y0155191D01*
X0296536Y0155156D01*
X0296482Y0155124D01*
X0296426Y0155095D01*
X0296368Y0155070D01*
X0296309Y0155049D01*
X0296249Y0155031D01*
X0296187Y0155018D01*
X0296125Y0155008D01*
X0296063Y0155002D01*
X0296000Y0155000D01*
X0295937Y0155002D01*
X0295875Y0155008D01*
X0295813Y0155018D01*
X0295751Y0155031D01*
X0295691Y0155049D01*
X0295632Y0155070D01*
X0295574Y0155095D01*
X0295518Y0155124D01*
X0295464Y0155156D01*
X0295412Y0155191D01*
X0295363Y0155229D01*
X0295315Y0155271D01*
X0295271Y0155315D01*
X0295229Y0155363D01*
X0295191Y0155412D01*
X0295156Y0155464D01*
X0295124Y0155518D01*
X0295095Y0155574D01*
X0295070Y0155632D01*
X0295049Y0155691D01*
X0295031Y0155751D01*
X0295018Y0155813D01*
X0295008Y0155875D01*
X0295002Y0155937D01*
X0295000Y0156000D01*
X0289000Y0156000D02*
X0289002Y0156172D01*
X0289008Y0156343D01*
X0289019Y0156515D01*
X0289034Y0156686D01*
X0289053Y0156857D01*
X0289076Y0157027D01*
X0289103Y0157197D01*
X0289135Y0157366D01*
X0289170Y0157534D01*
X0289210Y0157701D01*
X0289254Y0157867D01*
X0289301Y0158032D01*
X0289353Y0158196D01*
X0289409Y0158358D01*
X0289469Y0158519D01*
X0289533Y0158679D01*
X0289601Y0158837D01*
X0289672Y0158993D01*
X0289747Y0159147D01*
X0289827Y0159300D01*
X0289909Y0159450D01*
X0289996Y0159599D01*
X0290086Y0159745D01*
X0290180Y0159889D01*
X0290277Y0160031D01*
X0290378Y0160170D01*
X0290482Y0160307D01*
X0290589Y0160441D01*
X0290700Y0160572D01*
X0290813Y0160701D01*
X0290930Y0160827D01*
X0291050Y0160950D01*
X0291173Y0161070D01*
X0291299Y0161187D01*
X0291428Y0161300D01*
X0291559Y0161411D01*
X0291693Y0161518D01*
X0291830Y0161622D01*
X0291969Y0161723D01*
X0292111Y0161820D01*
X0292255Y0161914D01*
X0292401Y0162004D01*
X0292550Y0162091D01*
X0292700Y0162173D01*
X0292853Y0162253D01*
X0293007Y0162328D01*
X0293163Y0162399D01*
X0293321Y0162467D01*
X0293481Y0162531D01*
X0293642Y0162591D01*
X0293804Y0162647D01*
X0293968Y0162699D01*
X0294133Y0162746D01*
X0294299Y0162790D01*
X0294466Y0162830D01*
X0294634Y0162865D01*
X0294803Y0162897D01*
X0294973Y0162924D01*
X0295143Y0162947D01*
X0295314Y0162966D01*
X0295485Y0162981D01*
X0295657Y0162992D01*
X0295828Y0162998D01*
X0296000Y0163000D01*
X0296172Y0162998D01*
X0296343Y0162992D01*
X0296515Y0162981D01*
X0296686Y0162966D01*
X0296857Y0162947D01*
X0297027Y0162924D01*
X0297197Y0162897D01*
X0297366Y0162865D01*
X0297534Y0162830D01*
X0297701Y0162790D01*
X0297867Y0162746D01*
X0298032Y0162699D01*
X0298196Y0162647D01*
X0298358Y0162591D01*
X0298519Y0162531D01*
X0298679Y0162467D01*
X0298837Y0162399D01*
X0298993Y0162328D01*
X0299147Y0162253D01*
X0299300Y0162173D01*
X0299450Y0162091D01*
X0299599Y0162004D01*
X0299745Y0161914D01*
X0299889Y0161820D01*
X0300031Y0161723D01*
X0300170Y0161622D01*
X0300307Y0161518D01*
X0300441Y0161411D01*
X0300572Y0161300D01*
X0300701Y0161187D01*
X0300827Y0161070D01*
X0300950Y0160950D01*
X0301070Y0160827D01*
X0301187Y0160701D01*
X0301300Y0160572D01*
X0301411Y0160441D01*
X0301518Y0160307D01*
X0301622Y0160170D01*
X0301723Y0160031D01*
X0301820Y0159889D01*
X0301914Y0159745D01*
X0302004Y0159599D01*
X0302091Y0159450D01*
X0302173Y0159300D01*
X0302253Y0159147D01*
X0302328Y0158993D01*
X0302399Y0158837D01*
X0302467Y0158679D01*
X0302531Y0158519D01*
X0302591Y0158358D01*
X0302647Y0158196D01*
X0302699Y0158032D01*
X0302746Y0157867D01*
X0302790Y0157701D01*
X0302830Y0157534D01*
X0302865Y0157366D01*
X0302897Y0157197D01*
X0302924Y0157027D01*
X0302947Y0156857D01*
X0302966Y0156686D01*
X0302981Y0156515D01*
X0302992Y0156343D01*
X0302998Y0156172D01*
X0303000Y0156000D01*
X0302998Y0155828D01*
X0302992Y0155657D01*
X0302981Y0155485D01*
X0302966Y0155314D01*
X0302947Y0155143D01*
X0302924Y0154973D01*
X0302897Y0154803D01*
X0302865Y0154634D01*
X0302830Y0154466D01*
X0302790Y0154299D01*
X0302746Y0154133D01*
X0302699Y0153968D01*
X0302647Y0153804D01*
X0302591Y0153642D01*
X0302531Y0153481D01*
X0302467Y0153321D01*
X0302399Y0153163D01*
X0302328Y0153007D01*
X0302253Y0152853D01*
X0302173Y0152700D01*
X0302091Y0152550D01*
X0302004Y0152401D01*
X0301914Y0152255D01*
X0301820Y0152111D01*
X0301723Y0151969D01*
X0301622Y0151830D01*
X0301518Y0151693D01*
X0301411Y0151559D01*
X0301300Y0151428D01*
X0301187Y0151299D01*
X0301070Y0151173D01*
X0300950Y0151050D01*
X0300827Y0150930D01*
X0300701Y0150813D01*
X0300572Y0150700D01*
X0300441Y0150589D01*
X0300307Y0150482D01*
X0300170Y0150378D01*
X0300031Y0150277D01*
X0299889Y0150180D01*
X0299745Y0150086D01*
X0299599Y0149996D01*
X0299450Y0149909D01*
X0299300Y0149827D01*
X0299147Y0149747D01*
X0298993Y0149672D01*
X0298837Y0149601D01*
X0298679Y0149533D01*
X0298519Y0149469D01*
X0298358Y0149409D01*
X0298196Y0149353D01*
X0298032Y0149301D01*
X0297867Y0149254D01*
X0297701Y0149210D01*
X0297534Y0149170D01*
X0297366Y0149135D01*
X0297197Y0149103D01*
X0297027Y0149076D01*
X0296857Y0149053D01*
X0296686Y0149034D01*
X0296515Y0149019D01*
X0296343Y0149008D01*
X0296172Y0149002D01*
X0296000Y0149000D01*
X0295828Y0149002D01*
X0295657Y0149008D01*
X0295485Y0149019D01*
X0295314Y0149034D01*
X0295143Y0149053D01*
X0294973Y0149076D01*
X0294803Y0149103D01*
X0294634Y0149135D01*
X0294466Y0149170D01*
X0294299Y0149210D01*
X0294133Y0149254D01*
X0293968Y0149301D01*
X0293804Y0149353D01*
X0293642Y0149409D01*
X0293481Y0149469D01*
X0293321Y0149533D01*
X0293163Y0149601D01*
X0293007Y0149672D01*
X0292853Y0149747D01*
X0292700Y0149827D01*
X0292550Y0149909D01*
X0292401Y0149996D01*
X0292255Y0150086D01*
X0292111Y0150180D01*
X0291969Y0150277D01*
X0291830Y0150378D01*
X0291693Y0150482D01*
X0291559Y0150589D01*
X0291428Y0150700D01*
X0291299Y0150813D01*
X0291173Y0150930D01*
X0291050Y0151050D01*
X0290930Y0151173D01*
X0290813Y0151299D01*
X0290700Y0151428D01*
X0290589Y0151559D01*
X0290482Y0151693D01*
X0290378Y0151830D01*
X0290277Y0151969D01*
X0290180Y0152111D01*
X0290086Y0152255D01*
X0289996Y0152401D01*
X0289909Y0152550D01*
X0289827Y0152700D01*
X0289747Y0152853D01*
X0289672Y0153007D01*
X0289601Y0153163D01*
X0289533Y0153321D01*
X0289469Y0153481D01*
X0289409Y0153642D01*
X0289353Y0153804D01*
X0289301Y0153968D01*
X0289254Y0154133D01*
X0289210Y0154299D01*
X0289170Y0154466D01*
X0289135Y0154634D01*
X0289103Y0154803D01*
X0289076Y0154973D01*
X0289053Y0155143D01*
X0289034Y0155314D01*
X0289019Y0155485D01*
X0289008Y0155657D01*
X0289002Y0155828D01*
X0289000Y0156000D01*
X0287500Y0184000D02*
X0291000Y0184000D01*
X0300500Y0184000D01*
X0304500Y0184000D01*
X0308000Y0192000D02*
X0308000Y0193000D01*
X0309000Y0193000D01*
X0309000Y0199000D01*
X0308000Y0199000D01*
X0308000Y0200000D01*
X0304500Y0208000D02*
X0301000Y0208000D01*
X0291000Y0208000D01*
X0287500Y0208000D01*
X0284000Y0200000D02*
X0284000Y0199000D01*
X0283000Y0199000D01*
X0283000Y0193000D01*
X0284000Y0193000D01*
X0284000Y0192000D01*
X0295000Y0196000D02*
X0295002Y0196063D01*
X0295008Y0196125D01*
X0295018Y0196187D01*
X0295031Y0196249D01*
X0295049Y0196309D01*
X0295070Y0196368D01*
X0295095Y0196426D01*
X0295124Y0196482D01*
X0295156Y0196536D01*
X0295191Y0196588D01*
X0295229Y0196637D01*
X0295271Y0196685D01*
X0295315Y0196729D01*
X0295363Y0196771D01*
X0295412Y0196809D01*
X0295464Y0196844D01*
X0295518Y0196876D01*
X0295574Y0196905D01*
X0295632Y0196930D01*
X0295691Y0196951D01*
X0295751Y0196969D01*
X0295813Y0196982D01*
X0295875Y0196992D01*
X0295937Y0196998D01*
X0296000Y0197000D01*
X0296063Y0196998D01*
X0296125Y0196992D01*
X0296187Y0196982D01*
X0296249Y0196969D01*
X0296309Y0196951D01*
X0296368Y0196930D01*
X0296426Y0196905D01*
X0296482Y0196876D01*
X0296536Y0196844D01*
X0296588Y0196809D01*
X0296637Y0196771D01*
X0296685Y0196729D01*
X0296729Y0196685D01*
X0296771Y0196637D01*
X0296809Y0196588D01*
X0296844Y0196536D01*
X0296876Y0196482D01*
X0296905Y0196426D01*
X0296930Y0196368D01*
X0296951Y0196309D01*
X0296969Y0196249D01*
X0296982Y0196187D01*
X0296992Y0196125D01*
X0296998Y0196063D01*
X0297000Y0196000D01*
X0296998Y0195937D01*
X0296992Y0195875D01*
X0296982Y0195813D01*
X0296969Y0195751D01*
X0296951Y0195691D01*
X0296930Y0195632D01*
X0296905Y0195574D01*
X0296876Y0195518D01*
X0296844Y0195464D01*
X0296809Y0195412D01*
X0296771Y0195363D01*
X0296729Y0195315D01*
X0296685Y0195271D01*
X0296637Y0195229D01*
X0296588Y0195191D01*
X0296536Y0195156D01*
X0296482Y0195124D01*
X0296426Y0195095D01*
X0296368Y0195070D01*
X0296309Y0195049D01*
X0296249Y0195031D01*
X0296187Y0195018D01*
X0296125Y0195008D01*
X0296063Y0195002D01*
X0296000Y0195000D01*
X0295937Y0195002D01*
X0295875Y0195008D01*
X0295813Y0195018D01*
X0295751Y0195031D01*
X0295691Y0195049D01*
X0295632Y0195070D01*
X0295574Y0195095D01*
X0295518Y0195124D01*
X0295464Y0195156D01*
X0295412Y0195191D01*
X0295363Y0195229D01*
X0295315Y0195271D01*
X0295271Y0195315D01*
X0295229Y0195363D01*
X0295191Y0195412D01*
X0295156Y0195464D01*
X0295124Y0195518D01*
X0295095Y0195574D01*
X0295070Y0195632D01*
X0295049Y0195691D01*
X0295031Y0195751D01*
X0295018Y0195813D01*
X0295008Y0195875D01*
X0295002Y0195937D01*
X0295000Y0196000D01*
X0289000Y0196000D02*
X0289002Y0196172D01*
X0289008Y0196343D01*
X0289019Y0196515D01*
X0289034Y0196686D01*
X0289053Y0196857D01*
X0289076Y0197027D01*
X0289103Y0197197D01*
X0289135Y0197366D01*
X0289170Y0197534D01*
X0289210Y0197701D01*
X0289254Y0197867D01*
X0289301Y0198032D01*
X0289353Y0198196D01*
X0289409Y0198358D01*
X0289469Y0198519D01*
X0289533Y0198679D01*
X0289601Y0198837D01*
X0289672Y0198993D01*
X0289747Y0199147D01*
X0289827Y0199300D01*
X0289909Y0199450D01*
X0289996Y0199599D01*
X0290086Y0199745D01*
X0290180Y0199889D01*
X0290277Y0200031D01*
X0290378Y0200170D01*
X0290482Y0200307D01*
X0290589Y0200441D01*
X0290700Y0200572D01*
X0290813Y0200701D01*
X0290930Y0200827D01*
X0291050Y0200950D01*
X0291173Y0201070D01*
X0291299Y0201187D01*
X0291428Y0201300D01*
X0291559Y0201411D01*
X0291693Y0201518D01*
X0291830Y0201622D01*
X0291969Y0201723D01*
X0292111Y0201820D01*
X0292255Y0201914D01*
X0292401Y0202004D01*
X0292550Y0202091D01*
X0292700Y0202173D01*
X0292853Y0202253D01*
X0293007Y0202328D01*
X0293163Y0202399D01*
X0293321Y0202467D01*
X0293481Y0202531D01*
X0293642Y0202591D01*
X0293804Y0202647D01*
X0293968Y0202699D01*
X0294133Y0202746D01*
X0294299Y0202790D01*
X0294466Y0202830D01*
X0294634Y0202865D01*
X0294803Y0202897D01*
X0294973Y0202924D01*
X0295143Y0202947D01*
X0295314Y0202966D01*
X0295485Y0202981D01*
X0295657Y0202992D01*
X0295828Y0202998D01*
X0296000Y0203000D01*
X0296172Y0202998D01*
X0296343Y0202992D01*
X0296515Y0202981D01*
X0296686Y0202966D01*
X0296857Y0202947D01*
X0297027Y0202924D01*
X0297197Y0202897D01*
X0297366Y0202865D01*
X0297534Y0202830D01*
X0297701Y0202790D01*
X0297867Y0202746D01*
X0298032Y0202699D01*
X0298196Y0202647D01*
X0298358Y0202591D01*
X0298519Y0202531D01*
X0298679Y0202467D01*
X0298837Y0202399D01*
X0298993Y0202328D01*
X0299147Y0202253D01*
X0299300Y0202173D01*
X0299450Y0202091D01*
X0299599Y0202004D01*
X0299745Y0201914D01*
X0299889Y0201820D01*
X0300031Y0201723D01*
X0300170Y0201622D01*
X0300307Y0201518D01*
X0300441Y0201411D01*
X0300572Y0201300D01*
X0300701Y0201187D01*
X0300827Y0201070D01*
X0300950Y0200950D01*
X0301070Y0200827D01*
X0301187Y0200701D01*
X0301300Y0200572D01*
X0301411Y0200441D01*
X0301518Y0200307D01*
X0301622Y0200170D01*
X0301723Y0200031D01*
X0301820Y0199889D01*
X0301914Y0199745D01*
X0302004Y0199599D01*
X0302091Y0199450D01*
X0302173Y0199300D01*
X0302253Y0199147D01*
X0302328Y0198993D01*
X0302399Y0198837D01*
X0302467Y0198679D01*
X0302531Y0198519D01*
X0302591Y0198358D01*
X0302647Y0198196D01*
X0302699Y0198032D01*
X0302746Y0197867D01*
X0302790Y0197701D01*
X0302830Y0197534D01*
X0302865Y0197366D01*
X0302897Y0197197D01*
X0302924Y0197027D01*
X0302947Y0196857D01*
X0302966Y0196686D01*
X0302981Y0196515D01*
X0302992Y0196343D01*
X0302998Y0196172D01*
X0303000Y0196000D01*
X0302998Y0195828D01*
X0302992Y0195657D01*
X0302981Y0195485D01*
X0302966Y0195314D01*
X0302947Y0195143D01*
X0302924Y0194973D01*
X0302897Y0194803D01*
X0302865Y0194634D01*
X0302830Y0194466D01*
X0302790Y0194299D01*
X0302746Y0194133D01*
X0302699Y0193968D01*
X0302647Y0193804D01*
X0302591Y0193642D01*
X0302531Y0193481D01*
X0302467Y0193321D01*
X0302399Y0193163D01*
X0302328Y0193007D01*
X0302253Y0192853D01*
X0302173Y0192700D01*
X0302091Y0192550D01*
X0302004Y0192401D01*
X0301914Y0192255D01*
X0301820Y0192111D01*
X0301723Y0191969D01*
X0301622Y0191830D01*
X0301518Y0191693D01*
X0301411Y0191559D01*
X0301300Y0191428D01*
X0301187Y0191299D01*
X0301070Y0191173D01*
X0300950Y0191050D01*
X0300827Y0190930D01*
X0300701Y0190813D01*
X0300572Y0190700D01*
X0300441Y0190589D01*
X0300307Y0190482D01*
X0300170Y0190378D01*
X0300031Y0190277D01*
X0299889Y0190180D01*
X0299745Y0190086D01*
X0299599Y0189996D01*
X0299450Y0189909D01*
X0299300Y0189827D01*
X0299147Y0189747D01*
X0298993Y0189672D01*
X0298837Y0189601D01*
X0298679Y0189533D01*
X0298519Y0189469D01*
X0298358Y0189409D01*
X0298196Y0189353D01*
X0298032Y0189301D01*
X0297867Y0189254D01*
X0297701Y0189210D01*
X0297534Y0189170D01*
X0297366Y0189135D01*
X0297197Y0189103D01*
X0297027Y0189076D01*
X0296857Y0189053D01*
X0296686Y0189034D01*
X0296515Y0189019D01*
X0296343Y0189008D01*
X0296172Y0189002D01*
X0296000Y0189000D01*
X0295828Y0189002D01*
X0295657Y0189008D01*
X0295485Y0189019D01*
X0295314Y0189034D01*
X0295143Y0189053D01*
X0294973Y0189076D01*
X0294803Y0189103D01*
X0294634Y0189135D01*
X0294466Y0189170D01*
X0294299Y0189210D01*
X0294133Y0189254D01*
X0293968Y0189301D01*
X0293804Y0189353D01*
X0293642Y0189409D01*
X0293481Y0189469D01*
X0293321Y0189533D01*
X0293163Y0189601D01*
X0293007Y0189672D01*
X0292853Y0189747D01*
X0292700Y0189827D01*
X0292550Y0189909D01*
X0292401Y0189996D01*
X0292255Y0190086D01*
X0292111Y0190180D01*
X0291969Y0190277D01*
X0291830Y0190378D01*
X0291693Y0190482D01*
X0291559Y0190589D01*
X0291428Y0190700D01*
X0291299Y0190813D01*
X0291173Y0190930D01*
X0291050Y0191050D01*
X0290930Y0191173D01*
X0290813Y0191299D01*
X0290700Y0191428D01*
X0290589Y0191559D01*
X0290482Y0191693D01*
X0290378Y0191830D01*
X0290277Y0191969D01*
X0290180Y0192111D01*
X0290086Y0192255D01*
X0289996Y0192401D01*
X0289909Y0192550D01*
X0289827Y0192700D01*
X0289747Y0192853D01*
X0289672Y0193007D01*
X0289601Y0193163D01*
X0289533Y0193321D01*
X0289469Y0193481D01*
X0289409Y0193642D01*
X0289353Y0193804D01*
X0289301Y0193968D01*
X0289254Y0194133D01*
X0289210Y0194299D01*
X0289170Y0194466D01*
X0289135Y0194634D01*
X0289103Y0194803D01*
X0289076Y0194973D01*
X0289053Y0195143D01*
X0289034Y0195314D01*
X0289019Y0195485D01*
X0289008Y0195657D01*
X0289002Y0195828D01*
X0289000Y0196000D01*
X0328000Y0193000D02*
X0329000Y0193000D01*
X0329000Y0192000D01*
X0328000Y0193000D02*
X0328000Y0199000D01*
X0329000Y0199000D01*
X0329000Y0200000D01*
X0332500Y0208000D02*
X0336000Y0208000D01*
X0346000Y0208000D01*
X0349500Y0208000D01*
X0353000Y0200000D02*
X0353000Y0199000D01*
X0354000Y0199000D01*
X0354000Y0193000D01*
X0353000Y0193000D01*
X0353000Y0192000D01*
X0349500Y0184000D02*
X0345500Y0184000D01*
X0336000Y0184000D01*
X0332500Y0184000D01*
X0340000Y0196000D02*
X0340002Y0196063D01*
X0340008Y0196125D01*
X0340018Y0196187D01*
X0340031Y0196249D01*
X0340049Y0196309D01*
X0340070Y0196368D01*
X0340095Y0196426D01*
X0340124Y0196482D01*
X0340156Y0196536D01*
X0340191Y0196588D01*
X0340229Y0196637D01*
X0340271Y0196685D01*
X0340315Y0196729D01*
X0340363Y0196771D01*
X0340412Y0196809D01*
X0340464Y0196844D01*
X0340518Y0196876D01*
X0340574Y0196905D01*
X0340632Y0196930D01*
X0340691Y0196951D01*
X0340751Y0196969D01*
X0340813Y0196982D01*
X0340875Y0196992D01*
X0340937Y0196998D01*
X0341000Y0197000D01*
X0341063Y0196998D01*
X0341125Y0196992D01*
X0341187Y0196982D01*
X0341249Y0196969D01*
X0341309Y0196951D01*
X0341368Y0196930D01*
X0341426Y0196905D01*
X0341482Y0196876D01*
X0341536Y0196844D01*
X0341588Y0196809D01*
X0341637Y0196771D01*
X0341685Y0196729D01*
X0341729Y0196685D01*
X0341771Y0196637D01*
X0341809Y0196588D01*
X0341844Y0196536D01*
X0341876Y0196482D01*
X0341905Y0196426D01*
X0341930Y0196368D01*
X0341951Y0196309D01*
X0341969Y0196249D01*
X0341982Y0196187D01*
X0341992Y0196125D01*
X0341998Y0196063D01*
X0342000Y0196000D01*
X0341998Y0195937D01*
X0341992Y0195875D01*
X0341982Y0195813D01*
X0341969Y0195751D01*
X0341951Y0195691D01*
X0341930Y0195632D01*
X0341905Y0195574D01*
X0341876Y0195518D01*
X0341844Y0195464D01*
X0341809Y0195412D01*
X0341771Y0195363D01*
X0341729Y0195315D01*
X0341685Y0195271D01*
X0341637Y0195229D01*
X0341588Y0195191D01*
X0341536Y0195156D01*
X0341482Y0195124D01*
X0341426Y0195095D01*
X0341368Y0195070D01*
X0341309Y0195049D01*
X0341249Y0195031D01*
X0341187Y0195018D01*
X0341125Y0195008D01*
X0341063Y0195002D01*
X0341000Y0195000D01*
X0340937Y0195002D01*
X0340875Y0195008D01*
X0340813Y0195018D01*
X0340751Y0195031D01*
X0340691Y0195049D01*
X0340632Y0195070D01*
X0340574Y0195095D01*
X0340518Y0195124D01*
X0340464Y0195156D01*
X0340412Y0195191D01*
X0340363Y0195229D01*
X0340315Y0195271D01*
X0340271Y0195315D01*
X0340229Y0195363D01*
X0340191Y0195412D01*
X0340156Y0195464D01*
X0340124Y0195518D01*
X0340095Y0195574D01*
X0340070Y0195632D01*
X0340049Y0195691D01*
X0340031Y0195751D01*
X0340018Y0195813D01*
X0340008Y0195875D01*
X0340002Y0195937D01*
X0340000Y0196000D01*
X0334000Y0196000D02*
X0334002Y0196172D01*
X0334008Y0196343D01*
X0334019Y0196515D01*
X0334034Y0196686D01*
X0334053Y0196857D01*
X0334076Y0197027D01*
X0334103Y0197197D01*
X0334135Y0197366D01*
X0334170Y0197534D01*
X0334210Y0197701D01*
X0334254Y0197867D01*
X0334301Y0198032D01*
X0334353Y0198196D01*
X0334409Y0198358D01*
X0334469Y0198519D01*
X0334533Y0198679D01*
X0334601Y0198837D01*
X0334672Y0198993D01*
X0334747Y0199147D01*
X0334827Y0199300D01*
X0334909Y0199450D01*
X0334996Y0199599D01*
X0335086Y0199745D01*
X0335180Y0199889D01*
X0335277Y0200031D01*
X0335378Y0200170D01*
X0335482Y0200307D01*
X0335589Y0200441D01*
X0335700Y0200572D01*
X0335813Y0200701D01*
X0335930Y0200827D01*
X0336050Y0200950D01*
X0336173Y0201070D01*
X0336299Y0201187D01*
X0336428Y0201300D01*
X0336559Y0201411D01*
X0336693Y0201518D01*
X0336830Y0201622D01*
X0336969Y0201723D01*
X0337111Y0201820D01*
X0337255Y0201914D01*
X0337401Y0202004D01*
X0337550Y0202091D01*
X0337700Y0202173D01*
X0337853Y0202253D01*
X0338007Y0202328D01*
X0338163Y0202399D01*
X0338321Y0202467D01*
X0338481Y0202531D01*
X0338642Y0202591D01*
X0338804Y0202647D01*
X0338968Y0202699D01*
X0339133Y0202746D01*
X0339299Y0202790D01*
X0339466Y0202830D01*
X0339634Y0202865D01*
X0339803Y0202897D01*
X0339973Y0202924D01*
X0340143Y0202947D01*
X0340314Y0202966D01*
X0340485Y0202981D01*
X0340657Y0202992D01*
X0340828Y0202998D01*
X0341000Y0203000D01*
X0341172Y0202998D01*
X0341343Y0202992D01*
X0341515Y0202981D01*
X0341686Y0202966D01*
X0341857Y0202947D01*
X0342027Y0202924D01*
X0342197Y0202897D01*
X0342366Y0202865D01*
X0342534Y0202830D01*
X0342701Y0202790D01*
X0342867Y0202746D01*
X0343032Y0202699D01*
X0343196Y0202647D01*
X0343358Y0202591D01*
X0343519Y0202531D01*
X0343679Y0202467D01*
X0343837Y0202399D01*
X0343993Y0202328D01*
X0344147Y0202253D01*
X0344300Y0202173D01*
X0344450Y0202091D01*
X0344599Y0202004D01*
X0344745Y0201914D01*
X0344889Y0201820D01*
X0345031Y0201723D01*
X0345170Y0201622D01*
X0345307Y0201518D01*
X0345441Y0201411D01*
X0345572Y0201300D01*
X0345701Y0201187D01*
X0345827Y0201070D01*
X0345950Y0200950D01*
X0346070Y0200827D01*
X0346187Y0200701D01*
X0346300Y0200572D01*
X0346411Y0200441D01*
X0346518Y0200307D01*
X0346622Y0200170D01*
X0346723Y0200031D01*
X0346820Y0199889D01*
X0346914Y0199745D01*
X0347004Y0199599D01*
X0347091Y0199450D01*
X0347173Y0199300D01*
X0347253Y0199147D01*
X0347328Y0198993D01*
X0347399Y0198837D01*
X0347467Y0198679D01*
X0347531Y0198519D01*
X0347591Y0198358D01*
X0347647Y0198196D01*
X0347699Y0198032D01*
X0347746Y0197867D01*
X0347790Y0197701D01*
X0347830Y0197534D01*
X0347865Y0197366D01*
X0347897Y0197197D01*
X0347924Y0197027D01*
X0347947Y0196857D01*
X0347966Y0196686D01*
X0347981Y0196515D01*
X0347992Y0196343D01*
X0347998Y0196172D01*
X0348000Y0196000D01*
X0347998Y0195828D01*
X0347992Y0195657D01*
X0347981Y0195485D01*
X0347966Y0195314D01*
X0347947Y0195143D01*
X0347924Y0194973D01*
X0347897Y0194803D01*
X0347865Y0194634D01*
X0347830Y0194466D01*
X0347790Y0194299D01*
X0347746Y0194133D01*
X0347699Y0193968D01*
X0347647Y0193804D01*
X0347591Y0193642D01*
X0347531Y0193481D01*
X0347467Y0193321D01*
X0347399Y0193163D01*
X0347328Y0193007D01*
X0347253Y0192853D01*
X0347173Y0192700D01*
X0347091Y0192550D01*
X0347004Y0192401D01*
X0346914Y0192255D01*
X0346820Y0192111D01*
X0346723Y0191969D01*
X0346622Y0191830D01*
X0346518Y0191693D01*
X0346411Y0191559D01*
X0346300Y0191428D01*
X0346187Y0191299D01*
X0346070Y0191173D01*
X0345950Y0191050D01*
X0345827Y0190930D01*
X0345701Y0190813D01*
X0345572Y0190700D01*
X0345441Y0190589D01*
X0345307Y0190482D01*
X0345170Y0190378D01*
X0345031Y0190277D01*
X0344889Y0190180D01*
X0344745Y0190086D01*
X0344599Y0189996D01*
X0344450Y0189909D01*
X0344300Y0189827D01*
X0344147Y0189747D01*
X0343993Y0189672D01*
X0343837Y0189601D01*
X0343679Y0189533D01*
X0343519Y0189469D01*
X0343358Y0189409D01*
X0343196Y0189353D01*
X0343032Y0189301D01*
X0342867Y0189254D01*
X0342701Y0189210D01*
X0342534Y0189170D01*
X0342366Y0189135D01*
X0342197Y0189103D01*
X0342027Y0189076D01*
X0341857Y0189053D01*
X0341686Y0189034D01*
X0341515Y0189019D01*
X0341343Y0189008D01*
X0341172Y0189002D01*
X0341000Y0189000D01*
X0340828Y0189002D01*
X0340657Y0189008D01*
X0340485Y0189019D01*
X0340314Y0189034D01*
X0340143Y0189053D01*
X0339973Y0189076D01*
X0339803Y0189103D01*
X0339634Y0189135D01*
X0339466Y0189170D01*
X0339299Y0189210D01*
X0339133Y0189254D01*
X0338968Y0189301D01*
X0338804Y0189353D01*
X0338642Y0189409D01*
X0338481Y0189469D01*
X0338321Y0189533D01*
X0338163Y0189601D01*
X0338007Y0189672D01*
X0337853Y0189747D01*
X0337700Y0189827D01*
X0337550Y0189909D01*
X0337401Y0189996D01*
X0337255Y0190086D01*
X0337111Y0190180D01*
X0336969Y0190277D01*
X0336830Y0190378D01*
X0336693Y0190482D01*
X0336559Y0190589D01*
X0336428Y0190700D01*
X0336299Y0190813D01*
X0336173Y0190930D01*
X0336050Y0191050D01*
X0335930Y0191173D01*
X0335813Y0191299D01*
X0335700Y0191428D01*
X0335589Y0191559D01*
X0335482Y0191693D01*
X0335378Y0191830D01*
X0335277Y0191969D01*
X0335180Y0192111D01*
X0335086Y0192255D01*
X0334996Y0192401D01*
X0334909Y0192550D01*
X0334827Y0192700D01*
X0334747Y0192853D01*
X0334672Y0193007D01*
X0334601Y0193163D01*
X0334533Y0193321D01*
X0334469Y0193481D01*
X0334409Y0193642D01*
X0334353Y0193804D01*
X0334301Y0193968D01*
X0334254Y0194133D01*
X0334210Y0194299D01*
X0334170Y0194466D01*
X0334135Y0194634D01*
X0334103Y0194803D01*
X0334076Y0194973D01*
X0334053Y0195143D01*
X0334034Y0195314D01*
X0334019Y0195485D01*
X0334008Y0195657D01*
X0334002Y0195828D01*
X0334000Y0196000D01*
X0332500Y0168000D02*
X0336000Y0168000D01*
X0346000Y0168000D01*
X0349500Y0168000D01*
X0353000Y0160000D02*
X0353000Y0159000D01*
X0354000Y0159000D01*
X0354000Y0153000D01*
X0353000Y0153000D01*
X0353000Y0152000D01*
X0349500Y0144000D02*
X0345500Y0144000D01*
X0336000Y0144000D01*
X0332500Y0144000D01*
X0329000Y0152000D02*
X0329000Y0153000D01*
X0328000Y0153000D01*
X0328000Y0159000D01*
X0329000Y0159000D01*
X0329000Y0160000D01*
X0340000Y0156000D02*
X0340002Y0156063D01*
X0340008Y0156125D01*
X0340018Y0156187D01*
X0340031Y0156249D01*
X0340049Y0156309D01*
X0340070Y0156368D01*
X0340095Y0156426D01*
X0340124Y0156482D01*
X0340156Y0156536D01*
X0340191Y0156588D01*
X0340229Y0156637D01*
X0340271Y0156685D01*
X0340315Y0156729D01*
X0340363Y0156771D01*
X0340412Y0156809D01*
X0340464Y0156844D01*
X0340518Y0156876D01*
X0340574Y0156905D01*
X0340632Y0156930D01*
X0340691Y0156951D01*
X0340751Y0156969D01*
X0340813Y0156982D01*
X0340875Y0156992D01*
X0340937Y0156998D01*
X0341000Y0157000D01*
X0341063Y0156998D01*
X0341125Y0156992D01*
X0341187Y0156982D01*
X0341249Y0156969D01*
X0341309Y0156951D01*
X0341368Y0156930D01*
X0341426Y0156905D01*
X0341482Y0156876D01*
X0341536Y0156844D01*
X0341588Y0156809D01*
X0341637Y0156771D01*
X0341685Y0156729D01*
X0341729Y0156685D01*
X0341771Y0156637D01*
X0341809Y0156588D01*
X0341844Y0156536D01*
X0341876Y0156482D01*
X0341905Y0156426D01*
X0341930Y0156368D01*
X0341951Y0156309D01*
X0341969Y0156249D01*
X0341982Y0156187D01*
X0341992Y0156125D01*
X0341998Y0156063D01*
X0342000Y0156000D01*
X0341998Y0155937D01*
X0341992Y0155875D01*
X0341982Y0155813D01*
X0341969Y0155751D01*
X0341951Y0155691D01*
X0341930Y0155632D01*
X0341905Y0155574D01*
X0341876Y0155518D01*
X0341844Y0155464D01*
X0341809Y0155412D01*
X0341771Y0155363D01*
X0341729Y0155315D01*
X0341685Y0155271D01*
X0341637Y0155229D01*
X0341588Y0155191D01*
X0341536Y0155156D01*
X0341482Y0155124D01*
X0341426Y0155095D01*
X0341368Y0155070D01*
X0341309Y0155049D01*
X0341249Y0155031D01*
X0341187Y0155018D01*
X0341125Y0155008D01*
X0341063Y0155002D01*
X0341000Y0155000D01*
X0340937Y0155002D01*
X0340875Y0155008D01*
X0340813Y0155018D01*
X0340751Y0155031D01*
X0340691Y0155049D01*
X0340632Y0155070D01*
X0340574Y0155095D01*
X0340518Y0155124D01*
X0340464Y0155156D01*
X0340412Y0155191D01*
X0340363Y0155229D01*
X0340315Y0155271D01*
X0340271Y0155315D01*
X0340229Y0155363D01*
X0340191Y0155412D01*
X0340156Y0155464D01*
X0340124Y0155518D01*
X0340095Y0155574D01*
X0340070Y0155632D01*
X0340049Y0155691D01*
X0340031Y0155751D01*
X0340018Y0155813D01*
X0340008Y0155875D01*
X0340002Y0155937D01*
X0340000Y0156000D01*
X0334000Y0156000D02*
X0334002Y0156172D01*
X0334008Y0156343D01*
X0334019Y0156515D01*
X0334034Y0156686D01*
X0334053Y0156857D01*
X0334076Y0157027D01*
X0334103Y0157197D01*
X0334135Y0157366D01*
X0334170Y0157534D01*
X0334210Y0157701D01*
X0334254Y0157867D01*
X0334301Y0158032D01*
X0334353Y0158196D01*
X0334409Y0158358D01*
X0334469Y0158519D01*
X0334533Y0158679D01*
X0334601Y0158837D01*
X0334672Y0158993D01*
X0334747Y0159147D01*
X0334827Y0159300D01*
X0334909Y0159450D01*
X0334996Y0159599D01*
X0335086Y0159745D01*
X0335180Y0159889D01*
X0335277Y0160031D01*
X0335378Y0160170D01*
X0335482Y0160307D01*
X0335589Y0160441D01*
X0335700Y0160572D01*
X0335813Y0160701D01*
X0335930Y0160827D01*
X0336050Y0160950D01*
X0336173Y0161070D01*
X0336299Y0161187D01*
X0336428Y0161300D01*
X0336559Y0161411D01*
X0336693Y0161518D01*
X0336830Y0161622D01*
X0336969Y0161723D01*
X0337111Y0161820D01*
X0337255Y0161914D01*
X0337401Y0162004D01*
X0337550Y0162091D01*
X0337700Y0162173D01*
X0337853Y0162253D01*
X0338007Y0162328D01*
X0338163Y0162399D01*
X0338321Y0162467D01*
X0338481Y0162531D01*
X0338642Y0162591D01*
X0338804Y0162647D01*
X0338968Y0162699D01*
X0339133Y0162746D01*
X0339299Y0162790D01*
X0339466Y0162830D01*
X0339634Y0162865D01*
X0339803Y0162897D01*
X0339973Y0162924D01*
X0340143Y0162947D01*
X0340314Y0162966D01*
X0340485Y0162981D01*
X0340657Y0162992D01*
X0340828Y0162998D01*
X0341000Y0163000D01*
X0341172Y0162998D01*
X0341343Y0162992D01*
X0341515Y0162981D01*
X0341686Y0162966D01*
X0341857Y0162947D01*
X0342027Y0162924D01*
X0342197Y0162897D01*
X0342366Y0162865D01*
X0342534Y0162830D01*
X0342701Y0162790D01*
X0342867Y0162746D01*
X0343032Y0162699D01*
X0343196Y0162647D01*
X0343358Y0162591D01*
X0343519Y0162531D01*
X0343679Y0162467D01*
X0343837Y0162399D01*
X0343993Y0162328D01*
X0344147Y0162253D01*
X0344300Y0162173D01*
X0344450Y0162091D01*
X0344599Y0162004D01*
X0344745Y0161914D01*
X0344889Y0161820D01*
X0345031Y0161723D01*
X0345170Y0161622D01*
X0345307Y0161518D01*
X0345441Y0161411D01*
X0345572Y0161300D01*
X0345701Y0161187D01*
X0345827Y0161070D01*
X0345950Y0160950D01*
X0346070Y0160827D01*
X0346187Y0160701D01*
X0346300Y0160572D01*
X0346411Y0160441D01*
X0346518Y0160307D01*
X0346622Y0160170D01*
X0346723Y0160031D01*
X0346820Y0159889D01*
X0346914Y0159745D01*
X0347004Y0159599D01*
X0347091Y0159450D01*
X0347173Y0159300D01*
X0347253Y0159147D01*
X0347328Y0158993D01*
X0347399Y0158837D01*
X0347467Y0158679D01*
X0347531Y0158519D01*
X0347591Y0158358D01*
X0347647Y0158196D01*
X0347699Y0158032D01*
X0347746Y0157867D01*
X0347790Y0157701D01*
X0347830Y0157534D01*
X0347865Y0157366D01*
X0347897Y0157197D01*
X0347924Y0157027D01*
X0347947Y0156857D01*
X0347966Y0156686D01*
X0347981Y0156515D01*
X0347992Y0156343D01*
X0347998Y0156172D01*
X0348000Y0156000D01*
X0347998Y0155828D01*
X0347992Y0155657D01*
X0347981Y0155485D01*
X0347966Y0155314D01*
X0347947Y0155143D01*
X0347924Y0154973D01*
X0347897Y0154803D01*
X0347865Y0154634D01*
X0347830Y0154466D01*
X0347790Y0154299D01*
X0347746Y0154133D01*
X0347699Y0153968D01*
X0347647Y0153804D01*
X0347591Y0153642D01*
X0347531Y0153481D01*
X0347467Y0153321D01*
X0347399Y0153163D01*
X0347328Y0153007D01*
X0347253Y0152853D01*
X0347173Y0152700D01*
X0347091Y0152550D01*
X0347004Y0152401D01*
X0346914Y0152255D01*
X0346820Y0152111D01*
X0346723Y0151969D01*
X0346622Y0151830D01*
X0346518Y0151693D01*
X0346411Y0151559D01*
X0346300Y0151428D01*
X0346187Y0151299D01*
X0346070Y0151173D01*
X0345950Y0151050D01*
X0345827Y0150930D01*
X0345701Y0150813D01*
X0345572Y0150700D01*
X0345441Y0150589D01*
X0345307Y0150482D01*
X0345170Y0150378D01*
X0345031Y0150277D01*
X0344889Y0150180D01*
X0344745Y0150086D01*
X0344599Y0149996D01*
X0344450Y0149909D01*
X0344300Y0149827D01*
X0344147Y0149747D01*
X0343993Y0149672D01*
X0343837Y0149601D01*
X0343679Y0149533D01*
X0343519Y0149469D01*
X0343358Y0149409D01*
X0343196Y0149353D01*
X0343032Y0149301D01*
X0342867Y0149254D01*
X0342701Y0149210D01*
X0342534Y0149170D01*
X0342366Y0149135D01*
X0342197Y0149103D01*
X0342027Y0149076D01*
X0341857Y0149053D01*
X0341686Y0149034D01*
X0341515Y0149019D01*
X0341343Y0149008D01*
X0341172Y0149002D01*
X0341000Y0149000D01*
X0340828Y0149002D01*
X0340657Y0149008D01*
X0340485Y0149019D01*
X0340314Y0149034D01*
X0340143Y0149053D01*
X0339973Y0149076D01*
X0339803Y0149103D01*
X0339634Y0149135D01*
X0339466Y0149170D01*
X0339299Y0149210D01*
X0339133Y0149254D01*
X0338968Y0149301D01*
X0338804Y0149353D01*
X0338642Y0149409D01*
X0338481Y0149469D01*
X0338321Y0149533D01*
X0338163Y0149601D01*
X0338007Y0149672D01*
X0337853Y0149747D01*
X0337700Y0149827D01*
X0337550Y0149909D01*
X0337401Y0149996D01*
X0337255Y0150086D01*
X0337111Y0150180D01*
X0336969Y0150277D01*
X0336830Y0150378D01*
X0336693Y0150482D01*
X0336559Y0150589D01*
X0336428Y0150700D01*
X0336299Y0150813D01*
X0336173Y0150930D01*
X0336050Y0151050D01*
X0335930Y0151173D01*
X0335813Y0151299D01*
X0335700Y0151428D01*
X0335589Y0151559D01*
X0335482Y0151693D01*
X0335378Y0151830D01*
X0335277Y0151969D01*
X0335180Y0152111D01*
X0335086Y0152255D01*
X0334996Y0152401D01*
X0334909Y0152550D01*
X0334827Y0152700D01*
X0334747Y0152853D01*
X0334672Y0153007D01*
X0334601Y0153163D01*
X0334533Y0153321D01*
X0334469Y0153481D01*
X0334409Y0153642D01*
X0334353Y0153804D01*
X0334301Y0153968D01*
X0334254Y0154133D01*
X0334210Y0154299D01*
X0334170Y0154466D01*
X0334135Y0154634D01*
X0334103Y0154803D01*
X0334076Y0154973D01*
X0334053Y0155143D01*
X0334034Y0155314D01*
X0334019Y0155485D01*
X0334008Y0155657D01*
X0334002Y0155828D01*
X0334000Y0156000D01*
X0332500Y0128000D02*
X0336000Y0128000D01*
X0346000Y0128000D01*
X0349500Y0128000D01*
X0353000Y0120000D02*
X0353000Y0119000D01*
X0354000Y0119000D01*
X0354000Y0113000D01*
X0353000Y0113000D01*
X0353000Y0112000D01*
X0349500Y0104000D02*
X0345500Y0104000D01*
X0336000Y0104000D01*
X0332500Y0104000D01*
X0329000Y0112000D02*
X0329000Y0113000D01*
X0328000Y0113000D01*
X0328000Y0119000D01*
X0329000Y0119000D01*
X0329000Y0120000D01*
X0340000Y0116000D02*
X0340002Y0116063D01*
X0340008Y0116125D01*
X0340018Y0116187D01*
X0340031Y0116249D01*
X0340049Y0116309D01*
X0340070Y0116368D01*
X0340095Y0116426D01*
X0340124Y0116482D01*
X0340156Y0116536D01*
X0340191Y0116588D01*
X0340229Y0116637D01*
X0340271Y0116685D01*
X0340315Y0116729D01*
X0340363Y0116771D01*
X0340412Y0116809D01*
X0340464Y0116844D01*
X0340518Y0116876D01*
X0340574Y0116905D01*
X0340632Y0116930D01*
X0340691Y0116951D01*
X0340751Y0116969D01*
X0340813Y0116982D01*
X0340875Y0116992D01*
X0340937Y0116998D01*
X0341000Y0117000D01*
X0341063Y0116998D01*
X0341125Y0116992D01*
X0341187Y0116982D01*
X0341249Y0116969D01*
X0341309Y0116951D01*
X0341368Y0116930D01*
X0341426Y0116905D01*
X0341482Y0116876D01*
X0341536Y0116844D01*
X0341588Y0116809D01*
X0341637Y0116771D01*
X0341685Y0116729D01*
X0341729Y0116685D01*
X0341771Y0116637D01*
X0341809Y0116588D01*
X0341844Y0116536D01*
X0341876Y0116482D01*
X0341905Y0116426D01*
X0341930Y0116368D01*
X0341951Y0116309D01*
X0341969Y0116249D01*
X0341982Y0116187D01*
X0341992Y0116125D01*
X0341998Y0116063D01*
X0342000Y0116000D01*
X0341998Y0115937D01*
X0341992Y0115875D01*
X0341982Y0115813D01*
X0341969Y0115751D01*
X0341951Y0115691D01*
X0341930Y0115632D01*
X0341905Y0115574D01*
X0341876Y0115518D01*
X0341844Y0115464D01*
X0341809Y0115412D01*
X0341771Y0115363D01*
X0341729Y0115315D01*
X0341685Y0115271D01*
X0341637Y0115229D01*
X0341588Y0115191D01*
X0341536Y0115156D01*
X0341482Y0115124D01*
X0341426Y0115095D01*
X0341368Y0115070D01*
X0341309Y0115049D01*
X0341249Y0115031D01*
X0341187Y0115018D01*
X0341125Y0115008D01*
X0341063Y0115002D01*
X0341000Y0115000D01*
X0340937Y0115002D01*
X0340875Y0115008D01*
X0340813Y0115018D01*
X0340751Y0115031D01*
X0340691Y0115049D01*
X0340632Y0115070D01*
X0340574Y0115095D01*
X0340518Y0115124D01*
X0340464Y0115156D01*
X0340412Y0115191D01*
X0340363Y0115229D01*
X0340315Y0115271D01*
X0340271Y0115315D01*
X0340229Y0115363D01*
X0340191Y0115412D01*
X0340156Y0115464D01*
X0340124Y0115518D01*
X0340095Y0115574D01*
X0340070Y0115632D01*
X0340049Y0115691D01*
X0340031Y0115751D01*
X0340018Y0115813D01*
X0340008Y0115875D01*
X0340002Y0115937D01*
X0340000Y0116000D01*
X0334000Y0116000D02*
X0334002Y0116172D01*
X0334008Y0116343D01*
X0334019Y0116515D01*
X0334034Y0116686D01*
X0334053Y0116857D01*
X0334076Y0117027D01*
X0334103Y0117197D01*
X0334135Y0117366D01*
X0334170Y0117534D01*
X0334210Y0117701D01*
X0334254Y0117867D01*
X0334301Y0118032D01*
X0334353Y0118196D01*
X0334409Y0118358D01*
X0334469Y0118519D01*
X0334533Y0118679D01*
X0334601Y0118837D01*
X0334672Y0118993D01*
X0334747Y0119147D01*
X0334827Y0119300D01*
X0334909Y0119450D01*
X0334996Y0119599D01*
X0335086Y0119745D01*
X0335180Y0119889D01*
X0335277Y0120031D01*
X0335378Y0120170D01*
X0335482Y0120307D01*
X0335589Y0120441D01*
X0335700Y0120572D01*
X0335813Y0120701D01*
X0335930Y0120827D01*
X0336050Y0120950D01*
X0336173Y0121070D01*
X0336299Y0121187D01*
X0336428Y0121300D01*
X0336559Y0121411D01*
X0336693Y0121518D01*
X0336830Y0121622D01*
X0336969Y0121723D01*
X0337111Y0121820D01*
X0337255Y0121914D01*
X0337401Y0122004D01*
X0337550Y0122091D01*
X0337700Y0122173D01*
X0337853Y0122253D01*
X0338007Y0122328D01*
X0338163Y0122399D01*
X0338321Y0122467D01*
X0338481Y0122531D01*
X0338642Y0122591D01*
X0338804Y0122647D01*
X0338968Y0122699D01*
X0339133Y0122746D01*
X0339299Y0122790D01*
X0339466Y0122830D01*
X0339634Y0122865D01*
X0339803Y0122897D01*
X0339973Y0122924D01*
X0340143Y0122947D01*
X0340314Y0122966D01*
X0340485Y0122981D01*
X0340657Y0122992D01*
X0340828Y0122998D01*
X0341000Y0123000D01*
X0341172Y0122998D01*
X0341343Y0122992D01*
X0341515Y0122981D01*
X0341686Y0122966D01*
X0341857Y0122947D01*
X0342027Y0122924D01*
X0342197Y0122897D01*
X0342366Y0122865D01*
X0342534Y0122830D01*
X0342701Y0122790D01*
X0342867Y0122746D01*
X0343032Y0122699D01*
X0343196Y0122647D01*
X0343358Y0122591D01*
X0343519Y0122531D01*
X0343679Y0122467D01*
X0343837Y0122399D01*
X0343993Y0122328D01*
X0344147Y0122253D01*
X0344300Y0122173D01*
X0344450Y0122091D01*
X0344599Y0122004D01*
X0344745Y0121914D01*
X0344889Y0121820D01*
X0345031Y0121723D01*
X0345170Y0121622D01*
X0345307Y0121518D01*
X0345441Y0121411D01*
X0345572Y0121300D01*
X0345701Y0121187D01*
X0345827Y0121070D01*
X0345950Y0120950D01*
X0346070Y0120827D01*
X0346187Y0120701D01*
X0346300Y0120572D01*
X0346411Y0120441D01*
X0346518Y0120307D01*
X0346622Y0120170D01*
X0346723Y0120031D01*
X0346820Y0119889D01*
X0346914Y0119745D01*
X0347004Y0119599D01*
X0347091Y0119450D01*
X0347173Y0119300D01*
X0347253Y0119147D01*
X0347328Y0118993D01*
X0347399Y0118837D01*
X0347467Y0118679D01*
X0347531Y0118519D01*
X0347591Y0118358D01*
X0347647Y0118196D01*
X0347699Y0118032D01*
X0347746Y0117867D01*
X0347790Y0117701D01*
X0347830Y0117534D01*
X0347865Y0117366D01*
X0347897Y0117197D01*
X0347924Y0117027D01*
X0347947Y0116857D01*
X0347966Y0116686D01*
X0347981Y0116515D01*
X0347992Y0116343D01*
X0347998Y0116172D01*
X0348000Y0116000D01*
X0347998Y0115828D01*
X0347992Y0115657D01*
X0347981Y0115485D01*
X0347966Y0115314D01*
X0347947Y0115143D01*
X0347924Y0114973D01*
X0347897Y0114803D01*
X0347865Y0114634D01*
X0347830Y0114466D01*
X0347790Y0114299D01*
X0347746Y0114133D01*
X0347699Y0113968D01*
X0347647Y0113804D01*
X0347591Y0113642D01*
X0347531Y0113481D01*
X0347467Y0113321D01*
X0347399Y0113163D01*
X0347328Y0113007D01*
X0347253Y0112853D01*
X0347173Y0112700D01*
X0347091Y0112550D01*
X0347004Y0112401D01*
X0346914Y0112255D01*
X0346820Y0112111D01*
X0346723Y0111969D01*
X0346622Y0111830D01*
X0346518Y0111693D01*
X0346411Y0111559D01*
X0346300Y0111428D01*
X0346187Y0111299D01*
X0346070Y0111173D01*
X0345950Y0111050D01*
X0345827Y0110930D01*
X0345701Y0110813D01*
X0345572Y0110700D01*
X0345441Y0110589D01*
X0345307Y0110482D01*
X0345170Y0110378D01*
X0345031Y0110277D01*
X0344889Y0110180D01*
X0344745Y0110086D01*
X0344599Y0109996D01*
X0344450Y0109909D01*
X0344300Y0109827D01*
X0344147Y0109747D01*
X0343993Y0109672D01*
X0343837Y0109601D01*
X0343679Y0109533D01*
X0343519Y0109469D01*
X0343358Y0109409D01*
X0343196Y0109353D01*
X0343032Y0109301D01*
X0342867Y0109254D01*
X0342701Y0109210D01*
X0342534Y0109170D01*
X0342366Y0109135D01*
X0342197Y0109103D01*
X0342027Y0109076D01*
X0341857Y0109053D01*
X0341686Y0109034D01*
X0341515Y0109019D01*
X0341343Y0109008D01*
X0341172Y0109002D01*
X0341000Y0109000D01*
X0340828Y0109002D01*
X0340657Y0109008D01*
X0340485Y0109019D01*
X0340314Y0109034D01*
X0340143Y0109053D01*
X0339973Y0109076D01*
X0339803Y0109103D01*
X0339634Y0109135D01*
X0339466Y0109170D01*
X0339299Y0109210D01*
X0339133Y0109254D01*
X0338968Y0109301D01*
X0338804Y0109353D01*
X0338642Y0109409D01*
X0338481Y0109469D01*
X0338321Y0109533D01*
X0338163Y0109601D01*
X0338007Y0109672D01*
X0337853Y0109747D01*
X0337700Y0109827D01*
X0337550Y0109909D01*
X0337401Y0109996D01*
X0337255Y0110086D01*
X0337111Y0110180D01*
X0336969Y0110277D01*
X0336830Y0110378D01*
X0336693Y0110482D01*
X0336559Y0110589D01*
X0336428Y0110700D01*
X0336299Y0110813D01*
X0336173Y0110930D01*
X0336050Y0111050D01*
X0335930Y0111173D01*
X0335813Y0111299D01*
X0335700Y0111428D01*
X0335589Y0111559D01*
X0335482Y0111693D01*
X0335378Y0111830D01*
X0335277Y0111969D01*
X0335180Y0112111D01*
X0335086Y0112255D01*
X0334996Y0112401D01*
X0334909Y0112550D01*
X0334827Y0112700D01*
X0334747Y0112853D01*
X0334672Y0113007D01*
X0334601Y0113163D01*
X0334533Y0113321D01*
X0334469Y0113481D01*
X0334409Y0113642D01*
X0334353Y0113804D01*
X0334301Y0113968D01*
X0334254Y0114133D01*
X0334210Y0114299D01*
X0334170Y0114466D01*
X0334135Y0114634D01*
X0334103Y0114803D01*
X0334076Y0114973D01*
X0334053Y0115143D01*
X0334034Y0115314D01*
X0334019Y0115485D01*
X0334008Y0115657D01*
X0334002Y0115828D01*
X0334000Y0116000D01*
X0332500Y0093000D02*
X0336000Y0093000D01*
X0346000Y0093000D01*
X0349500Y0093000D01*
X0353000Y0085000D02*
X0353000Y0084000D01*
X0354000Y0084000D01*
X0354000Y0078000D01*
X0353000Y0078000D01*
X0353000Y0077000D01*
X0349500Y0069000D02*
X0345500Y0069000D01*
X0336000Y0069000D01*
X0332500Y0069000D01*
X0329000Y0077000D02*
X0329000Y0078000D01*
X0328000Y0078000D01*
X0328000Y0084000D01*
X0329000Y0084000D01*
X0329000Y0085000D01*
X0340000Y0081000D02*
X0340002Y0081063D01*
X0340008Y0081125D01*
X0340018Y0081187D01*
X0340031Y0081249D01*
X0340049Y0081309D01*
X0340070Y0081368D01*
X0340095Y0081426D01*
X0340124Y0081482D01*
X0340156Y0081536D01*
X0340191Y0081588D01*
X0340229Y0081637D01*
X0340271Y0081685D01*
X0340315Y0081729D01*
X0340363Y0081771D01*
X0340412Y0081809D01*
X0340464Y0081844D01*
X0340518Y0081876D01*
X0340574Y0081905D01*
X0340632Y0081930D01*
X0340691Y0081951D01*
X0340751Y0081969D01*
X0340813Y0081982D01*
X0340875Y0081992D01*
X0340937Y0081998D01*
X0341000Y0082000D01*
X0341063Y0081998D01*
X0341125Y0081992D01*
X0341187Y0081982D01*
X0341249Y0081969D01*
X0341309Y0081951D01*
X0341368Y0081930D01*
X0341426Y0081905D01*
X0341482Y0081876D01*
X0341536Y0081844D01*
X0341588Y0081809D01*
X0341637Y0081771D01*
X0341685Y0081729D01*
X0341729Y0081685D01*
X0341771Y0081637D01*
X0341809Y0081588D01*
X0341844Y0081536D01*
X0341876Y0081482D01*
X0341905Y0081426D01*
X0341930Y0081368D01*
X0341951Y0081309D01*
X0341969Y0081249D01*
X0341982Y0081187D01*
X0341992Y0081125D01*
X0341998Y0081063D01*
X0342000Y0081000D01*
X0341998Y0080937D01*
X0341992Y0080875D01*
X0341982Y0080813D01*
X0341969Y0080751D01*
X0341951Y0080691D01*
X0341930Y0080632D01*
X0341905Y0080574D01*
X0341876Y0080518D01*
X0341844Y0080464D01*
X0341809Y0080412D01*
X0341771Y0080363D01*
X0341729Y0080315D01*
X0341685Y0080271D01*
X0341637Y0080229D01*
X0341588Y0080191D01*
X0341536Y0080156D01*
X0341482Y0080124D01*
X0341426Y0080095D01*
X0341368Y0080070D01*
X0341309Y0080049D01*
X0341249Y0080031D01*
X0341187Y0080018D01*
X0341125Y0080008D01*
X0341063Y0080002D01*
X0341000Y0080000D01*
X0340937Y0080002D01*
X0340875Y0080008D01*
X0340813Y0080018D01*
X0340751Y0080031D01*
X0340691Y0080049D01*
X0340632Y0080070D01*
X0340574Y0080095D01*
X0340518Y0080124D01*
X0340464Y0080156D01*
X0340412Y0080191D01*
X0340363Y0080229D01*
X0340315Y0080271D01*
X0340271Y0080315D01*
X0340229Y0080363D01*
X0340191Y0080412D01*
X0340156Y0080464D01*
X0340124Y0080518D01*
X0340095Y0080574D01*
X0340070Y0080632D01*
X0340049Y0080691D01*
X0340031Y0080751D01*
X0340018Y0080813D01*
X0340008Y0080875D01*
X0340002Y0080937D01*
X0340000Y0081000D01*
X0334000Y0081000D02*
X0334002Y0081172D01*
X0334008Y0081343D01*
X0334019Y0081515D01*
X0334034Y0081686D01*
X0334053Y0081857D01*
X0334076Y0082027D01*
X0334103Y0082197D01*
X0334135Y0082366D01*
X0334170Y0082534D01*
X0334210Y0082701D01*
X0334254Y0082867D01*
X0334301Y0083032D01*
X0334353Y0083196D01*
X0334409Y0083358D01*
X0334469Y0083519D01*
X0334533Y0083679D01*
X0334601Y0083837D01*
X0334672Y0083993D01*
X0334747Y0084147D01*
X0334827Y0084300D01*
X0334909Y0084450D01*
X0334996Y0084599D01*
X0335086Y0084745D01*
X0335180Y0084889D01*
X0335277Y0085031D01*
X0335378Y0085170D01*
X0335482Y0085307D01*
X0335589Y0085441D01*
X0335700Y0085572D01*
X0335813Y0085701D01*
X0335930Y0085827D01*
X0336050Y0085950D01*
X0336173Y0086070D01*
X0336299Y0086187D01*
X0336428Y0086300D01*
X0336559Y0086411D01*
X0336693Y0086518D01*
X0336830Y0086622D01*
X0336969Y0086723D01*
X0337111Y0086820D01*
X0337255Y0086914D01*
X0337401Y0087004D01*
X0337550Y0087091D01*
X0337700Y0087173D01*
X0337853Y0087253D01*
X0338007Y0087328D01*
X0338163Y0087399D01*
X0338321Y0087467D01*
X0338481Y0087531D01*
X0338642Y0087591D01*
X0338804Y0087647D01*
X0338968Y0087699D01*
X0339133Y0087746D01*
X0339299Y0087790D01*
X0339466Y0087830D01*
X0339634Y0087865D01*
X0339803Y0087897D01*
X0339973Y0087924D01*
X0340143Y0087947D01*
X0340314Y0087966D01*
X0340485Y0087981D01*
X0340657Y0087992D01*
X0340828Y0087998D01*
X0341000Y0088000D01*
X0341172Y0087998D01*
X0341343Y0087992D01*
X0341515Y0087981D01*
X0341686Y0087966D01*
X0341857Y0087947D01*
X0342027Y0087924D01*
X0342197Y0087897D01*
X0342366Y0087865D01*
X0342534Y0087830D01*
X0342701Y0087790D01*
X0342867Y0087746D01*
X0343032Y0087699D01*
X0343196Y0087647D01*
X0343358Y0087591D01*
X0343519Y0087531D01*
X0343679Y0087467D01*
X0343837Y0087399D01*
X0343993Y0087328D01*
X0344147Y0087253D01*
X0344300Y0087173D01*
X0344450Y0087091D01*
X0344599Y0087004D01*
X0344745Y0086914D01*
X0344889Y0086820D01*
X0345031Y0086723D01*
X0345170Y0086622D01*
X0345307Y0086518D01*
X0345441Y0086411D01*
X0345572Y0086300D01*
X0345701Y0086187D01*
X0345827Y0086070D01*
X0345950Y0085950D01*
X0346070Y0085827D01*
X0346187Y0085701D01*
X0346300Y0085572D01*
X0346411Y0085441D01*
X0346518Y0085307D01*
X0346622Y0085170D01*
X0346723Y0085031D01*
X0346820Y0084889D01*
X0346914Y0084745D01*
X0347004Y0084599D01*
X0347091Y0084450D01*
X0347173Y0084300D01*
X0347253Y0084147D01*
X0347328Y0083993D01*
X0347399Y0083837D01*
X0347467Y0083679D01*
X0347531Y0083519D01*
X0347591Y0083358D01*
X0347647Y0083196D01*
X0347699Y0083032D01*
X0347746Y0082867D01*
X0347790Y0082701D01*
X0347830Y0082534D01*
X0347865Y0082366D01*
X0347897Y0082197D01*
X0347924Y0082027D01*
X0347947Y0081857D01*
X0347966Y0081686D01*
X0347981Y0081515D01*
X0347992Y0081343D01*
X0347998Y0081172D01*
X0348000Y0081000D01*
X0347998Y0080828D01*
X0347992Y0080657D01*
X0347981Y0080485D01*
X0347966Y0080314D01*
X0347947Y0080143D01*
X0347924Y0079973D01*
X0347897Y0079803D01*
X0347865Y0079634D01*
X0347830Y0079466D01*
X0347790Y0079299D01*
X0347746Y0079133D01*
X0347699Y0078968D01*
X0347647Y0078804D01*
X0347591Y0078642D01*
X0347531Y0078481D01*
X0347467Y0078321D01*
X0347399Y0078163D01*
X0347328Y0078007D01*
X0347253Y0077853D01*
X0347173Y0077700D01*
X0347091Y0077550D01*
X0347004Y0077401D01*
X0346914Y0077255D01*
X0346820Y0077111D01*
X0346723Y0076969D01*
X0346622Y0076830D01*
X0346518Y0076693D01*
X0346411Y0076559D01*
X0346300Y0076428D01*
X0346187Y0076299D01*
X0346070Y0076173D01*
X0345950Y0076050D01*
X0345827Y0075930D01*
X0345701Y0075813D01*
X0345572Y0075700D01*
X0345441Y0075589D01*
X0345307Y0075482D01*
X0345170Y0075378D01*
X0345031Y0075277D01*
X0344889Y0075180D01*
X0344745Y0075086D01*
X0344599Y0074996D01*
X0344450Y0074909D01*
X0344300Y0074827D01*
X0344147Y0074747D01*
X0343993Y0074672D01*
X0343837Y0074601D01*
X0343679Y0074533D01*
X0343519Y0074469D01*
X0343358Y0074409D01*
X0343196Y0074353D01*
X0343032Y0074301D01*
X0342867Y0074254D01*
X0342701Y0074210D01*
X0342534Y0074170D01*
X0342366Y0074135D01*
X0342197Y0074103D01*
X0342027Y0074076D01*
X0341857Y0074053D01*
X0341686Y0074034D01*
X0341515Y0074019D01*
X0341343Y0074008D01*
X0341172Y0074002D01*
X0341000Y0074000D01*
X0340828Y0074002D01*
X0340657Y0074008D01*
X0340485Y0074019D01*
X0340314Y0074034D01*
X0340143Y0074053D01*
X0339973Y0074076D01*
X0339803Y0074103D01*
X0339634Y0074135D01*
X0339466Y0074170D01*
X0339299Y0074210D01*
X0339133Y0074254D01*
X0338968Y0074301D01*
X0338804Y0074353D01*
X0338642Y0074409D01*
X0338481Y0074469D01*
X0338321Y0074533D01*
X0338163Y0074601D01*
X0338007Y0074672D01*
X0337853Y0074747D01*
X0337700Y0074827D01*
X0337550Y0074909D01*
X0337401Y0074996D01*
X0337255Y0075086D01*
X0337111Y0075180D01*
X0336969Y0075277D01*
X0336830Y0075378D01*
X0336693Y0075482D01*
X0336559Y0075589D01*
X0336428Y0075700D01*
X0336299Y0075813D01*
X0336173Y0075930D01*
X0336050Y0076050D01*
X0335930Y0076173D01*
X0335813Y0076299D01*
X0335700Y0076428D01*
X0335589Y0076559D01*
X0335482Y0076693D01*
X0335378Y0076830D01*
X0335277Y0076969D01*
X0335180Y0077111D01*
X0335086Y0077255D01*
X0334996Y0077401D01*
X0334909Y0077550D01*
X0334827Y0077700D01*
X0334747Y0077853D01*
X0334672Y0078007D01*
X0334601Y0078163D01*
X0334533Y0078321D01*
X0334469Y0078481D01*
X0334409Y0078642D01*
X0334353Y0078804D01*
X0334301Y0078968D01*
X0334254Y0079133D01*
X0334210Y0079299D01*
X0334170Y0079466D01*
X0334135Y0079634D01*
X0334103Y0079803D01*
X0334076Y0079973D01*
X0334053Y0080143D01*
X0334034Y0080314D01*
X0334019Y0080485D01*
X0334008Y0080657D01*
X0334002Y0080828D01*
X0334000Y0081000D01*
X0189500Y0234000D02*
X0186000Y0234000D01*
X0176000Y0234000D01*
X0172500Y0234000D01*
X0169000Y0242000D02*
X0169000Y0243000D01*
X0168000Y0243000D01*
X0168000Y0249000D01*
X0169000Y0249000D01*
X0169000Y0250000D01*
X0172500Y0258000D02*
X0176500Y0258000D01*
X0186000Y0258000D01*
X0189500Y0258000D01*
X0193000Y0250000D02*
X0193000Y0249000D01*
X0194000Y0249000D01*
X0194000Y0243000D01*
X0193000Y0243000D01*
X0193000Y0242000D01*
X0180000Y0246000D02*
X0180002Y0246063D01*
X0180008Y0246125D01*
X0180018Y0246187D01*
X0180031Y0246249D01*
X0180049Y0246309D01*
X0180070Y0246368D01*
X0180095Y0246426D01*
X0180124Y0246482D01*
X0180156Y0246536D01*
X0180191Y0246588D01*
X0180229Y0246637D01*
X0180271Y0246685D01*
X0180315Y0246729D01*
X0180363Y0246771D01*
X0180412Y0246809D01*
X0180464Y0246844D01*
X0180518Y0246876D01*
X0180574Y0246905D01*
X0180632Y0246930D01*
X0180691Y0246951D01*
X0180751Y0246969D01*
X0180813Y0246982D01*
X0180875Y0246992D01*
X0180937Y0246998D01*
X0181000Y0247000D01*
X0181063Y0246998D01*
X0181125Y0246992D01*
X0181187Y0246982D01*
X0181249Y0246969D01*
X0181309Y0246951D01*
X0181368Y0246930D01*
X0181426Y0246905D01*
X0181482Y0246876D01*
X0181536Y0246844D01*
X0181588Y0246809D01*
X0181637Y0246771D01*
X0181685Y0246729D01*
X0181729Y0246685D01*
X0181771Y0246637D01*
X0181809Y0246588D01*
X0181844Y0246536D01*
X0181876Y0246482D01*
X0181905Y0246426D01*
X0181930Y0246368D01*
X0181951Y0246309D01*
X0181969Y0246249D01*
X0181982Y0246187D01*
X0181992Y0246125D01*
X0181998Y0246063D01*
X0182000Y0246000D01*
X0181998Y0245937D01*
X0181992Y0245875D01*
X0181982Y0245813D01*
X0181969Y0245751D01*
X0181951Y0245691D01*
X0181930Y0245632D01*
X0181905Y0245574D01*
X0181876Y0245518D01*
X0181844Y0245464D01*
X0181809Y0245412D01*
X0181771Y0245363D01*
X0181729Y0245315D01*
X0181685Y0245271D01*
X0181637Y0245229D01*
X0181588Y0245191D01*
X0181536Y0245156D01*
X0181482Y0245124D01*
X0181426Y0245095D01*
X0181368Y0245070D01*
X0181309Y0245049D01*
X0181249Y0245031D01*
X0181187Y0245018D01*
X0181125Y0245008D01*
X0181063Y0245002D01*
X0181000Y0245000D01*
X0180937Y0245002D01*
X0180875Y0245008D01*
X0180813Y0245018D01*
X0180751Y0245031D01*
X0180691Y0245049D01*
X0180632Y0245070D01*
X0180574Y0245095D01*
X0180518Y0245124D01*
X0180464Y0245156D01*
X0180412Y0245191D01*
X0180363Y0245229D01*
X0180315Y0245271D01*
X0180271Y0245315D01*
X0180229Y0245363D01*
X0180191Y0245412D01*
X0180156Y0245464D01*
X0180124Y0245518D01*
X0180095Y0245574D01*
X0180070Y0245632D01*
X0180049Y0245691D01*
X0180031Y0245751D01*
X0180018Y0245813D01*
X0180008Y0245875D01*
X0180002Y0245937D01*
X0180000Y0246000D01*
X0174000Y0246000D02*
X0174002Y0246172D01*
X0174008Y0246343D01*
X0174019Y0246515D01*
X0174034Y0246686D01*
X0174053Y0246857D01*
X0174076Y0247027D01*
X0174103Y0247197D01*
X0174135Y0247366D01*
X0174170Y0247534D01*
X0174210Y0247701D01*
X0174254Y0247867D01*
X0174301Y0248032D01*
X0174353Y0248196D01*
X0174409Y0248358D01*
X0174469Y0248519D01*
X0174533Y0248679D01*
X0174601Y0248837D01*
X0174672Y0248993D01*
X0174747Y0249147D01*
X0174827Y0249300D01*
X0174909Y0249450D01*
X0174996Y0249599D01*
X0175086Y0249745D01*
X0175180Y0249889D01*
X0175277Y0250031D01*
X0175378Y0250170D01*
X0175482Y0250307D01*
X0175589Y0250441D01*
X0175700Y0250572D01*
X0175813Y0250701D01*
X0175930Y0250827D01*
X0176050Y0250950D01*
X0176173Y0251070D01*
X0176299Y0251187D01*
X0176428Y0251300D01*
X0176559Y0251411D01*
X0176693Y0251518D01*
X0176830Y0251622D01*
X0176969Y0251723D01*
X0177111Y0251820D01*
X0177255Y0251914D01*
X0177401Y0252004D01*
X0177550Y0252091D01*
X0177700Y0252173D01*
X0177853Y0252253D01*
X0178007Y0252328D01*
X0178163Y0252399D01*
X0178321Y0252467D01*
X0178481Y0252531D01*
X0178642Y0252591D01*
X0178804Y0252647D01*
X0178968Y0252699D01*
X0179133Y0252746D01*
X0179299Y0252790D01*
X0179466Y0252830D01*
X0179634Y0252865D01*
X0179803Y0252897D01*
X0179973Y0252924D01*
X0180143Y0252947D01*
X0180314Y0252966D01*
X0180485Y0252981D01*
X0180657Y0252992D01*
X0180828Y0252998D01*
X0181000Y0253000D01*
X0181172Y0252998D01*
X0181343Y0252992D01*
X0181515Y0252981D01*
X0181686Y0252966D01*
X0181857Y0252947D01*
X0182027Y0252924D01*
X0182197Y0252897D01*
X0182366Y0252865D01*
X0182534Y0252830D01*
X0182701Y0252790D01*
X0182867Y0252746D01*
X0183032Y0252699D01*
X0183196Y0252647D01*
X0183358Y0252591D01*
X0183519Y0252531D01*
X0183679Y0252467D01*
X0183837Y0252399D01*
X0183993Y0252328D01*
X0184147Y0252253D01*
X0184300Y0252173D01*
X0184450Y0252091D01*
X0184599Y0252004D01*
X0184745Y0251914D01*
X0184889Y0251820D01*
X0185031Y0251723D01*
X0185170Y0251622D01*
X0185307Y0251518D01*
X0185441Y0251411D01*
X0185572Y0251300D01*
X0185701Y0251187D01*
X0185827Y0251070D01*
X0185950Y0250950D01*
X0186070Y0250827D01*
X0186187Y0250701D01*
X0186300Y0250572D01*
X0186411Y0250441D01*
X0186518Y0250307D01*
X0186622Y0250170D01*
X0186723Y0250031D01*
X0186820Y0249889D01*
X0186914Y0249745D01*
X0187004Y0249599D01*
X0187091Y0249450D01*
X0187173Y0249300D01*
X0187253Y0249147D01*
X0187328Y0248993D01*
X0187399Y0248837D01*
X0187467Y0248679D01*
X0187531Y0248519D01*
X0187591Y0248358D01*
X0187647Y0248196D01*
X0187699Y0248032D01*
X0187746Y0247867D01*
X0187790Y0247701D01*
X0187830Y0247534D01*
X0187865Y0247366D01*
X0187897Y0247197D01*
X0187924Y0247027D01*
X0187947Y0246857D01*
X0187966Y0246686D01*
X0187981Y0246515D01*
X0187992Y0246343D01*
X0187998Y0246172D01*
X0188000Y0246000D01*
X0187998Y0245828D01*
X0187992Y0245657D01*
X0187981Y0245485D01*
X0187966Y0245314D01*
X0187947Y0245143D01*
X0187924Y0244973D01*
X0187897Y0244803D01*
X0187865Y0244634D01*
X0187830Y0244466D01*
X0187790Y0244299D01*
X0187746Y0244133D01*
X0187699Y0243968D01*
X0187647Y0243804D01*
X0187591Y0243642D01*
X0187531Y0243481D01*
X0187467Y0243321D01*
X0187399Y0243163D01*
X0187328Y0243007D01*
X0187253Y0242853D01*
X0187173Y0242700D01*
X0187091Y0242550D01*
X0187004Y0242401D01*
X0186914Y0242255D01*
X0186820Y0242111D01*
X0186723Y0241969D01*
X0186622Y0241830D01*
X0186518Y0241693D01*
X0186411Y0241559D01*
X0186300Y0241428D01*
X0186187Y0241299D01*
X0186070Y0241173D01*
X0185950Y0241050D01*
X0185827Y0240930D01*
X0185701Y0240813D01*
X0185572Y0240700D01*
X0185441Y0240589D01*
X0185307Y0240482D01*
X0185170Y0240378D01*
X0185031Y0240277D01*
X0184889Y0240180D01*
X0184745Y0240086D01*
X0184599Y0239996D01*
X0184450Y0239909D01*
X0184300Y0239827D01*
X0184147Y0239747D01*
X0183993Y0239672D01*
X0183837Y0239601D01*
X0183679Y0239533D01*
X0183519Y0239469D01*
X0183358Y0239409D01*
X0183196Y0239353D01*
X0183032Y0239301D01*
X0182867Y0239254D01*
X0182701Y0239210D01*
X0182534Y0239170D01*
X0182366Y0239135D01*
X0182197Y0239103D01*
X0182027Y0239076D01*
X0181857Y0239053D01*
X0181686Y0239034D01*
X0181515Y0239019D01*
X0181343Y0239008D01*
X0181172Y0239002D01*
X0181000Y0239000D01*
X0180828Y0239002D01*
X0180657Y0239008D01*
X0180485Y0239019D01*
X0180314Y0239034D01*
X0180143Y0239053D01*
X0179973Y0239076D01*
X0179803Y0239103D01*
X0179634Y0239135D01*
X0179466Y0239170D01*
X0179299Y0239210D01*
X0179133Y0239254D01*
X0178968Y0239301D01*
X0178804Y0239353D01*
X0178642Y0239409D01*
X0178481Y0239469D01*
X0178321Y0239533D01*
X0178163Y0239601D01*
X0178007Y0239672D01*
X0177853Y0239747D01*
X0177700Y0239827D01*
X0177550Y0239909D01*
X0177401Y0239996D01*
X0177255Y0240086D01*
X0177111Y0240180D01*
X0176969Y0240277D01*
X0176830Y0240378D01*
X0176693Y0240482D01*
X0176559Y0240589D01*
X0176428Y0240700D01*
X0176299Y0240813D01*
X0176173Y0240930D01*
X0176050Y0241050D01*
X0175930Y0241173D01*
X0175813Y0241299D01*
X0175700Y0241428D01*
X0175589Y0241559D01*
X0175482Y0241693D01*
X0175378Y0241830D01*
X0175277Y0241969D01*
X0175180Y0242111D01*
X0175086Y0242255D01*
X0174996Y0242401D01*
X0174909Y0242550D01*
X0174827Y0242700D01*
X0174747Y0242853D01*
X0174672Y0243007D01*
X0174601Y0243163D01*
X0174533Y0243321D01*
X0174469Y0243481D01*
X0174409Y0243642D01*
X0174353Y0243804D01*
X0174301Y0243968D01*
X0174254Y0244133D01*
X0174210Y0244299D01*
X0174170Y0244466D01*
X0174135Y0244634D01*
X0174103Y0244803D01*
X0174076Y0244973D01*
X0174053Y0245143D01*
X0174034Y0245314D01*
X0174019Y0245485D01*
X0174008Y0245657D01*
X0174002Y0245828D01*
X0174000Y0246000D01*
D16*
X0184793Y0231254D02*
X0184042Y0230503D01*
X0184042Y0229753D01*
X0184793Y0229002D01*
X0186294Y0229002D01*
X0187045Y0228251D01*
X0187045Y0227501D01*
X0186294Y0226750D01*
X0184793Y0226750D01*
X0184042Y0227501D01*
X0184793Y0231254D02*
X0186294Y0231254D01*
X0187045Y0230503D01*
X0188646Y0229753D02*
X0190147Y0231254D01*
X0190147Y0226750D01*
X0188646Y0226750D02*
X0191649Y0226750D01*
X0191502Y0215254D02*
X0190001Y0215254D01*
X0189250Y0214503D01*
X0189250Y0213753D01*
X0190001Y0213002D01*
X0191502Y0213002D01*
X0192253Y0212251D01*
X0192253Y0211501D01*
X0191502Y0210750D01*
X0190001Y0210750D01*
X0189250Y0211501D01*
X0192253Y0214503D02*
X0191502Y0215254D01*
X0193854Y0214503D02*
X0194605Y0215254D01*
X0196106Y0215254D01*
X0196856Y0214503D01*
X0196856Y0213753D01*
X0193854Y0210750D01*
X0196856Y0210750D01*
X0234250Y0211501D02*
X0235001Y0210750D01*
X0236502Y0210750D01*
X0237253Y0211501D01*
X0237253Y0212251D01*
X0236502Y0213002D01*
X0235001Y0213002D01*
X0234250Y0213753D01*
X0234250Y0214503D01*
X0235001Y0215254D01*
X0236502Y0215254D01*
X0237253Y0214503D01*
X0238854Y0214503D02*
X0239605Y0215254D01*
X0241106Y0215254D01*
X0241856Y0214503D01*
X0241856Y0213753D01*
X0241106Y0213002D01*
X0241856Y0212251D01*
X0241856Y0211501D01*
X0241106Y0210750D01*
X0239605Y0210750D01*
X0238854Y0211501D01*
X0240355Y0213002D02*
X0241106Y0213002D01*
X0284250Y0213753D02*
X0285001Y0213002D01*
X0286502Y0213002D01*
X0287253Y0212251D01*
X0287253Y0211501D01*
X0286502Y0210750D01*
X0285001Y0210750D01*
X0284250Y0211501D01*
X0284250Y0213753D02*
X0284250Y0214503D01*
X0285001Y0215254D01*
X0286502Y0215254D01*
X0287253Y0214503D01*
X0288854Y0213002D02*
X0291856Y0213002D01*
X0291106Y0215254D02*
X0288854Y0213002D01*
X0291106Y0210750D02*
X0291106Y0215254D01*
X0329250Y0214503D02*
X0329250Y0213753D01*
X0330001Y0213002D01*
X0331502Y0213002D01*
X0332253Y0212251D01*
X0332253Y0211501D01*
X0331502Y0210750D01*
X0330001Y0210750D01*
X0329250Y0211501D01*
X0329250Y0214503D02*
X0330001Y0215254D01*
X0331502Y0215254D01*
X0332253Y0214503D01*
X0333854Y0215254D02*
X0333854Y0213002D01*
X0335355Y0213753D01*
X0336106Y0213753D01*
X0336856Y0213002D01*
X0336856Y0211501D01*
X0336106Y0210750D01*
X0334605Y0210750D01*
X0333854Y0211501D01*
X0333854Y0215254D02*
X0336856Y0215254D01*
X0336106Y0175254D02*
X0334605Y0175254D01*
X0333854Y0174503D01*
X0333854Y0173753D01*
X0334605Y0173002D01*
X0336856Y0173002D01*
X0336856Y0171501D02*
X0336856Y0174503D01*
X0336106Y0175254D01*
X0336856Y0171501D02*
X0336106Y0170750D01*
X0334605Y0170750D01*
X0333854Y0171501D01*
X0332253Y0171501D02*
X0331502Y0170750D01*
X0330001Y0170750D01*
X0329250Y0171501D01*
X0330001Y0173002D02*
X0331502Y0173002D01*
X0332253Y0172251D01*
X0332253Y0171501D01*
X0330001Y0173002D02*
X0329250Y0173753D01*
X0329250Y0174503D01*
X0330001Y0175254D01*
X0331502Y0175254D01*
X0332253Y0174503D01*
X0291856Y0174503D02*
X0291856Y0173753D01*
X0291106Y0173002D01*
X0289605Y0173002D01*
X0288854Y0173753D01*
X0288854Y0174503D01*
X0289605Y0175254D01*
X0291106Y0175254D01*
X0291856Y0174503D01*
X0291106Y0173002D02*
X0291856Y0172251D01*
X0291856Y0171501D01*
X0291106Y0170750D01*
X0289605Y0170750D01*
X0288854Y0171501D01*
X0288854Y0172251D01*
X0289605Y0173002D01*
X0287253Y0172251D02*
X0287253Y0171501D01*
X0286502Y0170750D01*
X0285001Y0170750D01*
X0284250Y0171501D01*
X0285001Y0173002D02*
X0284250Y0173753D01*
X0284250Y0174503D01*
X0285001Y0175254D01*
X0286502Y0175254D01*
X0287253Y0174503D01*
X0286502Y0173002D02*
X0287253Y0172251D01*
X0286502Y0173002D02*
X0285001Y0173002D01*
X0241856Y0174503D02*
X0238854Y0171501D01*
X0238854Y0170750D01*
X0237253Y0171501D02*
X0236502Y0170750D01*
X0235001Y0170750D01*
X0234250Y0171501D01*
X0235001Y0173002D02*
X0236502Y0173002D01*
X0237253Y0172251D01*
X0237253Y0171501D01*
X0235001Y0173002D02*
X0234250Y0173753D01*
X0234250Y0174503D01*
X0235001Y0175254D01*
X0236502Y0175254D01*
X0237253Y0174503D01*
X0238854Y0175254D02*
X0241856Y0175254D01*
X0241856Y0174503D01*
X0196856Y0175254D02*
X0195355Y0174503D01*
X0193854Y0173002D01*
X0196106Y0173002D01*
X0196856Y0172251D01*
X0196856Y0171501D01*
X0196106Y0170750D01*
X0194605Y0170750D01*
X0193854Y0171501D01*
X0193854Y0173002D01*
X0192253Y0172251D02*
X0192253Y0171501D01*
X0191502Y0170750D01*
X0190001Y0170750D01*
X0189250Y0171501D01*
X0190001Y0173002D02*
X0189250Y0173753D01*
X0189250Y0174503D01*
X0190001Y0175254D01*
X0191502Y0175254D01*
X0192253Y0174503D01*
X0191502Y0173002D02*
X0192253Y0172251D01*
X0191502Y0173002D02*
X0190001Y0173002D01*
X0190001Y0135254D02*
X0189250Y0134503D01*
X0189250Y0133753D01*
X0190001Y0133002D01*
X0191502Y0133002D01*
X0192253Y0132251D01*
X0192253Y0131501D01*
X0191502Y0130750D01*
X0190001Y0130750D01*
X0189250Y0131501D01*
X0190001Y0135254D02*
X0191502Y0135254D01*
X0192253Y0134503D01*
X0193854Y0133753D02*
X0195355Y0135254D01*
X0195355Y0130750D01*
X0193854Y0130750D02*
X0196856Y0130750D01*
X0198458Y0131501D02*
X0201460Y0134503D01*
X0201460Y0131501D01*
X0200710Y0130750D01*
X0199208Y0130750D01*
X0198458Y0131501D01*
X0198458Y0134503D01*
X0199208Y0135254D01*
X0200710Y0135254D01*
X0201460Y0134503D01*
X0234250Y0134503D02*
X0234250Y0133753D01*
X0235001Y0133002D01*
X0236502Y0133002D01*
X0237253Y0132251D01*
X0237253Y0131501D01*
X0236502Y0130750D01*
X0235001Y0130750D01*
X0234250Y0131501D01*
X0234250Y0134503D02*
X0235001Y0135254D01*
X0236502Y0135254D01*
X0237253Y0134503D01*
X0238854Y0133753D02*
X0240355Y0135254D01*
X0240355Y0130750D01*
X0238854Y0130750D02*
X0241856Y0130750D01*
X0243458Y0130750D02*
X0246460Y0130750D01*
X0244959Y0130750D02*
X0244959Y0135254D01*
X0243458Y0133753D01*
X0284250Y0133753D02*
X0285001Y0133002D01*
X0286502Y0133002D01*
X0287253Y0132251D01*
X0287253Y0131501D01*
X0286502Y0130750D01*
X0285001Y0130750D01*
X0284250Y0131501D01*
X0284250Y0133753D02*
X0284250Y0134503D01*
X0285001Y0135254D01*
X0286502Y0135254D01*
X0287253Y0134503D01*
X0288854Y0133753D02*
X0290355Y0135254D01*
X0290355Y0130750D01*
X0288854Y0130750D02*
X0291856Y0130750D01*
X0293458Y0130750D02*
X0296460Y0133753D01*
X0296460Y0134503D01*
X0295710Y0135254D01*
X0294208Y0135254D01*
X0293458Y0134503D01*
X0293458Y0130750D02*
X0296460Y0130750D01*
X0329250Y0131501D02*
X0330001Y0130750D01*
X0331502Y0130750D01*
X0332253Y0131501D01*
X0332253Y0132251D01*
X0331502Y0133002D01*
X0330001Y0133002D01*
X0329250Y0133753D01*
X0329250Y0134503D01*
X0330001Y0135254D01*
X0331502Y0135254D01*
X0332253Y0134503D01*
X0333854Y0133753D02*
X0335355Y0135254D01*
X0335355Y0130750D01*
X0333854Y0130750D02*
X0336856Y0130750D01*
X0338458Y0131501D02*
X0339208Y0130750D01*
X0340710Y0130750D01*
X0341460Y0131501D01*
X0341460Y0132251D01*
X0340710Y0133002D01*
X0339959Y0133002D01*
X0340710Y0133002D02*
X0341460Y0133753D01*
X0341460Y0134503D01*
X0340710Y0135254D01*
X0339208Y0135254D01*
X0338458Y0134503D01*
X0338458Y0100254D02*
X0341460Y0100254D01*
X0341460Y0099503D01*
X0338458Y0096501D01*
X0338458Y0095750D01*
X0336856Y0095750D02*
X0333854Y0095750D01*
X0335355Y0095750D02*
X0335355Y0100254D01*
X0333854Y0098753D01*
X0332253Y0099503D02*
X0331502Y0100254D01*
X0330001Y0100254D01*
X0329250Y0099503D01*
X0329250Y0098753D01*
X0330001Y0098002D01*
X0331502Y0098002D01*
X0332253Y0097251D01*
X0332253Y0096501D01*
X0331502Y0095750D01*
X0330001Y0095750D01*
X0329250Y0096501D01*
X0296460Y0096501D02*
X0296460Y0097251D01*
X0295710Y0098002D01*
X0293458Y0098002D01*
X0293458Y0096501D01*
X0294208Y0095750D01*
X0295710Y0095750D01*
X0296460Y0096501D01*
X0294959Y0099503D02*
X0293458Y0098002D01*
X0294959Y0099503D02*
X0296460Y0100254D01*
X0290355Y0100254D02*
X0290355Y0095750D01*
X0288854Y0095750D02*
X0291856Y0095750D01*
X0288854Y0098753D02*
X0290355Y0100254D01*
X0287253Y0099503D02*
X0286502Y0100254D01*
X0285001Y0100254D01*
X0284250Y0099503D01*
X0284250Y0098753D01*
X0285001Y0098002D01*
X0286502Y0098002D01*
X0287253Y0097251D01*
X0287253Y0096501D01*
X0286502Y0095750D01*
X0285001Y0095750D01*
X0284250Y0096501D01*
X0246460Y0096501D02*
X0245710Y0095750D01*
X0244208Y0095750D01*
X0243458Y0096501D01*
X0243458Y0098002D02*
X0244959Y0098753D01*
X0245710Y0098753D01*
X0246460Y0098002D01*
X0246460Y0096501D01*
X0243458Y0098002D02*
X0243458Y0100254D01*
X0246460Y0100254D01*
X0241856Y0095750D02*
X0238854Y0095750D01*
X0240355Y0095750D02*
X0240355Y0100254D01*
X0238854Y0098753D01*
X0237253Y0099503D02*
X0236502Y0100254D01*
X0235001Y0100254D01*
X0234250Y0099503D01*
X0234250Y0098753D01*
X0235001Y0098002D01*
X0236502Y0098002D01*
X0237253Y0097251D01*
X0237253Y0096501D01*
X0236502Y0095750D01*
X0235001Y0095750D01*
X0234250Y0096501D01*
X0201460Y0098002D02*
X0198458Y0098002D01*
X0200710Y0100254D01*
X0200710Y0095750D01*
X0196856Y0095750D02*
X0193854Y0095750D01*
X0195355Y0095750D02*
X0195355Y0100254D01*
X0193854Y0098753D01*
X0192253Y0099503D02*
X0191502Y0100254D01*
X0190001Y0100254D01*
X0189250Y0099503D01*
X0189250Y0098753D01*
X0190001Y0098002D01*
X0191502Y0098002D01*
X0192253Y0097251D01*
X0192253Y0096501D01*
X0191502Y0095750D01*
X0190001Y0095750D01*
X0189250Y0096501D01*
X0155550Y0047753D02*
X0155550Y0044750D01*
X0155550Y0046251D02*
X0151046Y0046251D01*
X0152547Y0044750D01*
X0124650Y0044502D02*
X0124650Y0043001D01*
X0123899Y0042250D01*
X0122398Y0043001D02*
X0122398Y0044502D01*
X0123149Y0045253D01*
X0123899Y0045253D01*
X0124650Y0044502D01*
X0124650Y0046854D02*
X0124650Y0049856D01*
X0124650Y0051458D02*
X0121647Y0054460D01*
X0120897Y0054460D01*
X0120146Y0053710D01*
X0120146Y0052208D01*
X0120897Y0051458D01*
X0124650Y0051458D02*
X0124650Y0054460D01*
X0124650Y0046854D02*
X0120146Y0046854D01*
X0120897Y0045253D02*
X0120146Y0044502D01*
X0120146Y0043001D01*
X0120897Y0042250D01*
X0121647Y0042250D01*
X0122398Y0043001D01*
X0100856Y0111750D02*
X0097854Y0111750D01*
X0099355Y0111750D02*
X0099355Y0116254D01*
X0097854Y0114753D01*
X0096253Y0115503D02*
X0096253Y0112501D01*
X0095502Y0111750D01*
X0094001Y0111750D01*
X0093250Y0112501D01*
X0093250Y0115503D01*
X0094001Y0116254D01*
X0095502Y0116254D01*
X0096253Y0115503D01*
X0094751Y0113251D02*
X0096253Y0111750D01*
X0029650Y0178001D02*
X0028899Y0177250D01*
X0029650Y0178001D02*
X0029650Y0179502D01*
X0028899Y0180253D01*
X0028149Y0180253D01*
X0027398Y0179502D01*
X0027398Y0178001D01*
X0026647Y0177250D01*
X0025897Y0177250D01*
X0025146Y0178001D01*
X0025146Y0179502D01*
X0025897Y0180253D01*
X0025146Y0181854D02*
X0029650Y0181854D01*
X0029650Y0184856D01*
X0029650Y0186458D02*
X0029650Y0189460D01*
X0029650Y0187959D02*
X0025146Y0187959D01*
X0026647Y0186458D01*
X0056046Y0181251D02*
X0057547Y0179750D01*
X0056046Y0181251D02*
X0060550Y0181251D01*
X0060550Y0179750D02*
X0060550Y0182753D01*
X0060199Y0248450D02*
X0059449Y0248450D01*
X0058698Y0249201D01*
X0058698Y0250702D01*
X0059449Y0251453D01*
X0060199Y0251453D01*
X0060950Y0250702D01*
X0060950Y0249201D01*
X0060199Y0248450D01*
X0058698Y0249201D02*
X0057947Y0248450D01*
X0057197Y0248450D01*
X0056446Y0249201D01*
X0056446Y0250702D01*
X0057197Y0251453D01*
X0057947Y0251453D01*
X0058698Y0250702D01*
D17*
X0176500Y0257000D02*
X0176500Y0258000D01*
X0176500Y0257000D02*
X0186000Y0257000D01*
X0186000Y0258000D01*
X0186000Y0235000D02*
X0176000Y0235000D01*
X0176000Y0234000D01*
X0186000Y0234000D02*
X0186000Y0235000D01*
X0196000Y0208000D02*
X0196000Y0207000D01*
X0206000Y0207000D01*
X0206000Y0208000D01*
X0205500Y0185000D02*
X0196000Y0185000D01*
X0196000Y0184000D01*
X0205500Y0184000D02*
X0205500Y0185000D01*
X0206000Y0168000D02*
X0206000Y0167000D01*
X0196000Y0167000D01*
X0196000Y0168000D01*
X0196000Y0145000D02*
X0196000Y0144000D01*
X0196000Y0145000D02*
X0205500Y0145000D01*
X0205500Y0144000D01*
X0206000Y0128000D02*
X0206000Y0127000D01*
X0196000Y0127000D01*
X0196000Y0128000D01*
X0196000Y0105000D02*
X0196000Y0104000D01*
X0196000Y0105000D02*
X0205500Y0105000D01*
X0205500Y0104000D01*
X0206000Y0093000D02*
X0206000Y0092000D01*
X0196000Y0092000D01*
X0196000Y0093000D01*
X0196000Y0070000D02*
X0196000Y0069000D01*
X0196000Y0070000D02*
X0205500Y0070000D01*
X0205500Y0069000D01*
X0241000Y0069000D02*
X0241000Y0070000D01*
X0250500Y0070000D01*
X0250500Y0069000D01*
X0251000Y0092000D02*
X0241000Y0092000D01*
X0241000Y0093000D01*
X0251000Y0093000D02*
X0251000Y0092000D01*
X0250500Y0104000D02*
X0250500Y0105000D01*
X0241000Y0105000D01*
X0241000Y0104000D01*
X0241000Y0127000D02*
X0251000Y0127000D01*
X0251000Y0128000D01*
X0241000Y0128000D02*
X0241000Y0127000D01*
X0241000Y0144000D02*
X0241000Y0145000D01*
X0250500Y0145000D01*
X0250500Y0144000D01*
X0251000Y0167000D02*
X0241000Y0167000D01*
X0241000Y0168000D01*
X0251000Y0168000D02*
X0251000Y0167000D01*
X0250500Y0184000D02*
X0250500Y0185000D01*
X0241000Y0185000D01*
X0241000Y0184000D01*
X0241000Y0207000D02*
X0251000Y0207000D01*
X0251000Y0208000D01*
X0241000Y0208000D02*
X0241000Y0207000D01*
X0291000Y0207000D02*
X0301000Y0207000D01*
X0301000Y0208000D01*
X0291000Y0208000D02*
X0291000Y0207000D01*
X0291000Y0185000D02*
X0291000Y0184000D01*
X0291000Y0185000D02*
X0300500Y0185000D01*
X0300500Y0184000D01*
X0301000Y0168000D02*
X0301000Y0167000D01*
X0291000Y0167000D01*
X0291000Y0168000D01*
X0291000Y0145000D02*
X0291000Y0144000D01*
X0291000Y0145000D02*
X0300500Y0145000D01*
X0300500Y0144000D01*
X0301000Y0128000D02*
X0301000Y0127000D01*
X0291000Y0127000D01*
X0291000Y0128000D01*
X0291000Y0105000D02*
X0291000Y0104000D01*
X0291000Y0105000D02*
X0300500Y0105000D01*
X0300500Y0104000D01*
X0301000Y0093000D02*
X0301000Y0092000D01*
X0291000Y0092000D01*
X0291000Y0093000D01*
X0291000Y0070000D02*
X0291000Y0069000D01*
X0291000Y0070000D02*
X0300500Y0070000D01*
X0300500Y0069000D01*
X0336000Y0069000D02*
X0336000Y0070000D01*
X0345500Y0070000D01*
X0345500Y0069000D01*
X0346000Y0092000D02*
X0336000Y0092000D01*
X0336000Y0093000D01*
X0346000Y0093000D02*
X0346000Y0092000D01*
X0345500Y0104000D02*
X0345500Y0105000D01*
X0336000Y0105000D01*
X0336000Y0104000D01*
X0336000Y0127000D02*
X0346000Y0127000D01*
X0346000Y0128000D01*
X0336000Y0128000D02*
X0336000Y0127000D01*
X0336000Y0144000D02*
X0336000Y0145000D01*
X0345500Y0145000D01*
X0345500Y0144000D01*
X0346000Y0167000D02*
X0336000Y0167000D01*
X0336000Y0168000D01*
X0346000Y0168000D02*
X0346000Y0167000D01*
X0345500Y0184000D02*
X0345500Y0185000D01*
X0336000Y0185000D01*
X0336000Y0184000D01*
X0336000Y0207000D02*
X0346000Y0207000D01*
X0346000Y0208000D01*
X0336000Y0208000D02*
X0336000Y0207000D01*
D18*
X0135000Y0056000D03*
X0135000Y0046000D03*
X0040000Y0181000D03*
X0040000Y0191000D03*
X0040000Y0201000D03*
X0040000Y0211000D03*
X0040000Y0221000D03*
X0040000Y0231000D03*
X0040000Y0241000D03*
X0040000Y0251000D03*
D19*
X0035750Y0251000D03*
X0035750Y0241000D03*
X0035750Y0231000D03*
X0035750Y0221000D03*
X0035750Y0211000D03*
X0035750Y0201000D03*
X0035750Y0191000D03*
X0035750Y0181000D03*
X0130750Y0056000D03*
X0130750Y0046000D03*
D20*
X0131500Y0045250D03*
X0131500Y0046750D03*
X0131500Y0055250D03*
X0131500Y0056750D03*
X0036500Y0180250D03*
X0036500Y0181750D03*
X0036500Y0190250D03*
X0036500Y0191750D03*
X0036500Y0200250D03*
X0036500Y0201750D03*
X0036500Y0210250D03*
X0036500Y0211750D03*
X0036500Y0220250D03*
X0036500Y0221750D03*
X0036500Y0230250D03*
X0036500Y0231750D03*
X0036500Y0240250D03*
X0036500Y0241750D03*
X0036500Y0250250D03*
X0036500Y0251750D03*
M02*
