G75*
%MOIN*%
%OFA0B0*%
%FSLAX25Y25*%
%IPPOS*%
%LPD*%
%AMOC8*
5,1,8,0,0,1.08239X$1,22.5*
%
%ADD10C,0.06000*%
%ADD11C,0.06800*%
%ADD12C,0.06400*%
D10*
X0096000Y0106000D03*
X0106000Y0106000D03*
D11*
X0185200Y0107100D02*
X0191200Y0107100D01*
X0191200Y0089900D02*
X0185200Y0089900D01*
X0185200Y0072100D02*
X0191200Y0072100D01*
X0210800Y0072100D02*
X0216800Y0072100D01*
X0230200Y0072100D02*
X0236200Y0072100D01*
X0255800Y0072100D02*
X0261800Y0072100D01*
X0280200Y0072100D02*
X0286200Y0072100D01*
X0305800Y0072100D02*
X0311800Y0072100D01*
X0325200Y0072100D02*
X0331200Y0072100D01*
X0350800Y0072100D02*
X0356800Y0072100D01*
X0356800Y0089900D02*
X0350800Y0089900D01*
X0350800Y0107100D02*
X0356800Y0107100D01*
X0356800Y0124900D02*
X0350800Y0124900D01*
X0331200Y0124900D02*
X0325200Y0124900D01*
X0311800Y0124900D02*
X0305800Y0124900D01*
X0286200Y0124900D02*
X0280200Y0124900D01*
X0261800Y0124900D02*
X0255800Y0124900D01*
X0236200Y0124900D02*
X0230200Y0124900D01*
X0216800Y0124900D02*
X0210800Y0124900D01*
X0191200Y0124900D02*
X0185200Y0124900D01*
X0185200Y0147100D02*
X0191200Y0147100D01*
X0210800Y0147100D02*
X0216800Y0147100D01*
X0230200Y0147100D02*
X0236200Y0147100D01*
X0255800Y0147100D02*
X0261800Y0147100D01*
X0280200Y0147100D02*
X0286200Y0147100D01*
X0305800Y0147100D02*
X0311800Y0147100D01*
X0325200Y0147100D02*
X0331200Y0147100D01*
X0350800Y0147100D02*
X0356800Y0147100D01*
X0356800Y0164900D02*
X0350800Y0164900D01*
X0331200Y0164900D02*
X0325200Y0164900D01*
X0311800Y0164900D02*
X0305800Y0164900D01*
X0286200Y0164900D02*
X0280200Y0164900D01*
X0261800Y0164900D02*
X0255800Y0164900D01*
X0236200Y0164900D02*
X0230200Y0164900D01*
X0216800Y0164900D02*
X0210800Y0164900D01*
X0191200Y0164900D02*
X0185200Y0164900D01*
X0185200Y0187100D02*
X0191200Y0187100D01*
X0191200Y0204900D02*
X0185200Y0204900D01*
X0210800Y0204900D02*
X0216800Y0204900D01*
X0230200Y0204900D02*
X0236200Y0204900D01*
X0236200Y0187100D02*
X0230200Y0187100D01*
X0216800Y0187100D02*
X0210800Y0187100D01*
X0255800Y0187100D02*
X0261800Y0187100D01*
X0280200Y0187100D02*
X0286200Y0187100D01*
X0286200Y0204900D02*
X0280200Y0204900D01*
X0261800Y0204900D02*
X0255800Y0204900D01*
X0305800Y0204900D02*
X0311800Y0204900D01*
X0325200Y0204900D02*
X0331200Y0204900D01*
X0331200Y0187100D02*
X0325200Y0187100D01*
X0311800Y0187100D02*
X0305800Y0187100D01*
X0350800Y0187100D02*
X0356800Y0187100D01*
X0356800Y0204900D02*
X0350800Y0204900D01*
X0331200Y0107100D02*
X0325200Y0107100D01*
X0311800Y0107100D02*
X0305800Y0107100D01*
X0305800Y0089900D02*
X0311800Y0089900D01*
X0325200Y0089900D02*
X0331200Y0089900D01*
X0286200Y0089900D02*
X0280200Y0089900D01*
X0261800Y0089900D02*
X0255800Y0089900D01*
X0255800Y0107100D02*
X0261800Y0107100D01*
X0280200Y0107100D02*
X0286200Y0107100D01*
X0236200Y0107100D02*
X0230200Y0107100D01*
X0216800Y0107100D02*
X0210800Y0107100D01*
X0210800Y0089900D02*
X0216800Y0089900D01*
X0230200Y0089900D02*
X0236200Y0089900D01*
X0196800Y0237100D02*
X0190800Y0237100D01*
X0171200Y0237100D02*
X0165200Y0237100D01*
X0165200Y0254900D02*
X0171200Y0254900D01*
X0190800Y0254900D02*
X0196800Y0254900D01*
D12*
X0068800Y0251000D02*
X0063200Y0251000D01*
X0063200Y0241000D02*
X0068800Y0241000D01*
X0068800Y0231000D02*
X0063200Y0231000D01*
X0063200Y0221000D02*
X0068800Y0221000D01*
X0068800Y0211000D02*
X0063200Y0211000D01*
X0063200Y0201000D02*
X0068800Y0201000D01*
X0068800Y0191000D02*
X0063200Y0191000D01*
X0063200Y0181000D02*
X0068800Y0181000D01*
X0158200Y0056000D02*
X0163800Y0056000D01*
X0163800Y0046000D02*
X0158200Y0046000D01*
M02*
