G75*
%MOIN*%
%OFA0B0*%
%FSLAX25Y25*%
%IPPOS*%
%LPD*%
%AMOC8*
5,1,8,0,0,1.08239X$1,22.5*
%
%ADD10R,0.07874X0.05906*%
%ADD11R,0.16929X0.09843*%
%ADD12R,0.05906X0.01969*%
%ADD13R,0.01969X0.05906*%
%ADD14C,0.05200*%
%ADD15R,0.06299X0.07098*%
%ADD16R,0.07874X0.06299*%
%ADD17R,0.06299X0.07874*%
%ADD18C,0.06000*%
%ADD19C,0.05600*%
%ADD20C,0.01600*%
%ADD21C,0.01000*%
D10*
X0096000Y0075094D03*
X0096000Y0086906D03*
X0111000Y0086906D03*
X0111000Y0075094D03*
D11*
X0114661Y0246000D03*
X0147339Y0246000D03*
D12*
X0133835Y0166748D03*
X0133835Y0163598D03*
X0133835Y0160449D03*
X0133835Y0157299D03*
X0133835Y0154150D03*
X0133835Y0151000D03*
X0133835Y0147850D03*
X0133835Y0144701D03*
X0133835Y0141551D03*
X0133835Y0138402D03*
X0133835Y0135252D03*
X0088165Y0135252D03*
X0088165Y0138402D03*
X0088165Y0141551D03*
X0088165Y0144701D03*
X0088165Y0147850D03*
X0088165Y0151000D03*
X0088165Y0154150D03*
X0088165Y0157299D03*
X0088165Y0160449D03*
X0088165Y0163598D03*
X0088165Y0166748D03*
D13*
X0095252Y0173835D03*
X0098402Y0173835D03*
X0101551Y0173835D03*
X0104701Y0173835D03*
X0107850Y0173835D03*
X0111000Y0173835D03*
X0114150Y0173835D03*
X0117299Y0173835D03*
X0120449Y0173835D03*
X0123598Y0173835D03*
X0126748Y0173835D03*
X0126748Y0128165D03*
X0123598Y0128165D03*
X0120449Y0128165D03*
X0117299Y0128165D03*
X0114150Y0128165D03*
X0111000Y0128165D03*
X0107850Y0128165D03*
X0104701Y0128165D03*
X0101551Y0128165D03*
X0098402Y0128165D03*
X0095252Y0128165D03*
D14*
X0096000Y0106000D03*
X0106000Y0106000D03*
D15*
X0106598Y0046000D03*
X0095402Y0046000D03*
D16*
X0131000Y0085488D03*
X0131000Y0096512D03*
X0151000Y0096512D03*
X0151000Y0085488D03*
X0171000Y0085488D03*
X0171000Y0096512D03*
X0186000Y0056512D03*
X0186000Y0045488D03*
X0206000Y0045488D03*
X0206000Y0056512D03*
X0236000Y0235488D03*
X0236000Y0246512D03*
X0261000Y0246512D03*
X0261000Y0235488D03*
D17*
X0171512Y0121000D03*
X0160488Y0121000D03*
D18*
X0185200Y0124900D02*
X0191200Y0124900D01*
X0210800Y0124900D02*
X0216800Y0124900D01*
X0230200Y0124900D02*
X0236200Y0124900D01*
X0255800Y0124900D02*
X0261800Y0124900D01*
X0280200Y0124900D02*
X0286200Y0124900D01*
X0305800Y0124900D02*
X0311800Y0124900D01*
X0325200Y0124900D02*
X0331200Y0124900D01*
X0350800Y0124900D02*
X0356800Y0124900D01*
X0356800Y0107100D02*
X0350800Y0107100D01*
X0350800Y0089900D02*
X0356800Y0089900D01*
X0356800Y0072100D02*
X0350800Y0072100D01*
X0331200Y0072100D02*
X0325200Y0072100D01*
X0311800Y0072100D02*
X0305800Y0072100D01*
X0286200Y0072100D02*
X0280200Y0072100D01*
X0261800Y0072100D02*
X0255800Y0072100D01*
X0236200Y0072100D02*
X0230200Y0072100D01*
X0216800Y0072100D02*
X0210800Y0072100D01*
X0191200Y0072100D02*
X0185200Y0072100D01*
X0185200Y0089900D02*
X0191200Y0089900D01*
X0191200Y0107100D02*
X0185200Y0107100D01*
X0210800Y0107100D02*
X0216800Y0107100D01*
X0230200Y0107100D02*
X0236200Y0107100D01*
X0236200Y0089900D02*
X0230200Y0089900D01*
X0216800Y0089900D02*
X0210800Y0089900D01*
X0255800Y0089900D02*
X0261800Y0089900D01*
X0280200Y0089900D02*
X0286200Y0089900D01*
X0286200Y0107100D02*
X0280200Y0107100D01*
X0261800Y0107100D02*
X0255800Y0107100D01*
X0255800Y0147100D02*
X0261800Y0147100D01*
X0280200Y0147100D02*
X0286200Y0147100D01*
X0305800Y0147100D02*
X0311800Y0147100D01*
X0325200Y0147100D02*
X0331200Y0147100D01*
X0350800Y0147100D02*
X0356800Y0147100D01*
X0356800Y0164900D02*
X0350800Y0164900D01*
X0331200Y0164900D02*
X0325200Y0164900D01*
X0311800Y0164900D02*
X0305800Y0164900D01*
X0286200Y0164900D02*
X0280200Y0164900D01*
X0261800Y0164900D02*
X0255800Y0164900D01*
X0236200Y0164900D02*
X0230200Y0164900D01*
X0216800Y0164900D02*
X0210800Y0164900D01*
X0191200Y0164900D02*
X0185200Y0164900D01*
X0185200Y0147100D02*
X0191200Y0147100D01*
X0210800Y0147100D02*
X0216800Y0147100D01*
X0230200Y0147100D02*
X0236200Y0147100D01*
X0236200Y0187100D02*
X0230200Y0187100D01*
X0216800Y0187100D02*
X0210800Y0187100D01*
X0210800Y0204900D02*
X0216800Y0204900D01*
X0230200Y0204900D02*
X0236200Y0204900D01*
X0255800Y0204900D02*
X0261800Y0204900D01*
X0280200Y0204900D02*
X0286200Y0204900D01*
X0286200Y0187100D02*
X0280200Y0187100D01*
X0261800Y0187100D02*
X0255800Y0187100D01*
X0305800Y0187100D02*
X0311800Y0187100D01*
X0325200Y0187100D02*
X0331200Y0187100D01*
X0331200Y0204900D02*
X0325200Y0204900D01*
X0311800Y0204900D02*
X0305800Y0204900D01*
X0350800Y0204900D02*
X0356800Y0204900D01*
X0356800Y0187100D02*
X0350800Y0187100D01*
X0331200Y0107100D02*
X0325200Y0107100D01*
X0311800Y0107100D02*
X0305800Y0107100D01*
X0305800Y0089900D02*
X0311800Y0089900D01*
X0325200Y0089900D02*
X0331200Y0089900D01*
X0191200Y0187100D02*
X0185200Y0187100D01*
X0185200Y0204900D02*
X0191200Y0204900D01*
X0190800Y0237100D02*
X0196800Y0237100D01*
X0196800Y0254900D02*
X0190800Y0254900D01*
X0171200Y0254900D02*
X0165200Y0254900D01*
X0165200Y0237100D02*
X0171200Y0237100D01*
D19*
X0068800Y0241000D02*
X0063200Y0241000D01*
X0063200Y0251000D02*
X0068800Y0251000D01*
X0068800Y0231000D02*
X0063200Y0231000D01*
X0063200Y0221000D02*
X0068800Y0221000D01*
X0068800Y0211000D02*
X0063200Y0211000D01*
X0063200Y0201000D02*
X0068800Y0201000D01*
X0068800Y0191000D02*
X0063200Y0191000D01*
X0063200Y0181000D02*
X0068800Y0181000D01*
X0158200Y0056000D02*
X0163800Y0056000D01*
X0163800Y0046000D02*
X0158200Y0046000D01*
D20*
X0071000Y0056000D02*
X0071000Y0156000D01*
X0051000Y0176000D01*
X0051000Y0266000D01*
X0056000Y0271000D01*
X0106000Y0271000D01*
X0116000Y0261000D01*
X0116000Y0247339D01*
X0114661Y0246000D01*
X0114150Y0245488D01*
X0114150Y0173835D01*
X0117299Y0173835D02*
X0120449Y0173835D01*
X0123598Y0173835D01*
X0126748Y0173835D02*
X0126748Y0176748D01*
X0131000Y0181000D01*
X0166000Y0181000D01*
X0171000Y0176000D01*
X0171000Y0121512D01*
X0171512Y0121000D01*
X0171000Y0120488D01*
X0171000Y0111000D01*
X0186000Y0096000D01*
X0196000Y0096000D01*
X0201000Y0091000D01*
X0201000Y0086000D01*
X0213800Y0073200D01*
X0213800Y0072100D01*
X0258800Y0072100D01*
X0259900Y0071000D01*
X0261000Y0071000D01*
X0262100Y0072100D01*
X0308800Y0072100D01*
X0353800Y0072100D01*
X0353800Y0089900D02*
X0353800Y0107100D01*
X0356000Y0109300D01*
X0356000Y0121000D01*
X0353800Y0123200D01*
X0353800Y0124900D01*
X0353800Y0126000D01*
X0353800Y0147100D01*
X0353800Y0164900D01*
X0356000Y0166000D02*
X0353800Y0168200D01*
X0353800Y0187100D01*
X0353800Y0198500D01*
X0353800Y0204900D01*
X0308800Y0204900D02*
X0308800Y0187100D01*
X0308800Y0164900D01*
X0308800Y0147100D01*
X0308800Y0124900D01*
X0308800Y0107100D01*
X0308800Y0089900D01*
X0286000Y0091000D02*
X0284900Y0089900D01*
X0258800Y0089900D01*
X0258800Y0107100D01*
X0257700Y0106000D01*
X0256000Y0106000D01*
X0258800Y0108800D01*
X0258800Y0124900D01*
X0258800Y0147100D01*
X0258800Y0164900D01*
X0258800Y0187100D01*
X0258800Y0204900D01*
X0237100Y0204900D01*
X0236000Y0206000D01*
X0236000Y0235488D01*
X0261000Y0235488D01*
X0261000Y0246512D02*
X0236000Y0246512D01*
X0221512Y0246512D01*
X0213500Y0238500D01*
X0206000Y0246000D01*
X0206000Y0256000D01*
X0201000Y0261000D01*
X0136000Y0261000D01*
X0121000Y0246000D01*
X0114661Y0246000D01*
X0113600Y0252521D02*
X0105534Y0252521D01*
X0104597Y0251584D01*
X0104597Y0240416D01*
X0105534Y0239479D01*
X0111750Y0239479D01*
X0111750Y0178387D01*
X0110250Y0178387D01*
X0110250Y0219627D01*
X0109885Y0220509D01*
X0078035Y0252359D01*
X0077359Y0253035D01*
X0076477Y0253400D01*
X0072568Y0253400D01*
X0072530Y0253492D01*
X0071292Y0254730D01*
X0069675Y0255400D01*
X0062325Y0255400D01*
X0060708Y0254730D01*
X0059470Y0253492D01*
X0058800Y0251875D01*
X0058800Y0250125D01*
X0059470Y0248508D01*
X0060708Y0247270D01*
X0062325Y0246600D01*
X0069675Y0246600D01*
X0071292Y0247270D01*
X0072530Y0248508D01*
X0072568Y0248600D01*
X0075006Y0248600D01*
X0105450Y0218155D01*
X0105450Y0214944D01*
X0077359Y0243035D01*
X0076477Y0243400D01*
X0072568Y0243400D01*
X0072530Y0243492D01*
X0071292Y0244730D01*
X0069675Y0245400D01*
X0062325Y0245400D01*
X0060708Y0244730D01*
X0059470Y0243492D01*
X0058800Y0241875D01*
X0058800Y0240125D01*
X0059470Y0238508D01*
X0060708Y0237270D01*
X0062325Y0236600D01*
X0069675Y0236600D01*
X0071292Y0237270D01*
X0072530Y0238508D01*
X0072568Y0238600D01*
X0075006Y0238600D01*
X0102301Y0211305D01*
X0102301Y0208093D01*
X0078035Y0232359D01*
X0078035Y0232359D01*
X0077359Y0233035D01*
X0076477Y0233400D01*
X0072568Y0233400D01*
X0072530Y0233492D01*
X0071292Y0234730D01*
X0069675Y0235400D01*
X0062325Y0235400D01*
X0060708Y0234730D01*
X0059470Y0233492D01*
X0058800Y0231875D01*
X0058800Y0230125D01*
X0059470Y0228508D01*
X0060708Y0227270D01*
X0062325Y0226600D01*
X0069675Y0226600D01*
X0071292Y0227270D01*
X0072530Y0228508D01*
X0072568Y0228600D01*
X0075006Y0228600D01*
X0099151Y0204455D01*
X0099151Y0201243D01*
X0078035Y0222359D01*
X0077359Y0223035D01*
X0076477Y0223400D01*
X0072568Y0223400D01*
X0072530Y0223492D01*
X0071292Y0224730D01*
X0069675Y0225400D01*
X0062325Y0225400D01*
X0060708Y0224730D01*
X0059470Y0223492D01*
X0058800Y0221875D01*
X0058800Y0220125D01*
X0059470Y0218508D01*
X0060708Y0217270D01*
X0062325Y0216600D01*
X0069675Y0216600D01*
X0071292Y0217270D01*
X0072530Y0218508D01*
X0072568Y0218600D01*
X0075006Y0218600D01*
X0096002Y0197604D01*
X0096002Y0194393D01*
X0078035Y0212359D01*
X0077359Y0213035D01*
X0076477Y0213400D01*
X0072568Y0213400D01*
X0072530Y0213492D01*
X0071292Y0214730D01*
X0069675Y0215400D01*
X0062325Y0215400D01*
X0060708Y0214730D01*
X0059470Y0213492D01*
X0058800Y0211875D01*
X0058800Y0210125D01*
X0059470Y0208508D01*
X0060708Y0207270D01*
X0062325Y0206600D01*
X0069675Y0206600D01*
X0071292Y0207270D01*
X0072530Y0208508D01*
X0072568Y0208600D01*
X0075006Y0208600D01*
X0092852Y0190754D01*
X0092852Y0177634D01*
X0092668Y0177450D01*
X0092668Y0170219D01*
X0093605Y0169282D01*
X0121400Y0169282D01*
X0121400Y0167630D01*
X0122630Y0166400D01*
X0129282Y0166400D01*
X0129282Y0155963D01*
X0129205Y0155829D01*
X0129082Y0155371D01*
X0129082Y0154150D01*
X0133835Y0154150D01*
X0138587Y0154150D01*
X0138587Y0155371D01*
X0138465Y0155829D01*
X0138387Y0155963D01*
X0138387Y0165643D01*
X0163900Y0140130D01*
X0163900Y0126537D01*
X0156676Y0126537D01*
X0155739Y0125600D01*
X0155739Y0123400D01*
X0155523Y0123400D01*
X0154641Y0123035D01*
X0153965Y0122359D01*
X0150006Y0118400D01*
X0131994Y0118400D01*
X0126781Y0123613D01*
X0128395Y0123613D01*
X0129332Y0124550D01*
X0129332Y0131781D01*
X0128395Y0132718D01*
X0112813Y0132718D01*
X0112679Y0132795D01*
X0112221Y0132918D01*
X0111000Y0132918D01*
X0111000Y0128165D01*
X0111000Y0123413D01*
X0111750Y0123413D01*
X0111750Y0117373D01*
X0112115Y0116491D01*
X0127344Y0101261D01*
X0126400Y0101261D01*
X0125463Y0100324D01*
X0125463Y0092699D01*
X0126400Y0091762D01*
X0135600Y0091762D01*
X0136537Y0092699D01*
X0136537Y0100324D01*
X0135600Y0101261D01*
X0133400Y0101261D01*
X0133400Y0101477D01*
X0133035Y0102359D01*
X0132359Y0103035D01*
X0131794Y0103600D01*
X0140006Y0103600D01*
X0143965Y0099641D01*
X0144641Y0098965D01*
X0145463Y0098625D01*
X0145463Y0092699D01*
X0146400Y0091762D01*
X0155600Y0091762D01*
X0156537Y0092699D01*
X0156537Y0100324D01*
X0155600Y0101261D01*
X0149645Y0101261D01*
X0147871Y0103035D01*
X0146998Y0103397D01*
X0142359Y0108035D01*
X0141477Y0108400D01*
X0131994Y0108400D01*
X0131794Y0108600D01*
X0150006Y0108600D01*
X0158965Y0099641D01*
X0159641Y0098965D01*
X0160523Y0098600D01*
X0165463Y0098600D01*
X0165463Y0092699D01*
X0166400Y0091762D01*
X0173792Y0091762D01*
X0172268Y0090238D01*
X0166400Y0090238D01*
X0165463Y0089301D01*
X0165463Y0087888D01*
X0156537Y0087888D01*
X0156537Y0089301D01*
X0155600Y0090238D01*
X0146400Y0090238D01*
X0145463Y0089301D01*
X0145463Y0087888D01*
X0136537Y0087888D01*
X0136537Y0089301D01*
X0135600Y0090238D01*
X0126400Y0090238D01*
X0125463Y0089301D01*
X0125463Y0081676D01*
X0126400Y0080739D01*
X0135600Y0080739D01*
X0136537Y0081676D01*
X0136537Y0083088D01*
X0145463Y0083088D01*
X0145463Y0081676D01*
X0146400Y0080739D01*
X0155600Y0080739D01*
X0156537Y0081676D01*
X0156537Y0083088D01*
X0165463Y0083088D01*
X0165463Y0081676D01*
X0166400Y0080739D01*
X0168600Y0080739D01*
X0168600Y0075523D01*
X0168965Y0074641D01*
X0182344Y0061261D01*
X0181400Y0061261D01*
X0180463Y0060324D01*
X0180463Y0053100D01*
X0167379Y0053100D01*
X0167734Y0053589D01*
X0168063Y0054234D01*
X0168287Y0054923D01*
X0168400Y0055638D01*
X0168400Y0055900D01*
X0161100Y0055900D01*
X0161100Y0056100D01*
X0160900Y0056100D01*
X0160900Y0060600D01*
X0157838Y0060600D01*
X0157123Y0060487D01*
X0156434Y0060263D01*
X0155789Y0059934D01*
X0155203Y0059509D01*
X0154691Y0058997D01*
X0154266Y0058411D01*
X0153937Y0057766D01*
X0153713Y0057077D01*
X0153600Y0056362D01*
X0153600Y0056100D01*
X0160900Y0056100D01*
X0160900Y0055900D01*
X0153600Y0055900D01*
X0153600Y0055638D01*
X0153713Y0054923D01*
X0153937Y0054234D01*
X0154266Y0053589D01*
X0154621Y0053100D01*
X0125130Y0053100D01*
X0115130Y0043100D01*
X0111548Y0043100D01*
X0111548Y0045225D01*
X0107373Y0045225D01*
X0107373Y0046775D01*
X0105824Y0046775D01*
X0105824Y0051349D01*
X0103212Y0051349D01*
X0102754Y0051227D01*
X0102344Y0050990D01*
X0102008Y0050654D01*
X0101771Y0050244D01*
X0101649Y0049786D01*
X0101649Y0046775D01*
X0105824Y0046775D01*
X0105824Y0045225D01*
X0101649Y0045225D01*
X0101649Y0043100D01*
X0100151Y0043100D01*
X0100151Y0050212D01*
X0099214Y0051149D01*
X0094245Y0051149D01*
X0088400Y0056994D01*
X0088400Y0126477D01*
X0088035Y0127359D01*
X0083400Y0131994D01*
X0083400Y0154899D01*
X0083613Y0154899D01*
X0083613Y0133605D01*
X0084550Y0132668D01*
X0091781Y0132668D01*
X0092718Y0133605D01*
X0092718Y0168395D01*
X0091781Y0169332D01*
X0086062Y0169332D01*
X0083400Y0171994D01*
X0083400Y0191477D01*
X0083035Y0192359D01*
X0072974Y0202420D01*
X0072530Y0203492D01*
X0071292Y0204730D01*
X0069675Y0205400D01*
X0062325Y0205400D01*
X0060708Y0204730D01*
X0059470Y0203492D01*
X0058800Y0201875D01*
X0058800Y0200125D01*
X0059470Y0198508D01*
X0060708Y0197270D01*
X0062325Y0196600D01*
X0069675Y0196600D01*
X0071292Y0197270D01*
X0071314Y0197292D01*
X0078600Y0190006D01*
X0078600Y0170523D01*
X0078965Y0169641D01*
X0079641Y0168965D01*
X0082607Y0165998D01*
X0079396Y0165998D01*
X0078400Y0166994D01*
X0078400Y0186477D01*
X0078035Y0187359D01*
X0073035Y0192359D01*
X0072974Y0192420D01*
X0072530Y0193492D01*
X0071292Y0194730D01*
X0069675Y0195400D01*
X0062325Y0195400D01*
X0060708Y0194730D01*
X0059470Y0193492D01*
X0058800Y0191875D01*
X0058800Y0190125D01*
X0059470Y0188508D01*
X0060708Y0187270D01*
X0062325Y0186600D01*
X0069675Y0186600D01*
X0071292Y0187270D01*
X0071314Y0187292D01*
X0073600Y0185006D01*
X0073600Y0166794D01*
X0068400Y0171994D01*
X0068400Y0176600D01*
X0069675Y0176600D01*
X0071292Y0177270D01*
X0072530Y0178508D01*
X0073200Y0180125D01*
X0073200Y0181875D01*
X0072530Y0183492D01*
X0071292Y0184730D01*
X0069675Y0185400D01*
X0062325Y0185400D01*
X0060708Y0184730D01*
X0059470Y0183492D01*
X0058800Y0181875D01*
X0058800Y0180125D01*
X0059470Y0178508D01*
X0060708Y0177270D01*
X0062325Y0176600D01*
X0063600Y0176600D01*
X0063600Y0170523D01*
X0063965Y0169641D01*
X0064641Y0168965D01*
X0075192Y0158414D01*
X0076074Y0158049D01*
X0079655Y0158049D01*
X0079641Y0158035D01*
X0078965Y0157359D01*
X0078600Y0156477D01*
X0078600Y0130523D01*
X0078965Y0129641D01*
X0079641Y0128965D01*
X0083600Y0125006D01*
X0083600Y0055523D01*
X0083965Y0054641D01*
X0084641Y0053965D01*
X0090652Y0047954D01*
X0090652Y0041788D01*
X0091589Y0040851D01*
X0093900Y0040851D01*
X0093900Y0040130D01*
X0095130Y0038900D01*
X0116870Y0038900D01*
X0118100Y0040130D01*
X0126870Y0048900D01*
X0154877Y0048900D01*
X0154470Y0048492D01*
X0154432Y0048400D01*
X0130523Y0048400D01*
X0129641Y0048035D01*
X0120006Y0038400D01*
X0091994Y0038400D01*
X0073400Y0056994D01*
X0073400Y0156477D01*
X0073035Y0157359D01*
X0053400Y0176994D01*
X0053400Y0265006D01*
X0056994Y0268600D01*
X0105006Y0268600D01*
X0113600Y0260006D01*
X0113600Y0252521D01*
X0113600Y0253565D02*
X0072458Y0253565D01*
X0070247Y0255163D02*
X0113600Y0255163D01*
X0113600Y0256762D02*
X0053400Y0256762D01*
X0053400Y0258360D02*
X0113600Y0258360D01*
X0113600Y0259959D02*
X0053400Y0259959D01*
X0053400Y0261557D02*
X0112049Y0261557D01*
X0110450Y0263156D02*
X0053400Y0263156D01*
X0053400Y0264754D02*
X0108852Y0264754D01*
X0107253Y0266353D02*
X0054747Y0266353D01*
X0056345Y0267951D02*
X0105654Y0267951D01*
X0104979Y0251966D02*
X0078428Y0251966D01*
X0080026Y0250368D02*
X0104597Y0250368D01*
X0104597Y0248769D02*
X0081625Y0248769D01*
X0083223Y0247171D02*
X0104597Y0247171D01*
X0104597Y0245572D02*
X0084822Y0245572D01*
X0086420Y0243974D02*
X0104597Y0243974D01*
X0104597Y0242375D02*
X0088019Y0242375D01*
X0089617Y0240777D02*
X0104597Y0240777D01*
X0111750Y0239178D02*
X0091216Y0239178D01*
X0092814Y0237580D02*
X0111750Y0237580D01*
X0111750Y0235981D02*
X0094413Y0235981D01*
X0096011Y0234383D02*
X0111750Y0234383D01*
X0111750Y0232784D02*
X0097610Y0232784D01*
X0099208Y0231186D02*
X0111750Y0231186D01*
X0111750Y0229587D02*
X0100807Y0229587D01*
X0102405Y0227989D02*
X0111750Y0227989D01*
X0111750Y0226390D02*
X0104004Y0226390D01*
X0105603Y0224792D02*
X0111750Y0224792D01*
X0111750Y0223193D02*
X0107201Y0223193D01*
X0108800Y0221595D02*
X0111750Y0221595D01*
X0111750Y0219996D02*
X0110098Y0219996D01*
X0110250Y0218398D02*
X0111750Y0218398D01*
X0111750Y0216799D02*
X0110250Y0216799D01*
X0110250Y0215201D02*
X0111750Y0215201D01*
X0111750Y0213602D02*
X0110250Y0213602D01*
X0110250Y0212003D02*
X0111750Y0212003D01*
X0111750Y0210405D02*
X0110250Y0210405D01*
X0110250Y0208806D02*
X0111750Y0208806D01*
X0111750Y0207208D02*
X0110250Y0207208D01*
X0110250Y0205609D02*
X0111750Y0205609D01*
X0111750Y0204011D02*
X0110250Y0204011D01*
X0110250Y0202412D02*
X0111750Y0202412D01*
X0111750Y0200814D02*
X0110250Y0200814D01*
X0110250Y0199215D02*
X0111750Y0199215D01*
X0111750Y0197617D02*
X0110250Y0197617D01*
X0110250Y0196018D02*
X0111750Y0196018D01*
X0111750Y0194420D02*
X0110250Y0194420D01*
X0110250Y0192821D02*
X0111750Y0192821D01*
X0111750Y0191223D02*
X0110250Y0191223D01*
X0110250Y0189624D02*
X0111750Y0189624D01*
X0111750Y0188026D02*
X0110250Y0188026D01*
X0110250Y0186427D02*
X0111750Y0186427D01*
X0111750Y0184829D02*
X0110250Y0184829D01*
X0110250Y0183230D02*
X0111750Y0183230D01*
X0111750Y0181632D02*
X0110250Y0181632D01*
X0110250Y0180033D02*
X0111750Y0180033D01*
X0111750Y0178435D02*
X0110250Y0178435D01*
X0107850Y0173835D02*
X0107850Y0219150D01*
X0076000Y0251000D01*
X0066000Y0251000D01*
X0061753Y0255163D02*
X0053400Y0255163D01*
X0053400Y0253565D02*
X0059542Y0253565D01*
X0058838Y0251966D02*
X0053400Y0251966D01*
X0053400Y0250368D02*
X0058800Y0250368D01*
X0059361Y0248769D02*
X0053400Y0248769D01*
X0053400Y0247171D02*
X0060947Y0247171D01*
X0059951Y0243974D02*
X0053400Y0243974D01*
X0053400Y0245572D02*
X0078034Y0245572D01*
X0079632Y0243974D02*
X0072049Y0243974D01*
X0071053Y0247171D02*
X0076435Y0247171D01*
X0078019Y0242375D02*
X0081231Y0242375D01*
X0082829Y0240777D02*
X0079617Y0240777D01*
X0081216Y0239178D02*
X0084428Y0239178D01*
X0086026Y0237580D02*
X0082814Y0237580D01*
X0084413Y0235981D02*
X0087625Y0235981D01*
X0089223Y0234383D02*
X0086011Y0234383D01*
X0087610Y0232784D02*
X0090822Y0232784D01*
X0092420Y0231186D02*
X0089208Y0231186D01*
X0090807Y0229587D02*
X0094019Y0229587D01*
X0095617Y0227989D02*
X0092405Y0227989D01*
X0094004Y0226390D02*
X0097216Y0226390D01*
X0098814Y0224792D02*
X0095603Y0224792D01*
X0097201Y0223193D02*
X0100413Y0223193D01*
X0102011Y0221595D02*
X0098800Y0221595D01*
X0100398Y0219996D02*
X0103610Y0219996D01*
X0105208Y0218398D02*
X0101997Y0218398D01*
X0103595Y0216799D02*
X0105450Y0216799D01*
X0105450Y0215201D02*
X0105194Y0215201D01*
X0104701Y0212299D02*
X0076000Y0241000D01*
X0066000Y0241000D01*
X0071602Y0237580D02*
X0076026Y0237580D01*
X0077625Y0235981D02*
X0053400Y0235981D01*
X0053400Y0234383D02*
X0060360Y0234383D01*
X0059177Y0232784D02*
X0053400Y0232784D01*
X0053400Y0231186D02*
X0058800Y0231186D01*
X0059023Y0229587D02*
X0053400Y0229587D01*
X0053400Y0227989D02*
X0059989Y0227989D01*
X0060856Y0224792D02*
X0053400Y0224792D01*
X0053400Y0226390D02*
X0077216Y0226390D01*
X0078814Y0224792D02*
X0071144Y0224792D01*
X0072011Y0227989D02*
X0075617Y0227989D01*
X0076000Y0231000D02*
X0066000Y0231000D01*
X0071640Y0234383D02*
X0079223Y0234383D01*
X0080822Y0232784D02*
X0077610Y0232784D01*
X0079208Y0231186D02*
X0082420Y0231186D01*
X0084019Y0229587D02*
X0080807Y0229587D01*
X0082405Y0227989D02*
X0085617Y0227989D01*
X0087216Y0226390D02*
X0084004Y0226390D01*
X0085602Y0224792D02*
X0088814Y0224792D01*
X0090413Y0223193D02*
X0087201Y0223193D01*
X0088800Y0221595D02*
X0092011Y0221595D01*
X0093610Y0219996D02*
X0090398Y0219996D01*
X0091997Y0218398D02*
X0095208Y0218398D01*
X0096807Y0216799D02*
X0093595Y0216799D01*
X0095194Y0215201D02*
X0098405Y0215201D01*
X0100004Y0213602D02*
X0096792Y0213602D01*
X0098391Y0212003D02*
X0101602Y0212003D01*
X0102301Y0210405D02*
X0099989Y0210405D01*
X0101588Y0208806D02*
X0102301Y0208806D01*
X0101551Y0205449D02*
X0076000Y0231000D01*
X0076977Y0223193D02*
X0080413Y0223193D01*
X0082011Y0221595D02*
X0078800Y0221595D01*
X0080398Y0219996D02*
X0083610Y0219996D01*
X0085208Y0218398D02*
X0081997Y0218398D01*
X0083595Y0216799D02*
X0086807Y0216799D01*
X0088405Y0215201D02*
X0085194Y0215201D01*
X0086792Y0213602D02*
X0090004Y0213602D01*
X0091602Y0212003D02*
X0088391Y0212003D01*
X0089989Y0210405D02*
X0093201Y0210405D01*
X0094799Y0208806D02*
X0091588Y0208806D01*
X0093186Y0207208D02*
X0096398Y0207208D01*
X0097996Y0205609D02*
X0094785Y0205609D01*
X0096383Y0204011D02*
X0099151Y0204011D01*
X0099151Y0202412D02*
X0097982Y0202412D01*
X0098402Y0198598D02*
X0076000Y0221000D01*
X0066000Y0221000D01*
X0070156Y0216799D02*
X0076807Y0216799D01*
X0078405Y0215201D02*
X0070157Y0215201D01*
X0072421Y0213602D02*
X0080004Y0213602D01*
X0081602Y0212003D02*
X0078391Y0212003D01*
X0079989Y0210405D02*
X0083201Y0210405D01*
X0084799Y0208806D02*
X0081588Y0208806D01*
X0083186Y0207208D02*
X0086398Y0207208D01*
X0087996Y0205609D02*
X0084785Y0205609D01*
X0086383Y0204011D02*
X0089595Y0204011D01*
X0091193Y0202412D02*
X0087982Y0202412D01*
X0089580Y0200814D02*
X0092792Y0200814D01*
X0094390Y0199215D02*
X0091179Y0199215D01*
X0092777Y0197617D02*
X0095989Y0197617D01*
X0096002Y0196018D02*
X0094376Y0196018D01*
X0095974Y0194420D02*
X0096002Y0194420D01*
X0095252Y0191748D02*
X0076000Y0211000D01*
X0066000Y0211000D01*
X0061843Y0215201D02*
X0053400Y0215201D01*
X0053400Y0216799D02*
X0061844Y0216799D01*
X0059580Y0218398D02*
X0053400Y0218398D01*
X0053400Y0219996D02*
X0058853Y0219996D01*
X0058800Y0221595D02*
X0053400Y0221595D01*
X0053400Y0223193D02*
X0059346Y0223193D01*
X0059579Y0213602D02*
X0053400Y0213602D01*
X0053400Y0212003D02*
X0058853Y0212003D01*
X0058800Y0210405D02*
X0053400Y0210405D01*
X0053400Y0208806D02*
X0059346Y0208806D01*
X0060857Y0207208D02*
X0053400Y0207208D01*
X0053400Y0205609D02*
X0077996Y0205609D01*
X0079595Y0204011D02*
X0072012Y0204011D01*
X0072982Y0202412D02*
X0081193Y0202412D01*
X0082792Y0200814D02*
X0074580Y0200814D01*
X0076179Y0199215D02*
X0084390Y0199215D01*
X0085989Y0197617D02*
X0077777Y0197617D01*
X0079376Y0196018D02*
X0087587Y0196018D01*
X0089186Y0194420D02*
X0080974Y0194420D01*
X0082573Y0192821D02*
X0090785Y0192821D01*
X0092383Y0191223D02*
X0083400Y0191223D01*
X0083400Y0189624D02*
X0092852Y0189624D01*
X0092852Y0188026D02*
X0083400Y0188026D01*
X0083400Y0186427D02*
X0092852Y0186427D01*
X0092852Y0184829D02*
X0083400Y0184829D01*
X0083400Y0183230D02*
X0092852Y0183230D01*
X0092852Y0181632D02*
X0083400Y0181632D01*
X0083400Y0180033D02*
X0092852Y0180033D01*
X0092852Y0178435D02*
X0083400Y0178435D01*
X0083400Y0176836D02*
X0092668Y0176836D01*
X0092668Y0175238D02*
X0083400Y0175238D01*
X0083400Y0173639D02*
X0092668Y0173639D01*
X0092668Y0172041D02*
X0083400Y0172041D01*
X0084952Y0170442D02*
X0092668Y0170442D01*
X0092269Y0168844D02*
X0121400Y0168844D01*
X0121785Y0167245D02*
X0092718Y0167245D01*
X0092718Y0165647D02*
X0129282Y0165647D01*
X0129282Y0164048D02*
X0092718Y0164048D01*
X0092718Y0162450D02*
X0129282Y0162450D01*
X0129282Y0160851D02*
X0092718Y0160851D01*
X0092718Y0159253D02*
X0129282Y0159253D01*
X0129282Y0157654D02*
X0092718Y0157654D01*
X0092718Y0156056D02*
X0129282Y0156056D01*
X0129082Y0154457D02*
X0092718Y0154457D01*
X0092718Y0152859D02*
X0129101Y0152859D01*
X0129082Y0152928D02*
X0129205Y0152471D01*
X0129282Y0152337D01*
X0129282Y0133605D01*
X0130219Y0132668D01*
X0137450Y0132668D01*
X0138387Y0133605D01*
X0138387Y0152337D01*
X0138465Y0152471D01*
X0138587Y0152928D01*
X0138587Y0154150D01*
X0133835Y0154150D01*
X0133835Y0154150D01*
X0124150Y0154150D01*
X0111000Y0141000D01*
X0111000Y0128165D01*
X0111000Y0128165D01*
X0111000Y0123413D01*
X0109779Y0123413D01*
X0109425Y0123507D01*
X0109072Y0123413D01*
X0107850Y0123413D01*
X0107850Y0128165D01*
X0107850Y0128165D01*
X0107850Y0123413D01*
X0107101Y0123413D01*
X0107101Y0123293D01*
X0107359Y0123035D01*
X0107359Y0123035D01*
X0108035Y0122359D01*
X0108400Y0121477D01*
X0108400Y0109540D01*
X0109561Y0108379D01*
X0110200Y0106835D01*
X0110200Y0105165D01*
X0109561Y0103621D01*
X0108400Y0102460D01*
X0108400Y0101994D01*
X0112359Y0098035D01*
X0113035Y0097359D01*
X0113400Y0096477D01*
X0113400Y0091458D01*
X0115600Y0091458D01*
X0116537Y0090521D01*
X0116537Y0083290D01*
X0115600Y0082353D01*
X0106400Y0082353D01*
X0105463Y0083290D01*
X0105463Y0090521D01*
X0106400Y0091458D01*
X0108600Y0091458D01*
X0108600Y0095006D01*
X0103965Y0099641D01*
X0103600Y0100523D01*
X0103600Y0102460D01*
X0102439Y0103621D01*
X0101800Y0105165D01*
X0101800Y0106835D01*
X0102439Y0108379D01*
X0103600Y0109540D01*
X0103600Y0120006D01*
X0103500Y0120106D01*
X0098400Y0115006D01*
X0098400Y0109540D01*
X0099561Y0108379D01*
X0100200Y0106835D01*
X0100200Y0105165D01*
X0099561Y0103621D01*
X0098400Y0102460D01*
X0098400Y0091458D01*
X0100600Y0091458D01*
X0101537Y0090521D01*
X0101537Y0083290D01*
X0100600Y0082353D01*
X0091400Y0082353D01*
X0090463Y0083290D01*
X0090463Y0090521D01*
X0091400Y0091458D01*
X0093600Y0091458D01*
X0093600Y0102460D01*
X0092439Y0103621D01*
X0091800Y0105165D01*
X0091800Y0106835D01*
X0092439Y0108379D01*
X0093600Y0109540D01*
X0093600Y0116477D01*
X0093965Y0117359D01*
X0094641Y0118035D01*
X0099151Y0122545D01*
X0099151Y0123613D01*
X0093605Y0123613D01*
X0092668Y0124550D01*
X0092668Y0131781D01*
X0093605Y0132718D01*
X0106037Y0132718D01*
X0106171Y0132795D01*
X0106629Y0132918D01*
X0107850Y0132918D01*
X0107850Y0128165D01*
X0111000Y0128165D01*
X0110635Y0128165D01*
X0107851Y0128165D01*
X0107851Y0128165D01*
X0111000Y0128165D01*
X0111000Y0128165D01*
X0111000Y0075094D01*
X0111000Y0061000D01*
X0106000Y0056000D01*
X0106000Y0046598D01*
X0106598Y0046000D01*
X0101000Y0046000D01*
X0100151Y0045758D02*
X0105824Y0045758D01*
X0106598Y0046000D02*
X0116000Y0046000D01*
X0126000Y0056000D01*
X0161000Y0056000D01*
X0161100Y0056100D02*
X0161100Y0060600D01*
X0164162Y0060600D01*
X0164877Y0060487D01*
X0165566Y0060263D01*
X0166211Y0059934D01*
X0166797Y0059509D01*
X0167309Y0058997D01*
X0167734Y0058411D01*
X0168063Y0057766D01*
X0168287Y0057077D01*
X0168400Y0056362D01*
X0168400Y0056100D01*
X0161100Y0056100D01*
X0161100Y0056948D02*
X0160900Y0056948D01*
X0160900Y0058546D02*
X0161100Y0058546D01*
X0161100Y0060145D02*
X0160900Y0060145D01*
X0156203Y0060145D02*
X0088400Y0060145D01*
X0088400Y0061743D02*
X0181862Y0061743D01*
X0180463Y0060145D02*
X0165797Y0060145D01*
X0167636Y0058546D02*
X0180463Y0058546D01*
X0180463Y0056948D02*
X0168307Y0056948D01*
X0168354Y0055349D02*
X0180463Y0055349D01*
X0180463Y0053751D02*
X0167817Y0053751D01*
X0161000Y0046000D02*
X0131000Y0046000D01*
X0121000Y0036000D01*
X0091000Y0036000D01*
X0071000Y0056000D01*
X0073446Y0056948D02*
X0083600Y0056948D01*
X0083600Y0058546D02*
X0073400Y0058546D01*
X0073400Y0060145D02*
X0083600Y0060145D01*
X0083600Y0061743D02*
X0073400Y0061743D01*
X0073400Y0063342D02*
X0083600Y0063342D01*
X0083600Y0064940D02*
X0073400Y0064940D01*
X0073400Y0066539D02*
X0083600Y0066539D01*
X0083600Y0068137D02*
X0073400Y0068137D01*
X0073400Y0069736D02*
X0083600Y0069736D01*
X0083600Y0071334D02*
X0073400Y0071334D01*
X0073400Y0072933D02*
X0083600Y0072933D01*
X0083600Y0074532D02*
X0073400Y0074532D01*
X0073400Y0076130D02*
X0083600Y0076130D01*
X0083600Y0077729D02*
X0073400Y0077729D01*
X0073400Y0079327D02*
X0083600Y0079327D01*
X0083600Y0080926D02*
X0073400Y0080926D01*
X0073400Y0082524D02*
X0083600Y0082524D01*
X0083600Y0084123D02*
X0073400Y0084123D01*
X0073400Y0085721D02*
X0083600Y0085721D01*
X0083600Y0087320D02*
X0073400Y0087320D01*
X0073400Y0088918D02*
X0083600Y0088918D01*
X0083600Y0090517D02*
X0073400Y0090517D01*
X0073400Y0092115D02*
X0083600Y0092115D01*
X0083600Y0093714D02*
X0073400Y0093714D01*
X0073400Y0095312D02*
X0083600Y0095312D01*
X0083600Y0096911D02*
X0073400Y0096911D01*
X0073400Y0098509D02*
X0083600Y0098509D01*
X0083600Y0100108D02*
X0073400Y0100108D01*
X0073400Y0101706D02*
X0083600Y0101706D01*
X0083600Y0103305D02*
X0073400Y0103305D01*
X0073400Y0104903D02*
X0083600Y0104903D01*
X0083600Y0106502D02*
X0073400Y0106502D01*
X0073400Y0108100D02*
X0083600Y0108100D01*
X0083600Y0109699D02*
X0073400Y0109699D01*
X0073400Y0111297D02*
X0083600Y0111297D01*
X0083600Y0112896D02*
X0073400Y0112896D01*
X0073400Y0114494D02*
X0083600Y0114494D01*
X0083600Y0116093D02*
X0073400Y0116093D01*
X0073400Y0117691D02*
X0083600Y0117691D01*
X0083600Y0119290D02*
X0073400Y0119290D01*
X0073400Y0120888D02*
X0083600Y0120888D01*
X0083600Y0122487D02*
X0073400Y0122487D01*
X0073400Y0124085D02*
X0083600Y0124085D01*
X0082922Y0125684D02*
X0073400Y0125684D01*
X0073400Y0127282D02*
X0081323Y0127282D01*
X0079725Y0128881D02*
X0073400Y0128881D01*
X0073400Y0130479D02*
X0078618Y0130479D01*
X0078600Y0132078D02*
X0073400Y0132078D01*
X0073400Y0133676D02*
X0078600Y0133676D01*
X0078600Y0135275D02*
X0073400Y0135275D01*
X0073400Y0136873D02*
X0078600Y0136873D01*
X0078600Y0138472D02*
X0073400Y0138472D01*
X0073400Y0140070D02*
X0078600Y0140070D01*
X0078600Y0141669D02*
X0073400Y0141669D01*
X0073400Y0143268D02*
X0078600Y0143268D01*
X0078600Y0144866D02*
X0073400Y0144866D01*
X0073400Y0146465D02*
X0078600Y0146465D01*
X0078600Y0148063D02*
X0073400Y0148063D01*
X0073400Y0149662D02*
X0078600Y0149662D01*
X0078600Y0151260D02*
X0073400Y0151260D01*
X0073400Y0152859D02*
X0078600Y0152859D01*
X0078600Y0154457D02*
X0073400Y0154457D01*
X0073400Y0156056D02*
X0078600Y0156056D01*
X0079260Y0157654D02*
X0072740Y0157654D01*
X0071141Y0159253D02*
X0074353Y0159253D01*
X0072755Y0160851D02*
X0069543Y0160851D01*
X0067944Y0162450D02*
X0071156Y0162450D01*
X0069558Y0164048D02*
X0066346Y0164048D01*
X0064747Y0165647D02*
X0067959Y0165647D01*
X0066361Y0167245D02*
X0063149Y0167245D01*
X0061550Y0168844D02*
X0064762Y0168844D01*
X0063633Y0170442D02*
X0059952Y0170442D01*
X0058353Y0172041D02*
X0063600Y0172041D01*
X0063600Y0173639D02*
X0056755Y0173639D01*
X0055156Y0175238D02*
X0063600Y0175238D01*
X0061754Y0176836D02*
X0053558Y0176836D01*
X0053400Y0178435D02*
X0059543Y0178435D01*
X0058838Y0180033D02*
X0053400Y0180033D01*
X0053400Y0181632D02*
X0058800Y0181632D01*
X0059361Y0183230D02*
X0053400Y0183230D01*
X0053400Y0184829D02*
X0060946Y0184829D01*
X0059952Y0188026D02*
X0053400Y0188026D01*
X0053400Y0189624D02*
X0059007Y0189624D01*
X0058800Y0191223D02*
X0053400Y0191223D01*
X0053400Y0192821D02*
X0059192Y0192821D01*
X0060397Y0194420D02*
X0053400Y0194420D01*
X0053400Y0196018D02*
X0072588Y0196018D01*
X0071603Y0194420D02*
X0074186Y0194420D01*
X0072808Y0192821D02*
X0075785Y0192821D01*
X0077383Y0191223D02*
X0074171Y0191223D01*
X0075770Y0189624D02*
X0078600Y0189624D01*
X0078600Y0188026D02*
X0077368Y0188026D01*
X0078400Y0186427D02*
X0078600Y0186427D01*
X0078600Y0184829D02*
X0078400Y0184829D01*
X0078400Y0183230D02*
X0078600Y0183230D01*
X0078600Y0181632D02*
X0078400Y0181632D01*
X0078400Y0180033D02*
X0078600Y0180033D01*
X0078600Y0178435D02*
X0078400Y0178435D01*
X0078400Y0176836D02*
X0078600Y0176836D01*
X0078600Y0175238D02*
X0078400Y0175238D01*
X0078400Y0173639D02*
X0078600Y0173639D01*
X0078600Y0172041D02*
X0078400Y0172041D01*
X0078400Y0170442D02*
X0078633Y0170442D01*
X0078400Y0168844D02*
X0079762Y0168844D01*
X0078400Y0167245D02*
X0081361Y0167245D01*
X0081000Y0171000D02*
X0081000Y0191000D01*
X0071000Y0201000D01*
X0071143Y0207208D02*
X0076398Y0207208D01*
X0075208Y0218398D02*
X0072420Y0218398D01*
X0059988Y0204011D02*
X0053400Y0204011D01*
X0053400Y0202412D02*
X0059023Y0202412D01*
X0058800Y0200814D02*
X0053400Y0200814D01*
X0053400Y0199215D02*
X0059177Y0199215D01*
X0060361Y0197617D02*
X0053400Y0197617D01*
X0066000Y0191000D02*
X0071000Y0191000D01*
X0076000Y0186000D01*
X0076000Y0166000D01*
X0078402Y0163598D01*
X0088165Y0163598D01*
X0088165Y0160449D02*
X0076551Y0160449D01*
X0066000Y0171000D01*
X0066000Y0181000D01*
X0071054Y0184829D02*
X0073600Y0184829D01*
X0073600Y0183230D02*
X0072639Y0183230D01*
X0073200Y0181632D02*
X0073600Y0181632D01*
X0073600Y0180033D02*
X0073162Y0180033D01*
X0073600Y0178435D02*
X0072457Y0178435D01*
X0073600Y0176836D02*
X0070246Y0176836D01*
X0068400Y0175238D02*
X0073600Y0175238D01*
X0073600Y0173639D02*
X0068400Y0173639D01*
X0068400Y0172041D02*
X0073600Y0172041D01*
X0073600Y0170442D02*
X0069952Y0170442D01*
X0071550Y0168844D02*
X0073600Y0168844D01*
X0073600Y0167245D02*
X0073149Y0167245D01*
X0081000Y0171000D02*
X0085252Y0166748D01*
X0088165Y0166748D01*
X0095252Y0173835D02*
X0095252Y0191748D01*
X0098402Y0198598D02*
X0098402Y0173835D01*
X0101551Y0173835D02*
X0101551Y0205449D01*
X0104701Y0212299D02*
X0104701Y0173835D01*
X0088165Y0157299D02*
X0082299Y0157299D01*
X0081000Y0156000D01*
X0081000Y0131000D01*
X0086000Y0126000D01*
X0086000Y0056000D01*
X0095402Y0046598D01*
X0095402Y0046000D01*
X0100151Y0047357D02*
X0101649Y0047357D01*
X0101649Y0048955D02*
X0100151Y0048955D01*
X0099809Y0050554D02*
X0101950Y0050554D01*
X0105824Y0050554D02*
X0107373Y0050554D01*
X0107373Y0051349D02*
X0107373Y0046775D01*
X0111548Y0046775D01*
X0111548Y0049786D01*
X0111425Y0050244D01*
X0111188Y0050654D01*
X0110853Y0050990D01*
X0110443Y0051227D01*
X0109985Y0051349D01*
X0107373Y0051349D01*
X0107373Y0048955D02*
X0105824Y0048955D01*
X0105824Y0047357D02*
X0107373Y0047357D01*
X0107373Y0045758D02*
X0117788Y0045758D01*
X0116190Y0044160D02*
X0111548Y0044160D01*
X0111548Y0047357D02*
X0119387Y0047357D01*
X0120985Y0048955D02*
X0111548Y0048955D01*
X0111246Y0050554D02*
X0122584Y0050554D01*
X0124183Y0052152D02*
X0093242Y0052152D01*
X0091643Y0053751D02*
X0154183Y0053751D01*
X0153646Y0055349D02*
X0090045Y0055349D01*
X0088446Y0056948D02*
X0153693Y0056948D01*
X0154364Y0058546D02*
X0088400Y0058546D01*
X0088400Y0063342D02*
X0180264Y0063342D01*
X0178665Y0064940D02*
X0088400Y0064940D01*
X0088400Y0066539D02*
X0177067Y0066539D01*
X0175468Y0068137D02*
X0088400Y0068137D01*
X0088400Y0069736D02*
X0173870Y0069736D01*
X0172271Y0071334D02*
X0116549Y0071334D01*
X0116614Y0071447D02*
X0116737Y0071905D01*
X0116737Y0074418D01*
X0111676Y0074418D01*
X0111676Y0070342D01*
X0115174Y0070342D01*
X0115632Y0070464D01*
X0116042Y0070701D01*
X0116377Y0071037D01*
X0116614Y0071447D01*
X0116737Y0072933D02*
X0170673Y0072933D01*
X0169074Y0074532D02*
X0111676Y0074532D01*
X0111676Y0074418D02*
X0111676Y0075771D01*
X0110324Y0075771D01*
X0110324Y0079847D01*
X0106826Y0079847D01*
X0106368Y0079725D01*
X0105958Y0079488D01*
X0105623Y0079152D01*
X0105386Y0078742D01*
X0105263Y0078284D01*
X0105263Y0075771D01*
X0110324Y0075771D01*
X0110324Y0074418D01*
X0111676Y0074418D01*
X0111000Y0075094D02*
X0096000Y0075094D01*
X0096676Y0074532D02*
X0110324Y0074532D01*
X0110324Y0074418D02*
X0105263Y0074418D01*
X0105263Y0071905D01*
X0105386Y0071447D01*
X0105623Y0071037D01*
X0105958Y0070701D01*
X0106368Y0070464D01*
X0106826Y0070342D01*
X0110324Y0070342D01*
X0110324Y0074418D01*
X0110324Y0072933D02*
X0111676Y0072933D01*
X0111676Y0071334D02*
X0110324Y0071334D01*
X0111676Y0075771D02*
X0116737Y0075771D01*
X0116737Y0078284D01*
X0116614Y0078742D01*
X0116377Y0079152D01*
X0116042Y0079488D01*
X0115632Y0079725D01*
X0115174Y0079847D01*
X0111676Y0079847D01*
X0111676Y0075771D01*
X0111676Y0076130D02*
X0110324Y0076130D01*
X0110324Y0077729D02*
X0111676Y0077729D01*
X0111676Y0079327D02*
X0110324Y0079327D01*
X0105797Y0079327D02*
X0101203Y0079327D01*
X0101042Y0079488D02*
X0100632Y0079725D01*
X0100174Y0079847D01*
X0096676Y0079847D01*
X0096676Y0075771D01*
X0095324Y0075771D01*
X0095324Y0079847D01*
X0091826Y0079847D01*
X0091368Y0079725D01*
X0090958Y0079488D01*
X0090623Y0079152D01*
X0090386Y0078742D01*
X0090263Y0078284D01*
X0090263Y0075771D01*
X0095324Y0075771D01*
X0095324Y0074418D01*
X0096676Y0074418D01*
X0096676Y0070342D01*
X0100174Y0070342D01*
X0100632Y0070464D01*
X0101042Y0070701D01*
X0101377Y0071037D01*
X0101614Y0071447D01*
X0101737Y0071905D01*
X0101737Y0074418D01*
X0096676Y0074418D01*
X0096676Y0075771D01*
X0101737Y0075771D01*
X0101737Y0078284D01*
X0101614Y0078742D01*
X0101377Y0079152D01*
X0101042Y0079488D01*
X0101737Y0077729D02*
X0105263Y0077729D01*
X0105263Y0076130D02*
X0101737Y0076130D01*
X0101737Y0072933D02*
X0105263Y0072933D01*
X0105451Y0071334D02*
X0101549Y0071334D01*
X0096676Y0071334D02*
X0095324Y0071334D01*
X0095324Y0070342D02*
X0095324Y0074418D01*
X0090263Y0074418D01*
X0090263Y0071905D01*
X0090386Y0071447D01*
X0090623Y0071037D01*
X0090958Y0070701D01*
X0091368Y0070464D01*
X0091826Y0070342D01*
X0095324Y0070342D01*
X0095324Y0072933D02*
X0096676Y0072933D01*
X0095324Y0074532D02*
X0088400Y0074532D01*
X0088400Y0076130D02*
X0090263Y0076130D01*
X0090263Y0077729D02*
X0088400Y0077729D01*
X0088400Y0079327D02*
X0090797Y0079327D01*
X0088400Y0080926D02*
X0126213Y0080926D01*
X0125463Y0082524D02*
X0115771Y0082524D01*
X0116537Y0084123D02*
X0125463Y0084123D01*
X0125463Y0085721D02*
X0116537Y0085721D01*
X0116537Y0087320D02*
X0125463Y0087320D01*
X0125463Y0088918D02*
X0116537Y0088918D01*
X0116537Y0090517D02*
X0172547Y0090517D01*
X0171000Y0085488D02*
X0171000Y0076000D01*
X0186000Y0061000D01*
X0186000Y0056512D01*
X0206000Y0056512D01*
X0206000Y0045488D02*
X0186000Y0045488D01*
X0185488Y0046000D01*
X0161000Y0046000D01*
X0128963Y0047357D02*
X0125327Y0047357D01*
X0123728Y0045758D02*
X0127364Y0045758D01*
X0125766Y0044160D02*
X0122130Y0044160D01*
X0120531Y0042561D02*
X0124167Y0042561D01*
X0122569Y0040963D02*
X0118933Y0040963D01*
X0117334Y0039364D02*
X0120970Y0039364D01*
X0101649Y0044160D02*
X0100151Y0044160D01*
X0094666Y0039364D02*
X0091030Y0039364D01*
X0091477Y0040963D02*
X0089431Y0040963D01*
X0090652Y0042561D02*
X0087833Y0042561D01*
X0086234Y0044160D02*
X0090652Y0044160D01*
X0090652Y0045758D02*
X0084636Y0045758D01*
X0083037Y0047357D02*
X0090652Y0047357D01*
X0089651Y0048955D02*
X0081439Y0048955D01*
X0079840Y0050554D02*
X0088052Y0050554D01*
X0086454Y0052152D02*
X0078242Y0052152D01*
X0076643Y0053751D02*
X0084855Y0053751D01*
X0083672Y0055349D02*
X0075045Y0055349D01*
X0088400Y0071334D02*
X0090451Y0071334D01*
X0090263Y0072933D02*
X0088400Y0072933D01*
X0095324Y0076130D02*
X0096676Y0076130D01*
X0096676Y0077729D02*
X0095324Y0077729D01*
X0095324Y0079327D02*
X0096676Y0079327D01*
X0100771Y0082524D02*
X0106229Y0082524D01*
X0105463Y0084123D02*
X0101537Y0084123D01*
X0101537Y0085721D02*
X0105463Y0085721D01*
X0105463Y0087320D02*
X0101537Y0087320D01*
X0101537Y0088918D02*
X0105463Y0088918D01*
X0105463Y0090517D02*
X0101537Y0090517D01*
X0098400Y0092115D02*
X0108600Y0092115D01*
X0108600Y0093714D02*
X0098400Y0093714D01*
X0098400Y0095312D02*
X0108294Y0095312D01*
X0106695Y0096911D02*
X0098400Y0096911D01*
X0098400Y0098509D02*
X0105097Y0098509D01*
X0103772Y0100108D02*
X0098400Y0100108D01*
X0098400Y0101706D02*
X0103600Y0101706D01*
X0102756Y0103305D02*
X0099244Y0103305D01*
X0100092Y0104903D02*
X0101908Y0104903D01*
X0101800Y0106502D02*
X0100200Y0106502D01*
X0099676Y0108100D02*
X0102324Y0108100D01*
X0103600Y0109699D02*
X0098400Y0109699D01*
X0098400Y0111297D02*
X0103600Y0111297D01*
X0103600Y0112896D02*
X0098400Y0112896D01*
X0098400Y0114494D02*
X0103600Y0114494D01*
X0103600Y0116093D02*
X0099487Y0116093D01*
X0101085Y0117691D02*
X0103600Y0117691D01*
X0103600Y0119290D02*
X0102684Y0119290D01*
X0101551Y0121551D02*
X0096000Y0116000D01*
X0096000Y0106000D01*
X0096000Y0086906D01*
X0091229Y0082524D02*
X0088400Y0082524D01*
X0088400Y0084123D02*
X0090463Y0084123D01*
X0090463Y0085721D02*
X0088400Y0085721D01*
X0088400Y0087320D02*
X0090463Y0087320D01*
X0090463Y0088918D02*
X0088400Y0088918D01*
X0088400Y0090517D02*
X0090463Y0090517D01*
X0088400Y0092115D02*
X0093600Y0092115D01*
X0093600Y0093714D02*
X0088400Y0093714D01*
X0088400Y0095312D02*
X0093600Y0095312D01*
X0093600Y0096911D02*
X0088400Y0096911D01*
X0088400Y0098509D02*
X0093600Y0098509D01*
X0093600Y0100108D02*
X0088400Y0100108D01*
X0088400Y0101706D02*
X0093600Y0101706D01*
X0092756Y0103305D02*
X0088400Y0103305D01*
X0088400Y0104903D02*
X0091908Y0104903D01*
X0091800Y0106502D02*
X0088400Y0106502D01*
X0088400Y0108100D02*
X0092324Y0108100D01*
X0093600Y0109699D02*
X0088400Y0109699D01*
X0088400Y0111297D02*
X0093600Y0111297D01*
X0093600Y0112896D02*
X0088400Y0112896D01*
X0088400Y0114494D02*
X0093600Y0114494D01*
X0093600Y0116093D02*
X0088400Y0116093D01*
X0088400Y0117691D02*
X0094297Y0117691D01*
X0095896Y0119290D02*
X0088400Y0119290D01*
X0088400Y0120888D02*
X0097494Y0120888D01*
X0099093Y0122487D02*
X0088400Y0122487D01*
X0088400Y0124085D02*
X0093132Y0124085D01*
X0092668Y0125684D02*
X0088400Y0125684D01*
X0088067Y0127282D02*
X0092668Y0127282D01*
X0092668Y0128881D02*
X0086513Y0128881D01*
X0084915Y0130479D02*
X0092668Y0130479D01*
X0092965Y0132078D02*
X0083400Y0132078D01*
X0083400Y0133676D02*
X0083613Y0133676D01*
X0083613Y0135275D02*
X0083400Y0135275D01*
X0083400Y0136873D02*
X0083613Y0136873D01*
X0083613Y0138472D02*
X0083400Y0138472D01*
X0083400Y0140070D02*
X0083613Y0140070D01*
X0083613Y0141669D02*
X0083400Y0141669D01*
X0083400Y0143268D02*
X0083613Y0143268D01*
X0083613Y0144866D02*
X0083400Y0144866D01*
X0083400Y0146465D02*
X0083613Y0146465D01*
X0083613Y0148063D02*
X0083400Y0148063D01*
X0083400Y0149662D02*
X0083613Y0149662D01*
X0083613Y0151260D02*
X0083400Y0151260D01*
X0083400Y0152859D02*
X0083613Y0152859D01*
X0083613Y0154457D02*
X0083400Y0154457D01*
X0092718Y0151260D02*
X0129282Y0151260D01*
X0129282Y0149662D02*
X0092718Y0149662D01*
X0092718Y0148063D02*
X0129282Y0148063D01*
X0129282Y0146465D02*
X0092718Y0146465D01*
X0092718Y0144866D02*
X0129282Y0144866D01*
X0129282Y0143268D02*
X0092718Y0143268D01*
X0092718Y0141669D02*
X0129282Y0141669D01*
X0129282Y0140070D02*
X0092718Y0140070D01*
X0092718Y0138472D02*
X0129282Y0138472D01*
X0129282Y0136873D02*
X0092718Y0136873D01*
X0092718Y0135275D02*
X0129282Y0135275D01*
X0129282Y0133676D02*
X0092718Y0133676D01*
X0101551Y0128165D02*
X0101551Y0121551D01*
X0104701Y0122299D02*
X0106000Y0121000D01*
X0106000Y0106000D01*
X0106000Y0101000D01*
X0111000Y0096000D01*
X0111000Y0086906D01*
X0111000Y0086000D01*
X0113400Y0092115D02*
X0126047Y0092115D01*
X0125463Y0093714D02*
X0113400Y0093714D01*
X0113400Y0095312D02*
X0125463Y0095312D01*
X0125463Y0096911D02*
X0113221Y0096911D01*
X0111885Y0098509D02*
X0125463Y0098509D01*
X0125463Y0100108D02*
X0110286Y0100108D01*
X0108688Y0101706D02*
X0126900Y0101706D01*
X0125301Y0103305D02*
X0109244Y0103305D01*
X0110092Y0104903D02*
X0123703Y0104903D01*
X0122104Y0106502D02*
X0110200Y0106502D01*
X0109676Y0108100D02*
X0120506Y0108100D01*
X0118907Y0109699D02*
X0108400Y0109699D01*
X0108400Y0111297D02*
X0117309Y0111297D01*
X0115710Y0112896D02*
X0108400Y0112896D01*
X0108400Y0114494D02*
X0114112Y0114494D01*
X0112513Y0116093D02*
X0108400Y0116093D01*
X0108400Y0117691D02*
X0111750Y0117691D01*
X0111750Y0119290D02*
X0108400Y0119290D01*
X0108400Y0120888D02*
X0111750Y0120888D01*
X0111750Y0122487D02*
X0107907Y0122487D01*
X0107850Y0124085D02*
X0107850Y0124085D01*
X0107850Y0125684D02*
X0107850Y0125684D01*
X0107850Y0127282D02*
X0107850Y0127282D01*
X0107850Y0128165D02*
X0107850Y0128165D01*
X0107850Y0132918D01*
X0109072Y0132918D01*
X0109425Y0132823D01*
X0109779Y0132918D01*
X0111000Y0132918D01*
X0111000Y0128165D01*
X0111000Y0128165D01*
X0111000Y0128881D02*
X0111000Y0128881D01*
X0111000Y0130479D02*
X0111000Y0130479D01*
X0111000Y0132078D02*
X0111000Y0132078D01*
X0107850Y0132078D02*
X0107850Y0132078D01*
X0107850Y0130479D02*
X0107850Y0130479D01*
X0107850Y0128881D02*
X0107850Y0128881D01*
X0104701Y0128165D02*
X0104701Y0122299D01*
X0111000Y0124085D02*
X0111000Y0124085D01*
X0111000Y0125684D02*
X0111000Y0125684D01*
X0111000Y0127282D02*
X0111000Y0127282D01*
X0114150Y0128165D02*
X0114150Y0117850D01*
X0131000Y0101000D01*
X0131000Y0096512D01*
X0136537Y0096911D02*
X0145463Y0096911D01*
X0145463Y0098509D02*
X0136537Y0098509D01*
X0136537Y0100108D02*
X0143498Y0100108D01*
X0141900Y0101706D02*
X0133305Y0101706D01*
X0132359Y0103035D02*
X0132359Y0103035D01*
X0132089Y0103305D02*
X0140301Y0103305D01*
X0141000Y0106000D02*
X0146000Y0101000D01*
X0146512Y0101000D01*
X0151000Y0096512D01*
X0156537Y0096911D02*
X0165463Y0096911D01*
X0165463Y0098509D02*
X0156537Y0098509D01*
X0156537Y0100108D02*
X0158498Y0100108D01*
X0156900Y0101706D02*
X0149200Y0101706D01*
X0147219Y0103305D02*
X0155301Y0103305D01*
X0153703Y0104903D02*
X0145491Y0104903D01*
X0143892Y0106502D02*
X0152104Y0106502D01*
X0150506Y0108100D02*
X0142201Y0108100D01*
X0141000Y0106000D02*
X0131000Y0106000D01*
X0117299Y0119701D01*
X0117299Y0128165D01*
X0120449Y0128165D02*
X0120449Y0121551D01*
X0131000Y0111000D01*
X0151000Y0111000D01*
X0161000Y0101000D01*
X0166512Y0101000D01*
X0171000Y0096512D01*
X0165463Y0095312D02*
X0156537Y0095312D01*
X0156537Y0093714D02*
X0165463Y0093714D01*
X0166047Y0092115D02*
X0155953Y0092115D01*
X0156537Y0088918D02*
X0165463Y0088918D01*
X0165463Y0082524D02*
X0156537Y0082524D01*
X0155787Y0080926D02*
X0166213Y0080926D01*
X0168600Y0079327D02*
X0116203Y0079327D01*
X0116737Y0077729D02*
X0168600Y0077729D01*
X0168600Y0076130D02*
X0116737Y0076130D01*
X0131000Y0085488D02*
X0151000Y0085488D01*
X0171000Y0085488D01*
X0146213Y0080926D02*
X0135787Y0080926D01*
X0136537Y0082524D02*
X0145463Y0082524D01*
X0145463Y0088918D02*
X0136537Y0088918D01*
X0135953Y0092115D02*
X0146047Y0092115D01*
X0145463Y0093714D02*
X0136537Y0093714D01*
X0136537Y0095312D02*
X0145463Y0095312D01*
X0151000Y0116000D02*
X0131000Y0116000D01*
X0123598Y0123402D01*
X0123598Y0128165D01*
X0129332Y0128881D02*
X0163900Y0128881D01*
X0163900Y0130479D02*
X0129332Y0130479D01*
X0129035Y0132078D02*
X0163900Y0132078D01*
X0163900Y0133676D02*
X0138387Y0133676D01*
X0138387Y0135275D02*
X0163900Y0135275D01*
X0163900Y0136873D02*
X0138387Y0136873D01*
X0138387Y0138472D02*
X0163900Y0138472D01*
X0163900Y0140070D02*
X0138387Y0140070D01*
X0138387Y0141669D02*
X0162361Y0141669D01*
X0160763Y0143268D02*
X0138387Y0143268D01*
X0138387Y0144866D02*
X0159164Y0144866D01*
X0157566Y0146465D02*
X0138387Y0146465D01*
X0138387Y0148063D02*
X0155967Y0148063D01*
X0154369Y0149662D02*
X0138387Y0149662D01*
X0138387Y0151260D02*
X0152770Y0151260D01*
X0151172Y0152859D02*
X0138569Y0152859D01*
X0138587Y0154457D02*
X0149573Y0154457D01*
X0147975Y0156056D02*
X0138387Y0156056D01*
X0138387Y0157654D02*
X0146376Y0157654D01*
X0144778Y0159253D02*
X0138387Y0159253D01*
X0138387Y0160851D02*
X0143179Y0160851D01*
X0141580Y0162450D02*
X0138387Y0162450D01*
X0138387Y0164048D02*
X0139982Y0164048D01*
X0133835Y0154150D02*
X0133835Y0154150D01*
X0129082Y0154150D01*
X0129082Y0152928D01*
X0129332Y0127282D02*
X0163900Y0127282D01*
X0160488Y0121000D02*
X0156000Y0121000D01*
X0151000Y0116000D01*
X0150896Y0119290D02*
X0131104Y0119290D01*
X0129506Y0120888D02*
X0152494Y0120888D01*
X0154093Y0122487D02*
X0127907Y0122487D01*
X0128868Y0124085D02*
X0155739Y0124085D01*
X0155823Y0125684D02*
X0129332Y0125684D01*
X0072179Y0186427D02*
X0053400Y0186427D01*
X0053400Y0237580D02*
X0060398Y0237580D01*
X0059192Y0239178D02*
X0053400Y0239178D01*
X0053400Y0240777D02*
X0058800Y0240777D01*
X0059007Y0242375D02*
X0053400Y0242375D01*
X0147339Y0246000D02*
X0156239Y0254900D01*
X0168200Y0254900D01*
X0193800Y0254900D01*
X0211000Y0236000D02*
X0213500Y0238500D01*
X0211000Y0236000D02*
X0196000Y0236000D01*
X0194900Y0237100D01*
X0193800Y0237100D01*
X0194900Y0236000D01*
X0169300Y0236000D01*
X0168200Y0237100D01*
X0194900Y0236000D02*
X0196000Y0236000D01*
X0213800Y0204900D02*
X0216000Y0204900D01*
X0213800Y0202700D01*
X0213800Y0193500D01*
X0213800Y0187100D01*
X0213800Y0164900D01*
X0213800Y0147100D01*
X0213800Y0124900D01*
X0213800Y0107100D01*
X0213800Y0089900D01*
X0216000Y0204900D02*
X0229900Y0204900D01*
X0231000Y0206000D01*
X0236000Y0206000D01*
X0236000Y0235488D02*
X0236000Y0236000D01*
D21*
X0231000Y0241000D02*
X0363500Y0241000D01*
X0363500Y0071000D01*
X0343500Y0051000D01*
X0126000Y0051000D01*
X0116000Y0041000D01*
X0096000Y0041000D01*
X0096000Y0046000D01*
X0095402Y0046000D01*
X0171000Y0085488D02*
X0171000Y0086000D01*
X0178500Y0093500D01*
X0178500Y0098500D01*
X0166000Y0111000D01*
X0166000Y0141000D01*
X0136000Y0171000D01*
X0131000Y0171000D01*
X0128500Y0168500D01*
X0123500Y0168500D01*
X0123500Y0173500D01*
X0123598Y0173835D01*
X0123500Y0176000D01*
X0123500Y0178500D01*
X0138500Y0193500D01*
X0213800Y0193500D01*
X0228500Y0231000D02*
X0228500Y0238500D01*
X0231000Y0241000D01*
X0228500Y0231000D02*
X0163500Y0231000D01*
X0148500Y0246000D01*
X0147339Y0246000D01*
X0071000Y0201000D02*
X0066000Y0201000D01*
X0258800Y0204900D02*
X0261000Y0206000D01*
X0261000Y0211000D01*
X0308500Y0211000D01*
X0313500Y0206000D01*
X0313500Y0198500D01*
X0353800Y0198500D01*
X0353500Y0166000D02*
X0328500Y0166000D01*
X0328200Y0164900D01*
X0326000Y0166000D01*
X0311000Y0166000D01*
X0308800Y0164900D01*
X0353500Y0166000D02*
X0353800Y0164900D01*
X0356000Y0166000D01*
X0353800Y0126000D02*
X0353500Y0126000D01*
X0353800Y0124900D01*
M02*
