G75*
%MOIN*%
%OFA0B0*%
%FSLAX25Y25*%
%IPPOS*%
%LPD*%
%AMOC8*
5,1,8,0,0,1.08239X$1,22.5*
%
%ADD10R,0.07874X0.05906*%
%ADD11R,0.16929X0.09843*%
%ADD12C,0.06600*%
%ADD13R,0.05906X0.01969*%
%ADD14R,0.01969X0.05906*%
%ADD15C,0.05200*%
%ADD16R,0.06299X0.07874*%
%ADD17C,0.05200*%
%ADD18C,0.06000*%
%ADD19C,0.05600*%
%ADD20C,0.01600*%
%ADD21C,0.01000*%
D10*
X0121000Y0240094D03*
X0121000Y0251906D03*
X0141000Y0251906D03*
X0141000Y0240094D03*
D11*
X0072339Y0286000D03*
X0039661Y0286000D03*
D12*
X0210016Y0187024D03*
X0220016Y0187024D03*
X0230016Y0187024D03*
X0240016Y0187024D03*
X0250016Y0187024D03*
X0260016Y0187024D03*
X0270016Y0187024D03*
X0280016Y0187024D03*
X0290016Y0187024D03*
X0300016Y0187024D03*
X0310016Y0187024D03*
X0320016Y0187024D03*
X0330016Y0187024D03*
X0340016Y0187024D03*
X0350016Y0187024D03*
X0360016Y0187024D03*
D13*
X0143835Y0171748D03*
X0143835Y0168598D03*
X0143835Y0165449D03*
X0143835Y0162299D03*
X0143835Y0159150D03*
X0143835Y0156000D03*
X0143835Y0152850D03*
X0143835Y0149701D03*
X0143835Y0146551D03*
X0143835Y0143402D03*
X0143835Y0140252D03*
X0098165Y0140252D03*
X0098165Y0143402D03*
X0098165Y0146551D03*
X0098165Y0149701D03*
X0098165Y0152850D03*
X0098165Y0156000D03*
X0098165Y0159150D03*
X0098165Y0162299D03*
X0098165Y0165449D03*
X0098165Y0168598D03*
X0098165Y0171748D03*
D14*
X0105252Y0178835D03*
X0108402Y0178835D03*
X0111551Y0178835D03*
X0114701Y0178835D03*
X0117850Y0178835D03*
X0121000Y0178835D03*
X0124150Y0178835D03*
X0127299Y0178835D03*
X0130449Y0178835D03*
X0133598Y0178835D03*
X0136748Y0178835D03*
X0136748Y0133165D03*
X0133598Y0133165D03*
X0130449Y0133165D03*
X0127299Y0133165D03*
X0124150Y0133165D03*
X0121000Y0133165D03*
X0117850Y0133165D03*
X0114701Y0133165D03*
X0111551Y0133165D03*
X0108402Y0133165D03*
X0105252Y0133165D03*
D15*
X0126000Y0216000D03*
X0136000Y0216000D03*
D16*
X0101512Y0261000D03*
X0090488Y0261000D03*
D17*
X0211000Y0225100D02*
X0211000Y0219900D01*
X0221000Y0219900D02*
X0221000Y0225100D01*
X0231000Y0225100D02*
X0231000Y0219900D01*
D18*
X0059900Y0221200D02*
X0059900Y0215200D01*
X0042100Y0215200D02*
X0042100Y0221200D01*
X0042100Y0240800D02*
X0042100Y0246800D01*
X0059900Y0246800D02*
X0059900Y0240800D01*
D19*
X0091000Y0213800D02*
X0091000Y0208200D01*
X0101000Y0208200D02*
X0101000Y0213800D01*
D20*
X0021000Y0031000D02*
X0496000Y0031000D01*
X0496000Y0306000D01*
X0021000Y0306000D01*
X0021000Y0031000D01*
X0021000Y0031372D02*
X0496000Y0031372D01*
X0496000Y0032970D02*
X0021000Y0032970D01*
X0021000Y0034569D02*
X0496000Y0034569D01*
X0496000Y0036167D02*
X0021000Y0036167D01*
X0021000Y0037766D02*
X0496000Y0037766D01*
X0496000Y0039364D02*
X0021000Y0039364D01*
X0021000Y0040963D02*
X0496000Y0040963D01*
X0496000Y0042561D02*
X0021000Y0042561D01*
X0021000Y0044160D02*
X0496000Y0044160D01*
X0496000Y0045758D02*
X0021000Y0045758D01*
X0021000Y0047357D02*
X0496000Y0047357D01*
X0496000Y0048955D02*
X0021000Y0048955D01*
X0021000Y0050554D02*
X0496000Y0050554D01*
X0496000Y0052152D02*
X0021000Y0052152D01*
X0021000Y0053751D02*
X0496000Y0053751D01*
X0496000Y0055349D02*
X0485799Y0055349D01*
X0485571Y0055255D02*
X0489144Y0056735D01*
X0491879Y0059470D01*
X0493359Y0063043D01*
X0493359Y0066910D01*
X0491879Y0070483D01*
X0489144Y0073218D01*
X0485571Y0074698D01*
X0481704Y0074698D01*
X0478131Y0073218D01*
X0475397Y0070483D01*
X0473917Y0066910D01*
X0473917Y0063043D01*
X0475397Y0059470D01*
X0478131Y0056735D01*
X0481704Y0055255D01*
X0485571Y0055255D01*
X0481477Y0055349D02*
X0190523Y0055349D01*
X0190296Y0055255D02*
X0193869Y0056735D01*
X0196603Y0059470D01*
X0198083Y0063043D01*
X0198083Y0066910D01*
X0196603Y0070483D01*
X0193869Y0073218D01*
X0190296Y0074698D01*
X0186429Y0074698D01*
X0182856Y0073218D01*
X0180121Y0070483D01*
X0178641Y0066910D01*
X0178641Y0063043D01*
X0180121Y0059470D01*
X0182856Y0056735D01*
X0186429Y0055255D01*
X0190296Y0055255D01*
X0186201Y0055349D02*
X0021000Y0055349D01*
X0021000Y0056948D02*
X0182643Y0056948D01*
X0181044Y0058546D02*
X0021000Y0058546D01*
X0021000Y0060145D02*
X0179841Y0060145D01*
X0179179Y0061743D02*
X0021000Y0061743D01*
X0021000Y0063342D02*
X0178641Y0063342D01*
X0178641Y0064940D02*
X0021000Y0064940D01*
X0021000Y0066539D02*
X0178641Y0066539D01*
X0179149Y0068137D02*
X0021000Y0068137D01*
X0021000Y0069736D02*
X0179811Y0069736D01*
X0180972Y0071334D02*
X0021000Y0071334D01*
X0021000Y0072933D02*
X0182571Y0072933D01*
X0186028Y0074532D02*
X0021000Y0074532D01*
X0021000Y0076130D02*
X0496000Y0076130D01*
X0496000Y0074532D02*
X0485972Y0074532D01*
X0489429Y0072933D02*
X0496000Y0072933D01*
X0496000Y0071334D02*
X0491028Y0071334D01*
X0492189Y0069736D02*
X0496000Y0069736D01*
X0496000Y0068137D02*
X0492851Y0068137D01*
X0493359Y0066539D02*
X0496000Y0066539D01*
X0496000Y0064940D02*
X0493359Y0064940D01*
X0493359Y0063342D02*
X0496000Y0063342D01*
X0496000Y0061743D02*
X0492821Y0061743D01*
X0492159Y0060145D02*
X0496000Y0060145D01*
X0496000Y0058546D02*
X0490956Y0058546D01*
X0489357Y0056948D02*
X0496000Y0056948D01*
X0477918Y0056948D02*
X0194082Y0056948D01*
X0195680Y0058546D02*
X0476320Y0058546D01*
X0475117Y0060145D02*
X0196883Y0060145D01*
X0197545Y0061743D02*
X0474455Y0061743D01*
X0473917Y0063342D02*
X0198083Y0063342D01*
X0198083Y0064940D02*
X0473917Y0064940D01*
X0473917Y0066539D02*
X0198083Y0066539D01*
X0197575Y0068137D02*
X0474425Y0068137D01*
X0475087Y0069736D02*
X0196913Y0069736D01*
X0195752Y0071334D02*
X0476248Y0071334D01*
X0477846Y0072933D02*
X0194153Y0072933D01*
X0190697Y0074532D02*
X0481303Y0074532D01*
X0496000Y0077729D02*
X0021000Y0077729D01*
X0021000Y0079327D02*
X0496000Y0079327D01*
X0496000Y0080926D02*
X0021000Y0080926D01*
X0021000Y0082524D02*
X0496000Y0082524D01*
X0496000Y0084123D02*
X0021000Y0084123D01*
X0021000Y0085721D02*
X0496000Y0085721D01*
X0496000Y0087320D02*
X0021000Y0087320D01*
X0021000Y0088918D02*
X0496000Y0088918D01*
X0496000Y0090517D02*
X0278886Y0090517D01*
X0278170Y0089800D02*
X0369970Y0181600D01*
X0371200Y0182830D01*
X0371200Y0190870D01*
X0360400Y0201670D01*
X0359170Y0202900D01*
X0282730Y0202900D01*
X0271530Y0191700D01*
X0270990Y0191924D01*
X0269041Y0191924D01*
X0267240Y0191178D01*
X0265862Y0189799D01*
X0265116Y0187998D01*
X0265116Y0186049D01*
X0265862Y0184248D01*
X0267240Y0182870D01*
X0269041Y0182124D01*
X0270990Y0182124D01*
X0272791Y0182870D01*
X0274170Y0184248D01*
X0274916Y0186049D01*
X0274916Y0187998D01*
X0274580Y0188810D01*
X0284470Y0198700D01*
X0289330Y0198700D01*
X0282096Y0191466D01*
X0280990Y0191924D01*
X0279041Y0191924D01*
X0277240Y0191178D01*
X0275862Y0189799D01*
X0275116Y0187998D01*
X0275116Y0186049D01*
X0275862Y0184248D01*
X0277240Y0182870D01*
X0279041Y0182124D01*
X0280990Y0182124D01*
X0282791Y0182870D01*
X0284170Y0184248D01*
X0284916Y0186049D01*
X0284916Y0187998D01*
X0284814Y0188244D01*
X0285503Y0188933D01*
X0285116Y0187998D01*
X0285116Y0186049D01*
X0285862Y0184248D01*
X0287240Y0182870D01*
X0289041Y0182124D01*
X0290990Y0182124D01*
X0292791Y0182870D01*
X0294170Y0184248D01*
X0294916Y0186049D01*
X0294916Y0187998D01*
X0294785Y0188315D01*
X0295574Y0189104D01*
X0295116Y0187998D01*
X0295116Y0186049D01*
X0295862Y0184248D01*
X0297240Y0182870D01*
X0299041Y0182124D01*
X0300990Y0182124D01*
X0302791Y0182870D01*
X0304170Y0184248D01*
X0304916Y0186049D01*
X0304916Y0187998D01*
X0304755Y0188386D01*
X0305644Y0189275D01*
X0305116Y0187998D01*
X0305116Y0186049D01*
X0305862Y0184248D01*
X0307240Y0182870D01*
X0308838Y0182208D01*
X0272830Y0146200D01*
X0148387Y0146200D01*
X0148387Y0163600D01*
X0239470Y0163600D01*
X0258300Y0182430D01*
X0259041Y0182124D01*
X0260990Y0182124D01*
X0262791Y0182870D01*
X0264170Y0184248D01*
X0264916Y0186049D01*
X0264916Y0187998D01*
X0264170Y0189799D01*
X0262791Y0191178D01*
X0260990Y0191924D01*
X0259041Y0191924D01*
X0257240Y0191178D01*
X0255862Y0189799D01*
X0255116Y0187998D01*
X0255116Y0186049D01*
X0255369Y0185438D01*
X0237730Y0167800D01*
X0233770Y0167800D01*
X0248371Y0182401D01*
X0249041Y0182124D01*
X0250990Y0182124D01*
X0252791Y0182870D01*
X0254170Y0184248D01*
X0254916Y0186049D01*
X0254916Y0187998D01*
X0254170Y0189799D01*
X0252791Y0191178D01*
X0250990Y0191924D01*
X0249041Y0191924D01*
X0247240Y0191178D01*
X0245862Y0189799D01*
X0245116Y0187998D01*
X0245116Y0186049D01*
X0245398Y0185368D01*
X0231430Y0171400D01*
X0227470Y0171400D01*
X0238442Y0182372D01*
X0239041Y0182124D01*
X0240990Y0182124D01*
X0242791Y0182870D01*
X0244170Y0184248D01*
X0244916Y0186049D01*
X0244916Y0187998D01*
X0244170Y0189799D01*
X0242791Y0191178D01*
X0240990Y0191924D01*
X0239041Y0191924D01*
X0237240Y0191178D01*
X0235862Y0189799D01*
X0235116Y0187998D01*
X0235116Y0186049D01*
X0235427Y0185297D01*
X0224230Y0174100D01*
X0147682Y0174100D01*
X0147450Y0174332D01*
X0140219Y0174332D01*
X0139282Y0173395D01*
X0139282Y0151600D01*
X0112630Y0151600D01*
X0102718Y0141688D01*
X0102718Y0151037D01*
X0102795Y0151171D01*
X0102918Y0151629D01*
X0102918Y0152850D01*
X0098165Y0152850D01*
X0093413Y0152850D01*
X0093413Y0151629D01*
X0093535Y0151171D01*
X0093613Y0151037D01*
X0093613Y0141757D01*
X0031900Y0203470D01*
X0031900Y0279479D01*
X0039700Y0279479D01*
X0039700Y0250785D01*
X0039494Y0250700D01*
X0038200Y0249406D01*
X0037500Y0247715D01*
X0037500Y0239885D01*
X0038200Y0238194D01*
X0039494Y0236900D01*
X0039700Y0236815D01*
X0039700Y0225185D01*
X0039494Y0225100D01*
X0038200Y0223806D01*
X0037500Y0222115D01*
X0037500Y0214285D01*
X0038200Y0212594D01*
X0039494Y0211300D01*
X0041185Y0210600D01*
X0043015Y0210600D01*
X0044706Y0211300D01*
X0046000Y0212594D01*
X0046700Y0214285D01*
X0046700Y0222115D01*
X0046000Y0223806D01*
X0044706Y0225100D01*
X0044500Y0225185D01*
X0044500Y0236815D01*
X0044706Y0236900D01*
X0046000Y0238194D01*
X0046700Y0239885D01*
X0046700Y0247715D01*
X0046000Y0249406D01*
X0044706Y0250700D01*
X0044500Y0250785D01*
X0044500Y0279479D01*
X0048789Y0279479D01*
X0049726Y0280416D01*
X0049726Y0290500D01*
X0062274Y0290500D01*
X0062274Y0280416D01*
X0063211Y0279479D01*
X0068600Y0279479D01*
X0068600Y0268200D01*
X0068957Y0267339D01*
X0068600Y0266477D01*
X0068600Y0255894D01*
X0062956Y0250250D01*
X0062506Y0250700D01*
X0060815Y0251400D01*
X0058985Y0251400D01*
X0057294Y0250700D01*
X0056000Y0249406D01*
X0055300Y0247715D01*
X0055300Y0239885D01*
X0056000Y0238194D01*
X0057294Y0236900D01*
X0058300Y0236484D01*
X0058300Y0225516D01*
X0057294Y0225100D01*
X0056000Y0223806D01*
X0055300Y0222115D01*
X0055300Y0214285D01*
X0056000Y0212594D01*
X0057294Y0211300D01*
X0058985Y0210600D01*
X0060815Y0210600D01*
X0062506Y0211300D01*
X0063800Y0212594D01*
X0064500Y0214285D01*
X0064500Y0222115D01*
X0063800Y0223806D01*
X0062506Y0225100D01*
X0062500Y0225102D01*
X0062500Y0236898D01*
X0062506Y0236900D01*
X0063800Y0238194D01*
X0064500Y0239885D01*
X0064500Y0245006D01*
X0072359Y0252865D01*
X0073035Y0253541D01*
X0073400Y0254423D01*
X0073400Y0265006D01*
X0073698Y0265304D01*
X0074373Y0265979D01*
X0074739Y0266861D01*
X0074739Y0279479D01*
X0081466Y0279479D01*
X0082403Y0280416D01*
X0082403Y0283600D01*
X0085006Y0283600D01*
X0088088Y0280518D01*
X0088088Y0266537D01*
X0086676Y0266537D01*
X0085739Y0265600D01*
X0085739Y0256400D01*
X0086676Y0255463D01*
X0093400Y0255463D01*
X0093400Y0217568D01*
X0091875Y0218200D01*
X0090125Y0218200D01*
X0088508Y0217530D01*
X0087270Y0216292D01*
X0086600Y0214675D01*
X0086600Y0207325D01*
X0087270Y0205708D01*
X0088508Y0204470D01*
X0090125Y0203800D01*
X0091875Y0203800D01*
X0093492Y0204470D01*
X0094730Y0205708D01*
X0095400Y0207325D01*
X0095400Y0213030D01*
X0096400Y0214030D01*
X0096400Y0211100D01*
X0100900Y0211100D01*
X0100900Y0218400D01*
X0100638Y0218400D01*
X0099923Y0218287D01*
X0099234Y0218063D01*
X0098589Y0217734D01*
X0098003Y0217309D01*
X0097600Y0216905D01*
X0097600Y0255425D01*
X0097667Y0255386D01*
X0098125Y0255263D01*
X0100737Y0255263D01*
X0100737Y0260225D01*
X0102287Y0260225D01*
X0102287Y0261775D01*
X0106461Y0261775D01*
X0106461Y0264400D01*
X0198130Y0264400D01*
X0232900Y0229630D01*
X0232900Y0229070D01*
X0232689Y0229178D01*
X0232030Y0229392D01*
X0231346Y0229500D01*
X0231000Y0229500D01*
X0231000Y0222500D01*
X0231000Y0231000D01*
X0226000Y0236000D01*
X0206000Y0236000D01*
X0201000Y0231000D01*
X0201000Y0196039D01*
X0210016Y0187024D01*
X0210200Y0187208D02*
X0215116Y0187208D01*
X0215116Y0187425D01*
X0214990Y0188218D01*
X0214780Y0188866D01*
X0215271Y0188374D01*
X0215116Y0187998D01*
X0215116Y0186049D01*
X0215862Y0184248D01*
X0217240Y0182870D01*
X0219041Y0182124D01*
X0220990Y0182124D01*
X0222791Y0182870D01*
X0224170Y0184248D01*
X0224916Y0186049D01*
X0224916Y0187998D01*
X0224399Y0189247D01*
X0225271Y0188374D01*
X0225116Y0187998D01*
X0225116Y0186049D01*
X0225862Y0184248D01*
X0227240Y0182870D01*
X0229041Y0182124D01*
X0230990Y0182124D01*
X0232791Y0182870D01*
X0234170Y0184248D01*
X0234916Y0186049D01*
X0234916Y0187998D01*
X0234170Y0189799D01*
X0232791Y0191178D01*
X0230990Y0191924D01*
X0229041Y0191924D01*
X0228665Y0191768D01*
X0223400Y0197033D01*
X0223400Y0216360D01*
X0224561Y0217521D01*
X0224800Y0218099D01*
X0224800Y0217030D01*
X0227500Y0214330D01*
X0228730Y0213100D01*
X0233170Y0213100D01*
X0235870Y0215800D01*
X0237100Y0217030D01*
X0237100Y0231370D01*
X0201100Y0267370D01*
X0199870Y0268600D01*
X0097600Y0268600D01*
X0097600Y0280870D01*
X0096370Y0282100D01*
X0081970Y0296500D01*
X0028930Y0296500D01*
X0027700Y0295270D01*
X0025900Y0293470D01*
X0025900Y0200830D01*
X0027130Y0199600D01*
X0100030Y0126700D01*
X0117070Y0126700D01*
X0118300Y0127930D01*
X0118982Y0128613D01*
X0122418Y0128613D01*
X0160000Y0091030D01*
X0161230Y0089800D01*
X0278170Y0089800D01*
X0280485Y0092115D02*
X0496000Y0092115D01*
X0496000Y0093714D02*
X0282084Y0093714D01*
X0283682Y0095312D02*
X0496000Y0095312D01*
X0496000Y0096911D02*
X0285281Y0096911D01*
X0286879Y0098509D02*
X0496000Y0098509D01*
X0496000Y0100108D02*
X0288478Y0100108D01*
X0290076Y0101706D02*
X0496000Y0101706D01*
X0496000Y0103305D02*
X0291675Y0103305D01*
X0293273Y0104903D02*
X0496000Y0104903D01*
X0496000Y0106502D02*
X0294872Y0106502D01*
X0296470Y0108100D02*
X0496000Y0108100D01*
X0496000Y0109699D02*
X0298069Y0109699D01*
X0299667Y0111297D02*
X0496000Y0111297D01*
X0496000Y0112896D02*
X0301266Y0112896D01*
X0302864Y0114494D02*
X0496000Y0114494D01*
X0496000Y0116093D02*
X0304463Y0116093D01*
X0306061Y0117691D02*
X0496000Y0117691D01*
X0496000Y0119290D02*
X0307660Y0119290D01*
X0309258Y0120888D02*
X0496000Y0120888D01*
X0496000Y0122487D02*
X0310857Y0122487D01*
X0312455Y0124085D02*
X0496000Y0124085D01*
X0496000Y0125684D02*
X0314054Y0125684D01*
X0315652Y0127282D02*
X0496000Y0127282D01*
X0496000Y0128881D02*
X0317251Y0128881D01*
X0318849Y0130479D02*
X0496000Y0130479D01*
X0496000Y0132078D02*
X0320448Y0132078D01*
X0322046Y0133676D02*
X0496000Y0133676D01*
X0496000Y0135275D02*
X0323645Y0135275D01*
X0325243Y0136873D02*
X0496000Y0136873D01*
X0496000Y0138472D02*
X0326842Y0138472D01*
X0328440Y0140070D02*
X0496000Y0140070D01*
X0496000Y0141669D02*
X0330039Y0141669D01*
X0331637Y0143268D02*
X0496000Y0143268D01*
X0496000Y0144866D02*
X0333236Y0144866D01*
X0334834Y0146465D02*
X0496000Y0146465D01*
X0496000Y0148063D02*
X0336433Y0148063D01*
X0338031Y0149662D02*
X0496000Y0149662D01*
X0496000Y0151260D02*
X0339630Y0151260D01*
X0341228Y0152859D02*
X0496000Y0152859D01*
X0496000Y0154457D02*
X0342827Y0154457D01*
X0344425Y0156056D02*
X0496000Y0156056D01*
X0496000Y0157654D02*
X0346024Y0157654D01*
X0347622Y0159253D02*
X0496000Y0159253D01*
X0496000Y0160851D02*
X0349221Y0160851D01*
X0350819Y0162450D02*
X0496000Y0162450D01*
X0496000Y0164048D02*
X0352418Y0164048D01*
X0354017Y0165647D02*
X0496000Y0165647D01*
X0496000Y0167245D02*
X0355615Y0167245D01*
X0357214Y0168844D02*
X0496000Y0168844D01*
X0496000Y0170442D02*
X0358812Y0170442D01*
X0360411Y0172041D02*
X0496000Y0172041D01*
X0496000Y0173639D02*
X0362009Y0173639D01*
X0363608Y0175238D02*
X0496000Y0175238D01*
X0496000Y0176836D02*
X0365206Y0176836D01*
X0366805Y0178435D02*
X0478970Y0178435D01*
X0478131Y0178782D02*
X0481704Y0177302D01*
X0485571Y0177302D01*
X0489144Y0178782D01*
X0491879Y0181517D01*
X0493359Y0185090D01*
X0493359Y0188957D01*
X0491879Y0192530D01*
X0489144Y0195265D01*
X0485571Y0196745D01*
X0481704Y0196745D01*
X0478131Y0195265D01*
X0475397Y0192530D01*
X0473917Y0188957D01*
X0473917Y0185090D01*
X0475397Y0181517D01*
X0478131Y0178782D01*
X0476880Y0180033D02*
X0368403Y0180033D01*
X0370002Y0181632D02*
X0475349Y0181632D01*
X0474687Y0183230D02*
X0371200Y0183230D01*
X0371200Y0184829D02*
X0474025Y0184829D01*
X0473917Y0186427D02*
X0371200Y0186427D01*
X0371200Y0188026D02*
X0473917Y0188026D01*
X0474193Y0189624D02*
X0371200Y0189624D01*
X0370847Y0191223D02*
X0474855Y0191223D01*
X0475688Y0192821D02*
X0369248Y0192821D01*
X0367650Y0194420D02*
X0477286Y0194420D01*
X0479950Y0196018D02*
X0366051Y0196018D01*
X0364453Y0197617D02*
X0496000Y0197617D01*
X0496000Y0199215D02*
X0362854Y0199215D01*
X0361256Y0200814D02*
X0496000Y0200814D01*
X0496000Y0202412D02*
X0359657Y0202412D01*
X0308262Y0181632D02*
X0257502Y0181632D01*
X0255903Y0180033D02*
X0306663Y0180033D01*
X0305065Y0178435D02*
X0254305Y0178435D01*
X0252706Y0176836D02*
X0303466Y0176836D01*
X0301868Y0175238D02*
X0251108Y0175238D01*
X0249509Y0173639D02*
X0300269Y0173639D01*
X0298671Y0172041D02*
X0247911Y0172041D01*
X0246312Y0170442D02*
X0297072Y0170442D01*
X0295474Y0168844D02*
X0244714Y0168844D01*
X0243115Y0167245D02*
X0293875Y0167245D01*
X0292277Y0165647D02*
X0241517Y0165647D01*
X0239918Y0164048D02*
X0290678Y0164048D01*
X0289080Y0162450D02*
X0148387Y0162450D01*
X0148387Y0160851D02*
X0287481Y0160851D01*
X0285883Y0159253D02*
X0148387Y0159253D01*
X0148387Y0157654D02*
X0284284Y0157654D01*
X0282686Y0156056D02*
X0148387Y0156056D01*
X0148387Y0154457D02*
X0281087Y0154457D01*
X0279489Y0152859D02*
X0148387Y0152859D01*
X0148387Y0151260D02*
X0277890Y0151260D01*
X0276292Y0149662D02*
X0148387Y0149662D01*
X0148387Y0148063D02*
X0274693Y0148063D01*
X0273095Y0146465D02*
X0148387Y0146465D01*
X0139282Y0152859D02*
X0102918Y0152859D01*
X0102918Y0152850D02*
X0102918Y0154072D01*
X0102795Y0154529D01*
X0102718Y0154663D01*
X0102718Y0173395D01*
X0101781Y0174332D01*
X0094550Y0174332D01*
X0093613Y0173395D01*
X0093613Y0154663D01*
X0093535Y0154529D01*
X0093413Y0154072D01*
X0093413Y0152850D01*
X0098165Y0152850D01*
X0098165Y0152850D01*
X0098165Y0152850D01*
X0102918Y0152850D01*
X0102819Y0151260D02*
X0112290Y0151260D01*
X0110692Y0149662D02*
X0102718Y0149662D01*
X0102718Y0148063D02*
X0109093Y0148063D01*
X0107495Y0146465D02*
X0102718Y0146465D01*
X0102718Y0144866D02*
X0105896Y0144866D01*
X0104298Y0143268D02*
X0102718Y0143268D01*
X0093613Y0143268D02*
X0092102Y0143268D01*
X0093613Y0144866D02*
X0090504Y0144866D01*
X0088905Y0146465D02*
X0093613Y0146465D01*
X0093613Y0148063D02*
X0087307Y0148063D01*
X0085708Y0149662D02*
X0093613Y0149662D01*
X0093511Y0151260D02*
X0084110Y0151260D01*
X0082511Y0152859D02*
X0093413Y0152859D01*
X0093516Y0154457D02*
X0080913Y0154457D01*
X0079314Y0156056D02*
X0093613Y0156056D01*
X0093613Y0157654D02*
X0077716Y0157654D01*
X0076117Y0159253D02*
X0093613Y0159253D01*
X0093613Y0160851D02*
X0074519Y0160851D01*
X0072920Y0162450D02*
X0093613Y0162450D01*
X0093613Y0164048D02*
X0071322Y0164048D01*
X0069723Y0165647D02*
X0093613Y0165647D01*
X0093613Y0167245D02*
X0068125Y0167245D01*
X0066526Y0168844D02*
X0093613Y0168844D01*
X0093613Y0170442D02*
X0064928Y0170442D01*
X0063329Y0172041D02*
X0093613Y0172041D01*
X0093857Y0173639D02*
X0061731Y0173639D01*
X0060132Y0175238D02*
X0102668Y0175238D01*
X0102668Y0175219D02*
X0103605Y0174282D01*
X0119187Y0174282D01*
X0119321Y0174205D01*
X0119779Y0174082D01*
X0121000Y0174082D01*
X0122221Y0174082D01*
X0122575Y0174177D01*
X0122928Y0174082D01*
X0124150Y0174082D01*
X0125371Y0174082D01*
X0125829Y0174205D01*
X0125963Y0174282D01*
X0138395Y0174282D01*
X0139332Y0175219D01*
X0139332Y0182450D01*
X0138395Y0183387D01*
X0133400Y0183387D01*
X0133400Y0185006D01*
X0137359Y0188965D01*
X0138035Y0189641D01*
X0138400Y0190523D01*
X0138400Y0212460D01*
X0139561Y0213621D01*
X0140200Y0215165D01*
X0140200Y0216806D01*
X0143035Y0219641D01*
X0143400Y0220523D01*
X0143400Y0235542D01*
X0145600Y0235542D01*
X0146537Y0236479D01*
X0146537Y0243710D01*
X0145600Y0244647D01*
X0136400Y0244647D01*
X0135463Y0243710D01*
X0135463Y0236479D01*
X0136400Y0235542D01*
X0138600Y0235542D01*
X0138600Y0221994D01*
X0136806Y0220200D01*
X0135165Y0220200D01*
X0133621Y0219561D01*
X0132439Y0218379D01*
X0131800Y0216835D01*
X0131800Y0215165D01*
X0132439Y0213621D01*
X0133600Y0212460D01*
X0133600Y0191994D01*
X0129100Y0187494D01*
X0129100Y0213160D01*
X0129561Y0213621D01*
X0130200Y0215165D01*
X0130200Y0216835D01*
X0129561Y0218379D01*
X0128379Y0219561D01*
X0126835Y0220200D01*
X0125194Y0220200D01*
X0123400Y0221994D01*
X0123400Y0235542D01*
X0125600Y0235542D01*
X0126537Y0236479D01*
X0126537Y0243710D01*
X0125600Y0244647D01*
X0116400Y0244647D01*
X0115463Y0243710D01*
X0115463Y0236479D01*
X0116400Y0235542D01*
X0118600Y0235542D01*
X0118600Y0220523D01*
X0118965Y0219641D01*
X0119641Y0218965D01*
X0121800Y0216806D01*
X0121800Y0215165D01*
X0122439Y0213621D01*
X0123621Y0212439D01*
X0124900Y0211910D01*
X0124900Y0183587D01*
X0124150Y0183587D01*
X0124150Y0178835D01*
X0124150Y0178835D01*
X0124150Y0183587D01*
X0122928Y0183587D01*
X0122575Y0183493D01*
X0122221Y0183587D01*
X0121000Y0183587D01*
X0119779Y0183587D01*
X0119321Y0183465D01*
X0119187Y0183387D01*
X0103605Y0183387D01*
X0102668Y0182450D01*
X0102668Y0175219D01*
X0102474Y0173639D02*
X0139526Y0173639D01*
X0139332Y0175238D02*
X0225368Y0175238D01*
X0226966Y0176836D02*
X0139332Y0176836D01*
X0139332Y0178435D02*
X0183695Y0178435D01*
X0182856Y0178782D02*
X0186429Y0177302D01*
X0190296Y0177302D01*
X0193869Y0178782D01*
X0196603Y0181517D01*
X0198083Y0185090D01*
X0198083Y0188957D01*
X0196603Y0192530D01*
X0193869Y0195265D01*
X0190296Y0196745D01*
X0186429Y0196745D01*
X0182856Y0195265D01*
X0180121Y0192530D01*
X0178641Y0188957D01*
X0178641Y0185090D01*
X0180121Y0181517D01*
X0182856Y0178782D01*
X0181605Y0180033D02*
X0139332Y0180033D01*
X0139332Y0181632D02*
X0180073Y0181632D01*
X0179411Y0183230D02*
X0138552Y0183230D01*
X0134821Y0186427D02*
X0178641Y0186427D01*
X0178641Y0188026D02*
X0136420Y0188026D01*
X0138018Y0189624D02*
X0178917Y0189624D01*
X0179579Y0191223D02*
X0138400Y0191223D01*
X0138400Y0192821D02*
X0180412Y0192821D01*
X0182011Y0194420D02*
X0138400Y0194420D01*
X0138400Y0196018D02*
X0184675Y0196018D01*
X0192050Y0196018D02*
X0208600Y0196018D01*
X0208600Y0195562D02*
X0208965Y0194680D01*
X0211858Y0191788D01*
X0211210Y0191998D01*
X0210417Y0192124D01*
X0210200Y0192124D01*
X0210200Y0187208D01*
X0209831Y0187208D01*
X0209831Y0186839D01*
X0204916Y0186839D01*
X0204916Y0186622D01*
X0205041Y0185829D01*
X0205289Y0185066D01*
X0205654Y0184351D01*
X0206126Y0183701D01*
X0206693Y0183134D01*
X0207343Y0182662D01*
X0208058Y0182297D01*
X0208821Y0182049D01*
X0209614Y0181924D01*
X0209831Y0181924D01*
X0209831Y0186839D01*
X0210200Y0186839D01*
X0210200Y0181924D01*
X0210417Y0181924D01*
X0211210Y0182049D01*
X0211973Y0182297D01*
X0212689Y0182662D01*
X0213338Y0183134D01*
X0213906Y0183701D01*
X0214378Y0184351D01*
X0214742Y0185066D01*
X0214990Y0185829D01*
X0215116Y0186622D01*
X0215116Y0186839D01*
X0210200Y0186839D01*
X0210200Y0187208D01*
X0209831Y0187208D02*
X0209831Y0192124D01*
X0209614Y0192124D01*
X0208821Y0191998D01*
X0208058Y0191750D01*
X0207343Y0191386D01*
X0206693Y0190914D01*
X0206126Y0190346D01*
X0205654Y0189697D01*
X0205289Y0188981D01*
X0205041Y0188218D01*
X0204916Y0187425D01*
X0204916Y0187208D01*
X0209831Y0187208D01*
X0209831Y0186427D02*
X0210200Y0186427D01*
X0210200Y0184829D02*
X0209831Y0184829D01*
X0209831Y0183230D02*
X0210200Y0183230D01*
X0213435Y0183230D02*
X0216879Y0183230D01*
X0215621Y0184829D02*
X0214621Y0184829D01*
X0215085Y0186427D02*
X0215116Y0186427D01*
X0215127Y0188026D02*
X0215021Y0188026D01*
X0210200Y0188026D02*
X0209831Y0188026D01*
X0209831Y0189624D02*
X0210200Y0189624D01*
X0210200Y0191223D02*
X0209831Y0191223D01*
X0210824Y0192821D02*
X0196312Y0192821D01*
X0197145Y0191223D02*
X0207119Y0191223D01*
X0205617Y0189624D02*
X0197807Y0189624D01*
X0198083Y0188026D02*
X0205011Y0188026D01*
X0204947Y0186427D02*
X0198083Y0186427D01*
X0197975Y0184829D02*
X0205410Y0184829D01*
X0206597Y0183230D02*
X0197313Y0183230D01*
X0196651Y0181632D02*
X0231762Y0181632D01*
X0233152Y0183230D02*
X0233360Y0183230D01*
X0234410Y0184829D02*
X0234959Y0184829D01*
X0234916Y0186427D02*
X0235116Y0186427D01*
X0235127Y0188026D02*
X0234904Y0188026D01*
X0234242Y0189624D02*
X0235789Y0189624D01*
X0237349Y0191223D02*
X0232682Y0191223D01*
X0230016Y0187024D02*
X0221000Y0196039D01*
X0221000Y0222500D01*
X0215119Y0227989D02*
X0214051Y0227989D01*
X0214561Y0227479D02*
X0213379Y0228661D01*
X0211835Y0229300D01*
X0210165Y0229300D01*
X0208621Y0228661D01*
X0207439Y0227479D01*
X0206800Y0225935D01*
X0206800Y0219065D01*
X0207439Y0217521D01*
X0208600Y0216360D01*
X0208600Y0195562D01*
X0209225Y0194420D02*
X0194714Y0194420D01*
X0208600Y0197617D02*
X0138400Y0197617D01*
X0138400Y0199215D02*
X0208600Y0199215D01*
X0208600Y0200814D02*
X0138400Y0200814D01*
X0138400Y0202412D02*
X0208600Y0202412D01*
X0208600Y0204011D02*
X0138400Y0204011D01*
X0138400Y0205609D02*
X0208600Y0205609D01*
X0208600Y0207208D02*
X0138400Y0207208D01*
X0138400Y0208806D02*
X0208600Y0208806D01*
X0208600Y0210405D02*
X0138400Y0210405D01*
X0138400Y0212003D02*
X0208600Y0212003D01*
X0208600Y0213602D02*
X0139542Y0213602D01*
X0140200Y0215201D02*
X0208600Y0215201D01*
X0208161Y0216799D02*
X0140200Y0216799D01*
X0141792Y0218398D02*
X0207076Y0218398D01*
X0206800Y0219996D02*
X0143182Y0219996D01*
X0143400Y0221595D02*
X0206800Y0221595D01*
X0206800Y0223193D02*
X0143400Y0223193D01*
X0143400Y0224792D02*
X0206800Y0224792D01*
X0206988Y0226390D02*
X0143400Y0226390D01*
X0143400Y0227989D02*
X0207949Y0227989D01*
X0211000Y0222500D02*
X0211000Y0196039D01*
X0220016Y0187024D01*
X0221000Y0186039D01*
X0221000Y0186000D01*
X0223152Y0183230D02*
X0226879Y0183230D01*
X0225621Y0184829D02*
X0224410Y0184829D01*
X0224916Y0186427D02*
X0225116Y0186427D01*
X0225127Y0188026D02*
X0224904Y0188026D01*
X0227612Y0192821D02*
X0272652Y0192821D01*
X0274250Y0194420D02*
X0226014Y0194420D01*
X0224415Y0196018D02*
X0275849Y0196018D01*
X0277447Y0197617D02*
X0223400Y0197617D01*
X0223400Y0199215D02*
X0279046Y0199215D01*
X0280644Y0200814D02*
X0223400Y0200814D01*
X0223400Y0202412D02*
X0282243Y0202412D01*
X0283387Y0197617D02*
X0288247Y0197617D01*
X0286649Y0196018D02*
X0281788Y0196018D01*
X0280190Y0194420D02*
X0285050Y0194420D01*
X0283452Y0192821D02*
X0278591Y0192821D01*
X0277349Y0191223D02*
X0276993Y0191223D01*
X0275789Y0189624D02*
X0275394Y0189624D01*
X0275127Y0188026D02*
X0274904Y0188026D01*
X0274916Y0186427D02*
X0275116Y0186427D01*
X0275621Y0184829D02*
X0274410Y0184829D01*
X0273152Y0183230D02*
X0276879Y0183230D01*
X0283152Y0183230D02*
X0286879Y0183230D01*
X0285621Y0184829D02*
X0284410Y0184829D01*
X0284916Y0186427D02*
X0285116Y0186427D01*
X0285127Y0188026D02*
X0284904Y0188026D01*
X0293152Y0183230D02*
X0296879Y0183230D01*
X0295621Y0184829D02*
X0294410Y0184829D01*
X0294916Y0186427D02*
X0295116Y0186427D01*
X0295127Y0188026D02*
X0294904Y0188026D01*
X0303152Y0183230D02*
X0306879Y0183230D01*
X0305621Y0184829D02*
X0304410Y0184829D01*
X0304916Y0186427D02*
X0305116Y0186427D01*
X0305127Y0188026D02*
X0304904Y0188026D01*
X0267349Y0191223D02*
X0262682Y0191223D01*
X0264242Y0189624D02*
X0265789Y0189624D01*
X0265127Y0188026D02*
X0264904Y0188026D01*
X0264916Y0186427D02*
X0265116Y0186427D01*
X0265621Y0184829D02*
X0264410Y0184829D01*
X0263152Y0183230D02*
X0266879Y0183230D01*
X0255116Y0186427D02*
X0254916Y0186427D01*
X0254904Y0188026D02*
X0255127Y0188026D01*
X0255789Y0189624D02*
X0254242Y0189624D01*
X0252682Y0191223D02*
X0257349Y0191223D01*
X0254759Y0184829D02*
X0254410Y0184829D01*
X0253160Y0183230D02*
X0253152Y0183230D01*
X0251562Y0181632D02*
X0247602Y0181632D01*
X0246003Y0180033D02*
X0249963Y0180033D01*
X0248365Y0178435D02*
X0244405Y0178435D01*
X0242806Y0176836D02*
X0246766Y0176836D01*
X0245168Y0175238D02*
X0241208Y0175238D01*
X0239609Y0173639D02*
X0243569Y0173639D01*
X0241971Y0172041D02*
X0238011Y0172041D01*
X0236412Y0170442D02*
X0240372Y0170442D01*
X0238774Y0168844D02*
X0234814Y0168844D01*
X0232071Y0172041D02*
X0228111Y0172041D01*
X0229709Y0173639D02*
X0233669Y0173639D01*
X0235268Y0175238D02*
X0231308Y0175238D01*
X0232906Y0176836D02*
X0236866Y0176836D01*
X0238465Y0178435D02*
X0234505Y0178435D01*
X0236103Y0180033D02*
X0240063Y0180033D01*
X0241662Y0181632D02*
X0237702Y0181632D01*
X0243152Y0183230D02*
X0243260Y0183230D01*
X0244410Y0184829D02*
X0244859Y0184829D01*
X0244916Y0186427D02*
X0245116Y0186427D01*
X0245127Y0188026D02*
X0244904Y0188026D01*
X0244242Y0189624D02*
X0245789Y0189624D01*
X0247349Y0191223D02*
X0242682Y0191223D01*
X0230163Y0180033D02*
X0195120Y0180033D01*
X0193030Y0178435D02*
X0228565Y0178435D01*
X0223400Y0204011D02*
X0496000Y0204011D01*
X0496000Y0205609D02*
X0223400Y0205609D01*
X0223400Y0207208D02*
X0496000Y0207208D01*
X0496000Y0208806D02*
X0223400Y0208806D01*
X0223400Y0210405D02*
X0496000Y0210405D01*
X0496000Y0212003D02*
X0223400Y0212003D01*
X0223400Y0213602D02*
X0228228Y0213602D01*
X0226630Y0215201D02*
X0223400Y0215201D01*
X0223839Y0216799D02*
X0225031Y0216799D01*
X0231000Y0222500D02*
X0231000Y0229500D01*
X0230654Y0229500D01*
X0229970Y0229392D01*
X0229311Y0229178D01*
X0228694Y0228863D01*
X0228134Y0228456D01*
X0227644Y0227966D01*
X0227374Y0227595D01*
X0223270Y0231700D01*
X0218830Y0231700D01*
X0217600Y0230470D01*
X0214575Y0227445D01*
X0214561Y0227479D01*
X0216717Y0229587D02*
X0143400Y0229587D01*
X0143400Y0231186D02*
X0218316Y0231186D01*
X0223784Y0231186D02*
X0231345Y0231186D01*
X0232900Y0229587D02*
X0225383Y0229587D01*
X0226981Y0227989D02*
X0227666Y0227989D01*
X0231000Y0227989D02*
X0231000Y0227989D01*
X0231000Y0226390D02*
X0231000Y0226390D01*
X0231000Y0224792D02*
X0231000Y0224792D01*
X0231000Y0223193D02*
X0231000Y0223193D01*
X0231000Y0222500D02*
X0231000Y0222500D01*
X0237100Y0223193D02*
X0496000Y0223193D01*
X0496000Y0221595D02*
X0237100Y0221595D01*
X0237100Y0219996D02*
X0496000Y0219996D01*
X0496000Y0218398D02*
X0237100Y0218398D01*
X0236869Y0216799D02*
X0496000Y0216799D01*
X0496000Y0215201D02*
X0235270Y0215201D01*
X0233672Y0213602D02*
X0496000Y0213602D01*
X0496000Y0224792D02*
X0237100Y0224792D01*
X0237100Y0226390D02*
X0496000Y0226390D01*
X0496000Y0227989D02*
X0237100Y0227989D01*
X0237100Y0229587D02*
X0496000Y0229587D01*
X0496000Y0231186D02*
X0237100Y0231186D01*
X0235686Y0232784D02*
X0496000Y0232784D01*
X0496000Y0234383D02*
X0234087Y0234383D01*
X0232489Y0235981D02*
X0496000Y0235981D01*
X0496000Y0237580D02*
X0230890Y0237580D01*
X0229292Y0239178D02*
X0496000Y0239178D01*
X0496000Y0240777D02*
X0227693Y0240777D01*
X0226095Y0242375D02*
X0496000Y0242375D01*
X0496000Y0243974D02*
X0224496Y0243974D01*
X0222898Y0245572D02*
X0496000Y0245572D01*
X0496000Y0247171D02*
X0221299Y0247171D01*
X0219701Y0248769D02*
X0496000Y0248769D01*
X0496000Y0250368D02*
X0218102Y0250368D01*
X0216504Y0251966D02*
X0496000Y0251966D01*
X0496000Y0253565D02*
X0214905Y0253565D01*
X0213307Y0255163D02*
X0496000Y0255163D01*
X0496000Y0256762D02*
X0211708Y0256762D01*
X0210110Y0258360D02*
X0496000Y0258360D01*
X0496000Y0259959D02*
X0208511Y0259959D01*
X0206912Y0261557D02*
X0496000Y0261557D01*
X0496000Y0263156D02*
X0205314Y0263156D01*
X0203715Y0264754D02*
X0496000Y0264754D01*
X0496000Y0266353D02*
X0202117Y0266353D01*
X0200518Y0267951D02*
X0496000Y0267951D01*
X0496000Y0269550D02*
X0097600Y0269550D01*
X0097600Y0271148D02*
X0496000Y0271148D01*
X0496000Y0272747D02*
X0097600Y0272747D01*
X0097600Y0274345D02*
X0496000Y0274345D01*
X0496000Y0275944D02*
X0097600Y0275944D01*
X0097600Y0277542D02*
X0496000Y0277542D01*
X0496000Y0279141D02*
X0097600Y0279141D01*
X0097600Y0280739D02*
X0496000Y0280739D01*
X0496000Y0282338D02*
X0096132Y0282338D01*
X0094533Y0283937D02*
X0496000Y0283937D01*
X0496000Y0285535D02*
X0092935Y0285535D01*
X0091336Y0287134D02*
X0496000Y0287134D01*
X0496000Y0288732D02*
X0089738Y0288732D01*
X0088139Y0290331D02*
X0496000Y0290331D01*
X0496000Y0291929D02*
X0086541Y0291929D01*
X0084942Y0293528D02*
X0496000Y0293528D01*
X0496000Y0295126D02*
X0083344Y0295126D01*
X0086000Y0286000D02*
X0072339Y0286000D01*
X0071000Y0286000D01*
X0071000Y0268677D01*
X0072339Y0267339D01*
X0072339Y0286000D01*
X0074739Y0279141D02*
X0088088Y0279141D01*
X0088088Y0277542D02*
X0074739Y0277542D01*
X0074739Y0275944D02*
X0088088Y0275944D01*
X0088088Y0274345D02*
X0074739Y0274345D01*
X0074739Y0272747D02*
X0088088Y0272747D01*
X0088088Y0271148D02*
X0074739Y0271148D01*
X0074739Y0269550D02*
X0088088Y0269550D01*
X0088088Y0267951D02*
X0074739Y0267951D01*
X0074528Y0266353D02*
X0086492Y0266353D01*
X0085739Y0264754D02*
X0073400Y0264754D01*
X0073400Y0263156D02*
X0085739Y0263156D01*
X0085739Y0261557D02*
X0073400Y0261557D01*
X0073400Y0259959D02*
X0085739Y0259959D01*
X0085739Y0258360D02*
X0073400Y0258360D01*
X0073400Y0256762D02*
X0085739Y0256762D01*
X0090488Y0261000D02*
X0090488Y0280488D01*
X0091000Y0281000D01*
X0086000Y0286000D01*
X0086268Y0282338D02*
X0082403Y0282338D01*
X0082403Y0280739D02*
X0087866Y0280739D01*
X0068600Y0279141D02*
X0044500Y0279141D01*
X0044500Y0277542D02*
X0068600Y0277542D01*
X0068600Y0275944D02*
X0044500Y0275944D01*
X0044500Y0274345D02*
X0068600Y0274345D01*
X0068600Y0272747D02*
X0044500Y0272747D01*
X0044500Y0271148D02*
X0068600Y0271148D01*
X0068600Y0269550D02*
X0044500Y0269550D01*
X0044500Y0267951D02*
X0068703Y0267951D01*
X0068600Y0266353D02*
X0044500Y0266353D01*
X0044500Y0264754D02*
X0068600Y0264754D01*
X0068600Y0263156D02*
X0044500Y0263156D01*
X0044500Y0261557D02*
X0068600Y0261557D01*
X0068600Y0259959D02*
X0044500Y0259959D01*
X0044500Y0258360D02*
X0068600Y0258360D01*
X0068600Y0256762D02*
X0044500Y0256762D01*
X0044500Y0255163D02*
X0067869Y0255163D01*
X0066271Y0253565D02*
X0044500Y0253565D01*
X0044500Y0251966D02*
X0064672Y0251966D01*
X0063074Y0250368D02*
X0062838Y0250368D01*
X0066665Y0247171D02*
X0093400Y0247171D01*
X0093400Y0248769D02*
X0068263Y0248769D01*
X0069862Y0250368D02*
X0093400Y0250368D01*
X0093400Y0251966D02*
X0071460Y0251966D01*
X0073045Y0253565D02*
X0093400Y0253565D01*
X0093400Y0255163D02*
X0073400Y0255163D01*
X0071000Y0254900D02*
X0071000Y0266000D01*
X0072339Y0267339D01*
X0071000Y0254900D02*
X0059900Y0243800D01*
X0064500Y0243974D02*
X0093400Y0243974D01*
X0093400Y0245572D02*
X0065066Y0245572D01*
X0064500Y0242375D02*
X0093400Y0242375D01*
X0093400Y0240777D02*
X0064500Y0240777D01*
X0064207Y0239178D02*
X0093400Y0239178D01*
X0093400Y0237580D02*
X0063185Y0237580D01*
X0062500Y0235981D02*
X0093400Y0235981D01*
X0093400Y0234383D02*
X0062500Y0234383D01*
X0062500Y0232784D02*
X0093400Y0232784D01*
X0093400Y0231186D02*
X0062500Y0231186D01*
X0062500Y0229587D02*
X0093400Y0229587D01*
X0093400Y0227989D02*
X0062500Y0227989D01*
X0062500Y0226390D02*
X0093400Y0226390D01*
X0093400Y0224792D02*
X0062814Y0224792D01*
X0064053Y0223193D02*
X0093400Y0223193D01*
X0093400Y0221595D02*
X0064500Y0221595D01*
X0064500Y0219996D02*
X0093400Y0219996D01*
X0093400Y0218398D02*
X0064500Y0218398D01*
X0064500Y0216799D02*
X0087776Y0216799D01*
X0086818Y0215201D02*
X0064500Y0215201D01*
X0064217Y0213602D02*
X0086600Y0213602D01*
X0086600Y0212003D02*
X0063209Y0212003D01*
X0056591Y0212003D02*
X0045409Y0212003D01*
X0046417Y0213602D02*
X0055583Y0213602D01*
X0055300Y0215201D02*
X0046700Y0215201D01*
X0046700Y0216799D02*
X0055300Y0216799D01*
X0055300Y0218398D02*
X0046700Y0218398D01*
X0046700Y0219996D02*
X0055300Y0219996D01*
X0055300Y0221595D02*
X0046700Y0221595D01*
X0046253Y0223193D02*
X0055747Y0223193D01*
X0056986Y0224792D02*
X0045014Y0224792D01*
X0044500Y0226390D02*
X0058300Y0226390D01*
X0058300Y0227989D02*
X0044500Y0227989D01*
X0044500Y0229587D02*
X0058300Y0229587D01*
X0058300Y0231186D02*
X0044500Y0231186D01*
X0044500Y0232784D02*
X0058300Y0232784D01*
X0058300Y0234383D02*
X0044500Y0234383D01*
X0044500Y0235981D02*
X0058300Y0235981D01*
X0056615Y0237580D02*
X0045385Y0237580D01*
X0046407Y0239178D02*
X0055593Y0239178D01*
X0055300Y0240777D02*
X0046700Y0240777D01*
X0046700Y0242375D02*
X0055300Y0242375D01*
X0055300Y0243974D02*
X0046700Y0243974D01*
X0046700Y0245572D02*
X0055300Y0245572D01*
X0055300Y0247171D02*
X0046700Y0247171D01*
X0046263Y0248769D02*
X0055737Y0248769D01*
X0056962Y0250368D02*
X0045038Y0250368D01*
X0039700Y0251966D02*
X0031900Y0251966D01*
X0031900Y0250368D02*
X0039162Y0250368D01*
X0037937Y0248769D02*
X0031900Y0248769D01*
X0031900Y0247171D02*
X0037500Y0247171D01*
X0037500Y0245572D02*
X0031900Y0245572D01*
X0031900Y0243974D02*
X0037500Y0243974D01*
X0037500Y0242375D02*
X0031900Y0242375D01*
X0031900Y0240777D02*
X0037500Y0240777D01*
X0037793Y0239178D02*
X0031900Y0239178D01*
X0031900Y0237580D02*
X0038815Y0237580D01*
X0039700Y0235981D02*
X0031900Y0235981D01*
X0031900Y0234383D02*
X0039700Y0234383D01*
X0039700Y0232784D02*
X0031900Y0232784D01*
X0031900Y0231186D02*
X0039700Y0231186D01*
X0039700Y0229587D02*
X0031900Y0229587D01*
X0031900Y0227989D02*
X0039700Y0227989D01*
X0039700Y0226390D02*
X0031900Y0226390D01*
X0031900Y0224792D02*
X0039186Y0224792D01*
X0037947Y0223193D02*
X0031900Y0223193D01*
X0031900Y0221595D02*
X0037500Y0221595D01*
X0037500Y0219996D02*
X0031900Y0219996D01*
X0031900Y0218398D02*
X0037500Y0218398D01*
X0037500Y0216799D02*
X0031900Y0216799D01*
X0031900Y0215201D02*
X0037500Y0215201D01*
X0037783Y0213602D02*
X0031900Y0213602D01*
X0031900Y0212003D02*
X0038791Y0212003D01*
X0031900Y0210405D02*
X0086600Y0210405D01*
X0086600Y0208806D02*
X0031900Y0208806D01*
X0031900Y0207208D02*
X0086648Y0207208D01*
X0087368Y0205609D02*
X0031900Y0205609D01*
X0031900Y0204011D02*
X0089616Y0204011D01*
X0092384Y0204011D02*
X0099089Y0204011D01*
X0099234Y0203937D02*
X0099923Y0203713D01*
X0100638Y0203600D01*
X0100900Y0203600D01*
X0100900Y0210900D01*
X0101100Y0210900D01*
X0101100Y0211100D01*
X0100900Y0211100D01*
X0100900Y0210900D01*
X0096400Y0210900D01*
X0096400Y0207838D01*
X0096513Y0207123D01*
X0096737Y0206434D01*
X0097066Y0205789D01*
X0097491Y0205203D01*
X0098003Y0204691D01*
X0098589Y0204266D01*
X0099234Y0203937D01*
X0100900Y0204011D02*
X0101100Y0204011D01*
X0101100Y0203600D02*
X0101362Y0203600D01*
X0102077Y0203713D01*
X0102766Y0203937D01*
X0103411Y0204266D01*
X0103997Y0204691D01*
X0104509Y0205203D01*
X0104934Y0205789D01*
X0105263Y0206434D01*
X0105487Y0207123D01*
X0105600Y0207838D01*
X0105600Y0210900D01*
X0101100Y0210900D01*
X0101100Y0203600D01*
X0102911Y0204011D02*
X0124900Y0204011D01*
X0124900Y0205609D02*
X0104804Y0205609D01*
X0105500Y0207208D02*
X0124900Y0207208D01*
X0124900Y0208806D02*
X0105600Y0208806D01*
X0105600Y0210405D02*
X0124900Y0210405D01*
X0124673Y0212003D02*
X0105600Y0212003D01*
X0105600Y0211100D02*
X0105600Y0214162D01*
X0105487Y0214877D01*
X0105263Y0215566D01*
X0104934Y0216211D01*
X0104509Y0216797D01*
X0103997Y0217309D01*
X0103411Y0217734D01*
X0102766Y0218063D01*
X0102077Y0218287D01*
X0101362Y0218400D01*
X0101100Y0218400D01*
X0101100Y0211100D01*
X0105600Y0211100D01*
X0105600Y0213602D02*
X0122458Y0213602D01*
X0121800Y0215201D02*
X0105382Y0215201D01*
X0104506Y0216799D02*
X0121800Y0216799D01*
X0120208Y0218398D02*
X0101377Y0218398D01*
X0101100Y0218398D02*
X0100900Y0218398D01*
X0100623Y0218398D02*
X0097600Y0218398D01*
X0097600Y0219996D02*
X0118818Y0219996D01*
X0118600Y0221595D02*
X0097600Y0221595D01*
X0097600Y0223193D02*
X0118600Y0223193D01*
X0118600Y0224792D02*
X0097600Y0224792D01*
X0097600Y0226390D02*
X0118600Y0226390D01*
X0118600Y0227989D02*
X0097600Y0227989D01*
X0097600Y0229587D02*
X0118600Y0229587D01*
X0118600Y0231186D02*
X0097600Y0231186D01*
X0097600Y0232784D02*
X0118600Y0232784D01*
X0118600Y0234383D02*
X0097600Y0234383D01*
X0097600Y0235981D02*
X0115961Y0235981D01*
X0115463Y0237580D02*
X0097600Y0237580D01*
X0097600Y0239178D02*
X0115463Y0239178D01*
X0115463Y0240777D02*
X0097600Y0240777D01*
X0097600Y0242375D02*
X0115463Y0242375D01*
X0115727Y0243974D02*
X0097600Y0243974D01*
X0097600Y0245572D02*
X0216958Y0245572D01*
X0218556Y0243974D02*
X0146273Y0243974D01*
X0146537Y0242375D02*
X0220155Y0242375D01*
X0221753Y0240777D02*
X0146537Y0240777D01*
X0146537Y0239178D02*
X0223352Y0239178D01*
X0224950Y0237580D02*
X0146537Y0237580D01*
X0146039Y0235981D02*
X0226549Y0235981D01*
X0228147Y0234383D02*
X0143400Y0234383D01*
X0143400Y0232784D02*
X0229746Y0232784D01*
X0215359Y0247171D02*
X0145241Y0247171D01*
X0145174Y0247153D02*
X0145632Y0247275D01*
X0146042Y0247512D01*
X0146377Y0247848D01*
X0146614Y0248258D01*
X0146737Y0248716D01*
X0146737Y0251229D01*
X0141676Y0251229D01*
X0141676Y0247153D01*
X0145174Y0247153D01*
X0146737Y0248769D02*
X0213761Y0248769D01*
X0212162Y0250368D02*
X0146737Y0250368D01*
X0146737Y0252582D02*
X0141676Y0252582D01*
X0140324Y0252582D01*
X0140324Y0256658D01*
X0136826Y0256658D01*
X0136368Y0256536D01*
X0135958Y0256299D01*
X0135623Y0255963D01*
X0135386Y0255553D01*
X0135263Y0255095D01*
X0135263Y0252582D01*
X0140324Y0252582D01*
X0140324Y0251229D01*
X0141676Y0251229D01*
X0141676Y0252582D01*
X0141676Y0256658D01*
X0145174Y0256658D01*
X0145632Y0256536D01*
X0146042Y0256299D01*
X0146377Y0255963D01*
X0146614Y0255553D01*
X0146737Y0255095D01*
X0146737Y0252582D01*
X0146737Y0253565D02*
X0208965Y0253565D01*
X0207367Y0255163D02*
X0146719Y0255163D01*
X0141676Y0255163D02*
X0140324Y0255163D01*
X0140324Y0253565D02*
X0141676Y0253565D01*
X0141676Y0251966D02*
X0210564Y0251966D01*
X0205768Y0256762D02*
X0106444Y0256762D01*
X0106461Y0256826D02*
X0106461Y0260225D01*
X0102287Y0260225D01*
X0102287Y0255263D01*
X0104898Y0255263D01*
X0105356Y0255386D01*
X0105767Y0255623D01*
X0106102Y0255958D01*
X0106339Y0256368D01*
X0106461Y0256826D01*
X0106461Y0258360D02*
X0204170Y0258360D01*
X0202571Y0259959D02*
X0106461Y0259959D01*
X0106461Y0263156D02*
X0199374Y0263156D01*
X0200973Y0261557D02*
X0102287Y0261557D01*
X0101512Y0261000D02*
X0131906Y0261000D01*
X0141000Y0251906D01*
X0121000Y0251906D01*
X0111000Y0241906D01*
X0111000Y0226000D01*
X0101000Y0216000D01*
X0101000Y0211000D01*
X0100900Y0210405D02*
X0101100Y0210405D01*
X0101100Y0212003D02*
X0100900Y0212003D01*
X0100900Y0213602D02*
X0101100Y0213602D01*
X0101100Y0215201D02*
X0100900Y0215201D01*
X0100900Y0216799D02*
X0101100Y0216799D01*
X0096400Y0213602D02*
X0095972Y0213602D01*
X0096400Y0212003D02*
X0095400Y0212003D01*
X0095400Y0210405D02*
X0096400Y0210405D01*
X0096400Y0208806D02*
X0095400Y0208806D01*
X0095352Y0207208D02*
X0096500Y0207208D01*
X0097196Y0205609D02*
X0094632Y0205609D01*
X0100900Y0205609D02*
X0101100Y0205609D01*
X0101100Y0207208D02*
X0100900Y0207208D01*
X0100900Y0208806D02*
X0101100Y0208806D01*
X0121000Y0221000D02*
X0121000Y0240094D01*
X0126039Y0235981D02*
X0135961Y0235981D01*
X0135463Y0237580D02*
X0126537Y0237580D01*
X0126537Y0239178D02*
X0135463Y0239178D01*
X0135463Y0240777D02*
X0126537Y0240777D01*
X0126537Y0242375D02*
X0135463Y0242375D01*
X0135727Y0243974D02*
X0126273Y0243974D01*
X0125241Y0247171D02*
X0136759Y0247171D01*
X0136826Y0247153D02*
X0140324Y0247153D01*
X0140324Y0251229D01*
X0135263Y0251229D01*
X0135263Y0248716D01*
X0135386Y0248258D01*
X0135623Y0247848D01*
X0135958Y0247512D01*
X0136368Y0247275D01*
X0136826Y0247153D01*
X0135263Y0248769D02*
X0126737Y0248769D01*
X0126737Y0248716D02*
X0126737Y0251229D01*
X0121676Y0251229D01*
X0121676Y0247153D01*
X0125174Y0247153D01*
X0125632Y0247275D01*
X0126042Y0247512D01*
X0126377Y0247848D01*
X0126614Y0248258D01*
X0126737Y0248716D01*
X0126737Y0250368D02*
X0135263Y0250368D01*
X0135263Y0253565D02*
X0126737Y0253565D01*
X0126737Y0252582D02*
X0126737Y0255095D01*
X0126614Y0255553D01*
X0126377Y0255963D01*
X0126042Y0256299D01*
X0125632Y0256536D01*
X0125174Y0256658D01*
X0121676Y0256658D01*
X0121676Y0252582D01*
X0120324Y0252582D01*
X0120324Y0256658D01*
X0116826Y0256658D01*
X0116368Y0256536D01*
X0115958Y0256299D01*
X0115623Y0255963D01*
X0115386Y0255553D01*
X0115263Y0255095D01*
X0115263Y0252582D01*
X0120324Y0252582D01*
X0120324Y0251229D01*
X0121676Y0251229D01*
X0121676Y0252582D01*
X0126737Y0252582D01*
X0126719Y0255163D02*
X0135281Y0255163D01*
X0140324Y0251966D02*
X0121676Y0251966D01*
X0120324Y0251966D02*
X0097600Y0251966D01*
X0097600Y0250368D02*
X0115263Y0250368D01*
X0115263Y0251229D02*
X0115263Y0248716D01*
X0115386Y0248258D01*
X0115623Y0247848D01*
X0115958Y0247512D01*
X0116368Y0247275D01*
X0116826Y0247153D01*
X0120324Y0247153D01*
X0120324Y0251229D01*
X0115263Y0251229D01*
X0115263Y0253565D02*
X0097600Y0253565D01*
X0097600Y0255163D02*
X0115281Y0255163D01*
X0120324Y0255163D02*
X0121676Y0255163D01*
X0121676Y0253565D02*
X0120324Y0253565D01*
X0120324Y0250368D02*
X0121676Y0250368D01*
X0121676Y0248769D02*
X0120324Y0248769D01*
X0120324Y0247171D02*
X0121676Y0247171D01*
X0116759Y0247171D02*
X0097600Y0247171D01*
X0097600Y0248769D02*
X0115263Y0248769D01*
X0102287Y0256762D02*
X0100737Y0256762D01*
X0100737Y0258360D02*
X0102287Y0258360D01*
X0102287Y0259959D02*
X0100737Y0259959D01*
X0062274Y0280739D02*
X0049726Y0280739D01*
X0049726Y0282338D02*
X0062274Y0282338D01*
X0062274Y0283937D02*
X0049726Y0283937D01*
X0049726Y0285535D02*
X0062274Y0285535D01*
X0062274Y0287134D02*
X0049726Y0287134D01*
X0049726Y0288732D02*
X0062274Y0288732D01*
X0062274Y0290331D02*
X0049726Y0290331D01*
X0042100Y0283561D02*
X0042100Y0243800D01*
X0042100Y0218200D01*
X0025900Y0218398D02*
X0021000Y0218398D01*
X0021000Y0219996D02*
X0025900Y0219996D01*
X0025900Y0221595D02*
X0021000Y0221595D01*
X0021000Y0223193D02*
X0025900Y0223193D01*
X0025900Y0224792D02*
X0021000Y0224792D01*
X0021000Y0226390D02*
X0025900Y0226390D01*
X0025900Y0227989D02*
X0021000Y0227989D01*
X0021000Y0229587D02*
X0025900Y0229587D01*
X0025900Y0231186D02*
X0021000Y0231186D01*
X0021000Y0232784D02*
X0025900Y0232784D01*
X0025900Y0234383D02*
X0021000Y0234383D01*
X0021000Y0235981D02*
X0025900Y0235981D01*
X0025900Y0237580D02*
X0021000Y0237580D01*
X0021000Y0239178D02*
X0025900Y0239178D01*
X0025900Y0240777D02*
X0021000Y0240777D01*
X0021000Y0242375D02*
X0025900Y0242375D01*
X0025900Y0243974D02*
X0021000Y0243974D01*
X0021000Y0245572D02*
X0025900Y0245572D01*
X0025900Y0247171D02*
X0021000Y0247171D01*
X0021000Y0248769D02*
X0025900Y0248769D01*
X0025900Y0250368D02*
X0021000Y0250368D01*
X0021000Y0251966D02*
X0025900Y0251966D01*
X0025900Y0253565D02*
X0021000Y0253565D01*
X0021000Y0255163D02*
X0025900Y0255163D01*
X0025900Y0256762D02*
X0021000Y0256762D01*
X0021000Y0258360D02*
X0025900Y0258360D01*
X0025900Y0259959D02*
X0021000Y0259959D01*
X0021000Y0261557D02*
X0025900Y0261557D01*
X0025900Y0263156D02*
X0021000Y0263156D01*
X0021000Y0264754D02*
X0025900Y0264754D01*
X0025900Y0266353D02*
X0021000Y0266353D01*
X0021000Y0267951D02*
X0025900Y0267951D01*
X0025900Y0269550D02*
X0021000Y0269550D01*
X0021000Y0271148D02*
X0025900Y0271148D01*
X0025900Y0272747D02*
X0021000Y0272747D01*
X0021000Y0274345D02*
X0025900Y0274345D01*
X0025900Y0275944D02*
X0021000Y0275944D01*
X0021000Y0277542D02*
X0025900Y0277542D01*
X0025900Y0279141D02*
X0021000Y0279141D01*
X0021000Y0280739D02*
X0025900Y0280739D01*
X0025900Y0282338D02*
X0021000Y0282338D01*
X0021000Y0283937D02*
X0025900Y0283937D01*
X0025900Y0285535D02*
X0021000Y0285535D01*
X0021000Y0287134D02*
X0025900Y0287134D01*
X0025900Y0288732D02*
X0021000Y0288732D01*
X0021000Y0290331D02*
X0025900Y0290331D01*
X0025900Y0291929D02*
X0021000Y0291929D01*
X0021000Y0293528D02*
X0025958Y0293528D01*
X0027556Y0295126D02*
X0021000Y0295126D01*
X0021000Y0296725D02*
X0496000Y0296725D01*
X0496000Y0298323D02*
X0021000Y0298323D01*
X0021000Y0299922D02*
X0496000Y0299922D01*
X0496000Y0301520D02*
X0021000Y0301520D01*
X0021000Y0303119D02*
X0496000Y0303119D01*
X0496000Y0304717D02*
X0021000Y0304717D01*
X0039661Y0286000D02*
X0042100Y0283561D01*
X0039700Y0279141D02*
X0031900Y0279141D01*
X0031900Y0277542D02*
X0039700Y0277542D01*
X0039700Y0275944D02*
X0031900Y0275944D01*
X0031900Y0274345D02*
X0039700Y0274345D01*
X0039700Y0272747D02*
X0031900Y0272747D01*
X0031900Y0271148D02*
X0039700Y0271148D01*
X0039700Y0269550D02*
X0031900Y0269550D01*
X0031900Y0267951D02*
X0039700Y0267951D01*
X0039700Y0266353D02*
X0031900Y0266353D01*
X0031900Y0264754D02*
X0039700Y0264754D01*
X0039700Y0263156D02*
X0031900Y0263156D01*
X0031900Y0261557D02*
X0039700Y0261557D01*
X0039700Y0259959D02*
X0031900Y0259959D01*
X0031900Y0258360D02*
X0039700Y0258360D01*
X0039700Y0256762D02*
X0031900Y0256762D01*
X0031900Y0255163D02*
X0039700Y0255163D01*
X0039700Y0253565D02*
X0031900Y0253565D01*
X0041000Y0246000D02*
X0041000Y0244900D01*
X0042100Y0243800D01*
X0025900Y0216799D02*
X0021000Y0216799D01*
X0021000Y0215201D02*
X0025900Y0215201D01*
X0025900Y0213602D02*
X0021000Y0213602D01*
X0021000Y0212003D02*
X0025900Y0212003D01*
X0025900Y0210405D02*
X0021000Y0210405D01*
X0021000Y0208806D02*
X0025900Y0208806D01*
X0025900Y0207208D02*
X0021000Y0207208D01*
X0021000Y0205609D02*
X0025900Y0205609D01*
X0025900Y0204011D02*
X0021000Y0204011D01*
X0021000Y0202412D02*
X0025900Y0202412D01*
X0025916Y0200814D02*
X0021000Y0200814D01*
X0021000Y0199215D02*
X0027515Y0199215D01*
X0029113Y0197617D02*
X0021000Y0197617D01*
X0021000Y0196018D02*
X0030712Y0196018D01*
X0032310Y0194420D02*
X0021000Y0194420D01*
X0021000Y0192821D02*
X0033909Y0192821D01*
X0035507Y0191223D02*
X0021000Y0191223D01*
X0021000Y0189624D02*
X0037106Y0189624D01*
X0038704Y0188026D02*
X0021000Y0188026D01*
X0021000Y0186427D02*
X0040303Y0186427D01*
X0041901Y0184829D02*
X0021000Y0184829D01*
X0021000Y0183230D02*
X0043500Y0183230D01*
X0045098Y0181632D02*
X0021000Y0181632D01*
X0021000Y0180033D02*
X0046697Y0180033D01*
X0048295Y0178435D02*
X0021000Y0178435D01*
X0021000Y0176836D02*
X0049894Y0176836D01*
X0051492Y0175238D02*
X0021000Y0175238D01*
X0021000Y0173639D02*
X0053091Y0173639D01*
X0054689Y0172041D02*
X0021000Y0172041D01*
X0021000Y0170442D02*
X0056288Y0170442D01*
X0057886Y0168844D02*
X0021000Y0168844D01*
X0021000Y0167245D02*
X0059485Y0167245D01*
X0061083Y0165647D02*
X0021000Y0165647D01*
X0021000Y0164048D02*
X0062682Y0164048D01*
X0064280Y0162450D02*
X0021000Y0162450D01*
X0021000Y0160851D02*
X0065879Y0160851D01*
X0067478Y0159253D02*
X0021000Y0159253D01*
X0021000Y0157654D02*
X0069076Y0157654D01*
X0070675Y0156056D02*
X0021000Y0156056D01*
X0021000Y0154457D02*
X0072273Y0154457D01*
X0073872Y0152859D02*
X0021000Y0152859D01*
X0021000Y0151260D02*
X0075470Y0151260D01*
X0077069Y0149662D02*
X0021000Y0149662D01*
X0021000Y0148063D02*
X0078667Y0148063D01*
X0080266Y0146465D02*
X0021000Y0146465D01*
X0021000Y0144866D02*
X0081864Y0144866D01*
X0083463Y0143268D02*
X0021000Y0143268D01*
X0021000Y0141669D02*
X0085061Y0141669D01*
X0086660Y0140070D02*
X0021000Y0140070D01*
X0021000Y0138472D02*
X0088258Y0138472D01*
X0089857Y0136873D02*
X0021000Y0136873D01*
X0021000Y0135275D02*
X0091455Y0135275D01*
X0093054Y0133676D02*
X0021000Y0133676D01*
X0021000Y0132078D02*
X0094652Y0132078D01*
X0096251Y0130479D02*
X0021000Y0130479D01*
X0021000Y0128881D02*
X0097849Y0128881D01*
X0099448Y0127282D02*
X0021000Y0127282D01*
X0021000Y0125684D02*
X0125346Y0125684D01*
X0123748Y0127282D02*
X0117652Y0127282D01*
X0126945Y0124085D02*
X0021000Y0124085D01*
X0021000Y0122487D02*
X0128543Y0122487D01*
X0130142Y0120888D02*
X0021000Y0120888D01*
X0021000Y0119290D02*
X0131740Y0119290D01*
X0133339Y0117691D02*
X0021000Y0117691D01*
X0021000Y0116093D02*
X0134937Y0116093D01*
X0136536Y0114494D02*
X0021000Y0114494D01*
X0021000Y0112896D02*
X0138134Y0112896D01*
X0139733Y0111297D02*
X0021000Y0111297D01*
X0021000Y0109699D02*
X0141331Y0109699D01*
X0142930Y0108100D02*
X0021000Y0108100D01*
X0021000Y0106502D02*
X0144528Y0106502D01*
X0146127Y0104903D02*
X0021000Y0104903D01*
X0021000Y0103305D02*
X0147725Y0103305D01*
X0149324Y0101706D02*
X0021000Y0101706D01*
X0021000Y0100108D02*
X0150922Y0100108D01*
X0152521Y0098509D02*
X0021000Y0098509D01*
X0021000Y0096911D02*
X0154119Y0096911D01*
X0155718Y0095312D02*
X0021000Y0095312D01*
X0021000Y0093714D02*
X0157316Y0093714D01*
X0158915Y0092115D02*
X0021000Y0092115D01*
X0021000Y0090517D02*
X0160514Y0090517D01*
X0139282Y0154457D02*
X0102815Y0154457D01*
X0102718Y0156056D02*
X0139282Y0156056D01*
X0139282Y0157654D02*
X0102718Y0157654D01*
X0102718Y0159253D02*
X0139282Y0159253D01*
X0139282Y0160851D02*
X0102718Y0160851D01*
X0102718Y0162450D02*
X0139282Y0162450D01*
X0139282Y0164048D02*
X0102718Y0164048D01*
X0102718Y0165647D02*
X0139282Y0165647D01*
X0139282Y0167245D02*
X0102718Y0167245D01*
X0102718Y0168844D02*
X0139282Y0168844D01*
X0139282Y0170442D02*
X0102718Y0170442D01*
X0102718Y0172041D02*
X0139282Y0172041D01*
X0131000Y0179386D02*
X0131000Y0186000D01*
X0136000Y0191000D01*
X0136000Y0216000D01*
X0141000Y0221000D01*
X0141000Y0240094D01*
X0138600Y0234383D02*
X0123400Y0234383D01*
X0123400Y0232784D02*
X0138600Y0232784D01*
X0138600Y0231186D02*
X0123400Y0231186D01*
X0123400Y0229587D02*
X0138600Y0229587D01*
X0138600Y0227989D02*
X0123400Y0227989D01*
X0123400Y0226390D02*
X0138600Y0226390D01*
X0138600Y0224792D02*
X0123400Y0224792D01*
X0123400Y0223193D02*
X0138600Y0223193D01*
X0138200Y0221595D02*
X0123800Y0221595D01*
X0121000Y0221000D02*
X0126000Y0216000D01*
X0127328Y0219996D02*
X0134672Y0219996D01*
X0132458Y0218398D02*
X0129542Y0218398D01*
X0130200Y0216799D02*
X0131800Y0216799D01*
X0131800Y0215201D02*
X0130200Y0215201D01*
X0129542Y0213602D02*
X0132458Y0213602D01*
X0133600Y0212003D02*
X0129100Y0212003D01*
X0129100Y0210405D02*
X0133600Y0210405D01*
X0133600Y0208806D02*
X0129100Y0208806D01*
X0129100Y0207208D02*
X0133600Y0207208D01*
X0133600Y0205609D02*
X0129100Y0205609D01*
X0129100Y0204011D02*
X0133600Y0204011D01*
X0133600Y0202412D02*
X0129100Y0202412D01*
X0129100Y0200814D02*
X0133600Y0200814D01*
X0133600Y0199215D02*
X0129100Y0199215D01*
X0129100Y0197617D02*
X0133600Y0197617D01*
X0133600Y0196018D02*
X0129100Y0196018D01*
X0129100Y0194420D02*
X0133600Y0194420D01*
X0133600Y0192821D02*
X0129100Y0192821D01*
X0129100Y0191223D02*
X0132829Y0191223D01*
X0131230Y0189624D02*
X0129100Y0189624D01*
X0129100Y0188026D02*
X0129632Y0188026D01*
X0124900Y0188026D02*
X0047344Y0188026D01*
X0045745Y0189624D02*
X0124900Y0189624D01*
X0124900Y0191223D02*
X0044147Y0191223D01*
X0042548Y0192821D02*
X0124900Y0192821D01*
X0124900Y0194420D02*
X0040950Y0194420D01*
X0039351Y0196018D02*
X0124900Y0196018D01*
X0124900Y0197617D02*
X0037753Y0197617D01*
X0036154Y0199215D02*
X0124900Y0199215D01*
X0124900Y0200814D02*
X0034556Y0200814D01*
X0032957Y0202412D02*
X0124900Y0202412D01*
X0124900Y0186427D02*
X0048943Y0186427D01*
X0050541Y0184829D02*
X0124900Y0184829D01*
X0124150Y0183230D02*
X0124150Y0183230D01*
X0124150Y0181632D02*
X0124150Y0181632D01*
X0124150Y0180033D02*
X0124150Y0180033D01*
X0124149Y0178835D02*
X0124149Y0178835D01*
X0123784Y0178835D01*
X0121000Y0178835D01*
X0121000Y0183587D01*
X0121000Y0178835D01*
X0121000Y0178835D01*
X0121000Y0178835D01*
X0124149Y0178835D01*
X0124150Y0178835D02*
X0124150Y0178835D01*
X0124150Y0174082D01*
X0124150Y0178835D01*
X0124150Y0178435D02*
X0124150Y0178435D01*
X0124150Y0176836D02*
X0124150Y0176836D01*
X0124150Y0175238D02*
X0124150Y0175238D01*
X0121000Y0175238D02*
X0121000Y0175238D01*
X0121000Y0174082D02*
X0121000Y0178835D01*
X0121000Y0178835D01*
X0121000Y0174082D01*
X0121000Y0176836D02*
X0121000Y0176836D01*
X0121000Y0178435D02*
X0121000Y0178435D01*
X0121000Y0180033D02*
X0121000Y0180033D01*
X0121000Y0181632D02*
X0121000Y0181632D01*
X0121000Y0183230D02*
X0121000Y0183230D01*
X0130449Y0178835D02*
X0131000Y0179386D01*
X0133400Y0184829D02*
X0178749Y0184829D01*
X0103448Y0183230D02*
X0052140Y0183230D01*
X0053738Y0181632D02*
X0102668Y0181632D01*
X0102668Y0180033D02*
X0055337Y0180033D01*
X0056935Y0178435D02*
X0102668Y0178435D01*
X0102668Y0176836D02*
X0058534Y0176836D01*
X0140324Y0247171D02*
X0141676Y0247171D01*
X0141676Y0248769D02*
X0140324Y0248769D01*
X0140324Y0250368D02*
X0141676Y0250368D01*
X0487325Y0196018D02*
X0496000Y0196018D01*
X0496000Y0194420D02*
X0489989Y0194420D01*
X0491588Y0192821D02*
X0496000Y0192821D01*
X0496000Y0191223D02*
X0492421Y0191223D01*
X0493083Y0189624D02*
X0496000Y0189624D01*
X0496000Y0188026D02*
X0493359Y0188026D01*
X0493359Y0186427D02*
X0496000Y0186427D01*
X0496000Y0184829D02*
X0493251Y0184829D01*
X0492589Y0183230D02*
X0496000Y0183230D01*
X0496000Y0181632D02*
X0491927Y0181632D01*
X0490395Y0180033D02*
X0496000Y0180033D01*
X0496000Y0178435D02*
X0488305Y0178435D01*
D21*
X0369100Y0183700D02*
X0369100Y0190000D01*
X0358300Y0200800D01*
X0283600Y0200800D01*
X0270100Y0187300D01*
X0270016Y0187024D01*
X0280016Y0187024D02*
X0280900Y0187300D01*
X0292600Y0199000D01*
X0357400Y0199000D01*
X0367300Y0189100D01*
X0367300Y0184600D01*
X0276400Y0093700D01*
X0163900Y0093700D01*
X0127900Y0129700D01*
X0127900Y0132400D01*
X0127299Y0133165D01*
X0124300Y0132400D02*
X0124150Y0133165D01*
X0124300Y0132400D02*
X0124300Y0129700D01*
X0162100Y0091900D01*
X0277300Y0091900D01*
X0369100Y0183700D01*
X0365500Y0185500D02*
X0365500Y0188200D01*
X0356500Y0197200D01*
X0305200Y0197200D01*
X0299800Y0191800D01*
X0295300Y0191800D01*
X0290800Y0187300D01*
X0290016Y0187024D01*
X0300016Y0187024D02*
X0300700Y0187300D01*
X0308800Y0195400D01*
X0348400Y0195400D01*
X0354700Y0189100D01*
X0354700Y0184600D01*
X0267400Y0097300D01*
X0184600Y0097300D01*
X0155800Y0126100D01*
X0137800Y0126100D01*
X0134200Y0129700D01*
X0134200Y0132400D01*
X0133598Y0133165D01*
X0130600Y0132400D02*
X0130449Y0133165D01*
X0130600Y0132400D02*
X0130600Y0129700D01*
X0136000Y0124300D01*
X0154900Y0124300D01*
X0183700Y0095500D01*
X0275500Y0095500D01*
X0365500Y0185500D01*
X0344800Y0184600D02*
X0344800Y0189100D01*
X0340300Y0193600D01*
X0316900Y0193600D01*
X0310600Y0187300D01*
X0310016Y0187024D01*
X0315100Y0185500D02*
X0315100Y0189100D01*
X0317800Y0191800D01*
X0325000Y0191800D01*
X0329500Y0187300D01*
X0330016Y0187024D01*
X0339400Y0186400D02*
X0340016Y0187024D01*
X0339400Y0186400D02*
X0253900Y0100900D01*
X0186400Y0100900D01*
X0157600Y0129700D01*
X0148600Y0129700D01*
X0138700Y0139600D01*
X0138700Y0144100D01*
X0140500Y0145900D01*
X0143200Y0145900D01*
X0143835Y0146551D01*
X0144100Y0144100D02*
X0143835Y0143402D01*
X0144100Y0144100D02*
X0273700Y0144100D01*
X0315100Y0185500D01*
X0319600Y0186400D02*
X0320016Y0187024D01*
X0319600Y0186400D02*
X0273700Y0140500D01*
X0144100Y0140500D01*
X0143835Y0140252D01*
X0136748Y0133165D02*
X0136900Y0132400D01*
X0143200Y0132400D01*
X0147700Y0127900D01*
X0156700Y0127900D01*
X0185500Y0099100D01*
X0259300Y0099100D01*
X0344800Y0184600D01*
X0260016Y0187024D02*
X0259300Y0186400D01*
X0238600Y0165700D01*
X0144100Y0165700D01*
X0143835Y0165449D01*
X0143835Y0168598D02*
X0144100Y0169300D01*
X0232300Y0169300D01*
X0249400Y0186400D01*
X0250016Y0187024D01*
X0240016Y0187024D02*
X0239500Y0186400D01*
X0225100Y0172000D01*
X0144100Y0172000D01*
X0143835Y0171748D01*
X0127299Y0178835D02*
X0127000Y0179200D01*
X0127000Y0214300D01*
X0126100Y0215200D01*
X0126000Y0216000D01*
X0101800Y0210700D02*
X0101000Y0211000D01*
X0101800Y0210700D02*
X0120700Y0191800D01*
X0120700Y0179200D01*
X0121000Y0178835D01*
X0121600Y0179200D01*
X0123400Y0179200D01*
X0124150Y0178835D01*
X0121000Y0178835D02*
X0120700Y0178300D01*
X0120700Y0172000D01*
X0101800Y0153100D01*
X0098200Y0153100D01*
X0098165Y0152850D01*
X0101800Y0137800D02*
X0113500Y0149500D01*
X0143200Y0149500D01*
X0143835Y0149701D01*
X0117850Y0133165D02*
X0117100Y0132400D01*
X0117100Y0129700D01*
X0116200Y0128800D01*
X0100900Y0128800D01*
X0028000Y0201700D01*
X0028000Y0292600D01*
X0029800Y0294400D01*
X0081100Y0294400D01*
X0095500Y0280000D01*
X0095500Y0266500D01*
X0199000Y0266500D01*
X0235000Y0230500D01*
X0235000Y0217900D01*
X0232300Y0215200D01*
X0229600Y0215200D01*
X0226900Y0217900D01*
X0226900Y0225100D01*
X0222400Y0229600D01*
X0219700Y0229600D01*
X0213400Y0223300D01*
X0211600Y0223300D01*
X0211000Y0222500D01*
X0201000Y0231000D02*
X0200800Y0231400D01*
X0181000Y0251200D01*
X0141400Y0251200D01*
X0141000Y0251906D01*
X0095500Y0266500D02*
X0095500Y0216100D01*
X0091000Y0211600D01*
X0091000Y0211000D01*
X0060400Y0218800D02*
X0059900Y0218200D01*
X0060400Y0218800D02*
X0060400Y0243100D01*
X0059900Y0243800D01*
X0029800Y0202600D02*
X0029800Y0291700D01*
X0030700Y0292600D01*
X0064000Y0292600D01*
X0070300Y0286300D01*
X0072339Y0286000D01*
X0029800Y0202600D02*
X0094600Y0137800D01*
X0101800Y0137800D01*
M02*
